<?xml version="1.0" encoding="UTF-8" standalone="no"?>
<!DOCTYPE svg PUBLIC "-//W3C//DTD SVG 1.1//EN" "http://www.w3.org/Graphics/SVG/1.1/DTD/svg11.dtd">
<svg width="100%" height="100%" viewBox="0 0 1305 114" version="1.1" xmlns="http://www.w3.org/2000/svg" xmlns:xlink="http://www.w3.org/1999/xlink" xml:space="preserve" xmlns:serif="http://www.serif.com/" style="fill-rule:evenodd;clip-rule:evenodd;stroke-linejoin:round;stroke-miterlimit:2;">
    <g transform="matrix(1,0,0,1,-121.115,-249.47)">
        <g transform="matrix(1,0,0,1,14.5603,177.503)">
            <g transform="matrix(149.377,0,0,149.377,97,184)">
                <path d="M0.593,-0.222C0.585,-0.147 0.558,-0.09 0.513,-0.05C0.468,-0.01 0.407,0.01 0.332,0.01C0.279,0.01 0.232,-0.003 0.192,-0.03C0.151,-0.056 0.12,-0.094 0.098,-0.142C0.076,-0.19 0.064,-0.245 0.064,-0.308L0.064,-0.4C0.064,-0.463 0.075,-0.519 0.097,-0.568C0.119,-0.617 0.151,-0.654 0.193,-0.681C0.234,-0.707 0.282,-0.721 0.336,-0.721C0.412,-0.721 0.472,-0.7 0.516,-0.659C0.56,-0.618 0.586,-0.561 0.593,-0.489L0.533,-0.489C0.518,-0.61 0.452,-0.67 0.336,-0.67C0.271,-0.67 0.22,-0.646 0.182,-0.598C0.144,-0.549 0.125,-0.483 0.125,-0.398L0.125,-0.311C0.125,-0.229 0.143,-0.163 0.18,-0.114C0.218,-0.065 0.268,-0.041 0.332,-0.041C0.394,-0.041 0.442,-0.056 0.474,-0.086C0.506,-0.116 0.525,-0.161 0.533,-0.222L0.593,-0.222Z" style="fill:white;fill-rule:nonzero;"/>
            </g>
            <g transform="matrix(149.377,0,0,149.377,194.007,184)">
                <path d="M0.41,-0C0.404,-0.017 0.4,-0.041 0.398,-0.074C0.378,-0.047 0.352,-0.026 0.32,-0.012C0.288,0.003 0.255,0.01 0.219,0.01C0.168,0.01 0.127,-0.004 0.096,-0.033C0.065,-0.061 0.049,-0.097 0.049,-0.14C0.049,-0.192 0.07,-0.232 0.113,-0.262C0.156,-0.292 0.215,-0.307 0.292,-0.307L0.398,-0.307L0.398,-0.367C0.398,-0.405 0.386,-0.435 0.363,-0.456C0.34,-0.478 0.306,-0.489 0.261,-0.489C0.221,-0.489 0.187,-0.478 0.16,-0.458C0.133,-0.437 0.12,-0.412 0.12,-0.382L0.062,-0.383C0.062,-0.425 0.081,-0.461 0.12,-0.492C0.159,-0.523 0.207,-0.538 0.264,-0.538C0.323,-0.538 0.37,-0.523 0.404,-0.494C0.438,-0.464 0.455,-0.423 0.456,-0.371L0.456,-0.121C0.456,-0.069 0.461,-0.031 0.472,-0.006L0.472,-0L0.41,-0ZM0.226,-0.042C0.265,-0.042 0.3,-0.051 0.331,-0.07C0.362,-0.089 0.384,-0.114 0.398,-0.146L0.398,-0.262L0.293,-0.262C0.235,-0.262 0.19,-0.251 0.157,-0.23C0.124,-0.21 0.107,-0.181 0.107,-0.145C0.107,-0.115 0.118,-0.091 0.14,-0.071C0.162,-0.052 0.191,-0.042 0.226,-0.042Z" style="fill:white;fill-rule:nonzero;"/>
            </g>
            <g transform="matrix(149.377,0,0,149.377,274.02,184)">
                <path d="M0.32,-0.479C0.308,-0.481 0.295,-0.482 0.281,-0.482C0.244,-0.482 0.213,-0.472 0.188,-0.451C0.163,-0.431 0.145,-0.402 0.134,-0.363L0.134,-0L0.076,-0L0.076,-0.528L0.133,-0.528L0.134,-0.444C0.165,-0.507 0.215,-0.538 0.283,-0.538C0.299,-0.538 0.312,-0.536 0.322,-0.532L0.32,-0.479Z" style="fill:white;fill-rule:nonzero;"/>
            </g>
            <g transform="matrix(149.377,0,0,149.377,324.275,184)">
                <rect x="0.083" y="-0.75" width="0.059" height="0.75" style="fill:white;fill-rule:nonzero;"/>
            </g>
            <g transform="matrix(149.377,0,0,149.377,394.952,184)">
                <path d="M0.642,-0L0.496,-0L0.496,-0.305L0.21,-0.305L0.21,-0L0.063,-0L0.063,-0.711L0.21,-0.711L0.21,-0.423L0.496,-0.423L0.496,-0.711L0.642,-0.711L0.642,-0Z" style="fill:rgb(198,61,61);fill-rule:nonzero;"/>
            </g>
            <g transform="matrix(149.377,0,0,149.377,500.493,184)">
                <path d="M0.36,-0C0.354,-0.013 0.349,-0.028 0.346,-0.047C0.312,-0.009 0.268,0.01 0.213,0.01C0.161,0.01 0.118,-0.005 0.084,-0.035C0.05,-0.065 0.033,-0.103 0.033,-0.148C0.033,-0.204 0.054,-0.247 0.095,-0.277C0.137,-0.307 0.197,-0.322 0.275,-0.323L0.34,-0.323L0.34,-0.353C0.34,-0.377 0.334,-0.397 0.322,-0.412C0.309,-0.426 0.289,-0.434 0.262,-0.434C0.238,-0.434 0.22,-0.428 0.206,-0.417C0.193,-0.405 0.186,-0.389 0.186,-0.37L0.045,-0.37C0.045,-0.4 0.054,-0.429 0.073,-0.455C0.092,-0.481 0.119,-0.501 0.153,-0.516C0.188,-0.531 0.227,-0.538 0.27,-0.538C0.335,-0.538 0.386,-0.522 0.425,-0.489C0.463,-0.456 0.482,-0.41 0.482,-0.351L0.482,-0.122C0.482,-0.072 0.489,-0.034 0.503,-0.008L0.503,-0L0.36,-0ZM0.244,-0.098C0.264,-0.098 0.284,-0.103 0.301,-0.112C0.319,-0.121 0.332,-0.134 0.34,-0.149L0.34,-0.24L0.288,-0.24C0.217,-0.24 0.179,-0.216 0.175,-0.167L0.174,-0.159C0.174,-0.141 0.181,-0.127 0.193,-0.115C0.205,-0.104 0.222,-0.098 0.244,-0.098Z" style="fill:rgb(198,61,61);fill-rule:nonzero;"/>
            </g>
            <g transform="matrix(149.377,0,0,149.377,580.579,184)">
                <rect x="0.062" y="-0.75" width="0.142" height="0.75" style="fill:rgb(198,61,61);fill-rule:nonzero;"/>
            </g>
            <g transform="matrix(149.377,0,0,149.377,620.184,184)">
                <rect x="0.062" y="-0.75" width="0.142" height="0.75" style="fill:rgb(198,61,61);fill-rule:nonzero;"/>
            </g>
            <g transform="matrix(149.377,0,0,149.377,659.789,184)">
                <path d="M0.297,0.01C0.22,0.01 0.157,-0.014 0.108,-0.062C0.059,-0.109 0.035,-0.172 0.035,-0.251L0.035,-0.265C0.035,-0.318 0.045,-0.366 0.066,-0.407C0.086,-0.449 0.115,-0.482 0.153,-0.504C0.191,-0.527 0.234,-0.538 0.282,-0.538C0.354,-0.538 0.411,-0.515 0.452,-0.47C0.494,-0.424 0.515,-0.36 0.515,-0.276L0.515,-0.218L0.178,-0.218C0.183,-0.184 0.197,-0.156 0.219,-0.135C0.242,-0.114 0.271,-0.104 0.307,-0.104C0.361,-0.104 0.403,-0.124 0.434,-0.163L0.503,-0.085C0.482,-0.056 0.454,-0.032 0.417,-0.015C0.381,0.001 0.341,0.01 0.297,0.01ZM0.281,-0.424C0.253,-0.424 0.231,-0.415 0.213,-0.396C0.196,-0.377 0.185,-0.35 0.18,-0.314L0.376,-0.314L0.376,-0.326C0.375,-0.357 0.367,-0.381 0.351,-0.399C0.334,-0.416 0.311,-0.424 0.281,-0.424ZM0.294,-0.75L0.448,-0.75L0.313,-0.599L0.198,-0.599L0.294,-0.75Z" style="fill:rgb(198,61,61);fill-rule:nonzero;"/>
            </g>
            <g transform="matrix(149.377,0,0,149.377,740.532,184)">
                <path d="M0.184,-0.528L0.188,-0.467C0.226,-0.514 0.277,-0.538 0.34,-0.538C0.396,-0.538 0.438,-0.522 0.465,-0.489C0.493,-0.456 0.507,-0.407 0.507,-0.341L0.507,-0L0.366,-0L0.366,-0.338C0.366,-0.368 0.36,-0.39 0.347,-0.403C0.334,-0.417 0.312,-0.423 0.282,-0.423C0.242,-0.423 0.212,-0.406 0.192,-0.373L0.192,-0L0.051,-0L0.051,-0.528L0.184,-0.528Z" style="fill:rgb(198,61,61);fill-rule:nonzero;"/>
            </g>
            <g transform="matrix(149.377,0,0,149.377,861.39,184)">
                <path d="M0.404,-0.711L0.464,-0.711L0.464,-0.211C0.464,-0.144 0.445,-0.09 0.406,-0.05C0.367,-0.01 0.315,0.01 0.25,0.01C0.181,0.01 0.127,-0.008 0.09,-0.044C0.053,-0.081 0.035,-0.131 0.035,-0.196L0.095,-0.196C0.095,-0.144 0.108,-0.106 0.135,-0.08C0.162,-0.054 0.2,-0.041 0.25,-0.041C0.295,-0.041 0.332,-0.056 0.36,-0.086C0.389,-0.116 0.403,-0.157 0.404,-0.208L0.404,-0.711Z" style="fill:white;fill-rule:nonzero;"/>
            </g>
            <g transform="matrix(149.377,0,0,149.377,943.591,184)">
                <path d="M0.41,-0C0.404,-0.017 0.4,-0.041 0.398,-0.074C0.378,-0.047 0.352,-0.026 0.32,-0.012C0.288,0.003 0.255,0.01 0.219,0.01C0.168,0.01 0.127,-0.004 0.096,-0.033C0.065,-0.061 0.049,-0.097 0.049,-0.14C0.049,-0.192 0.07,-0.232 0.113,-0.262C0.156,-0.292 0.215,-0.307 0.292,-0.307L0.398,-0.307L0.398,-0.367C0.398,-0.405 0.386,-0.435 0.363,-0.456C0.34,-0.478 0.306,-0.489 0.261,-0.489C0.221,-0.489 0.187,-0.478 0.16,-0.458C0.133,-0.437 0.12,-0.412 0.12,-0.382L0.062,-0.383C0.062,-0.425 0.081,-0.461 0.12,-0.492C0.159,-0.523 0.207,-0.538 0.264,-0.538C0.323,-0.538 0.37,-0.523 0.404,-0.494C0.438,-0.464 0.455,-0.423 0.456,-0.371L0.456,-0.121C0.456,-0.069 0.461,-0.031 0.472,-0.006L0.472,-0L0.41,-0ZM0.226,-0.042C0.265,-0.042 0.3,-0.051 0.331,-0.07C0.362,-0.089 0.384,-0.114 0.398,-0.146L0.398,-0.262L0.293,-0.262C0.235,-0.262 0.19,-0.251 0.157,-0.23C0.124,-0.21 0.107,-0.181 0.107,-0.145C0.107,-0.115 0.118,-0.091 0.14,-0.071C0.162,-0.052 0.191,-0.042 0.226,-0.042Z" style="fill:white;fill-rule:nonzero;"/>
            </g>
            <g transform="matrix(149.377,0,0,149.377,1023.6,184)">
                <path d="M0.132,-0.528L0.134,-0.438C0.154,-0.471 0.178,-0.495 0.208,-0.512C0.238,-0.53 0.27,-0.538 0.306,-0.538C0.363,-0.538 0.405,-0.522 0.433,-0.49C0.46,-0.458 0.474,-0.41 0.475,-0.347L0.475,-0L0.417,-0L0.417,-0.347C0.416,-0.394 0.406,-0.43 0.386,-0.453C0.367,-0.476 0.335,-0.487 0.292,-0.487C0.256,-0.487 0.224,-0.476 0.196,-0.453C0.168,-0.431 0.148,-0.4 0.134,-0.362L0.134,-0L0.076,-0L0.076,-0.528L0.132,-0.528Z" style="fill:white;fill-rule:nonzero;"/>
            </g>
            <g transform="matrix(149.377,0,0,149.377,1105.66,184)">
                <path d="M0.393,-0.134C0.393,-0.163 0.381,-0.187 0.358,-0.204C0.334,-0.222 0.299,-0.235 0.252,-0.245C0.206,-0.255 0.169,-0.267 0.143,-0.28C0.117,-0.292 0.098,-0.308 0.086,-0.327C0.073,-0.345 0.067,-0.368 0.067,-0.394C0.067,-0.436 0.084,-0.47 0.119,-0.497C0.154,-0.524 0.199,-0.538 0.253,-0.538C0.312,-0.538 0.359,-0.524 0.395,-0.494C0.43,-0.465 0.448,-0.427 0.448,-0.38L0.39,-0.38C0.39,-0.411 0.377,-0.437 0.351,-0.458C0.325,-0.478 0.292,-0.488 0.253,-0.488C0.215,-0.488 0.184,-0.48 0.16,-0.463C0.137,-0.446 0.125,-0.423 0.125,-0.396C0.125,-0.37 0.135,-0.349 0.155,-0.335C0.174,-0.32 0.209,-0.307 0.26,-0.295C0.312,-0.283 0.35,-0.27 0.376,-0.256C0.401,-0.243 0.42,-0.226 0.433,-0.207C0.445,-0.188 0.451,-0.165 0.451,-0.137C0.451,-0.093 0.433,-0.057 0.397,-0.03C0.361,-0.004 0.314,0.01 0.256,0.01C0.195,0.01 0.145,-0.005 0.107,-0.035C0.068,-0.065 0.049,-0.102 0.049,-0.148L0.108,-0.148C0.11,-0.114 0.125,-0.087 0.151,-0.068C0.178,-0.049 0.213,-0.04 0.256,-0.04C0.297,-0.04 0.33,-0.049 0.355,-0.066C0.38,-0.084 0.393,-0.107 0.393,-0.134Z" style="fill:white;fill-rule:nonzero;"/>
            </g>
            <g transform="matrix(149.377,0,0,149.377,1181.3,184)">
                <path d="M0.393,-0.134C0.393,-0.163 0.381,-0.187 0.358,-0.204C0.334,-0.222 0.299,-0.235 0.252,-0.245C0.206,-0.255 0.169,-0.267 0.143,-0.28C0.117,-0.292 0.098,-0.308 0.086,-0.327C0.073,-0.345 0.067,-0.368 0.067,-0.394C0.067,-0.436 0.084,-0.47 0.119,-0.497C0.154,-0.524 0.199,-0.538 0.253,-0.538C0.312,-0.538 0.359,-0.524 0.395,-0.494C0.43,-0.465 0.448,-0.427 0.448,-0.38L0.39,-0.38C0.39,-0.411 0.377,-0.437 0.351,-0.458C0.325,-0.478 0.292,-0.488 0.253,-0.488C0.215,-0.488 0.184,-0.48 0.16,-0.463C0.137,-0.446 0.125,-0.423 0.125,-0.396C0.125,-0.37 0.135,-0.349 0.155,-0.335C0.174,-0.32 0.209,-0.307 0.26,-0.295C0.312,-0.283 0.35,-0.27 0.376,-0.256C0.401,-0.243 0.42,-0.226 0.433,-0.207C0.445,-0.188 0.451,-0.165 0.451,-0.137C0.451,-0.093 0.433,-0.057 0.397,-0.03C0.361,-0.004 0.314,0.01 0.256,0.01C0.195,0.01 0.145,-0.005 0.107,-0.035C0.068,-0.065 0.049,-0.102 0.049,-0.148L0.108,-0.148C0.11,-0.114 0.125,-0.087 0.151,-0.068C0.178,-0.049 0.213,-0.04 0.256,-0.04C0.297,-0.04 0.33,-0.049 0.355,-0.066C0.38,-0.084 0.393,-0.107 0.393,-0.134Z" style="fill:white;fill-rule:nonzero;"/>
            </g>
            <g transform="matrix(149.377,0,0,149.377,1256.93,184)">
                <path d="M0.044,-0.272C0.044,-0.323 0.054,-0.368 0.073,-0.409C0.093,-0.45 0.121,-0.482 0.157,-0.504C0.193,-0.527 0.234,-0.538 0.279,-0.538C0.35,-0.538 0.407,-0.513 0.45,-0.464C0.494,-0.415 0.516,-0.349 0.516,-0.268L0.516,-0.256C0.516,-0.205 0.506,-0.159 0.486,-0.118C0.466,-0.077 0.439,-0.046 0.403,-0.023C0.367,-0.001 0.326,0.01 0.28,0.01C0.21,0.01 0.153,-0.015 0.11,-0.064C0.066,-0.114 0.044,-0.179 0.044,-0.26L0.044,-0.272ZM0.103,-0.256C0.103,-0.193 0.119,-0.141 0.152,-0.1C0.184,-0.06 0.227,-0.04 0.28,-0.04C0.333,-0.04 0.376,-0.06 0.408,-0.1C0.441,-0.141 0.458,-0.194 0.458,-0.261L0.458,-0.272C0.458,-0.312 0.45,-0.349 0.435,-0.383C0.42,-0.416 0.399,-0.442 0.372,-0.461C0.345,-0.479 0.314,-0.488 0.279,-0.488C0.227,-0.488 0.185,-0.468 0.152,-0.427C0.119,-0.386 0.103,-0.333 0.103,-0.267L0.103,-0.256Z" style="fill:white;fill-rule:nonzero;"/>
            </g>
            <g transform="matrix(149.377,0,0,149.377,1340.59,184)">
                <path d="M0.132,-0.528L0.134,-0.438C0.154,-0.471 0.178,-0.495 0.208,-0.512C0.238,-0.53 0.27,-0.538 0.306,-0.538C0.363,-0.538 0.405,-0.522 0.433,-0.49C0.46,-0.458 0.474,-0.41 0.475,-0.347L0.475,-0L0.417,-0L0.417,-0.347C0.416,-0.394 0.406,-0.43 0.386,-0.453C0.367,-0.476 0.335,-0.487 0.292,-0.487C0.256,-0.487 0.224,-0.476 0.196,-0.453C0.168,-0.431 0.148,-0.4 0.134,-0.362L0.134,-0L0.076,-0L0.076,-0.528L0.132,-0.528Z" style="fill:white;fill-rule:nonzero;"/>
            </g>
        </g>
    </g>
</svg>
