<svg xmlns="http://www.w3.org/2000/svg" width="264.424" height="56" viewBox="0 0 264.424 56">
  <g id="Group_216" data-name="Group 216" transform="translate(-178 -34)">
    <g id="Group_47" data-name="Group 47">
      <text id="CHJ" transform="translate(178 79)" fill="#2b2839" font-size="48" font-family="Raleway-Bold, Raleway" font-weight="700"><tspan x="0" y="0">C</tspan><tspan y="0" fill="#c73c3c">H</tspan><tspan y="0">J</tspan></text>
    </g>
    <path id="Intersection_1" data-name="Intersection 1" d="M133.9,29.584a6.129,6.129,0,0,1-2.136-2.064l1.008-.792a4.5,4.5,0,0,0,1.968,1.764,6.225,6.225,0,0,0,2.64.563,5.819,5.819,0,0,0,1.728-.252,4.264,4.264,0,0,0,1.428-.743,3.522,3.522,0,0,0,.972-1.248,4.069,4.069,0,0,0,.36-1.764V22.576a5.215,5.215,0,0,1-1.968,1.9,5.292,5.292,0,0,1-2.616.7,5.161,5.161,0,0,1-2.363-.54,6.087,6.087,0,0,1-1.849-1.427,6.542,6.542,0,0,1-1.211-2.04,6.711,6.711,0,0,1-.432-2.376,7.4,7.4,0,0,1,.419-2.484,6.4,6.4,0,0,1,1.188-2.076,5.809,5.809,0,0,1,1.836-1.416,5.263,5.263,0,0,1,2.364-.528,4.808,4.808,0,0,1,2.784.8,7.7,7.7,0,0,1,2.016,2.028V12.5H143.5V25.048a5.106,5.106,0,0,1-.492,2.292,4.924,4.924,0,0,1-1.319,1.668,5.625,5.625,0,0,1-1.944,1.008,8.16,8.16,0,0,1-2.364.336A6.882,6.882,0,0,1,133.9,29.584Zm1.764-15.42a4.513,4.513,0,0,0-1.4,1.164,5.185,5.185,0,0,0-.876,1.632,5.888,5.888,0,0,0-.3,1.849,5.174,5.174,0,0,0,.36,1.92,5.008,5.008,0,0,0,1,1.6,4.775,4.775,0,0,0,1.476,1.08,4.215,4.215,0,0,0,1.824.4,3.952,3.952,0,0,0,1.416-.264,4.722,4.722,0,0,0,1.26-.708,4.626,4.626,0,0,0,.949-1,3.08,3.08,0,0,0,.5-1.129V16.84a4.907,4.907,0,0,0-.72-1.248,5.007,5.007,0,0,0-1.032-.984,5.243,5.243,0,0,0-1.236-.648,3.871,3.871,0,0,0-1.332-.24A3.925,3.925,0,0,0,135.668,14.164ZM148.6,24.94a4.151,4.151,0,0,1-1.32-.828,3.731,3.731,0,0,1-1.188-2.76,3.076,3.076,0,0,1,.384-1.512,3.652,3.652,0,0,1,1.08-1.2,5.292,5.292,0,0,1,1.656-.78,7.638,7.638,0,0,1,2.111-.275,11.578,11.578,0,0,1,1.944.167,8.465,8.465,0,0,1,1.752.481V17.1a3.632,3.632,0,0,0-.936-2.628A3.428,3.428,0,0,0,151.5,13.5a5.521,5.521,0,0,0-1.968.384,9.49,9.49,0,0,0-2.039,1.1l-.576-1.08a8.441,8.441,0,0,1,4.7-1.633,5.048,5.048,0,0,1,3.7,1.32,4.882,4.882,0,0,1,1.344,3.648v5.64q0,.672.6.672V25a3.921,3.921,0,0,1-.624.072,1.4,1.4,0,0,1-.972-.312,1.174,1.174,0,0,1-.373-.864l-.048-.984a5.686,5.686,0,0,1-2.172,1.728,6.691,6.691,0,0,1-2.821.6A4.417,4.417,0,0,1,148.6,24.94Zm.131-5.6a2.19,2.19,0,0,0-1.08,1.9,2.586,2.586,0,0,0,.229,1.08,2.725,2.725,0,0,0,.624.876,2.911,2.911,0,0,0,.948.589,3.2,3.2,0,0,0,1.176.216,5.637,5.637,0,0,0,2.34-.481,3.816,3.816,0,0,0,1.62-1.272,1.492,1.492,0,0,0,.324-.468,1.2,1.2,0,0,0,.108-.468v-2.04a10.07,10.07,0,0,0-1.692-.48,9.506,9.506,0,0,0-1.788-.168A4.976,4.976,0,0,0,148.736,19.336ZM88.664,24.76a6.847,6.847,0,0,1-2.4-1.392l.744-1.1a8.129,8.129,0,0,0,2.147,1.3,6.3,6.3,0,0,0,2.34.432,4.226,4.226,0,0,0,2.412-.612,1.981,1.981,0,0,0,.9-1.741,1.513,1.513,0,0,0-.239-.876,2.08,2.08,0,0,0-.708-.612,5.547,5.547,0,0,0-1.176-.468q-.707-.2-1.643-.42-1.08-.263-1.872-.527a5.733,5.733,0,0,1-1.309-.6,2.164,2.164,0,0,1-.768-.828,2.692,2.692,0,0,1-.252-1.236,3.56,3.56,0,0,1,.372-1.656,3.371,3.371,0,0,1,1.008-1.188,4.572,4.572,0,0,1,1.489-.708,6.645,6.645,0,0,1,1.812-.24,7.034,7.034,0,0,1,2.616.468,5.169,5.169,0,0,1,1.9,1.237l-.792.959a4.393,4.393,0,0,0-1.692-1.08,6.072,6.072,0,0,0-2.075-.36,5.149,5.149,0,0,0-1.2.132,2.88,2.88,0,0,0-.972.42,2.067,2.067,0,0,0-.66.732,2.163,2.163,0,0,0-.24,1.044,1.714,1.714,0,0,0,.168.816,1.434,1.434,0,0,0,.552.54,4.5,4.5,0,0,0,.972.408q.589.18,1.428.372,1.2.289,2.112.576a6.678,6.678,0,0,1,1.524.672,2.661,2.661,0,0,1,.924.936,2.7,2.7,0,0,1,.311,1.344,3.26,3.26,0,0,1-1.319,2.736A5.71,5.71,0,0,1,91.52,25.24,8.687,8.687,0,0,1,88.664,24.76ZM75.92,24.724a6.133,6.133,0,0,1-1.957-1.4,6.364,6.364,0,0,1-1.283-2.064,6.775,6.775,0,0,1-.456-2.472,6.679,6.679,0,0,1,.468-2.5,6.557,6.557,0,0,1,1.3-2.065,6.3,6.3,0,0,1,1.956-1.416,5.761,5.761,0,0,1,2.472-.528,5.843,5.843,0,0,1,2.484.528,6.275,6.275,0,0,1,1.968,1.416,6.557,6.557,0,0,1,1.3,2.065,6.7,6.7,0,0,1,.468,2.5,6.775,6.775,0,0,1-.456,2.472,6.366,6.366,0,0,1-1.284,2.064,6.09,6.09,0,0,1-1.967,1.4,6.018,6.018,0,0,1-2.508.516A5.93,5.93,0,0,1,75.92,24.724Zm.743-10.608a4.651,4.651,0,0,0-1.44,1.093,5.261,5.261,0,0,0-.984,1.62,5.4,5.4,0,0,0-.36,1.98,5.213,5.213,0,0,0,.36,1.956,5.321,5.321,0,0,0,.972,1.584,4.4,4.4,0,0,0,1.44,1.068,4.148,4.148,0,0,0,1.764.383,4.028,4.028,0,0,0,1.764-.4,4.675,4.675,0,0,0,1.452-1.08,5.144,5.144,0,0,0,.985-1.6,5.526,5.526,0,0,0,0-3.924,5.133,5.133,0,0,0-.985-1.608,4.7,4.7,0,0,0-1.452-1.08,4.041,4.041,0,0,0-1.764-.4A3.968,3.968,0,0,0,76.664,14.116ZM55.148,24.5a5.472,5.472,0,0,1-1.932-1.921V25H51.752V7.48h1.633v7.632A7.141,7.141,0,0,1,55.4,13.06a4.832,4.832,0,0,1,2.736-.78,4.977,4.977,0,0,1,2.363.553,5.551,5.551,0,0,1,1.777,1.476A6.919,6.919,0,0,1,63.4,16.4a7.37,7.37,0,0,1,.4,2.388,6.836,6.836,0,0,1-.456,2.5A6.56,6.56,0,0,1,62.1,23.332a5.924,5.924,0,0,1-1.885,1.392,5.41,5.41,0,0,1-2.34.516A5.18,5.18,0,0,1,55.148,24.5Zm1.139-10.525a4.712,4.712,0,0,0-1.2.684,5.515,5.515,0,0,0-.984,1,6.272,6.272,0,0,0-.72,1.188v3.888A2.663,2.663,0,0,0,53.9,21.94a4.294,4.294,0,0,0,1.008.972,5.311,5.311,0,0,0,1.272.648,3.943,3.943,0,0,0,1.309.239,4.2,4.2,0,0,0,1.884-.419,4.608,4.608,0,0,0,1.464-1.129,5.443,5.443,0,0,0,.959-1.607,5.114,5.114,0,0,0,.348-1.86,5.625,5.625,0,0,0-.324-1.9,5.3,5.3,0,0,0-.912-1.62,4.422,4.422,0,0,0-1.417-1.128,3.946,3.946,0,0,0-1.812-.42A3.821,3.821,0,0,0,56.288,13.972ZM40.34,24.5a5.476,5.476,0,0,1-1.931-1.921V25H36.944V7.48h1.632v7.632a7.153,7.153,0,0,1,2.016-2.052,4.834,4.834,0,0,1,2.736-.78,4.978,4.978,0,0,1,2.364.553,5.547,5.547,0,0,1,1.776,1.476A6.941,6.941,0,0,1,48.6,16.4a7.37,7.37,0,0,1,.4,2.388,6.836,6.836,0,0,1-.456,2.5,6.545,6.545,0,0,1-1.248,2.052A5.91,5.91,0,0,1,45.4,24.724a5.412,5.412,0,0,1-2.34.516A5.185,5.185,0,0,1,40.34,24.5Zm1.14-10.525a4.7,4.7,0,0,0-1.2.684,5.52,5.52,0,0,0-.985,1,6.318,6.318,0,0,0-.72,1.188v3.888a2.655,2.655,0,0,0,.517,1.212,4.294,4.294,0,0,0,1.008.972,5.294,5.294,0,0,0,1.272.648,3.942,3.942,0,0,0,1.308.239,4.207,4.207,0,0,0,1.885-.419,4.594,4.594,0,0,0,1.463-1.129,5.426,5.426,0,0,0,.96-1.607,5.114,5.114,0,0,0,.348-1.86,5.625,5.625,0,0,0-.324-1.9,5.28,5.28,0,0,0-.913-1.62,4.419,4.419,0,0,0-1.416-1.128,3.949,3.949,0,0,0-1.812-.42A3.818,3.818,0,0,0,41.48,13.972ZM25.748,24.724a6.144,6.144,0,0,1-1.98-1.416,6.573,6.573,0,0,1-1.308-2.076,6.744,6.744,0,0,1-.468-2.52,6.588,6.588,0,0,1,.468-2.484,6.413,6.413,0,0,1,1.3-2.04,6.149,6.149,0,0,1,1.98-1.391,6.317,6.317,0,0,1,5,0A5.965,5.965,0,0,1,32.7,14.2a6.593,6.593,0,0,1,1.728,4.487v.384a.951.951,0,0,1-.024.264H23.7a5.263,5.263,0,0,0,.468,1.86,5.108,5.108,0,0,0,1.02,1.476,4.571,4.571,0,0,0,1.428.972,4.268,4.268,0,0,0,1.716.348,4.416,4.416,0,0,0,1.2-.168,4.828,4.828,0,0,0,1.1-.456,4.1,4.1,0,0,0,.912-.707,3.047,3.047,0,0,0,.624-.924l1.417.384a4.181,4.181,0,0,1-.816,1.26,5.7,5.7,0,0,1-1.224.984,6.013,6.013,0,0,1-1.536.648,6.652,6.652,0,0,1-1.751.228A6.012,6.012,0,0,1,25.748,24.724Zm.78-10.836a4.424,4.424,0,0,0-1.428.936,4.6,4.6,0,0,0-.984,1.44,5.457,5.457,0,0,0-.445,1.824h9.193a5.019,5.019,0,0,0-1.476-3.264,4.471,4.471,0,0,0-1.417-.936,4.4,4.4,0,0,0-1.715-.336A4.489,4.489,0,0,0,26.528,13.888ZM67.28,24.508a2.391,2.391,0,0,1-.648-1.788V7.48h1.632V22.168a1.5,1.5,0,0,0,.384,1.092,1.431,1.431,0,0,0,1.08.4,3.2,3.2,0,0,0,.624-.072,4.1,4.1,0,0,0,.672-.192l.288,1.32a5.37,5.37,0,0,1-1.116.311,6.511,6.511,0,0,1-1.14.121A2.425,2.425,0,0,1,67.28,24.508Zm92.9.492V12.5h1.536v3a5.686,5.686,0,0,1,1.872-2.256,4.341,4.341,0,0,1,2.52-.816,1.631,1.631,0,0,1,.312.024v1.488a5.135,5.135,0,0,0-2.88.913,4.6,4.6,0,0,0-1.728,2.376V25ZM127.16,25V18.016a6.1,6.1,0,0,0-.66-3.24,2.255,2.255,0,0,0-2.029-1.008,4.173,4.173,0,0,0-1.44.264,4.869,4.869,0,0,0-1.332.744,5.692,5.692,0,0,0-1.092,1.139,4.461,4.461,0,0,0-.7,1.428V25H118.28V12.5h1.489v2.832a5.867,5.867,0,0,1,2.2-2.208,6.02,6.02,0,0,1,3.108-.841,3.69,3.69,0,0,1,1.752.384,3,3,0,0,1,1.152,1.08,4.977,4.977,0,0,1,.624,1.7,11.988,11.988,0,0,1,.192,2.232V25Zm-14.112,0V12.5h1.632V25Zm-5.112,0V18.016a6.1,6.1,0,0,0-.66-3.24,2.255,2.255,0,0,0-2.029-1.008,4.173,4.173,0,0,0-1.44.264,4.869,4.869,0,0,0-1.332.744,5.692,5.692,0,0,0-1.092,1.139,4.461,4.461,0,0,0-.7,1.428V25H99.056V12.5h1.489v2.832a5.867,5.867,0,0,1,2.2-2.208,6.02,6.02,0,0,1,3.108-.841,3.69,3.69,0,0,1,1.752.384,3,3,0,0,1,1.152,1.08,4.977,4.977,0,0,1,.624,1.7,11.988,11.988,0,0,1,.192,2.232V25Zm-93.5,0-2.688-6.385L9.08,25H7.736L2.36,12.5H3.944L8.5,23.32l2.376-5.712L8.744,12.52h1.368l1.632,4.08,1.632-4.08h1.392l-2.136,5.088,2.376,5.712L19.544,12.5h1.607L15.776,25ZM113.048,9.88V7.48h1.632v2.4ZM79.52,9.808V7.552h1.391V9.808Zm-3.577,0V7.552h1.392V9.808Z" transform="translate(276 55)" fill="#2b2839"/>
  </g>
</svg>
