<?xml version="1.0" encoding="UTF-8" standalone="no"?>
<!DOCTYPE svg PUBLIC "-//W3C//DTD SVG 1.1//EN" "http://www.w3.org/Graphics/SVG/1.1/DTD/svg11.dtd">
<svg width="100%" height="100%" viewBox="0 0 263 110" version="1.1" xmlns="http://www.w3.org/2000/svg" xmlns:xlink="http://www.w3.org/1999/xlink" xml:space="preserve" xmlns:serif="http://www.serif.com/" style="fill-rule:evenodd;clip-rule:evenodd;stroke-linejoin:round;stroke-miterlimit:2;">
    <g transform="matrix(1,0,0,1,-121.115,-293)">
        <g transform="matrix(1,0,0,1,14.5603,216.656)">
            <g transform="matrix(149.377,0,0,149.377,97,184)">
                <path d="M0.593,-0.222C0.585,-0.147 0.558,-0.09 0.513,-0.05C0.468,-0.01 0.407,0.01 0.332,0.01C0.279,0.01 0.232,-0.003 0.192,-0.03C0.151,-0.056 0.12,-0.094 0.098,-0.142C0.076,-0.19 0.064,-0.245 0.064,-0.308L0.064,-0.4C0.064,-0.463 0.075,-0.519 0.097,-0.568C0.119,-0.617 0.151,-0.654 0.193,-0.681C0.234,-0.707 0.282,-0.721 0.336,-0.721C0.412,-0.721 0.472,-0.7 0.516,-0.659C0.56,-0.618 0.586,-0.561 0.593,-0.489L0.533,-0.489C0.518,-0.61 0.452,-0.67 0.336,-0.67C0.271,-0.67 0.22,-0.646 0.182,-0.598C0.144,-0.549 0.125,-0.483 0.125,-0.398L0.125,-0.311C0.125,-0.229 0.143,-0.163 0.18,-0.114C0.218,-0.065 0.268,-0.041 0.332,-0.041C0.394,-0.041 0.442,-0.056 0.474,-0.086C0.506,-0.116 0.525,-0.161 0.533,-0.222L0.593,-0.222Z" style="fill:rgb(43,45,66);fill-rule:nonzero;"/>
            </g>
            <g transform="matrix(149.377,0,0,149.377,194.007,184)">
                <path d="M0.642,-0L0.496,-0L0.496,-0.305L0.21,-0.305L0.21,-0L0.063,-0L0.063,-0.711L0.21,-0.711L0.21,-0.423L0.496,-0.423L0.496,-0.711L0.642,-0.711L0.642,-0Z" style="fill:rgb(198,61,61);fill-rule:nonzero;"/>
            </g>
            <g transform="matrix(149.377,0,0,149.377,299.549,184)">
                <path d="M0.404,-0.711L0.464,-0.711L0.464,-0.211C0.464,-0.144 0.445,-0.09 0.406,-0.05C0.367,-0.01 0.315,0.01 0.25,0.01C0.181,0.01 0.127,-0.008 0.09,-0.044C0.053,-0.081 0.035,-0.131 0.035,-0.196L0.095,-0.196C0.095,-0.144 0.108,-0.106 0.135,-0.08C0.162,-0.054 0.2,-0.041 0.25,-0.041C0.295,-0.041 0.332,-0.056 0.36,-0.086C0.389,-0.116 0.403,-0.157 0.404,-0.208L0.404,-0.711Z" style="fill:rgb(43,45,66);fill-rule:nonzero;"/>
            </g>
        </g>
    </g>
</svg>
