<svg xmlns="http://www.w3.org/2000/svg" width="18" height="18" viewBox="0 0 18 18"><path d="M5,3H19a2,2,0,0,1,2,2V19a2,2,0,0,1-2,2H5a2,2,0,0,1-2-2V5A2,2,0,0,1,5,3M17.71,9.33A4.774,4.774,0,0,0,19,7.92a4.413,4.413,0,0,1-1.44.41,2.918,2.918,0,0,0,1.12-1.47,5.618,5.618,0,0,1-1.71.64,2.721,2.721,0,0,0-4.6,2.45A7.65,7.65,0,0,1,6.85,7.16a2.873,2.873,0,0,0,.79,3.58,2.937,2.937,0,0,1-1.14-.33,2.685,2.685,0,0,0,2.08,2.68,3.346,3.346,0,0,1-1.14.03A2.671,2.671,0,0,0,9.9,15,5.381,5.381,0,0,1,6,16.08a7.009,7.009,0,0,0,4.28,1.23C14.69,17.11,17.64,13.95,17.71,9.33Z" transform="translate(-3 -3)" fill="#c1c1c1"/></svg>