<svg xmlns="http://www.w3.org/2000/svg" width="1920.723" height="1078.931" viewBox="0 0 1920.723 1078.931">
  <g id="Group_143" data-name="Group 143" transform="translate(0 0.436)">
    <circle id="Ellipse_112" data-name="Ellipse 112" cx="101.5" cy="101.5" r="101.5" transform="translate(378 85)" fill="rgba(199,60,60,0.47)"/>
    <circle id="Ellipse_113" data-name="Ellipse 113" cx="66.5" cy="66.5" r="66.5" transform="translate(1487 54)" fill="rgba(199,60,60,0.47)"/>
    <path id="Path_935" data-name="Path 935" d="M22671,4495.547c237.652-90.328,322.463-236.242,489.309-233.463s198.824,84.769,535.293,50.028,461.6-104.225,661.816-50.028,233.582,80.6,233.582,80.6V4224.564H22671Z" transform="translate(-22671 -4225)" fill="rgba(199,60,60,0.47)"/>
    <path id="Path_936" data-name="Path 936" d="M22671,5115.332c170.813,66.7,284.764,152.862,568.254,87.548s596.162-140.355,833.795-94.5,355.754,101.445,441.912,108.393,76.432,0,76.432,0v91.718H22671Z" transform="translate(-22671 -4230)" fill="rgba(199,60,60,0.47)"/>
  </g>
</svg>
