<svg xmlns="http://www.w3.org/2000/svg" xmlns:xlink="http://www.w3.org/1999/xlink" width="516.352" height="326.521" viewBox="0 0 516.352 326.521">
  <defs>
    <linearGradient id="linear-gradient" x1="0.5" y1="1" x2="0.5" gradientUnits="objectBoundingBox">
      <stop offset="0" stop-color="gray" stop-opacity="0.251"/>
      <stop offset="0.54" stop-color="gray" stop-opacity="0.122"/>
      <stop offset="1" stop-color="gray" stop-opacity="0.102"/>
    </linearGradient>
    <linearGradient id="linear-gradient-2" x1="0.5" y1="1" x2="0.5" y2="0" xlink:href="#linear-gradient"/>
    <linearGradient id="linear-gradient-3" x1="3.499" y1="1.031" x2="3.499" y2="0.019" xlink:href="#linear-gradient"/>
  </defs>
  <g id="undraw_content_vbqo" transform="translate(0 -39.084)">
    <ellipse id="Ellipse_55" data-name="Ellipse 55" cx="45.858" cy="11.328" rx="45.858" ry="11.328" transform="translate(423.097 341.061)" fill="#2b2839" opacity="0.1"/>
    <ellipse id="Ellipse_56" data-name="Ellipse 56" cx="45.858" cy="11.328" rx="45.858" ry="11.328" transform="translate(18.291 342.948)" fill="#2b2839" opacity="0.1"/>
    <path id="Path_429" data-name="Path 429" d="M539.121,179.88l.133.229c-12.414,15.5-13.234,39.559-13.284,39.77l-2.62-3.023C523.405,216.645,526.621,195.482,539.121,179.88Z" transform="translate(-296.639 -135.652)" fill="#444053"/>
    <path id="Path_431" data-name="Path 431" d="M669.33,236.331s-7.384-4.966-6.514-10.751" transform="translate(-372.18 -160.418)" fill="none" stroke="#444053" stroke-miterlimit="10" stroke-width="1"/>
    <path id="Path_432" data-name="Path 432" d="M638.708,240.781s-10.536-3.829-11.6-18.831" transform="translate(-352.869 -158.451)" fill="none" stroke="#444053" stroke-miterlimit="10" stroke-width="1"/>
    <path id="Path_433" data-name="Path 433" d="M606.533,244.373A23.584,23.584,0,0,1,599.8,221.41" transform="translate(-337.702 -158.158)" fill="none" stroke="#444053" stroke-miterlimit="10" stroke-width="1"/>
    <path id="Path_434" data-name="Path 434" d="M566.876,235.15s-6.711-14.067-.742-23.22" transform="translate(-318.485 -153.021)" fill="none" stroke="#444053" stroke-miterlimit="10" stroke-width="1"/>
    <path id="Path_435" data-name="Path 435" d="M674.76,212.82s-7.627,2.419-5.992,6.413" transform="translate(-375.32 -153.503)" fill="none" stroke="#444053" stroke-miterlimit="10" stroke-width="1"/>
    <path id="Path_436" data-name="Path 436" d="M649.644,182.61s-10.2,3.239-10.444,17.668" transform="translate(-359.421 -137.132)" fill="none" stroke="#444053" stroke-miterlimit="10" stroke-width="1"/>
    <path id="Path_437" data-name="Path 437" d="M620.786,175.34s-9.281,11.452-8.6,21.873" transform="translate(-344.763 -133.192)" fill="none" stroke="#444053" stroke-miterlimit="10" stroke-width="1"/>
    <path id="Path_438" data-name="Path 438" d="M585.841,185.15s-9.221,8.813-8.044,13.719" transform="translate(-326.089 -138.508)" fill="none" stroke="#444053" stroke-miterlimit="10" stroke-width="1"/>
    <path id="Path_439" data-name="Path 439" d="M571.678,176.827s-8.648,1.553-9.858-1.287" transform="translate(-317.487 -133.3)" fill="none" stroke="#444053" stroke-miterlimit="10" stroke-width="1"/>
    <path id="Path_448" data-name="Path 448" d="M478.52,195.629s13.99,1.2,20.444-6.019" transform="translate(-272.345 -140.925)" fill="none" stroke="#444053" stroke-miterlimit="10" stroke-width="1"/>
    <rect id="Rectangle_200" data-name="Rectangle 200" width="435.323" height="246.596" rx="12.49" transform="translate(34.947 39.084)" fill="url(#linear-gradient)"/>
    <rect id="Rectangle_201" data-name="Rectangle 201" width="433.99" height="242.308" rx="12.49" transform="translate(35.638 42.551)" fill="#fff"/>
    <rect id="Rectangle_202" data-name="Rectangle 202" width="433.99" height="242.308" rx="12.49" transform="translate(35.638 42.551)" fill="#fff"/>
    <rect id="Rectangle_203" data-name="Rectangle 203" width="433.99" height="242.308" rx="12.49" transform="translate(35.638 42.551)" fill="#5a5773" opacity="0.04"/>
    <path id="Path_454" data-name="Path 454" d="M537.995,170.15h-429.6a2.2,2.2,0,0,0-2.2,2.2v9.317H540.18v-9.3A2.2,2.2,0,0,0,537.995,170.15Z" transform="translate(-70.57 -130.379)" fill="#5a5773"/>
    <g id="buttons" transform="translate(41.328 42.551)">
      <circle id="Ellipse_57" data-name="Ellipse 57" cx="2.977" cy="2.977" r="2.977" fill="#f2f9f9"/>
      <circle id="Ellipse_58" data-name="Ellipse 58" cx="2.977" cy="2.977" r="2.977" transform="translate(8.016)" fill="#f2f9f9"/>
      <circle id="Ellipse_59" data-name="Ellipse 59" cx="2.977" cy="2.977" r="2.977" transform="translate(16.033)" fill="#f2f9f9"/>
    </g>
    <rect id="Rectangle_204" data-name="Rectangle 204" width="361.88" height="179.923" rx="10.19" transform="translate(64.689 104.932)" fill="#fff"/>
    <rect id="Rectangle_205" data-name="Rectangle 205" width="104.093" height="10.925" rx="3.86" transform="translate(49.344 63.517)" fill="#5a5773" opacity="0.2"/>
    <rect id="Rectangle_206" data-name="Rectangle 206" width="104.093" height="10.925" rx="3.86" transform="translate(245.629 125.816)" fill="#2b2839" opacity="0.2"/>
    <rect id="Rectangle_207" data-name="Rectangle 207" width="162.539" height="10.925" rx="3.86" transform="translate(245.629 156.406)" fill="#2b2839" opacity="0.2"/>
    <rect id="Rectangle_208" data-name="Rectangle 208" width="162.539" height="10.925" rx="3.86" transform="translate(245.629 174.271)" fill="#2b2839" opacity="0.2"/>
    <rect id="Rectangle_209" data-name="Rectangle 209" width="162.539" height="10.925" rx="3.86" transform="translate(245.629 192.136)" fill="#2b2839" opacity="0.2"/>
    <rect id="Rectangle_210" data-name="Rectangle 210" width="162.539" height="10.925" rx="3.86" transform="translate(245.629 210.001)" fill="#2b2839" opacity="0.2"/>
    <rect id="Rectangle_211" data-name="Rectangle 211" width="323.859" height="10.925" rx="3.86" transform="translate(84.309 229.698)" fill="#2b2839" opacity="0.2"/>
    <rect id="Rectangle_212" data-name="Rectangle 212" width="323.859" height="10.925" rx="3.86" transform="translate(84.309 247.563)" fill="#2b2839" opacity="0.2"/>
    <rect id="Rectangle_213" data-name="Rectangle 213" width="323.859" height="10.925" rx="3.86" transform="translate(84.309 265.428)" fill="#2b2839" opacity="0.2"/>
    <ellipse id="Ellipse_60" data-name="Ellipse 60" cx="28.401" cy="4.356" rx="28.401" ry="4.356" transform="translate(298.5 313.256)" fill="#2b2839" opacity="0.1"/>
    <rect id="Rectangle_214" data-name="Rectangle 214" width="138.339" height="101.482" rx="8.5" transform="translate(84.309 119.755)" fill="#2b2839" opacity="0.2"/>
    <path id="Path_467" data-name="Path 467" d="M1050.352,524.975c.174-.458-1.118-3.078-1.118-3.207s-1.333-1.58-1.333-2.391-1.763-2.565-1.763-2.565-2.368-.98-2.625-3.12-2.836-2.176-2.84-2.176h0v-.49a6.739,6.739,0,0,0-.316-2.5,2.514,2.514,0,0,0-1.461-1.242,5.529,5.529,0,0,0-.774-2.18,2.45,2.45,0,0,1-.6-2.29c.261-.806-.344-2.858-1.59-3.161s-2.67-.77-2.67-.77l-.344.06-.169-.06a7.161,7.161,0,0,1-.916.115,1.132,1.132,0,0,1-.728-.238c-.431-.458-3.917-1.374-4.581-1.374a10.474,10.474,0,0,1-2.5-.857s-1.292-.98-1.832-1.411a12.03,12.03,0,0,1-1.621-2.231v-.032h0a7.912,7.912,0,0,1-.389-1.122h0a10.115,10.115,0,0,0,1.6-2.2c.046-.082.087-.165.128-.252a.959.959,0,0,0,.279-.041l.115-.046a1.86,1.86,0,0,0,.916-1.09h0a2.926,2.926,0,0,0,.082-.284v-.1l.041-.192a1,1,0,0,1,0-.11l.027-.192v-.11a.633.633,0,0,1,.032-.243h0a8.552,8.552,0,0,1,.133-.916h0a16.5,16.5,0,0,1,1.448-3.206h0c.068-.151.137-.307.2-.458s.119-.344.17-.518l.041-.16c.032-.128.06-.256.087-.385s0-.115.032-.174q.041-.261.069-.536a6.625,6.625,0,0,0-.458-3c-.321-.8-.8-1.525-1.127-2.327-.495-1.214-.628-2.593-1.228-3.752a4.466,4.466,0,0,0-5.359-2.181c-.916.348-1.75,1.022-2.7,1.324a8.993,8.993,0,0,1-3.949-.078,4.925,4.925,0,0,0-3.83.66c-1.218.99-1.548,2.849-2.693,3.935-.458.458-1.076.747-1.585,1.168a2.59,2.59,0,0,0-.8,1.09l-.027.087a.769.769,0,0,0-.028.115,1.084,1.084,0,0,0-.023.128.518.518,0,0,0,0,.087.971.971,0,0,0,0,.229h0a1.77,1.77,0,0,0,.032.215v.06a.529.529,0,0,0,.055.179c.023.06,0,.023,0,.032s.05.133.078.2l.041.1a.076.076,0,0,0,.037.078,5.677,5.677,0,0,1,.4.994,1.106,1.106,0,0,1-.041.655,1.932,1.932,0,0,1-.458.628,8.861,8.861,0,0,0-1.942,3.11q-.078.2-.138.4h.06a2.61,2.61,0,0,0,.375.078,1.807,1.807,0,0,0,.215,0,3.344,3.344,0,0,0,.88-.064l.22-.055a4.962,4.962,0,0,0,.87-.316q0,.13,0,.261v.147a10.16,10.16,0,0,0,5.648,9.088,1.885,1.885,0,0,0,.036.275l.028.234-.115-.11s-.774-.385-1.507.724a4.866,4.866,0,0,1-2.107,1.626s-7.833,1.237-8.135,2.263l-3.665.215s-1.292.17-1.42,2.863-.815,2.945-.815,2.945-1.507,2.652-1.374,4.017a2.241,2.241,0,0,1-1.164,2.052l-.169,2.437a1.68,1.68,0,0,0-1.832,1.452,5.8,5.8,0,0,1-1.072,2.432s-2.368,1.97-2.5,3.633l-1.466.916s-3.4-.77-4.173-2.135c0,0-.092-.092-.238-.225v-.032h0a13.836,13.836,0,0,0-1.42-1.251,1.029,1.029,0,0,1,.069.687l-.252-.28-.678-.751s-5.5-5.149-8.7-5.557h0c-.041-.082-.252-.916-.8-.389a4.489,4.489,0,0,0-.032,6.583l5.149,4.805.133.1,1.1,1.42a12.865,12.865,0,0,0-.458,1.273v.041l-.083.247a.543.543,0,0,0-.023.082c-.028.083-.05.161-.073.238l-.041.137v.082c-.124.431-.2.76-.238.944l-.289-.092.279.124v.133l.266.114c1.507.655,9.029,3.958,9.414,4.457a5.537,5.537,0,0,0,5.855.811,6.165,6.165,0,0,0,3.138-3.458,36.14,36.14,0,0,0,2.584-3.976c.087-.513,2.02-1.109,2.02-1.109s.174,5.721-.815,7.82-2.84,11.365-2.84,11.365a1.311,1.311,0,0,1,.366,0l-.11.536a1.247,1.247,0,0,1,.458,0c-.138,1.054-.916,5.955-.916,5.955a12.185,12.185,0,0,1-.687,2.991c-.43.77-.458,4.787-.458,4.787l-.692,2.9s.092.2.261.5h0a7.439,7.439,0,0,0,1.979,2.561,5.067,5.067,0,0,1-.348,1.328,4.67,4.67,0,0,0-.344,2.052,26.641,26.641,0,0,0-.646,4.228,16.134,16.134,0,0,1-.458,3.248l-.774,7.435a70.407,70.407,0,0,0-.257,8.2,15.741,15.741,0,0,1-.174,4.122s.518,5.085.39,5.639-.774,2.95-.389,4.274a23.323,23.323,0,0,1,.174,4.956s.257,4.787.559,6.326a10.817,10.817,0,0,1-.087,3.5,28.854,28.854,0,0,1-.431,3.289c-.128,0-1.246,2.263,1.031,4.485s.866,1.878.866,1.878-1.832-.916-1.594.944c.2,1.745.486,1.292.513,1.242l-.431,1.406.3.041-.247.3a6.443,6.443,0,0,1-.87.916,1.863,1.863,0,0,0-.559,1.237,33.559,33.559,0,0,1-6.152,5.213,17.791,17.791,0,0,0-3.5,2.35c-.531.577-.458,1.044.655,1.411a16.762,16.762,0,0,0,9.336.169,10.923,10.923,0,0,0,4.581-2.945,6.481,6.481,0,0,1,3.665-.6c1.832.344,5.424-2.007,5.424-2.007l-.069-.6-.188-1.75a1.374,1.374,0,0,1-.3-1.063,5.5,5.5,0,0,0-.151-1.539c-.032-.169-.064-.339-.1-.495l.33-.064s-.426-2.176.348-2.606.554-6.024.554-6.024a6.757,6.757,0,0,0-1.5-1.493c-.517-.21-.046-2.867.046-3.206s.774-6.967.774-6.967a8.931,8.931,0,0,1,.082-2.987c.344-.9-.431-4.361-.431-4.361a.8.8,0,0,1,.216-.939c.458-.513.3-5.085.3-5.085s-.041-2.29-.041-2.909a10.314,10.314,0,0,1,.99-3.5c.476-.724.169-2.991.169-2.991h0l.028-.169a.636.636,0,0,1,.037-.243l.036-.229a33.307,33.307,0,0,1,.843-3.71c.559-1.791,1.2-4.952,1.2-4.952l4-10.435.046-.124a16.479,16.479,0,0,1,1.832,6.583,41.571,41.571,0,0,1,.348,4.828c-.11,1.026.3,5.85.3,5.85s.559,6.921.559,7.219a42.5,42.5,0,0,0,1.122,6.454c.431.815-.431,3.289-.691,3.545s.087,6.537.087,6.537-.646,4.956-.774,5.982-.646,4.956-.215,6.5.257,1.75.257,1.75,1.553,1.585.646,1.713a2.369,2.369,0,0,0-1.723,3.115,41.072,41.072,0,0,0,1.9,4.581l.715-.151v.508l.05,2.547a14.871,14.871,0,0,1,.128,2.991c-.124.4-.3,2.318-.38,3.321-.032.367-.05.609-.05.609s0,2.263,4.778,1.58,5.634-2.565,5.634-2.565l.037-.234c.069-.43.225-1.347.353-1.86.17-.683-1.374-3.761-1.374-3.761a7.809,7.809,0,0,0-.687-2.561,2.286,2.286,0,0,1-.348-.916c-.037-.174-.073-.353-.1-.527a3.1,3.1,0,0,1,.321.055s-.261-1.493.733-1.965a1.408,1.408,0,0,0,.6-1.878,14.512,14.512,0,0,1,.385-2.821,1.373,1.373,0,0,1,.344-1.374c.6-.6,1.076-4.787,1.076-4.787l.087-16.152a15.535,15.535,0,0,0-.041-4.017c-.343-1.154-.687-3.376-.215-3.976s.041-3.371.041-3.371,0-5.854.646-7.329.431-10.641.431-10.641l.169-6.024s1.406-1.328,1.077-8.245a11.2,11.2,0,0,1,3.445.06c.458.385,3.527,2.35,5.337,1.108a23.991,23.991,0,0,0,2.149-1.663l-.761-12.826.761,1.186c0-1.791,5.08-7.6,5.08-7.6s4.732-6.111,5.762-6.835,3.056-4.581,3.056-4.581a18.666,18.666,0,0,1,1.035-2.135C1051.73,527.495,1050.182,525.442,1050.352,524.975Zm-11.1,4.484c-1.292.128-4,3.078-4.045,3.72a2.642,2.642,0,0,1-.573,1.145c0-.257-.041-.518-.064-.783a78.849,78.849,0,0,1-.458-8.823,26.077,26.077,0,0,0,.169-4.233h0l.051-.069a21.771,21.771,0,0,0,3.559,5.845s.458,1.374,1.035,1.406S1039.252,529.46,1039.252,529.46Z" transform="translate(-534.994 -292.354)" fill="url(#linear-gradient-2)"/>
    <path id="Path_468" data-name="Path 468" d="M978.65,589.055s1.571-8.245,6.615-8.245l3.692,7.59L986.5,590.1S981.151,590.242,978.65,589.055Z" transform="translate(-543.378 -352.926)" fill="#65617d"/>
    <path id="Path_469" data-name="Path 469" d="M988.957,588.361l-2.46,1.695a29.129,29.129,0,0,1-6.45-.54,7.43,7.43,0,0,1-1.4-.458l.027-.133V588.9a18.3,18.3,0,0,1,.953-3.023c.156-.371.33-.751.522-1.131a7.669,7.669,0,0,1,3.206-3.5,4.347,4.347,0,0,1,1.681-.458h.224l.083.17,1.246,2.565Z" transform="translate(-543.378 -352.91)" opacity="0.1"/>
    <path id="Path_470" data-name="Path 470" d="M1088.042,644.1s5.3-.509,5.767-.124,3.477,2.332,5.254,1.1.6-5.5.6-5.68-.17-6.234-.17-6.234l-3.179-4.283-3.985-7.5-8.145-.806.211,11.91-.041,6.106Z" transform="translate(-600.567 -374.473)" fill="#65617d"/>
    <path id="Path_471" data-name="Path 471" d="M1088.042,644.1s5.3-.509,5.767-.124,3.477,2.332,5.254,1.1.6-5.5.6-5.68-.17-6.234-.17-6.234l-3.179-4.283-3.985-7.5-8.145-.806.211,11.91-.041,6.106Z" transform="translate(-600.567 -374.473)" opacity="0.1"/>
    <path id="Path_472" data-name="Path 472" d="M976.459,571.064s-.426,5.172-3.665,5.259c0,0-.916-.55-2.144-1.47-2.831-2.121-7.329-6.193-6.083-9.981,1.782-5.428,10.43,4.581,10.43,4.581l.669.747Z" transform="translate(-535.63 -343.414)" fill="#fbbebe"/>
    <path id="Path_473" data-name="Path 473" d="M983.583,579.254s-.426,5.172-3.665,5.259c0,0-.916-.55-2.144-1.47l-.275-.353a4.217,4.217,0,0,0,1.768.458,2.387,2.387,0,0,0,2.291-1.452,18.335,18.335,0,0,0,.916-2.057,6.433,6.433,0,0,0,.326-1.269Z" transform="translate(-542.754 -351.604)" opacity="0.1"/>
    <path id="Path_474" data-name="Path 474" d="M982.507,588.133l-.724-.916-2.441-3.142-1.241-1.608a4.18,4.18,0,0,0,1.763.458,2.373,2.373,0,0,0,2.291-1.452,17.939,17.939,0,0,0,.893-2.052c.4-1.145.394-1.732.252-1.933a11.336,11.336,0,0,1,1.4,1.246h0l.234.22.087.174L986.3,581.6a.661.661,0,0,1,0,.105C986.391,582.485,986.8,587.428,982.507,588.133Z" transform="translate(-543.079 -351.111)" fill="#e7effd"/>
    <path id="Path_475" data-name="Path 475" d="M1015.256,830.947s-3.564,2.336-5.346,1.993a6.412,6.412,0,0,0-3.605.6,10.7,10.7,0,0,1-4.494,2.927,16.461,16.461,0,0,1-9.2-.169c-1.081-.362-1.168-.829-.646-1.4a19.545,19.545,0,0,1,3.445-2.332,33.29,33.29,0,0,0,6.065-5.172,1.832,1.832,0,0,1,.55-1.232,6.342,6.342,0,0,0,.857-.916c.458-.536.884-1.1.884-1.1l10.495.394s.178.756.32,1.53a5.536,5.536,0,0,1,.146,1.525,1.373,1.373,0,0,0,.3,1.058l.187,1.732Z" transform="translate(-550.424 -484.792)" fill="#65617d"/>
    <path id="Path_476" data-name="Path 476" d="M1078.411,834.869c-.124.508-.279,1.415-.348,1.832a.776.776,0,0,1-.032.234s-.847,1.864-5.557,2.542-4.7-1.567-4.7-1.567l.046-.609c.083-.99.252-2.891.376-3.294a15.057,15.057,0,0,0-.124-2.969l-.05-2.528-.037-1.755,7.788-.806a15.005,15.005,0,0,0,.252,1.736,2.231,2.231,0,0,0,.344.916,7.837,7.837,0,0,1,.677,2.542S1078.594,834.191,1078.411,834.869Z" transform="translate(-591.674 -485.773)" fill="#65617d"/>
    <path id="Path_477" data-name="Path 477" d="M1027.49,824.594s.178.756.321,1.53c-1.131.206-6.079,1.063-7.329.458a19.419,19.419,0,0,0-4.411-1.058l.05-.174c.458-.536.884-1.1.884-1.1Z" transform="translate(-563.656 -484.852)" opacity="0.1"/>
    <path id="Path_478" data-name="Path 478" d="M1076.313,827.716c-1.974-.334-6.312.458-8.016.825l-.037-1.755,7.787-.806A15.175,15.175,0,0,0,1076.313,827.716Z" transform="translate(-591.939 -485.79)" opacity="0.1"/>
    <path id="Path_479" data-name="Path 479" d="M1051.516,658.995l-.165,5.955s.21,9.116-.427,10.536-.636,7.251-.636,7.251.426,2.749-.041,3.349-.128,2.8.211,3.944a15.5,15.5,0,0,1,.041,3.985l-.082,16.032s-.458,4.155-1.063,4.75a1.4,1.4,0,0,0-.339,1.374,14.255,14.255,0,0,0-.38,2.8,1.408,1.408,0,0,1-.591,1.864c-.971.467-.724,1.951-.724,1.951-2.332-.554-8.946.916-8.946.916a40.734,40.734,0,0,1-1.869-4.539,2.35,2.35,0,0,1,1.7-3.1c.888-.124-.637-1.695-.637-1.695s.169-.211-.256-1.741.087-5.428.215-6.445.76-5.955.76-5.955-.339-6.234-.083-6.486,1.1-2.716.678-3.518a42.422,42.422,0,0,1-1.1-6.413c0-.307-.55-7.169-.55-7.169a57.14,57.14,0,0,1-.38-5.808,37.466,37.466,0,0,0-.344-4.791,16.284,16.284,0,0,0-1.832-6.532l-.046.124-3.939,10.426s-.637,3.138-1.186,4.92a32.174,32.174,0,0,0-.829,3.665l-.037.229-.036.238-.028.169h0s.293,2.245-.174,2.968a10.578,10.578,0,0,0-.971,3.477c0,.6.041,2.886.041,2.886s.169,4.535-.3,5.039a.793.793,0,0,0-.211.916s.761,3.436.422,4.324a8.938,8.938,0,0,0-.083,2.968s-.678,6.573-.765,6.912-.55,2.968-.041,3.179a6.79,6.79,0,0,1,1.484,1.484s.211,5.556-.549,5.978-.344,2.588-.344,2.588-6.147,1.186-7.544.508a19.344,19.344,0,0,0-4.411-1.058l.422-1.374c-.027.05-.307.5-.5-1.232-.215-1.832,1.567-.916,1.567-.916s1.4.339-.847-1.864-1.145-4.453-1.017-4.453a28.433,28.433,0,0,0,.421-3.266,10.8,10.8,0,0,0,.087-3.477c-.3-1.525-.55-6.276-.55-6.276a22.978,22.978,0,0,0-.174-4.92c-.385-1.315.256-3.664.385-4.242s-.385-5.6-.385-5.6a15.713,15.713,0,0,0,.174-4.123,69.606,69.606,0,0,1,.252-8.145l.765-7.375a15.239,15.239,0,0,0,.458-3.207,25.743,25.743,0,0,1,.637-4.2,4.653,4.653,0,0,1,.339-2.038,15.672,15.672,0,0,0,.6-3.665l4.072-9.327,1.993-8.245,26.926-.257s.1.715.261,2.011.394,3.207.651,5.584c.233,2.153.49,4.686.742,7.5C1053.216,657.382,1051.516,658.995,1051.516,658.995Z" transform="translate(-562.732 -381.35)" fill="#c73c3c"/>
    <path id="Path_480" data-name="Path 480" d="M1073.076,519.178l-6.271,6.711s-8.053-3.207-7.205-4.329c.325-.426.275-1.773.087-3.257-.3-2.35-.916-5.039-.916-5.039s14.077-2.29,12.885.083a3.9,3.9,0,0,0-.087,2.817A10.675,10.675,0,0,0,1073.076,519.178Z" transform="translate(-586.797 -315.782)" fill="#fbbebe"/>
    <path id="Path_481" data-name="Path 481" d="M1071.638,513.3c-.43.87-.637.953-.367,1.887-1.833,1.974-4.182,4.122-7.1,4.122a10.043,10.043,0,0,1-4.489-1.054c-.3-2.35-.916-5.039-.916-5.039S1072.828,510.924,1071.638,513.3Z" transform="translate(-586.797 -315.755)" opacity="0.1"/>
    <path id="Path_482" data-name="Path 482" d="M1068.728,493.1a10.094,10.094,0,0,1-20.188,0v-.146a10.092,10.092,0,0,1,20.183.146Z" transform="translate(-581.253 -299.888)" fill="#fbbebe"/>
    <path id="Path_483" data-name="Path 483" d="M1062.213,643.885c-1.337,0-5.79.046-10.764.128h-.06l-1.644.027h-.051c-5.9.091-11.713-1.058-14.049-.843-4.961.458,1.782-4.581,1.782-4.581a41.609,41.609,0,0,0,11.3,1.141l1.429-.073c4.508-.256,9.038-.678,11.406-1.374C1061.727,639.611,1061.957,641.516,1062.213,643.885Z" transform="translate(-573.277 -384.087)" opacity="0.1"/>
    <path id="Path_484" data-name="Path 484" d="M1062.213,643.33c-1.337,0-5.79.05-10.764.128h-.06l-1.644.028h-.051c-5.9.1-11.713-1.058-14.049-.838-4.961.458,1.782-4.581,1.782-4.581a41.4,41.4,0,0,0,11.3,1.141l1.429-.073c4.508-.252,9.038-.678,11.406-1.374C1061.727,639.056,1061.957,640.962,1062.213,643.33Z" transform="translate(-573.277 -383.788)" fill="#2b2839"/>
    <path id="Path_485" data-name="Path 485" d="M1048.311,531.688l-7.788,3.664-6.024,46.559s3.564-1.613,5.6-.6,8.309.087,8.309.087,4.581-.257,5.259.257,8.653-2.121,8.653-2.121,1.443-3.207.339-3.734.339-5.5.339-5.5l-.678-33.586-1.374-4.324-3.665-2.208-3.729,2.968-1.782.256Z" transform="translate(-573.644 -325.494)" opacity="0.1"/>
    <path id="Path_486" data-name="Path 486" d="M1048.295,530.583l-7.787,3.664-6.038,46.563s3.564-1.612,5.6-.6,8.309.087,8.309.087,4.581-.257,5.259.252,8.653-2.116,8.653-2.116,1.443-3.207.339-3.733.339-5.5.339-5.5l-.678-33.586-1.374-4.324-3.665-2.208-3.729,2.968-1.782.256Z" transform="translate(-573.628 -324.898)" fill="#f2f9f9"/>
    <path id="Path_487" data-name="Path 487" d="M1057.173,536.284s2.249,2.671,2.208,3.207-.128,1.869-.128,1.869l-1.695,3.431s-.916,4.283-.916,5.176-1.484,8.607-1.484,8.607l-1.818,11.887-2.249,15.575,2.29,3.944,2.717-2.29,3.605-27.732.76-5.469s.806-9.84.806-10.856a34.724,34.724,0,0,0-.458-3.688,4.342,4.342,0,0,1,2.844-3.138c2.29-.591-.175-.128-.175-.128l-1.309-1.058-1.146.458S1057.851,535.1,1057.173,536.284Z" transform="translate(-582.635 -328.436)" opacity="0.1"/>
    <path id="Path_488" data-name="Path 488" d="M1056.667,535.7s2.245,2.671,2.2,3.206-.129,1.864-.129,1.864l-1.695,3.436s-.916,4.283-.916,5.172-1.484,8.607-1.484,8.607l-1.777,11.873-2.249,15.575,2.29,3.944,2.712-2.29,3.605-27.732.765-5.469s.806-9.839.806-10.856a34.787,34.787,0,0,0-.458-3.692,4.34,4.34,0,0,1,2.84-3.138c2.29-.6-.17-.124-.17-.124l-1.315-1.063-1.145.458S1057.345,534.511,1056.667,535.7Z" transform="translate(-582.38 -328.106)" fill="#2b2839"/>
    <path id="Path_489" data-name="Path 489" d="M1058.569,526.79s-.339.256-.426,1.951a33.943,33.943,0,0,1-1.273,5.5s4.411-3.051,6.615-2.712Z" transform="translate(-585.767 -323.651)" opacity="0.1"/>
    <path id="Path_490" data-name="Path 490" d="M1058.569,525.68s-.339.257-.426,1.951a33.932,33.932,0,0,1-1.273,5.5s4.411-3.051,6.615-2.712Z" transform="translate(-585.767 -323.05)" fill="#f2f9f9"/>
    <path id="Path_491" data-name="Path 491" d="M1078.644,523.83l-6.954,6.106s5.85,3.477,6.615,4.324,1.525-8.309,1.525-8.309Z" transform="translate(-593.798 -322.047)" opacity="0.1"/>
    <path id="Path_492" data-name="Path 492" d="M1079.194,522.72l-6.954,6.106s5.854,3.477,6.615,4.324,1.525-8.31,1.525-8.31Z" transform="translate(-594.096 -321.446)" fill="#f2f9f9"/>
    <path id="Path_493" data-name="Path 493" d="M1037.236,526.715s-.76-.38-1.484.724a4.786,4.786,0,0,1-2.075,1.608s-7.718,1.232-8.016,2.249l-3.605.211s-1.273.169-1.374,2.845-.806,2.922-.806,2.922-1.484,2.629-1.374,3.985a2.231,2.231,0,0,1-1.146,2.039l5.3,13.779s.169,5.685-.806,7.76-2.8,11.282-2.8,11.282.765-.169.719.339-.916,6.065-.916,6.065a12.344,12.344,0,0,1-.678,2.968c-.421.765-.458,4.746-.458,4.746l-.678,2.886s1.608,3.6,4.068,3.1,6.908-10.137,6.908-10.137l2.84-10.389,2.208-10.261.637-6.953,1.017-15.4,1.484-10.174S1037.832,527.439,1037.236,526.715Z" transform="translate(-564.182 -323.576)" opacity="0.1"/>
    <path id="Path_494" data-name="Path 494" d="M1036.681,525.605s-.765-.38-1.485.724a4.81,4.81,0,0,1-2.079,1.608s-7.719,1.232-8.016,2.249l-3.6.211s-1.274.169-1.4,2.84-.806,2.927-.806,2.927-1.484,2.629-1.374,3.985a2.222,2.222,0,0,1-1.145,2.038l5.318,13.8s.169,5.685-.806,7.76-2.8,11.282-2.8,11.282.765-.169.724.339-.916,6.06-.916,6.06a12.072,12.072,0,0,1-.678,2.969c-.426.76-.458,4.75-.458,4.75l-.678,2.886s1.612,3.605,4.072,3.092,6.912-10.133,6.912-10.133l2.84-10.389,2.2-10.261.609-6.981,1.017-15.4,1.484-10.174S1037.272,526.329,1036.681,525.605Z" transform="translate(-563.878 -322.975)" fill="#c73c3c"/>
    <path id="Path_495" data-name="Path 495" d="M988.659,588.069l-2.46,1.695a29.125,29.125,0,0,1-6.45-.541l-1.374-.609-.275-.119.284.092a5.616,5.616,0,0,0,3.394.119c3.481-1.173,3.1-6.917,2.959-8.218a1.2,1.2,0,0,0-.027-.248h0v.032a2.288,2.288,0,0,0,.16.224l.156.165h0l1.273,2.446a.657.657,0,0,1,0,.105Z" transform="translate(-543.08 -352.617)" opacity="0.1"/>
    <path id="Path_496" data-name="Path 496" d="M997.466,561.14l-1.187.339-.17,2.414a1.641,1.641,0,0,0-1.782,1.443,5.829,5.829,0,0,1-1.058,2.419s-2.332,1.952-2.46,3.605l-1.443.889s-3.349-.765-4.123-2.121c0,0,1.53,10.939-6.615,8.245,0,0,9.116,3.985,9.542,4.539a5.331,5.331,0,0,0,5.767.806,6.046,6.046,0,0,0,3.1-3.436,35.468,35.468,0,0,0,2.543-3.944c.082-.509,1.993-1.1,1.993-1.1l3.664-8.818Z" transform="translate(-543.367 -342.266)" fill="#c73c3c"/>
    <path id="Path_497" data-name="Path 497" d="M1083.748,528.318l1.228-5.6a6.582,6.582,0,0,0,1.1,2.249l1.832,1.374a10.76,10.76,0,0,0,2.46.847c.628,0,4.073.916,4.494,1.374s2.12.128,2.12.128,1.4.458,2.63.765,1.832,2.332,1.567,3.138a2.45,2.45,0,0,0,.6,2.29,5.466,5.466,0,0,1,.765,2.162,2.482,2.482,0,0,1,1.438,1.228,8.478,8.478,0,0,1,.3,2.968l-6.317,8.9a26.193,26.193,0,0,1-.17,4.2c-.252.765.889,13.742.889,13.742L1100,590.4a23.142,23.142,0,0,1-2.12,1.654c-.381.17-.761-7.888-.761-8.181s-9.8-14.658-9.8-14.658a13.167,13.167,0,0,1-1.315-2.588c0-.467-1.228-4.75-1.228-4.75l-1.864-8.246Z" transform="translate(-599.879 -321.446)" opacity="0.1"/>
    <path id="Path_498" data-name="Path 498" d="M1105.393,540.769v.486l-6.312,8.9h0a25.694,25.694,0,0,1-.17,4.2c-.147.458.174,5.007.458,8.754.215,2.7.412,4.984.412,4.984l.559,9.459.756,12.826a23.111,23.111,0,0,1-2.121,1.654c-.38.169-.76-7.888-.76-8.186s-9.8-14.658-9.8-14.658a13.161,13.161,0,0,1-1.315-2.588c0-.467-1.227-4.75-1.227-4.75l-1.865-8.245.848-25.272.719-5.6a12.014,12.014,0,0,0,1.612,2.245l1.832,1.4a10.757,10.757,0,0,0,2.46.847c.628,0,4.072.916,4.494,1.374s2.121.128,2.121.128,1.4.458,2.629.765,1.832,2.331,1.567,3.138a2.456,2.456,0,0,0,.6,2.29,5.465,5.465,0,0,1,.765,2.162,2.482,2.482,0,0,1,1.438,1.228A6.872,6.872,0,0,1,1105.393,540.769Z" transform="translate(-600.475 -321.451)" fill="#c73c3c"/>
    <path id="Path_499" data-name="Path 499" d="M1017.53,808.76c.211,0,9.116.339,8.946,1.782S1017.53,808.76,1017.53,808.76Z" transform="translate(-564.447 -476.457)" opacity="0.1"/>
    <path id="Path_500" data-name="Path 500" d="M1021.88,814s5.978.976,4.412,1.864S1021.88,814,1021.88,814Z" transform="translate(-566.805 -479.297)" opacity="0.1"/>
    <path id="Path_501" data-name="Path 501" d="M1070.39,806.73s9.922.847,8.438,1.947-5,1.273-5.172,1.315S1070.39,806.73,1070.39,806.73Z" transform="translate(-593.094 -475.358)" opacity="0.1"/>
    <path id="Path_502" data-name="Path 502" d="M1067.8,816.26s5.5.916,5.68,1.993S1067.8,816.26,1067.8,816.26Z" transform="translate(-591.69 -480.522)" opacity="0.1"/>
    <path id="Path_503" data-name="Path 503" d="M1074.46,760.53s5.039,1.187,5.345,1.993Z" transform="translate(-595.299 -450.32)" opacity="0.1"/>
    <path id="Path_504" data-name="Path 504" d="M1030.588,768.49s-2.629.765-.082,2.29S1030.588,768.49,1030.588,768.49Z" transform="translate(-570.877 -454.634)" opacity="0.1"/>
    <path id="Path_505" data-name="Path 505" d="M1057.43,678.322c.3,0,4.92-1.525,6.532-.847a10.739,10.739,0,0,0,3.6.678Z" transform="translate(-586.07 -405.217)" opacity="0.1"/>
    <path id="Path_506" data-name="Path 506" d="M1051.615,687.311l-.046.421-3.953,10.352s-.637,3.138-1.186,4.92a32.174,32.174,0,0,0-.829,3.665l3.5-21.7Z" transform="translate(-579.659 -409.373)" opacity="0.1"/>
    <path id="Path_507" data-name="Path 507" d="M1069.021,645.084l-1.644.027h-.05l-.966-4.274,1.429-.078Z" transform="translate(-590.91 -385.414)" fill="#3f3d56"/>
    <path id="Path_508" data-name="Path 508" d="M1095.645,634.082l-1.054.87-3.527,2.9s-9.537,5.089-12.166.256c-2.318-4.26,8.5-7.3,11.1-7.966l.554-.133Z" transform="translate(-597.529 -379.589)" fill="#fbbebe"/>
    <path id="Path_509" data-name="Path 509" d="M1026.88,547.9s1.864.847,2.29,2.034S1026.88,547.9,1026.88,547.9Z" transform="translate(-569.515 -335.091)" opacity="0.1"/>
    <path id="Path_510" data-name="Path 510" d="M1012.072,575.67s-2.712,3.307-1.613,4.581S1012.072,575.67,1012.072,575.67Z" transform="translate(-560.474 -350.14)" opacity="0.1"/>
    <path id="Path_511" data-name="Path 511" d="M1117.079,552s-2.542.256-2.629,2.46Z" transform="translate(-616.971 -337.313)" opacity="0.1"/>
    <path id="Path_512" data-name="Path 512" d="M1068.72,618.193c.257-.256,6.106-8.9,7.467-8.14Z" transform="translate(-592.189 -368.748)" opacity="0.1"/>
    <path id="Path_513" data-name="Path 513" d="M1068.754,493.131a10.071,10.071,0,0,1-1.2,4.764h-.073c-.642-.137-.976-.88-1.461-1.347a1.984,1.984,0,0,0-2.291-.321,2.328,2.328,0,0,0-1.127,2.176c-.321-1.374-.22-2.8-.536-4.164s-1.264-2.748-2.565-2.748c-.558,0-1.214.206-1.617-.215a4,4,0,0,1-.458-.957c-.916-1.507-3.756-.747-4.911.028a29.92,29.92,0,0,1-3.93,2.661,10.092,10.092,0,0,1,20.183.147Z" transform="translate(-581.28 -299.915)" opacity="0.1"/>
    <path id="Path_514" data-name="Path 514" d="M1054.34,483.6a6.449,6.449,0,0,0,.458.962c.4.417,1.058.2,1.617.211,1.3.023,2.254,1.4,2.565,2.748s.215,2.8.541,4.159a2.291,2.291,0,0,1,1.122-2.171,1.993,1.993,0,0,1,2.29.316c.486.458.82,1.214,1.461,1.347s1.255-.481,1.484-1.154a17.718,17.718,0,0,0,.366-2.112c.289-1.319,1.155-2.4,1.631-3.665a6.648,6.648,0,0,0-.041-4.737c-.321-.8-.793-1.512-1.113-2.29-.49-1.2-.619-2.57-1.214-3.72a4.4,4.4,0,0,0-5.282-2.171c-.916.348-1.722,1.017-2.657,1.319a8.723,8.723,0,0,1-3.889-.083,4.789,4.789,0,0,0-3.775.655c-1.2.985-1.53,2.831-2.656,3.908-.458.458-1.063.742-1.562,1.159a2.155,2.155,0,0,0-.875,1.722c.078.88.916,1.677.619,2.492a1.936,1.936,0,0,1-.458.618,8.877,8.877,0,0,0-2.052,3.5c2.29.706,4.727-1.8,6.5-2.978C1050.583,482.855,1053.41,482.095,1054.34,483.6Z" transform="translate(-578.207 -293.472)" fill="#7c5c5c"/>
    <path id="Path_515" data-name="Path 515" d="M1108.968,634.082l-1.054.87c-.916-1.553-4.755-4.649-4.755-4.649l.165-.16.554-.133Z" transform="translate(-610.853 -379.589)" opacity="0.1"/>
    <path id="Path_516" data-name="Path 516" d="M1110.289,630.9s-.375.944-.769,1.759-.82,1.557-.838.957c-.046-1.191-4.961-5.176-4.961-5.176l.664-.65.774-.751Z" transform="translate(-611.156 -377.979)" fill="#f2f9f9"/>
    <path id="Path_517" data-name="Path 517" d="M1110.507,615.874l.559,9.459c-1.319-2.048-4.933-7.3-7.256-7.128l5.639-6.486a7.631,7.631,0,0,0,.646-.829C1110.31,613.593,1110.507,615.874,1110.507,615.874Z" transform="translate(-611.205 -369.227)" opacity="0.1"/>
    <path id="Path_518" data-name="Path 518" d="M1111.075,630.9s-.376.944-.77,1.759c-1.48-2.025-3.509-4.42-5.135-4.869l.774-.751Z" transform="translate(-611.942 -377.979)" opacity="0.1"/>
    <path id="Path_519" data-name="Path 519" d="M1114.877,560.58l1.525,1.186s2.547.046,2.8,2.162,2.589,3.1,2.589,3.1,1.736,1.741,1.736,2.547,1.315,2.245,1.315,2.373,1.273,2.712,1.1,3.179,1.375,2.5.889,3.266a19.594,19.594,0,0,0-1.017,2.121s-1.993,3.816-3.01,4.535-5.68,6.789-5.68,6.789-5.006,5.763-5.006,7.545c0,0-4.874-8.14-7.76-7.929l5.639-6.486a4.4,4.4,0,0,0,1.021-1.695c.046-.632,2.712-3.564,3.986-3.692,0,0,.21-1.736-.339-1.782s-1.017-1.374-1.017-1.374-3.734-4.411-3.775-7.21S1114.877,560.58,1114.877,560.58Z" transform="translate(-611.503 -341.963)" fill="#c73c3c"/>
    <path id="Path_520" data-name="Path 520" d="M1128.792,569.37s-3.564,2.629-2.8,3.481S1128.792,569.37,1128.792,569.37Z" transform="translate(-623.168 -346.726)" opacity="0.1"/>
    <path id="Path_521" data-name="Path 521" d="M1132.6,591.955s6.614-2.121,7.292,0Z" transform="translate(-626.807 -358.455)" opacity="0.1"/>
    <path id="Path_522" data-name="Path 522" d="M1015.256,838.29s-3.564,2.336-5.346,1.993a6.414,6.414,0,0,0-3.605.6,10.7,10.7,0,0,1-4.494,2.927,16.461,16.461,0,0,1-9.2-.17c-1.081-.362-1.168-.829-.646-1.4,2.487.495,8.053,1.479,9.551.765a39.792,39.792,0,0,0,4.75-2.968s3.665-.509,4.155-.509a45.371,45.371,0,0,0,4.769-1.832Z" transform="translate(-550.424 -492.136)" opacity="0.1"/>
    <path id="Path_523" data-name="Path 523" d="M1078.093,849.45a.778.778,0,0,1-.032.234s-.847,1.864-5.556,2.542-4.7-1.567-4.7-1.567l.046-.609C1069.334,850.618,1072.587,851.246,1078.093,849.45Z" transform="translate(-591.69 -498.509)" opacity="0.1"/>
    <path id="Path_524" data-name="Path 524" d="M1029.471,568.26s0,9.67-.825,10.623S1029.471,568.26,1029.471,568.26Z" transform="translate(-570.347 -346.125)" opacity="0.1"/>
    <path id="Path_525" data-name="Path 525" d="M1114.17,575.07l1.232,3.454S1115.888,575.134,1114.17,575.07Z" transform="translate(-616.819 -349.815)" opacity="0.1"/>
    <g id="Group_95" data-name="Group 95" transform="translate(464.736 185.759)" opacity="0.1">
      <path id="Path_526" data-name="Path 526" d="M1047.832,491.278c.311-.792-.5-1.576-.609-2.428a1.562,1.562,0,0,0-.138.765,14.928,14.928,0,0,0,.655,1.832A1.069,1.069,0,0,0,1047.832,491.278Z" transform="translate(-1045.197 -488.85)"/>
      <path id="Path_527" data-name="Path 527" d="M1059.676,503.588c-.3-1.338-.211-2.748-.522-4.091s-1.264-2.748-2.565-2.748c-.559,0-1.214.2-1.617-.215-.247-.252-.293-.65-.458-.962-.916-1.5-3.756-.737-4.915.032-1.731,1.15-4.123,3.564-6.34,3.014-.105.257-.206.518-.288.788,2.29.705,4.727-1.8,6.5-2.977,1.159-.77,3.985-1.53,4.915-.028a6.414,6.414,0,0,0,.458.962c.4.417,1.058.2,1.617.211,1.3.023,2.254,1.4,2.566,2.748s.215,2.8.541,4.159a2.281,2.281,0,0,1,.11-.893Z" transform="translate(-1042.97 -492.026)"/>
      <path id="Path_528" data-name="Path 528" d="M1085.832,509.748c-.229.674-.834,1.292-1.489,1.154s-.971-.88-1.457-1.347a2,2,0,0,0-2.29-.321,2.318,2.318,0,0,0-1.127,2.057,2.213,2.213,0,0,1,1-1.228,1.993,1.993,0,0,1,2.291.316c.486.458.82,1.214,1.461,1.347s1.255-.481,1.484-1.154a5.408,5.408,0,0,0,.234-1.219,2.984,2.984,0,0,1-.105.394Z" transform="translate(-1062.749 -499.775)"/>
      <path id="Path_529" data-name="Path 529" d="M1095.645,496.883c-.458,1.255-1.342,2.341-1.631,3.665-.055.266-.091.54-.124.815a28.3,28.3,0,0,1,1.626-3.665,6.35,6.35,0,0,0,.39-1.759,6.441,6.441,0,0,1-.261.944Z" transform="translate(-1070.565 -492.692)"/>
    </g>
    <circle id="Ellipse_61" data-name="Ellipse 61" cx="0.105" cy="0.105" r="0.105" transform="translate(428.429 220.445)" fill="#e6e8ec"/>
    <rect id="Rectangle_215" data-name="Rectangle 215" width="82.994" height="95.38" rx="6.61" transform="translate(388.961 222.914)" fill="#fff"/>
    <rect id="Rectangle_216" data-name="Rectangle 216" width="82.994" height="95.38" rx="6.61" transform="translate(388.961 222.914)" fill="#5a5773" opacity="0.1"/>
    <rect id="Rectangle_217" data-name="Rectangle 217" width="74.529" height="85.651" rx="6.61" transform="translate(393.194 227.779)" fill="#fff"/>
    <rect id="Rectangle_218" data-name="Rectangle 218" width="51.13" height="17.645" rx="6.03" transform="translate(404.036 244.957)" fill="#2b2839"/>
    <rect id="Rectangle_219" data-name="Rectangle 219" width="47.379" height="3.6" transform="translate(405.914 269.056)" fill="#2b2839"/>
    <rect id="Rectangle_220" data-name="Rectangle 220" width="65.193" height="3.6" transform="translate(397.861 276.655)" fill="#2b2839"/>
    <rect id="Rectangle_221" data-name="Rectangle 221" width="65.193" height="3.6" transform="translate(397.861 284.653)" fill="#2b2839"/>
    <rect id="Rectangle_222" data-name="Rectangle 222" width="65.193" height="3.6" transform="translate(397.861 292.651)" fill="#2b2839"/>
    <rect id="Rectangle_223" data-name="Rectangle 223" width="195.42" height="95.38" rx="6.61" transform="translate(0 191.385)" fill="#fff"/>
    <rect id="Rectangle_224" data-name="Rectangle 224" width="195.42" height="95.38" rx="6.61" transform="translate(0 191.385)" fill="#5a5773" opacity="0.1"/>
    <rect id="Rectangle_225" data-name="Rectangle 225" width="175.48" height="85.651" rx="6.61" transform="translate(9.968 196.249)" fill="#fff"/>
    <rect id="Rectangle_226" data-name="Rectangle 226" width="120.387" height="17.645" rx="6.03" transform="translate(35.505 213.432)" fill="#2b2839"/>
    <rect id="Rectangle_227" data-name="Rectangle 227" width="111.555" height="3.6" transform="translate(39.921 237.527)" fill="#2b2839"/>
    <rect id="Rectangle_228" data-name="Rectangle 228" width="153.501" height="3.6" transform="translate(20.957 245.126)" fill="#2b2839"/>
    <rect id="Rectangle_229" data-name="Rectangle 229" width="153.501" height="3.6" transform="translate(20.957 253.124)" fill="#2b2839"/>
    <rect id="Rectangle_230" data-name="Rectangle 230" width="153.501" height="3.6" transform="translate(20.957 261.122)" fill="#2b2839"/>
    <path id="Path_530" data-name="Path 530" d="M132.671,658.84c.545-1.988.916-3.738.916-3.738a7.788,7.788,0,0,1,1.017-3.788v-.549h0l.156-4.036a13.424,13.424,0,0,0-.916-2.153c-.678-1.3.229-5.919.229-5.919s2.945-6.445,2.451-10.627,6.239-18.245,6.239-18.245a18.085,18.085,0,0,0-.421-4.123,3.161,3.161,0,0,1-.046-.857.8.8,0,0,1,0-.105v.032c.2-2.749,2.561-7.787,2.561-7.787l.087-9.8a28.881,28.881,0,0,1,1.374-13.49c.893-2.675,1.48-4.819,1.864-6.477.046-.188.087-.367.124-.541-4.617-.889-8.145-1.612-8.145-1.612s3.129-11.168,5.039-13.069,3.587-8.048,3.587-8.048,1.255-7.925-.183-10.307-1.5-6.413-1.5-6.413-3.4-2.671-3.793-3.811a18.686,18.686,0,0,1-.971-5.039c.05-1.328.536-2.519.417-3.229s1.15-3.339.614-4.631a3.543,3.543,0,0,1-.183-1.232V509.2h0a17.133,17.133,0,0,1,.435-3.294,9.342,9.342,0,0,1,3.527-1.713l.087-.3.229-.783a3.812,3.812,0,0,1,.348-.192l.023-.288.073-1.141-.44-2.6c-.916-4.517,5.094-4.952,5.094-4.952a3.146,3.146,0,0,1,1.745-1.42c1.218-.376-.055,6.738-.637,7.173a24.317,24.317,0,0,0-2.5,3.6h0l-.11.179a2.472,2.472,0,0,1,.266.3l-.289,1.544-.046.234a6.413,6.413,0,0,1,.893,1.663,3.453,3.453,0,0,0-.971,2.5,8.06,8.06,0,0,1-.458,3.083c.064-.069.866-.87,1.626-.641s2.877.957,2.877.957,1.59.344,1.429.692,1.021,1.942,1.021,1.942l4.457-3.907c.05-.124.1-.243.142-.366a10.237,10.237,0,0,0,.458-1.773,9.561,9.561,0,0,1-1.374-.49,2.988,2.988,0,0,1-1.163-.806,4.807,4.807,0,0,1-.618-1.883,26.4,26.4,0,0,0-1.461-3.623,11.585,11.585,0,0,1-.614-6.413,4.269,4.269,0,0,1,.733-1.832c.742-.939,2.029-1.283,2.987-2.016s1.6-1.892,2.7-2.428a5.2,5.2,0,0,1,3.28-.156,17.528,17.528,0,0,1,5.978,2.432,3.106,3.106,0,0,0,2.016.751,2.782,2.782,0,0,0,1.512-1.022.335.335,0,0,1,0-.064l.05-.05a7.553,7.553,0,0,1,.541,3.243,2.418,2.418,0,0,1-.037.513v.179a.819.819,0,0,0,0,.151h0a.755.755,0,0,0,.027.225,1.609,1.609,0,0,0,.38.6,3.275,3.275,0,0,1,.33.49.654.654,0,0,0-.05-.179,2.555,2.555,0,0,1,.394,1.374,1.342,1.342,0,0,1-.362.957,4.252,4.252,0,0,1-.724.54,8.222,8.222,0,0,1-4.251,8.378c-.055.119-.11.243-.16.367a10.242,10.242,0,0,0-.962,4.658,1.1,1.1,0,0,0,.037.344c.037.114.105.124.151.188h0s7.1.344,8.832-1.109,4.077,3.862,4.077,3.862,2.529.591,3.055.119,3.5.064,3.5.064a6.414,6.414,0,0,1,4.5-1.452,13.136,13.136,0,0,1,3.33-1.686h0l.082-.027h0a3.592,3.592,0,0,1,1.608-.142,32.269,32.269,0,0,0,4.682-4.265c1.076-1.516,6.129-7.073,6.129-7.1l.032-.275.087-.834a2.821,2.821,0,0,0,.431.055l.11-.289a15.722,15.722,0,0,1,1.122-2.327s.041-1.058-.256-1.333.289-4.123.289-4.123,3.431-7.238,6.037-1.635c0,0,5.195,3.761.559,7.728,0,0-1.832.8-2.093,1.47-.183.458-.838,1.658-1.278,2.469l-.2.362.05.046-.092.687-.037.27c.82.508,1.374,1,1.223,1.374a7.786,7.786,0,0,0-.582,1.883s-6.477,7.467-7.4,10.76c0,0-16.976,9.226-22.446,9.72l.756,4.966a39.586,39.586,0,0,1,.064,4.027c-.115,1.054.431,5.868.431,5.868s.673,7.082,1.438,8.1.458,5.24.458,5.24a35.682,35.682,0,0,0,.861,6.028,15.4,15.4,0,0,1,0,6s2.524,6.445-3.935,1.892c0,0-3.243-.325-6.981-.6v.371c0,.486-.023,1.008-.037,1.558-.092,3.632-.261,8.635-.573,12.414-.55,6.683-3.1,19.848-3.1,19.848l-.257,6.651a8.811,8.811,0,0,1,.119,1.91,12.368,12.368,0,0,1-2.048,6.592l-.683,4.42a17.419,17.419,0,0,0-1.4,4.622,2.079,2.079,0,0,0,.037.426,3.4,3.4,0,0,1,.032.682,37.379,37.379,0,0,1-1.411,6.789s-.261,4.86-1,5.112c-.632.22.724,2.836,1.127,3.587a.737.737,0,0,0,.032-.137l.087.147a3.455,3.455,0,0,1,.179,1.241,1.773,1.773,0,0,1-.875,1.677c-1.415.793-2.185,1.466-1.021,1.8a13.042,13.042,0,0,1,1.273.316l.069-.16a.783.783,0,0,1,.458.87,3.559,3.559,0,0,1-.5,1.631,17.75,17.75,0,0,1-2.107,3.518l-.559-.082a2.794,2.794,0,0,0,.3.609,2.327,2.327,0,0,0,.8.765,2.549,2.549,0,0,0,.98.376,2.827,2.827,0,0,1,2.025,1.085c.687.967,1.095,2.263-.385,3.33l-5.272,1.594s-9,.82-8.447-1.168.916-3.738.916-3.738a7.948,7.948,0,0,1,.861-3.536,4.74,4.74,0,0,1,.339-.513l-.316-.046s-.522-4.466-1.383-5.332c-.192-.206-.234-.357-.183-.458-.078-.243.151-.375.458-.458a.714.714,0,0,0,.06.174,4.431,4.431,0,0,1,.87-.06s.38-2.313-.531-3.207a.87.87,0,0,1-.156-.7,3.567,3.567,0,0,1,.133-.944.341.341,0,0,0,.032.055,34.66,34.66,0,0,1,2.29-5.378,6.732,6.732,0,0,0-.4-2.982c-.55-.87.518-11.479.518-11.479s-.023-5.149.724-7.517-.6-5.245-.6-5.245a.729.729,0,0,1,.023-.151.186.186,0,0,0,0-.041s.046-.316.119-.806V610c.2-1.374.573-3.807.82-4.943.353-1.608.289-9.372.289-9.372l-1.186-3.344-2.552,5.616-2.748,7.512a6.464,6.464,0,0,0-1.374,3.206v.243a3.811,3.811,0,0,1,0,.509,4.543,4.543,0,0,1-.861,2.68s-.792,3.568-1.832,4.443a4.152,4.152,0,0,0-1.122,2.638s-1.438,5.167-2.057,6.06a9.114,9.114,0,0,0-.646,3.523h0v.188s-.243,1.86-.3,3.426v.554a.1.1,0,0,1,0-.037,5.3,5.3,0,0,0,.1,1.269s0,.05,0,.078v-.266a13.326,13.326,0,0,1,.252,3.261c-.041,1.874-.412,4.082-1.6,5.341-2.052,2.181-3.275,1.832-3.275,1.832s.838,2.854,1.979,3.463a.718.718,0,0,1,.124.082.281.281,0,0,1,.032-.16,1.374,1.374,0,0,1,.3,1.063,7.594,7.594,0,0,1-1.6,4.123,2.29,2.29,0,0,1-1,.54,1.765,1.765,0,0,0,.179.119,3.611,3.611,0,0,0,.394.2,1.947,1.947,0,0,0,.586.179,2.785,2.785,0,0,1,2.025,1.086c.687.962,1.095,2.258-.385,3.326l-5.272,1.594S132.117,660.828,132.671,658.84Z" transform="translate(-84.907 -303.441)" fill="url(#linear-gradient-3)"/>
    <path id="Path_531" data-name="Path 531" d="M197.365,857.455l5.108-1.6c1.434-1.072,1.04-2.368.376-3.335a2.674,2.674,0,0,0-1.956-1.076,2.39,2.39,0,0,1-.953-.38,2.288,2.288,0,0,1-.765-.76,3.756,3.756,0,0,1-.5-1.97s-5.469-1.832-7.045-.27a4.125,4.125,0,0,0-.7.957,8.246,8.246,0,0,0-.843,3.537s-.348,1.745-.884,3.738S197.365,857.455,197.365,857.455Z" transform="translate(-115.543 -497.416)" fill="#2d293d"/>
    <path id="Path_532" data-name="Path 532" d="M143.744,849.943l5.108-1.6c1.434-1.072,1.04-2.368.376-3.33a2.675,2.675,0,0,0-1.961-1.081,1.8,1.8,0,0,1-.568-.174,3.658,3.658,0,0,1-.38-.206,3.233,3.233,0,0,1-1.269-2.749s-5.469-1.832-7.045-.27a4.043,4.043,0,0,0-.559.7,7.994,7.994,0,0,0-.989,3.8s-.353,1.75-.884,3.738S143.744,849.943,143.744,849.943Z" transform="translate(-86.48 -493.335)" fill="#2d293d"/>
    <path id="Path_533" data-name="Path 533" d="M193.7,848.063a4.123,4.123,0,0,0-.7.957h0l8.245,1.278a3.757,3.757,0,0,1-.5-1.97S195.29,846.5,193.7,848.063Z" transform="translate(-117.615 -497.415)" opacity="0.1"/>
    <path id="Path_534" data-name="Path 534" d="M139.62,841.249l-.06,1.553c1.209,2.176,7.462,1.951,9.313.957a3.622,3.622,0,0,1-.38-.206,3.233,3.233,0,0,1-1.269-2.749s-5.469-1.832-7.045-.27A4.05,4.05,0,0,0,139.62,841.249Z" transform="translate(-88.654 -493.335)" opacity="0.1"/>
    <path id="Path_535" data-name="Path 535" d="M137.814,731.264a14.232,14.232,0,0,1,.916,2.153l-.224,5.561c1.319,2.382,8.676,1.887,9.711.66s2.217-4.5,1.113-5.108-1.915-3.463-1.915-3.463,1.186.33,3.179-1.832,1.617-7.205,1.305-8.415.206-5.213.206-5.213.037-2.822.637-3.715,2-6.06,2-6.06a4.135,4.135,0,0,1,1.086-2.639c1.021-.875,1.8-4.448,1.8-4.448a4.609,4.609,0,0,0,.82-3,6.168,6.168,0,0,1,1.338-3.619l2.689-7.512,2.474-5.621,1.141,3.358s.055,7.764-.289,9.372-.916,5.891-.916,5.891,1.3,2.872.577,5.245-.715,7.517-.715,7.517-1.044,10.614-.513,11.48a6.9,6.9,0,0,1,.38,2.977s-3.124,6.088-2.245,6.972.513,3.206.513,3.206-1.97-.078-1.159.8,1.246,5.309,1.246,5.309l8.479,1.315a17.947,17.947,0,0,0,2.043-3.523c1.228-2.561-.119-2.332-1.241-2.657s-.38-1,.989-1.8.669-2.725.669-2.725-1.91-3.532-1.191-3.784.971-5.112.971-5.112,1.631-5.726,1.338-7.288,1.333-5.24,1.333-5.24l.66-4.416a12.2,12.2,0,0,0,1.874-8.323l.266-6.835s2.492-13.142,3.051-19.848c.348-4.279.522-10.128.6-13.779.046-2.052.064-3.408.064-3.408l-30.311-4.343a25.013,25.013,0,0,1-.728,4.5,66.9,66.9,0,0,1-1.832,6.482,29.792,29.792,0,0,0-1.374,13.49l-.1,9.8s-2.932,6.45-2.451,8.726a18.615,18.615,0,0,1,.4,4.122s-6.523,14.054-6.047,18.218-2.387,10.632-2.387,10.632S137.159,729.968,137.814,731.264Z" transform="translate(-87.577 -390.075)" fill="#b82b2b"/>
    <path id="Path_536" data-name="Path 536" d="M168.267,747.6,159.05,746S164.093,751.57,168.267,747.6Z" transform="translate(-99.216 -442.447)" opacity="0.05"/>
    <path id="Path_537" data-name="Path 537" d="M161.975,726.39s-.458,3.261,1.516,4.581C163.473,730.962,159.923,730.261,161.975,726.39Z" transform="translate(-100.455 -431.819)" opacity="0.1"/>
    <path id="Path_538" data-name="Path 538" d="M164.85,703.67s7.5,6.674,10.334,6.257S164.85,703.67,164.85,703.67Z" transform="translate(-102.359 -419.507)" opacity="0.1"/>
    <path id="Path_539" data-name="Path 539" d="M204,757s5.831,1.567,5.918,3.93S204,757,204,757Z" transform="translate(-123.576 -448.408)" opacity="0.1"/>
    <path id="Path_540" data-name="Path 540" d="M196.889,821s8.245,1.869,5.854,2.836a39.951,39.951,0,0,1-6.308,1.663S193.751,825.544,196.889,821Z" transform="translate(-118.897 -483.091)" opacity="0.05"/>
    <g id="Group_96" data-name="Group 96" transform="translate(50.001 263.399)" opacity="0.05">
      <path id="Path_541" data-name="Path 541" d="M213.172,829.613a1.649,1.649,0,0,0,.806-1.173l.078.151s.705,1.929-.669,2.748c-.156.087-.3.179-.458.266-.243-.055-.508-.1-.76-.174C211.051,831.088,211.8,830.41,213.172,829.613Z" transform="translate(-177.709 -750.521)"/>
      <path id="Path_542" data-name="Path 542" d="M191.479,827.162c-.22-.22-.188-.76,0-1.452a3.935,3.935,0,0,1,.394,2.061A1.6,1.6,0,0,0,191.479,827.162Z" transform="translate(-166.708 -749.042)"/>
      <path id="Path_543" data-name="Path 543" d="M197.259,752.48a9.583,9.583,0,0,1,.458,2.616,9.991,9.991,0,0,0-.577-1.8S197.19,752.975,197.259,752.48Z" transform="translate(-169.859 -709.357)"/>
      <path id="Path_544" data-name="Path 544" d="M156.105,741.894a3.357,3.357,0,0,1-.05-.774c.087.531.142,1.022.174,1.452C156.192,742.352,156.151,742.128,156.105,741.894Z" transform="translate(-147.591 -703.2)"/>
      <path id="Path_545" data-name="Path 545" d="M195.54,805.311a4.668,4.668,0,0,1-.147-1.571,5.3,5.3,0,0,1,.33,1.988A1.94,1.94,0,0,0,195.54,805.311Z" transform="translate(-168.905 -737.136)"/>
      <path id="Path_546" data-name="Path 546" d="M190.272,836a27.657,27.657,0,0,1,.8,4.365l8.479,1.315a17.757,17.757,0,0,0,2.048-3.522c.11-.225.192-.426.266-.609.5.252.683.792-.05,2.313a17.966,17.966,0,0,1-2.043,3.518l-8.5-1.306s-.458-4.462-1.278-5.336C189.617,836.3,189.9,836.105,190.272,836Z" transform="translate(-165.89 -754.618)"/>
      <path id="Path_547" data-name="Path 547" d="M214.848,727.514s-.257,4.86-.971,5.112h0c-.325-.82-.536-1.589-.215-1.7.715-.257.976-5.112.976-5.112s1.631-5.721,1.338-7.288,1.328-5.236,1.328-5.236l.664-4.421a12.2,12.2,0,0,0,1.874-8.323l.261-6.834s2.483-13.165,3.023-19.848c.344-4.279.518-10.128.6-13.779,0-.66.027-1.246.037-1.741l.243.037s0,1.374-.064,3.4c-.078,3.665-.252,9.505-.6,13.784-.541,6.679-3.019,19.849-3.019,19.849l-.266,6.83a12.212,12.212,0,0,1-1.869,8.323l-.669,4.42s-1.626,3.664-1.333,5.24S214.848,727.514,214.848,727.514Z" transform="translate(-178.726 -658.34)"/>
      <path id="Path_548" data-name="Path 548" d="M149.116,838.414a8.246,8.246,0,0,0,1.475-3.294c.838.815-.275,3.825-1.26,4.993s-8.392,1.722-9.711-.655l.05-1.342C141.5,840.076,148.136,839.577,149.116,838.414Z" transform="translate(-138.687 -754.142)"/>
      <path id="Path_549" data-name="Path 549" d="M137.61,823.935a14.228,14.228,0,0,1,.916,2.153l-.041.985a15.368,15.368,0,0,0-.65-1.438,4.246,4.246,0,0,1-.238-1.755Z" transform="translate(-137.584 -748.05)"/>
      <path id="Path_550" data-name="Path 550" d="M159.252,815.17a13.781,13.781,0,0,1-.632-1.7s1.186.325,3.174-1.855c1.448-1.59,1.644-4.682,1.525-6.715.311,1.214.683,6.234-1.305,8.415A5.08,5.08,0,0,1,159.252,815.17Z" transform="translate(-148.984 -737.765)"/>
      <path id="Path_551" data-name="Path 551" d="M168.695,748.193a37.674,37.674,0,0,0-.3,4.173,5.969,5.969,0,0,0-.119-.66c-.307-1.214.2-5.213.2-5.213s.041-2.822.637-3.715a46.812,46.812,0,0,0,2-6.06,4.159,4.159,0,0,1,1.09-2.638c1.022-.88,1.8-4.448,1.8-4.448a4.636,4.636,0,0,0,.82-3,6.169,6.169,0,0,1,1.338-3.619l2.689-7.512,2.474-5.621,1.141,3.362v1.072l-.916-2.749-2.474,5.616-2.689,7.517a6.106,6.106,0,0,0-1.338,3.619,4.608,4.608,0,0,1-.82,3s-.774,3.568-1.8,4.443a4.135,4.135,0,0,0-1.086,2.638,47.077,47.077,0,0,1-2,6.065C168.745,745.363,168.695,748.193,168.695,748.193Z" transform="translate(-154.162 -686.271)"/>
    </g>
    <path id="Path_552" data-name="Path 552" d="M167.176,502.545l.431,2.593-.073,1.145-.055.843,2.927.417.353-.6h0a26.79,26.79,0,0,1,2.423-3.6c.559-.435,1.8-7.549.623-7.174a3.092,3.092,0,0,0-1.695,1.42S166.31,498.033,167.176,502.545Z" transform="translate(-103.572 -307.051)" fill="#ffcdd3"/>
    <path id="Path_553" data-name="Path 553" d="M167.94,518.762l2.927.417.353-.6h0a2.6,2.6,0,0,0-3.207-.66Z" transform="translate(-104.034 -318.688)" opacity="0.1"/>
    <path id="Path_554" data-name="Path 554" d="M166.2,520.458l3.843,1.049.1-.577.279-1.544a2.67,2.67,0,0,0-3.733-.655l-.22.783Z" transform="translate(-103.091 -319.018)" fill="#dce6f2"/>
    <path id="Path_555" data-name="Path 555" d="M303.74,501.59l4.049,2.382s.17-.325.408-.77c.426-.811,1.058-2.029,1.237-2.469.27-.673,2.029-1.475,2.029-1.475,4.494-3.971-.531-7.723-.531-7.723-2.519-5.6-5.845,1.64-5.845,1.64s-.573,3.862-.284,4.123.247,1.333.247,1.333a15.588,15.588,0,0,0-1.09,2.327C303.818,501.338,303.74,501.59,303.74,501.59Z" transform="translate(-177.627 -303.393)" fill="#ffcdd3"/>
    <path id="Path_556" data-name="Path 556" d="M303.74,515.282l4.049,2.382s.17-.325.408-.77c-.568-.509-2.574-2.29-3.257-2.217a4.917,4.917,0,0,1-.98,0C303.818,515.03,303.74,515.282,303.74,515.282Z" transform="translate(-177.627 -317.086)" opacity="0.1"/>
    <path id="Path_557" data-name="Path 557" d="M302.71,516.752l4.581,2.469.128-1,.092-.687s-2.6-2.409-3.4-2.355a4.322,4.322,0,0,1-1.219-.05l-.082.834Z" transform="translate(-177.069 -317.332)" fill="#dce6f2"/>
    <path id="Path_558" data-name="Path 558" d="M190.45,529.933s20.187,3.069,16.445,1.695a5.084,5.084,0,0,1-3.738-4.549,10.637,10.637,0,0,1,.916-4.663,20.44,20.44,0,0,1,1.956-3.591s-15.171-9.12-12.368-1.25a12.431,12.431,0,0,1,.737,3.706,10.443,10.443,0,0,1-.541,3.7A11.086,11.086,0,0,1,190.45,529.933Z" transform="translate(-116.233 -316.922)" fill="#ffcdd3"/>
    <path id="Path_559" data-name="Path 559" d="M197.091,517.574a12.433,12.433,0,0,1,.738,3.706c1.411,1.278,3.014,1.26,5.071,1.338,1.58.064,3.312.513,4.581-.2a20.433,20.433,0,0,1,1.956-3.591S194.287,509.7,197.091,517.574Z" transform="translate(-119.644 -316.922)" opacity="0.1"/>
    <circle id="Ellipse_62" data-name="Ellipse 62" cx="8.387" cy="8.387" r="8.387" transform="translate(75.445 189.474)" fill="#ffcdd3"/>
    <path id="Path_560" data-name="Path 560" d="M190.45,541.579s20.187,3.069,16.445,1.695a5.084,5.084,0,0,1-3.738-4.549,11.151,11.151,0,0,0-4.251-2.469,6.106,6.106,0,0,0-3.665-.2,5.026,5.026,0,0,0-1.374.573A11.084,11.084,0,0,1,190.45,541.579Z" transform="translate(-116.233 -328.569)" opacity="0.1"/>
    <path id="Path_561" data-name="Path 561" d="M166.2,521.845l3.843,1.049.1-.577a3.421,3.421,0,0,0-3.665-1.415Z" transform="translate(-103.091 -320.405)" opacity="0.1"/>
    <path id="Path_562" data-name="Path 562" d="M302.71,517.765l4.581,2.469.128-1A34.66,34.66,0,0,0,302.792,517Z" transform="translate(-177.069 -318.346)" opacity="0.1"/>
    <path id="Path_563" data-name="Path 563" d="M168.65,653.858c7.787,1.544,18.918,3.587,20.71,3.115,1.489-.389,6.184-.16,10.265.138.046-2.052.064-3.408.064-3.408l-30.311-4.343A25.011,25.011,0,0,1,168.65,653.858Z" transform="translate(-104.419 -390.075)" opacity="0.1"/>
    <path id="Path_564" data-name="Path 564" d="M151.72,580.289s25.68,5.433,28.488,4.7,17.017.724,17.017.724c6.244,4.544,3.811-1.9,3.811-1.9a15.5,15.5,0,0,0,0-6,36.647,36.647,0,0,1-.829-6.028s.307-4.224-.431-5.236-1.374-8.1-1.374-8.1-.518-4.814-.408-5.868-.055-4.026-.055-4.026l-.728-4.966c5.309-.5,21.749-9.743,21.749-9.743.916-3.28,7.187-10.8,7.187-10.8a8.132,8.132,0,0,1,.568-1.883c.458-1.109-5.786-3.605-5.786-3.605s-4.952,5.593-5.978,7.1a31.094,31.094,0,0,1-4.54,4.269,3.441,3.441,0,0,0-1.557.142h-.082a12.583,12.583,0,0,0-3.207,1.69,6.138,6.138,0,0,0-4.361,1.452s-2.872-.531-3.381-.06-2.959-.115-2.959-.115-2.29-5.3-3.944-3.852-8.552,1.118-8.552,1.118c-.866-1.255-3.065-2.212-4.439-2.716a6.071,6.071,0,0,0-3.665-.2,4.759,4.759,0,0,0-1.48.646l-4.324,3.921s-1.141-1.594-.985-1.942-1.374-.687-1.374-.687-2.02-.715-2.785-.953-1.512.568-1.576.641a8.144,8.144,0,0,0,.458-3.083,3.541,3.541,0,0,1,.939-2.506c-2.231-6.152-7.989-1.292-7.989-1.292s-.765,3.284-.247,4.581-.715,3.921-.6,4.631-.353,1.892-.4,3.229a19.869,19.869,0,0,0,.916,5.039c.362,1.136,3.665,3.811,3.665,3.811s.06,4.022,1.447,6.413.17,10.307.17,10.307-1.649,6.143-3.486,8.049S151.72,580.289,151.72,580.289Z" transform="translate(-95.244 -318.649)" fill="#c73c3c"/>
    <path id="Path_565" data-name="Path 565" d="M237.735,551.511s.866-2.29,1.576-2.478a16.245,16.245,0,0,0,2.08-.838l-.421-.884s-2.675.628-3.124,1.374S237.735,551.511,237.735,551.511Z" transform="translate(-141.791 -334.772)" opacity="0.1"/>
    <path id="Path_566" data-name="Path 566" d="M269.22,544.418c.115.71,6.358,1.585,6.358,1.585l-3.046-3.3h-.078A12.591,12.591,0,0,0,269.22,544.418Z" transform="translate(-158.92 -332.273)" opacity="0.1"/>
    <circle id="Ellipse_63" data-name="Ellipse 63" cx="0.563" cy="0.563" r="0.563" transform="translate(128.247 202.607)" fill="#2b2839"/>
    <circle id="Ellipse_64" data-name="Ellipse 64" cx="0.563" cy="0.563" r="0.563" transform="translate(127.482 203.707)" fill="#2b2839"/>
    <circle id="Ellipse_65" data-name="Ellipse 65" cx="0.563" cy="0.563" r="0.563" transform="translate(126.736 204.719)" fill="#2b2839"/>
    <circle id="Ellipse_66" data-name="Ellipse 66" cx="0.563" cy="0.563" r="0.563" transform="translate(125.957 205.819)" fill="#2b2839"/>
    <circle id="Ellipse_67" data-name="Ellipse 67" cx="0.458" cy="0.458" r="0.458" transform="translate(59.664 203.308)" fill="#2b2839"/>
    <circle id="Ellipse_68" data-name="Ellipse 68" cx="0.458" cy="0.458" r="0.458" transform="translate(59.554 204.344)" fill="#2b2839"/>
    <circle id="Ellipse_69" data-name="Ellipse 69" cx="0.458" cy="0.458" r="0.458" transform="translate(59.449 205.379)" fill="#2b2839"/>
    <path id="Path_567" data-name="Path 567" d="M202.525,598.15c.069-.078-16.582,19.363-28.465,7.3C174.06,605.452,193.437,608.841,202.525,598.15Z" transform="translate(-107.35 -362.323)" opacity="0.1"/>
    <path id="Path_568" data-name="Path 568" d="M242.554,621.679s-9.514-.105-10.614,2.588l-.11,2.845a1.833,1.833,0,0,0,1.768.069c.98-.481,6.834-3.179,8.809-1.7Z" transform="translate(-138.657 -375.074)" opacity="0.1"/>
    <path id="Path_569" data-name="Path 569" d="M242.722,621.659s-9.093-.1-10.146,2.469l-.105,2.712a1.741,1.741,0,0,0,1.69.064c.916-.458,6.537-3.028,8.424-1.617Z" transform="translate(-139.004 -375.063)" fill="#2b2839"/>
    <path id="Path_570" data-name="Path 570" d="M233.917,576.2a30.873,30.873,0,0,1-3.926,6.179A24.766,24.766,0,0,1,224,587.73S233.707,577.483,233.917,576.2Z" transform="translate(-134.414 -350.428)" opacity="0.1"/>
    <path id="Path_571" data-name="Path 571" d="M246.234,552.36s-1.832,6.784-6.024,8.951Z" transform="translate(-143.199 -337.508)" opacity="0.1"/>
    <path id="Path_572" data-name="Path 572" d="M251.993,554.068c.046-.124,1.2,5.469-5.593,8.277C246.4,562.345,249.272,561.489,251.993,554.068Z" transform="translate(-146.553 -338.433)" opacity="0.1"/>
    <path id="Path_573" data-name="Path 573" d="M163.288,540.557a47.671,47.671,0,0,0-4.338,3.005C158.973,543.562,161.286,540.338,163.288,540.557Z" transform="translate(-99.162 -331.106)" opacity="0.1"/>
    <path id="Path_574" data-name="Path 574" d="M200.416,509.451a1.8,1.8,0,0,1-.7,1.108,1.726,1.726,0,0,1-.8.142c-2.561.064-5.227.073-7.549-1a2.85,2.85,0,0,1-1.122-.806,4.619,4.619,0,0,1-.6-1.883,27.259,27.259,0,0,0-1.411-3.619,11.91,11.91,0,0,1-.582-6.413,4.291,4.291,0,0,1,.71-1.832c.715-.939,1.965-1.283,2.89-2.02s1.548-1.892,2.62-2.432a4.836,4.836,0,0,1,3.17-.156,16.639,16.639,0,0,1,5.818,2.442,2.927,2.927,0,0,0,1.947.747,2.712,2.712,0,0,0,1.493-1.054,7.788,7.788,0,0,1,.486,3.665,1.579,1.579,0,0,0,0,.55,1.671,1.671,0,0,0,.366.6c.6.756.953,1.929.3,2.643-.284.311-.71.458-.985.792-.495.568-.371,1.42-.389,2.176a1.145,1.145,0,0,1-.211.738,1.1,1.1,0,0,1-1.044.206,2.85,2.85,0,0,0-1.1-.146,1.832,1.832,0,0,0-.985.7A12.988,12.988,0,0,0,200.416,509.451Z" transform="translate(-114.609 -303.902)" fill="#2d293d"/>
    <g id="Group_97" data-name="Group 97" transform="translate(75.308 188.636)" opacity="0.1">
      <path id="Path_575" data-name="Path 575" d="M192.908,517.023a2.816,2.816,0,0,0,1.122.811c2.322,1.076,4.988,1.063,7.549,1a1.669,1.669,0,0,0,.8-.147,1.777,1.777,0,0,0,.7-1.1,13.025,13.025,0,0,1,2.327-4.879,1.832,1.832,0,0,1,.985-.7,2.945,2.945,0,0,1,1.1.146,1.081,1.081,0,0,0,1.044-.206,1.127,1.127,0,0,0,.211-.733,3.243,3.243,0,0,1,.389-2.18c.275-.316.7-.458.985-.788a1.658,1.658,0,0,0,.224-1.676,1.919,1.919,0,0,1,.032,2.249c-.284.312-.705.458-.985.792-.495.568-.366,1.42-.385,2.176a1.122,1.122,0,0,1-.215.737,1.091,1.091,0,0,1-1.044.206,2.826,2.826,0,0,0-1.095-.147,1.832,1.832,0,0,0-.99.7,13.149,13.149,0,0,0-2.327,4.874,1.324,1.324,0,0,1-1.493,1.255c-2.561.06-5.227.069-7.554-1.008a2.87,2.87,0,0,1-1.122-.806,2.2,2.2,0,0,1-.334-.692A.847.847,0,0,0,192.908,517.023Z" transform="translate(-192.83 -501.33)"/>
      <path id="Path_576" data-name="Path 576" d="M229.013,499.239a1.131,1.131,0,0,1-.238-.458,1.579,1.579,0,0,1,0-.55,7.811,7.811,0,0,0-.275-3.051l.046-.05a7.727,7.727,0,0,1,.49,3.665,2.49,2.49,0,0,0-.023.444Z" transform="translate(-212.16 -495.13)"/>
    </g>
    <path id="Path_577" data-name="Path 577" d="M205.086,542.528s-10.536.985-11.406-.628" transform="translate(-117.983 -331.84)" opacity="0.1"/>
    <path id="Path_578" data-name="Path 578" d="M166.013,532.093s-5.822-.215-7.183,1.915" transform="translate(-99.097 -326.522)" opacity="0.1"/>
  </g>
</svg>
