<svg width="4788" height="3267" viewBox="0 0 4788 3267" version="1.1" xmlns="http://www.w3.org/2000/svg" xmlns:xlink="http://www.w3.org/1999/xlink" xml:space="preserve" style="fill-rule:evenodd;clip-rule:evenodd;stroke-linejoin:round;stroke-miterlimit:2;"><path d="M1812.5,3112.83c0,85.125 -399.208,154.167 -891.667,154.167c-492.458,-0 -891.666,-69.042 -891.666,-154.167c-0,-21.292 24.916,-41.542 70,-59.958c131.25,-53.709 433.458,-91.875 788.666,-94.084c10.959,-0.083 21.959,-0.124 33,-0.125c492.459,0 891.667,69.042 891.667,154.167Z" style="fill:#3f3d56;fill-rule:nonzero;"/><path d="M887.833,2958.79c-91.95,149.905 -255.662,241.542 -431.521,241.542c-133.811,-0 -262.311,-53.055 -357.145,-147.458c131.25,-53.709 433.458,-91.875 788.666,-94.084Z" style="fill-opacity:0.1;fill-rule:nonzero;"/><ellipse cx="466.667" cy="2617" rx="466.667" ry="500" style="fill:#3f3d56;"/><path d="M1039.28,347.237c66.166,254.903 279.62,419.658 477.241,368.36" style="fill:#2b2d42;fill-rule:nonzero;"/><path d="M1516.52,715.597c-66.909,-257.767 57.401,-512.671 277.935,-569.915" style="fill:#c63d3d;fill-rule:nonzero;"/><path d="M1174.82,336.719c62.851,242.13 215.683,411.59 341.702,378.878" style="fill:#c63d3d;fill-rule:nonzero;"/><path d="M1516.52,715.597c-85.496,-329.369 51.587,-649.431 306.49,-715.597" style="fill:#2b2d42;fill-rule:nonzero;"/><path d="M1442.15,738.373c0,-0 50.299,-14.723 62.755,-29.571c12.457,-14.848 71.799,-44.12 80.12,-27.653c8.321,16.467 98.729,67.016 41.604,82.337c-57.125,15.321 -135.326,25.609 -152.989,20.278c-17.663,-5.331 -31.49,-45.391 -31.49,-45.391Z" style="fill:#a8a8a8;fill-rule:nonzero;"/><path d="M1626.07,757.146c-57.125,15.321 -135.327,25.609 -152.99,20.278c-13.451,-4.06 -24.669,-28.246 -29.258,-39.557c-1.061,0.325 -1.676,0.506 -1.676,0.506c0,-0 13.827,40.059 31.49,45.391c17.663,5.331 95.864,-4.957 152.989,-20.278c16.49,-4.423 20.671,-11.784 18.098,-20.41c-0.93,5.857 -6.38,10.778 -18.654,14.07Z" style="fill-opacity:0.2;fill-rule:nonzero;"/><rect x="1429.17" y="525.33" width="3358.33" height="1945.83" style="fill:#f2f2f2;"/><rect x="1508.33" y="1115.95" width="1841.67" height="964.583" style="fill:#6c63ff;fill-opacity:0.3;"/><rect x="3491.67" y="1073.9" width="738.67" height="40.863" style="fill:#2b2d42;"/><rect x="3491.67" y="1149.34" width="1075" height="40.863" style="fill:#2b2d42;"/><rect x="3491.67" y="1331.65" width="738.67" height="40.863" style="fill:#2b2d42;"/><rect x="3491.67" y="1633.41" width="738.67" height="40.863" style="fill:#2b2d42;"/><rect x="3491.67" y="1407.09" width="1075" height="40.863" style="fill:#2b2d42;"/><rect x="3491.67" y="1482.53" width="1075" height="40.863" style="fill:#2b2d42;"/><rect x="3491.67" y="1557.97" width="1075" height="40.863" style="fill:#2b2d42;"/><rect x="3491.67" y="1815.72" width="386.623" height="106.871" style="fill:#c63d3d;"/><path d="M1310.37,1699.64c-0,0 69.403,-196.644 119.528,-134.952c50.125,61.693 -77.115,165.798 -77.115,165.798l-42.413,-30.846Z" style="fill:#a0616a;fill-rule:nonzero;"/><path d="M982.625,1506.85l41.751,15.473c0,-0 19.941,88.632 12.23,104.055c-7.712,15.423 -11.568,3.856 -0,34.702c11.567,30.846 46.269,111.817 50.125,123.385c3.856,11.567 223.634,-73.26 223.634,-115.673c-0,-0 46.269,53.98 69.403,65.548c0,-0 -254.48,185.076 -289.182,208.211c-34.701,23.134 -53.98,11.567 -84.826,-15.423c-30.846,-26.991 -161.942,-250.625 -161.942,-250.625l138.807,-169.653Z" style="fill:#575a89;fill-rule:nonzero;"/><path d="M1094.44,2875.65c0,0 -3.856,42.413 -11.567,46.269c-7.712,3.856 -65.548,100.25 -0,119.529c65.548,19.279 104.105,11.567 119.529,19.279c15.423,7.711 285.326,23.134 289.182,-19.279c3.855,-42.414 -131.096,-50.125 -131.096,-50.125c-0,-0 -123.385,-80.971 -142.663,-123.385c-19.279,-42.413 -123.385,7.712 -123.385,7.712Z" style="fill:#2b2d42;fill-rule:nonzero;"/><path d="M311.723,2952.76c-0,0 -92.539,158.086 -69.404,177.365c23.134,19.279 248.438,89.536 281.471,92.538c42.413,3.856 73.259,-30.846 38.557,-50.125c-34.702,-19.278 -107.961,-100.249 -107.961,-127.24l-0,-69.403l-142.663,-23.135Z" style="fill:#2b2d42;fill-rule:nonzero;"/><path d="M223.04,1919.42c0,0 -80.971,100.25 46.269,262.192l212.067,269.903c0,0 -131.096,208.211 -134.952,316.173c-3.855,107.961 -30.846,84.826 -38.557,131.095c-7.712,46.269 -42.413,23.135 -15.423,57.837c26.99,34.702 127.24,65.548 158.086,38.557c30.846,-26.99 30.846,-61.692 30.846,-77.115c0,-15.423 53.981,-104.105 57.837,-131.096c3.855,-26.99 146.518,-246.768 146.518,-246.768c0,-0 46.27,-131.096 -7.711,-204.356c-53.981,-73.259 -89.651,-177.162 -89.651,-177.162c-0,0 159.055,192.585 270.872,238.854c-0,0 42.413,7.712 34.702,26.991c-7.712,19.279 -0,30.846 11.567,50.125c11.567,19.279 92.538,242.913 119.528,300.749c26.991,57.837 15.424,92.538 46.27,111.817c30.846,19.279 169.653,3.856 169.653,-15.423c0,-19.279 -19.279,-69.404 -30.846,-96.394c-11.567,-26.99 -104.106,-339.307 -96.394,-393.287c7.712,-53.981 -3.856,-127.241 -61.692,-158.087c-57.837,-30.846 -350.874,-281.47 -366.298,-281.47c-15.423,-0 -462.691,-23.135 -462.691,-23.135Z" style="fill:#2b2d42;fill-rule:nonzero;"/><circle cx="998.048" cy="1152.12" r="161.942" style="fill:#a0616a;"/><path d="M866.952,1167.55c0,-0 -50.125,88.682 -111.817,100.25c-61.692,11.567 161.942,188.932 161.942,188.932c0,0 53.981,-169.653 100.25,-177.365c46.27,-7.712 -150.375,-111.817 -150.375,-111.817Z" style="fill:#a0616a;fill-rule:nonzero;"/><path d="M1025.04,1529.99c0,50.125 -150.374,192.788 -150.374,192.788l-142.663,119.529c-0,-0 -3.856,42.413 -19.279,46.269c-15.423,3.856 -34.702,3.856 -19.279,26.99c15.423,23.135 53.981,73.26 19.279,80.971c-10.462,1.591 -21.005,2.595 -31.579,3.008c-9.254,0.539 -20.127,1.041 -32.35,1.503c-28.532,1.003 -64.237,1.658 -102.91,1.388c-10.989,-0.038 -22.171,-0.167 -33.545,-0.385c-145.787,-2.892 -314.669,-19.665 -300.865,-74.917c23.134,-92.539 7.711,-123.385 57.836,-173.51c50.125,-50.125 131.096,-223.634 131.096,-223.634c0,0 161.942,-273.759 296.894,-273.759l28.031,-7.365c26.643,-7.018 54.968,3.863 70.059,26.914c27.068,41.218 69.751,103.141 94.698,123.114c38.557,30.846 44.573,8.714 44.573,8.714c-0,0 90.378,72.257 90.378,122.382Z" style="fill:#575a89;fill-rule:nonzero;"/><path d="M681.876,2116.06c-0,0 111.817,173.509 42.413,204.355c-69.404,30.846 -107.961,-181.22 -107.961,-181.22l65.548,-23.135Z" style="fill:#a0616a;fill-rule:nonzero;"/><path d="M892.18,1133.83c6.215,-0.784 8.18,-8.626 9.227,-14.803c5.602,-33.075 30.251,-64.44 63.37,-69.78c12.658,-1.684 25.531,-0.646 37.757,3.043c17.513,4.806 33.955,12.899 48.445,23.846c7.649,5.785 15.009,12.5 24.21,15.202c6.077,1.785 31.878,13.255 37.907,15.196c13.255,4.267 24.223,18.14 37.874,15.394c13.059,-2.628 18.019,-18.399 20.118,-31.554c4.782,-29.97 -12.372,-74.688 -29.428,-99.791c-12.942,-19.05 -34.845,-30.014 -56.743,-37.146c-25.655,-7.788 -52.015,-13.026 -78.698,-15.638c-36.021,-4.254 -73.328,-6.511 -107.848,4.623c-34.52,11.134 -65.952,38.371 -72.396,74.065c-1.343,7.436 -1.594,15.051 -3.24,22.426c-4.013,17.989 -15.916,33.111 -22.859,50.185c-10.124,25.345 -9.052,53.828 2.948,78.341c9.615,19.335 26.335,37.915 22.726,59.205l29.755,-23.462c8.828,-5.016 12.988,-15.61 9.932,-25.293l-4.326,-37.256c-0.792,-6.822 -1.482,-14.184 1.93,-20.144c13.225,-23.101 18.976,14.649 29.339,13.341Z" style="fill:#2f2e41;fill-rule:nonzero;"/><path d="M612.472,1850.01l36.321,151.031c-36.63,1.311 -85.096,2.005 -136.455,1.002c-12.956,-38.866 -25.333,-79.39 -34.818,-117.331c-34.702,-138.807 23.135,-350.874 53.981,-451.124c30.846,-100.25 107.962,-127.24 107.962,-127.24c-0,0 38.557,11.567 88.682,46.269c50.125,34.702 -115.673,497.393 -115.673,497.393Z" style="fill-opacity:0.1;fill-rule:nonzero;"/><path d="M643.318,1842.3l37.825,157.238c-9.254,0.54 -20.127,1.041 -32.35,1.504c-28.532,1.002 -64.237,1.658 -102.91,1.388c-13.919,-41.295 -27.376,-84.866 -37.517,-125.428c-34.702,-138.808 23.135,-350.874 53.981,-451.124c30.846,-100.25 98.322,9.639 98.322,9.639c-0,0 -26.99,-65.548 23.134,-30.846c50.125,34.702 -40.485,437.629 -40.485,437.629Z" style="fill-opacity:0.1;fill-rule:nonzero;"/><path d="M654.885,1298.64c0,-0 -77.115,26.99 -107.961,127.24c-30.846,100.249 -88.682,312.316 -53.981,451.124c34.702,138.807 107.962,312.316 107.962,312.316c-0,0 73.259,-53.98 100.25,-42.413l-73.26,-304.605c0,-0 165.798,-462.691 115.673,-497.393c-50.125,-34.702 -88.683,-46.269 -88.683,-46.269Z" style="fill:#575a89;fill-rule:nonzero;"/><rect x="1429.17" y="1015.96" width="1841.67" height="964.583" style="fill:#2b2d42;"/><ellipse cx="2384.26" cy="1517.13" rx="208.406" ry="208.785" style="fill:#fff;"/><path d="M2384.26,1272.76c-136.636,-0 -249.07,112.434 -249.07,249.07c0,136.635 112.434,249.07 249.07,249.07c136.636,-0 249.07,-112.435 249.07,-249.07c-0.399,-136.485 -112.585,-248.671 -249.07,-249.07Zm-51.131,381.867l-127.648,-127.648l35.803,-35.804l91.965,91.964l194.107,-194.107l35.804,35.804l-230.031,229.791Z" style="fill:#c63d3d;fill-rule:nonzero;"/></svg>