<svg xmlns="http://www.w3.org/2000/svg" width="540.199" height="338.238" viewBox="0 0 540.199 338.238">
  <g id="invite" transform="translate(-378 -127.7)">
    <g id="Group_205" data-name="Group 205" transform="translate(837.163 287.656)">
      <path id="Path_1447" data-name="Path 1447" d="M1590.708,592.1l11.1,4.22s-8.01,12.307-10.94,16.136c-3.008,3.946-37.586,6.955-37.586,6.955l-.078-2.891s29.225-6.837,32.156-9.924S1590.708,592.1,1590.708,592.1Z" transform="translate(-1553.2 -570.61)" fill="#fcd2b1"/>
      <path id="Path_1448" data-name="Path 1448" d="M1663.166,537.1s-14.222-.273-16.214,7.619-6.251,20.278-6.251,20.278l10.9,1.368S1667.268,540.458,1663.166,537.1Z" transform="translate(-1606.513 -537.097)" fill="#c73c3c"/>
    </g>
    <g id="Group_207" data-name="Group 207" transform="translate(378 127.7)">
      <path id="Path_1449" data-name="Path 1449" d="M849.509,222.294a32.857,32.857,0,0,1-32.859-32.859c0-.938.039-1.836.117-2.735H378V498.213H860.215V220.5A32.4,32.4,0,0,1,849.509,222.294Z" transform="translate(-378 -163.648)" fill="#c73c3c"/>
      <path id="Path_1450" data-name="Path 1450" d="M378,639.042H860.215L619.107,417.9Z" transform="translate(-378 -304.516)" opacity="0.15"/>
      <circle id="Ellipse_131" data-name="Ellipse 131" cx="25.787" cy="25.787" r="25.787" transform="translate(445.722 0)" fill="#c73c3c"/>
      <g id="Group_206" data-name="Group 206" transform="translate(461.312 9.807)">
        <path id="Path_1451" data-name="Path 1451" d="M1575.305,184.76h-9.3V166.4H1558.7v-6.369c4.923-.078,8.478-1.8,9.533-7.228h7.072Z" transform="translate(-1558.7 -152.8)" fill="#fff"/>
      </g>
      <path id="Path_1452" data-name="Path 1452" d="M816.612,189.435c0-.938.039-1.836.117-2.735H378L619.107,455.782,832.513,217.605A32.887,32.887,0,0,1,816.612,189.435Z" transform="translate(-378 -163.648)" fill="#c73c3c"/>
      <path id="Path_1453" data-name="Path 1453" d="M816.612,189.435c0-.938.039-1.836.117-2.735H378L619.107,455.782,832.513,217.605A32.887,32.887,0,0,1,816.612,189.435Z" transform="translate(-378 -163.648)" fill="#fff" opacity="0.26"/>
    </g>
    <g id="Group_208" data-name="Group 208" transform="translate(854.862 258.393)">
      <path id="Path_1454" data-name="Path 1454" d="M1704.6,474.156c0,4.806.7,14.261,5.04,15.589.977.313,4.532-4.962,5.587-4.962,5.861,0,11.252-2.266,11.252-8.166,0-2.93.156-6.642-1.8-8.557-1.914-1.914-6.212-5.861-9.143-5.861C1709.679,462.2,1704.6,468.256,1704.6,474.156Z" transform="translate(-1663.146 -462.2)" fill="#2b2839"/>
      <path id="Path_1455" data-name="Path 1455" d="M1697.513,967.492l.547,8.322H1672s2.7-6.33,6.525-7.424c3.868-1.094,7.853.156,8.947-2.618.781-1.993,5.587-1.133,8.2-.469A2.417,2.417,0,0,1,1697.513,967.492Z" transform="translate(-1643.283 -768.268)" fill="#56535e"/>
      <path id="Path_1456" data-name="Path 1456" d="M1624.013,967.492l.547,8.322H1598.5s2.7-6.33,6.525-7.424c3.868-1.094,7.853.156,8.947-2.618.781-1.993,5.587-1.133,8.2-.469A2.417,2.417,0,0,1,1624.013,967.492Z" transform="translate(-1598.5 -768.268)" fill="#56535e"/>
      <path id="Path_1457" data-name="Path 1457" d="M1649.593,728.182s-.82,28.092,1.68,36.688c2.032,7.111,7.111,40.009,8.83,51.261a3.261,3.261,0,0,1-3.243,3.751h-3.009a3.267,3.267,0,0,1-3.2-2.657c-1.8-9.416-7.932-40.946-10.471-49.894-3.008-10.549-7.306-33.21-7.306-33.21s-5.9,24.3-7.5,30.749c-1.289,5.2,3.712,38.016,5.665,50.363a4.17,4.17,0,0,1-3.985,4.806l-1.446.039a4.153,4.153,0,0,1-4.141-3.2c-2.5-10.432-9.963-42.939-9.494-54.856.547-14.3,8.088-36.922,8.088-36.922S1642.755,712.437,1649.593,728.182Z" transform="translate(-1606.693 -619.448)" fill="#2b2839"/>
      <path id="Path_1458" data-name="Path 1458" d="M1699.6,470.3l-2.891,1.055a14.4,14.4,0,0,0-9.611,13.05c-.039,1.836.273,3.243,1.368,3.321l3.438.352s-1.485,9.143-3.829,9.846c-1.875.547-4.337,1.524-4.1,2.774.234,1.133,1.133,5.275,1.133,5.275s6.056.352,8.791-.938c.938-.469,4.571.742,4.181-.039-.43-.86-.469-3.595-.156-5.861.625-4.337,1.6-10.354,1.6-10.354s.469-1.289,1.328-1.211c.859.039,4.845-1.68,4.493-3.712s-1.915-2.891-3.36-1.875-2.813,1.6-.977-1.289,8.557-1.563,2.344-6.056C1699.213,471.628,1699.6,470.3,1699.6,470.3Z" transform="translate(-1650.57 -467.135)" fill="#ffe3ca"/>
      <path id="Path_1459" data-name="Path 1459" d="M1665.906,540.669a13.015,13.015,0,0,0-6.056,2.383,4.218,4.218,0,0,1-2.618.7c-2.735-.234-3.634-1.6-3.829-2.93,1.094-1.6,2.774-2.188,3.946-3.126,0,0-9.807,1.133-13.636,13.87-1.524,5.118-5.548,26.217-7.97,36.3-1.485,6.251-3.243,25.982-3.243,25.982l29.655,3.087s.742-16.605,1.094-20.083c.7-6.486,11.526-43.369,11.526-47.159C1674.7,544.342,1666.609,540.591,1665.906,540.669Z" transform="translate(-1619.216 -508.201)" fill="#c73c3c"/>
      <path id="Path_1460" data-name="Path 1460" d="M1705.242,610.36l11.37-3.36s1.094,14.652,1.094,19.5c0,4.962-25.67,28.327-25.67,28.327l-1.836-2.266s19.106-23.169,19.536-27.428S1705.242,610.36,1705.242,610.36Z" transform="translate(-1654.372 -550.425)" fill="#fcd2b1"/>
      <path id="Path_1461" data-name="Path 1461" d="M1714.508,556.6l3.2,19.848,13.6-2.227s-2.5-21.88-12.894-25.2C1708.061,545.7,1714.508,556.6,1714.508,556.6Z" transform="translate(-1667.974 -514.714)" fill="#c73c3c"/>
      <path id="Path_1462" data-name="Path 1462" d="M1687.546,726.379v2.7s1.446,2.11,2.11,2.188c0,0-.117,1.25-2.11,1.172s-5.353-2.852-4.61-4.649a18.148,18.148,0,0,1,2.383-5.04l1.172-1.446,2.266,2.11A13.982,13.982,0,0,0,1687.546,726.379Z" transform="translate(-1649.882 -620.067)" fill="#fcd2b1"/>
    </g>
  </g>
</svg>
