<svg xmlns="http://www.w3.org/2000/svg" xmlns:xlink="http://www.w3.org/1999/xlink" width="500.001" height="499.808" viewBox="0 0 500.001 499.808">
  <defs>
    <linearGradient id="linear-gradient" x1="0.5" y1="1" x2="0.5" gradientUnits="objectBoundingBox">
      <stop offset="0.21" stop-color="#fff" stop-opacity="0"/>
      <stop offset="1" stop-color="#fff" stop-opacity="0.2"/>
    </linearGradient>
    <clipPath id="clip-path">
      <path id="Path_1507" data-name="Path 1507" d="M74.25,186.48v49.4a3.19,3.19,0,0,1-.18,1,4.351,4.351,0,0,1-.25.59,3.71,3.71,0,0,1-1.32,1.47L6,277.32a1.18,1.18,0,0,1-1.32.06.94.94,0,0,1-.27-.32,1.58,1.58,0,0,1-.17-.76V226.9a3,3,0,0,1,.17-1A4,4,0,0,1,6,223.84l66.48-38.38h0a1.19,1.19,0,0,1,1.32-.07.89.89,0,0,1,.27.33A1.58,1.58,0,0,1,74.25,186.48Z" fill="none"/>
    </clipPath>
    <clipPath id="clip-path-2">
      <path id="Path_1515" data-name="Path 1515" d="M501.67,63.89v57.84a3.751,3.751,0,0,1-.21,1.16,6.761,6.761,0,0,1-.29.69,4.469,4.469,0,0,1-1.55,1.72l-77.87,45a1.39,1.39,0,0,1-1.55.07,1,1,0,0,1-.32-.38,1.92,1.92,0,0,1-.19-.89V111.21a3.489,3.489,0,0,1,.2-1.12,4.069,4.069,0,0,1,.3-.72,4.32,4.32,0,0,1,1.56-1.73L499.6,62.69h0a1.4,1.4,0,0,1,1.56-.08,1.1,1.1,0,0,1,.32.38A2,2,0,0,1,501.67,63.89Z" fill="none"/>
    </clipPath>
    <clipPath id="clip-path-3">
      <path id="Path_1524" data-name="Path 1524" d="M334,49.72v122.8a7.8,7.8,0,0,1-.44,2.46,10.374,10.374,0,0,1-.63,1.46,9.22,9.22,0,0,1-3.28,3.66L164.36,275.54a2.92,2.92,0,0,1-3.29.16,2.33,2.33,0,0,1-.67-.81A4.11,4.11,0,0,1,160,273V150.19a7.85,7.85,0,0,1,.41-2.39,10.631,10.631,0,0,1,.65-1.53,9.19,9.19,0,0,1,3.31-3.67L329.62,47.18h0a3,3,0,0,1,3.3-.16,2.33,2.33,0,0,1,.67.81A4.11,4.11,0,0,1,334,49.72Z" fill="none"/>
    </clipPath>
  </defs>
  <g id="Слой_2" data-name="Слой 2" transform="translate(-1.669)">
    <g id="Слой_1" data-name="Слой 1">
      <g id="Mobile">
        <path id="Path_1463" data-name="Path 1463" d="M158.09,496.44,56.15,437.59c-8.63-5-7.55-13.69,2.42-19.45L304.81,276c10-5.76,25.05-6.38,33.68-1.4l101.94,58.85c8.63,5,7.55,13.7-2.42,19.45L191.77,495.05C181.8,500.8,166.72,501.43,158.09,496.44Z" fill="#d6d8e5" opacity="0.4"/>
        <path id="Path_1464" data-name="Path 1464" d="M171,488.7,69.07,429.85c-8.64-5-7.55-13.7,2.42-19.45L317.72,268.23c10-5.75,25-6.38,33.69-1.39l101.93,58.85c8.63,5,7.55,13.69-2.42,19.45L204.69,487.3C194.72,493.06,179.64,493.68,171,488.7Z" fill="#b1b4c4"/>
        <path id="Path_1465" data-name="Path 1465" d="M63.24,421.27v-9.38l11.01,4.15Z" fill="#b1b4c4"/>
        <path id="Path_1466" data-name="Path 1466" d="M459.17,333.81v-9.02l-8.75,5.64Z" fill="#b1b4c4"/>
        <path id="Path_1467" data-name="Path 1467" d="M171,480.75,69.07,421.9c-8.64-5-7.55-13.69,2.42-19.45L317.72,260.29c10-5.76,25-6.38,33.69-1.4l101.93,58.85c8.63,5,7.55,13.7-2.42,19.45L204.69,479.36C194.72,485.11,179.64,485.74,171,480.75Z" fill="#616e84"/>
        <ellipse id="Ellipse_132" data-name="Ellipse 132" cx="1.09" cy="1.89" rx="1.09" ry="1.89" transform="translate(78.536 431.235) rotate(-30)" fill="#757b89"/>
        <ellipse id="Ellipse_133" data-name="Ellipse 133" cx="1.09" cy="1.89" rx="1.09" ry="1.89" transform="translate(83.443 434.071) rotate(-30)" fill="#757b89"/>
        <ellipse id="Ellipse_134" data-name="Ellipse 134" cx="1.09" cy="1.89" rx="1.09" ry="1.89" transform="translate(88.35 436.897) rotate(-30)" fill="#757b89"/>
        <ellipse id="Ellipse_135" data-name="Ellipse 135" cx="1.09" cy="1.89" rx="1.09" ry="1.89" transform="translate(93.254 439.737) rotate(-30)" fill="#757b89"/>
        <ellipse id="Ellipse_136" data-name="Ellipse 136" cx="1.09" cy="1.89" rx="1.09" ry="1.89" transform="translate(135.39 464.053) rotate(-30)" fill="#757b89"/>
        <ellipse id="Ellipse_137" data-name="Ellipse 137" cx="1.09" cy="1.89" rx="1.09" ry="1.89" transform="translate(140.288 466.894) rotate(-30)" fill="#757b89"/>
        <ellipse id="Ellipse_138" data-name="Ellipse 138" cx="1.09" cy="1.89" rx="1.09" ry="1.89" transform="translate(145.195 469.72) rotate(-30)" fill="#757b89"/>
        <ellipse id="Ellipse_139" data-name="Ellipse 139" cx="1.09" cy="1.89" rx="1.09" ry="1.89" transform="translate(150.108 472.555) rotate(-30)" fill="#757b89"/>
        <path id="Path_1468" data-name="Path 1468" d="M123,458.93l-13.47-7.79a3.67,3.67,0,0,1-1.55-2.95h0c0-1.14.69-1.66,1.55-1.17L123,454.81a3.67,3.67,0,0,1,1.55,2.95h0C124.5,458.9,123.81,459.42,123,458.93Z" fill="#757b89"/>
        <path id="Path_1469" data-name="Path 1469" d="M428.32,356.16l-12.54,7.24c-.79.45-1.44,0-1.44-1.09h0a3.46,3.46,0,0,1,1.44-2.75l12.54-7.23c.79-.46,1.43,0,1.43,1.08h0A3.45,3.45,0,0,1,428.32,356.16Z" fill="#757b89"/>
        <path id="Path_1470" data-name="Path 1470" d="M409.12,367.24l-12.54,7.24c-.79.46-1.44,0-1.44-1.09h0a3.46,3.46,0,0,1,1.44-2.74l12.54-7.24c.79-.46,1.43,0,1.43,1.09h0A3.42,3.42,0,0,1,409.12,367.24Z" fill="#757b89"/>
        <path id="Path_1471" data-name="Path 1471" d="M171,479.31,69.07,420.46c-8.64-5-7.55-13.69,2.42-19.45L317.72,258.85c10-5.76,25-6.39,33.69-1.4L453.34,316.3c8.63,5,7.55,13.69-2.42,19.45L204.69,477.91C194.72,483.67,179.64,484.29,171,479.31Z" fill="#20232d"/>
        <path id="Path_1472" data-name="Path 1472" d="M442.4,318.65l-39.8-23-.09.06c-4.71,2.71-12.33,2.71-17,0s-4.7-7.12,0-9.83l.1-.06-39.8-23c-6-3.49-15.84-3.49-21.89,0L84.08,401.32c-6,3.49-6,9.15,0,12.64l96.61,55.78c6.05,3.49,15.85,3.49,21.89,0L442.4,331.28C448.44,327.79,448.44,322.14,442.4,318.65Z" fill="#fff"/>
        <path id="Path_1473" data-name="Path 1473" d="M442.4,331.28,202.58,469.74c-5.46,3.15-14,3.46-20.06.9a16.2,16.2,0,0,1-1.82-.9L84.08,414a10.22,10.22,0,0,1-3.39-3c-2.28-3.23-1.15-7.07,3.39-9.69L323.89,262.86c6.05-3.48,15.84-3.48,21.89,0l39.8,23h-.1c-4.7,2.71-4.7,7.11,0,9.83s12.33,2.71,17,0l.1-.06,39.8,23C448.44,322.14,448.44,327.79,442.4,331.28Z" opacity="0.5" fill="url(#linear-gradient)"/>
        <ellipse id="Ellipse_140" data-name="Ellipse 140" cx="4.57" cy="2.64" rx="4.57" ry="2.64" transform="translate(386.81 289.68)" fill="#2b303f"/>
        <path id="Path_1474" data-name="Path 1474" d="M390,293.1a.83.83,0,0,1,0-1.56,3,3,0,0,1,2.71,0,.82.82,0,0,1,0,1.56A3,3,0,0,1,390,293.1Z" fill="#fff" opacity="0.1"/>
      </g>
      <path id="Path_1475" data-name="Path 1475" d="M407.76,311.35l-1.73-1,2.89-1.67,1.73,1Z" fill="#e9eaf2"/>
      <path id="Path_1476" data-name="Path 1476" d="M410.07,312.68l-1.73-1,4.04-2.33,1.73,1Z" fill="#e9eaf2"/>
      <path id="Path_1477" data-name="Path 1477" d="M412.38,314.01l-1.73-1,5.77-3.33,1.73,1Z" fill="#e9eaf2"/>
      <path id="Path_1478" data-name="Path 1478" d="M414.69,315.35l-1.73-1,8.08-4.67,1.73,1Z" fill="#e9eaf2"/>
      <path id="Path_1479" data-name="Path 1479" d="M422.19,319.68l-2.69-1.56,5.39-3.11,2.69,1.56Z" fill="#e9eaf2"/>
      <path id="Path_1480" data-name="Path 1480" d="M425.79,321.75l-2.7-1.55,5.39-3.11,2.69,1.55Z" fill="#e9eaf2"/>
      <path id="Path_1481" data-name="Path 1481" d="M429.38,323.82l-2.7-1.55,5.39-3.11,2.69,1.55Z" fill="#e9eaf2"/>
      <path id="Path_1482" data-name="Path 1482" d="M316.65,293.28l-12.39-7.16c-1.72-1-1.5-2.71.48-3.85l11.43-6.6a7.39,7.39,0,0,1,6.68-.28l12.39,7.15c1.71,1,1.5,2.72-.48,3.86L323.33,293a7.43,7.43,0,0,1-6.68.28Z" fill="#e9eaf2"/>
      <path id="Path_1483" data-name="Path 1483" d="M400.93,341.94l-72.51-41.86c-1.71-1-1.49-2.72.48-3.86l11.44-6.6a7.4,7.4,0,0,1,6.67-.28l72.51,41.86c1.71,1,1.5,2.72-.48,3.86l-11.43,6.6A7.46,7.46,0,0,1,400.93,341.94Z" fill="#e9eaf2"/>
      <path id="Path_1484" data-name="Path 1484" d="M291.55,307.77l-12.39-7.16c-1.71-1-1.5-2.71.48-3.85l11.43-6.6a7.39,7.39,0,0,1,6.68-.28L310.14,297c1.71,1,1.5,2.72-.48,3.86l-11.43,6.6A7.43,7.43,0,0,1,291.55,307.77Z" fill="#e9eaf2"/>
      <path id="Path_1485" data-name="Path 1485" d="M375.83,356.43l-72.5-41.86c-1.71-1-1.5-2.72.48-3.86l11.43-6.6a7.43,7.43,0,0,1,6.68-.28l72.5,41.86c1.71,1,1.5,2.72-.48,3.86l-11.43,6.6a7.46,7.46,0,0,1-6.68.28Z" fill="#e9eaf2"/>
      <g id="Group_209" data-name="Group 209" opacity="0.6">
        <path id="Path_1486" data-name="Path 1486" d="M266.46,322.26l-12.4-7.16c-1.71-1-1.5-2.71.48-3.85l11.44-6.6a7.37,7.37,0,0,1,6.67-.28l12.4,7.15c1.71,1,1.49,2.72-.48,3.86L273.13,322A7.4,7.4,0,0,1,266.46,322.26Z" fill="#e9eaf2"/>
        <path id="Path_1487" data-name="Path 1487" d="M350.74,370.92l-72.51-41.86c-1.71-1-1.5-2.72.48-3.86l11.43-6.6a7.43,7.43,0,0,1,6.68-.28l72.51,41.86c1.71,1,1.49,2.72-.48,3.86l-11.44,6.6a7.44,7.44,0,0,1-6.67.28Z" fill="#e9eaf2"/>
      </g>
      <path id="Path_1488" data-name="Path 1488" d="M241.36,336.75,229,329.59c-1.71-1-1.49-2.71.48-3.85l11.44-6.61a7.4,7.4,0,0,1,6.67-.27L260,326c1.71,1,1.5,2.72-.48,3.86L248,336.47A7.4,7.4,0,0,1,241.36,336.75Z" fill="#e9eaf2"/>
      <path id="Path_1489" data-name="Path 1489" d="M325.64,385.41l-72.51-41.86c-1.71-1-1.49-2.72.48-3.86l11.44-6.6a7.4,7.4,0,0,1,6.67-.28l72.51,41.86c1.71,1,1.49,2.72-.48,3.86l-11.44,6.6a7.44,7.44,0,0,1-6.67.28Z" fill="#e9eaf2"/>
      <path id="Path_1490" data-name="Path 1490" d="M216.26,351.24l-12.39-7.16c-1.71-1-1.5-2.71.48-3.85l11.43-6.61a7.42,7.42,0,0,1,6.68-.27l12.39,7.15c1.71,1,1.5,2.72-.48,3.86L222.94,351a7.43,7.43,0,0,1-6.68.24Z" fill="#e9eaf2"/>
      <path id="Path_1491" data-name="Path 1491" d="M300.54,399.9,228,358c-1.71-1-1.49-2.72.48-3.86l11.44-6.6a7.42,7.42,0,0,1,6.68-.28l72.5,41.86c1.71,1,1.5,2.72-.48,3.86l-11.43,6.6a7.46,7.46,0,0,1-6.65.32Z" fill="#e9eaf2"/>
      <g id="Group_210" data-name="Group 210" opacity="0.6">
        <path id="Path_1492" data-name="Path 1492" d="M191.16,365.73l-12.39-7.16c-1.71-1-1.5-2.71.48-3.85l11.43-6.61a7.42,7.42,0,0,1,6.68-.27L209.75,355c1.72,1,1.5,2.72-.48,3.86l-11.43,6.6a7.43,7.43,0,0,1-6.68.27Z" fill="#e9eaf2"/>
        <path id="Path_1493" data-name="Path 1493" d="M275.44,414.39l-72.5-41.86c-1.71-1-1.5-2.72.48-3.86l11.43-6.6a7.43,7.43,0,0,1,6.68-.28L294,403.65c1.71,1,1.5,2.72-.48,3.86l-11.43,6.6A7.46,7.46,0,0,1,275.44,414.39Z" fill="#e9eaf2"/>
      </g>
      <path id="Path_1494" data-name="Path 1494" d="M166.07,380.22l-12.4-7.16c-1.71-1-1.49-2.71.48-3.85l11.44-6.61a7.4,7.4,0,0,1,6.67-.27l12.4,7.15c1.71,1,1.49,2.72-.48,3.86l-11.44,6.6a7.4,7.4,0,0,1-6.67.28Z" fill="#e9eaf2"/>
      <path id="Path_1495" data-name="Path 1495" d="M250.35,428.88,177.84,387c-1.71-1-1.5-2.72.48-3.86l11.43-6.6a7.43,7.43,0,0,1,6.68-.28l72.51,41.86c1.71,1,1.49,2.72-.48,3.86L257,428.6a7.44,7.44,0,0,1-6.65.28Z" fill="#e9eaf2"/>
      <g id="Group_211" data-name="Group 211" opacity="0.6">
        <path id="Path_1496" data-name="Path 1496" d="M141,394.71l-12.4-7.16c-1.71-1-1.49-2.71.48-3.85l11.44-6.61a7.42,7.42,0,0,1,6.68-.27L159.56,384c1.71,1,1.5,2.72-.48,3.86l-11.44,6.6a7.4,7.4,0,0,1-6.64.25Z" fill="#e9eaf2"/>
        <path id="Path_1497" data-name="Path 1497" d="M225.25,443.37l-72.51-41.86c-1.71-1-1.49-2.72.48-3.86l11.44-6.6a7.4,7.4,0,0,1,6.67-.28l72.51,41.86c1.71,1,1.5,2.72-.48,3.86l-11.44,6.6a7.44,7.44,0,0,1-6.67.28Z" fill="#e9eaf2"/>
      </g>
      <g id="Group_212" data-name="Group 212" opacity="0.6">
        <path id="Path_1498" data-name="Path 1498" d="M115.87,409.2,103.48,402c-1.71-1-1.5-2.71.48-3.85l11.43-6.61a7.42,7.42,0,0,1,6.68-.27l12.39,7.15c1.71,1,1.5,2.72-.48,3.86l-11.43,6.6a7.43,7.43,0,0,1-6.68.32Z" fill="#e9eaf2"/>
        <path id="Path_1499" data-name="Path 1499" d="M200.15,457.86,127.65,416c-1.72-1-1.5-2.71.47-3.85l11.44-6.6a7.42,7.42,0,0,1,6.68-.28l72.5,41.86c1.71,1,1.5,2.72-.48,3.86l-11.43,6.6A7.46,7.46,0,0,1,200.15,457.86Z" fill="#e9eaf2"/>
      </g>
      <path id="Path_1500" data-name="Path 1500" d="M71.67,185.06v49.4a2.92,2.92,0,0,1-.18,1,3.37,3.37,0,0,1-.25.59,3.71,3.71,0,0,1-1.32,1.47l-66.5,38.4A1.18,1.18,0,0,1,2.1,276a.89.89,0,0,1-.27-.33,1.68,1.68,0,0,1-.16-.76v-49.4a3.27,3.27,0,0,1,.16-1,4.78,4.78,0,0,1,.26-.62,3.81,3.81,0,0,1,1.33-1.47L69.9,184h0a1.18,1.18,0,0,1,1.33-.06,1.07,1.07,0,0,1,.27.32,1.71,1.71,0,0,1,.17.8Z" fill="#b81e1e"/>
      <path id="Path_1501" data-name="Path 1501" d="M2.23,276.04l2.56,1.41.16-4.54Z" fill="#b81e1e"/>
      <path id="Path_1502" data-name="Path 1502" d="M71.05,183.88l2.76,1.51-3.89,4.66Z" fill="#b81e1e"/>
      <path id="Path_1503" data-name="Path 1503" d="M74.25,186.48v49.4a3.19,3.19,0,0,1-.18,1,4.351,4.351,0,0,1-.25.59,3.71,3.71,0,0,1-1.32,1.47L6,277.32a1.18,1.18,0,0,1-1.32.06.94.94,0,0,1-.27-.32,1.58,1.58,0,0,1-.17-.76V226.9a3,3,0,0,1,.17-1A4,4,0,0,1,6,223.84l66.48-38.38h0a1.19,1.19,0,0,1,1.32-.07.89.89,0,0,1,.27.33A1.58,1.58,0,0,1,74.25,186.48Z" fill="#c73c3c"/>
      <g id="Group_213" data-name="Group 213" clip-path="url(#clip-path)">
        <path id="Path_1504" data-name="Path 1504" d="M4.53,277.56l34.71-46.37,34.65,6.12v4.9L4.24,282.42Z" opacity="0.12"/>
        <path id="Path_1505" data-name="Path 1505" d="M39.24,231.19,4.6,225.47l-3.19-1.02L0,280.79l4.68-3.41Z" opacity="0.05"/>
        <path id="Path_1506" data-name="Path 1506" d="M39.24,231.19l34.65-45.73,3.19-4.69,1.41,54.7-4.6,1.84Z" opacity="0.05"/>
      </g>
      <path id="Path_1508" data-name="Path 1508" d="M498.65,62.23v57.84a3.749,3.749,0,0,1-.21,1.16,6.775,6.775,0,0,1-.29.69,4.33,4.33,0,0,1-1.55,1.72l-77.87,45a1.4,1.4,0,0,1-1.55.07,1.1,1.1,0,0,1-.32-.38,1.92,1.92,0,0,1-.19-.89V109.55a3.489,3.489,0,0,1,.2-1.12,5,5,0,0,1,.3-.72,4.32,4.32,0,0,1,1.56-1.73L496.58,61h0a1.38,1.38,0,0,1,1.55-.08,1,1,0,0,1,.32.38A2,2,0,0,1,498.65,62.23Z" fill="#b81e1e"/>
      <path id="Path_1509" data-name="Path 1509" d="M417.33,168.76l3,1.65.19-5.32Z" fill="#b81e1e"/>
      <path id="Path_1510" data-name="Path 1510" d="M497.92,60.83l3.24,1.78-4.56,5.45Z" fill="#b81e1e"/>
      <path id="Path_1511" data-name="Path 1511" d="M501.67,63.89v57.84a3.751,3.751,0,0,1-.21,1.16,6.761,6.761,0,0,1-.29.69,4.469,4.469,0,0,1-1.55,1.72l-77.87,45a1.39,1.39,0,0,1-1.55.07,1,1,0,0,1-.32-.38,1.92,1.92,0,0,1-.19-.89V111.21a3.489,3.489,0,0,1,.2-1.12,4.069,4.069,0,0,1,.3-.72,4.32,4.32,0,0,1,1.56-1.73L499.6,62.69h0a1.4,1.4,0,0,1,1.56-.08,1.1,1.1,0,0,1,.32.38A2,2,0,0,1,501.67,63.89Z" fill="#c73c3c"/>
      <g id="Group_214" data-name="Group 214" clip-path="url(#clip-path-2)">
        <path id="Path_1512" data-name="Path 1512" d="M420.01,170.53l40.67-54.3,40.57,7.17v5.74l-81.56,47.09Z" opacity="0.12"/>
        <path id="Path_1513" data-name="Path 1513" d="M460.68,116.23l-40.57-6.69-3.73-1.2-1.66,65.98,5.48-3.99Z" opacity="0.05"/>
        <path id="Path_1514" data-name="Path 1514" d="M460.68,116.23l40.57-53.54,3.73-5.5,1.65,64.06-5.38,2.15Z" opacity="0.05"/>
      </g>
      <path id="Path_1516" data-name="Path 1516" d="M328.54,44.78a1.62,1.62,0,0,0-.56-.71,5.27,5.27,0,0,0-1.6-.53L241.93,19.27,157.48,141.06a10.341,10.341,0,0,0-1.5,2.17,10.179,10.179,0,0,0-.65,1.53,7.85,7.85,0,0,0-.41,2.39V270a4.28,4.28,0,0,0,.4,1.9,2.32,2.32,0,0,0,.68.8,2.92,2.92,0,0,0,3.28-.15l165.31-95.44a10,10,0,0,0,3.91-5.12,7.58,7.58,0,0,0,.44-2.47V46.67a4.2,4.2,0,0,0-.4-1.89Z" fill="#b81e1e"/>
      <path id="Path_1517" data-name="Path 1517" d="M327.75,43.93l5.19,3.08-7.25,5.32Z" fill="#ceb95f"/>
      <path id="Path_1518" data-name="Path 1518" d="M161.31,275.85l-5.31-3.2,8.19-5.9Z" fill="#b81e1e"/>
      <path id="Path_1519" data-name="Path 1519" d="M241.93,19.27,247,22.32,332.94,47l-4.27-2.53a32.859,32.859,0,0,0-5.1-1.74Z" fill="#b81e1e"/>
      <path id="Path_1520" data-name="Path 1520" d="M334,49.72v122.8a7.8,7.8,0,0,1-.44,2.46,10.374,10.374,0,0,1-.63,1.46,9.22,9.22,0,0,1-3.28,3.66L164.36,275.54a2.92,2.92,0,0,1-3.29.16,2.33,2.33,0,0,1-.67-.81A4.11,4.11,0,0,1,160,273V150.19a7.85,7.85,0,0,1,.41-2.39,10.631,10.631,0,0,1,.65-1.53,9.19,9.19,0,0,1,3.31-3.67L329.62,47.18l-2.82,1.94c1.32-.75,5.34-2.71,6.14-2.11a2.33,2.33,0,0,1,.67.81,4.11,4.11,0,0,1,.39,1.9Z" fill="#c73c3c"/>
      <g id="Group_215" data-name="Group 215" clip-path="url(#clip-path-3)">
        <path id="Path_1521" data-name="Path 1521" d="M161.07,275.7,247,160.85l86.14,15.22v12.18L159.99,288.21Z" opacity="0.12"/>
        <path id="Path_1522" data-name="Path 1522" d="M247,160.85l-86.13-14.21-7.91-2.54-3.52,140.06,11.63-8.46Z" transform="translate(-1 1)" opacity="0.05"/>
        <path id="Path_1523" data-name="Path 1523" d="M246.82,160.69,332.95,47.03l7.91-11.67,3.52,135.99-11.43,4.56Z" opacity="0.05"/>
      </g>
      <path id="Path_1525" data-name="Path 1525" d="M161.05,146.27,247,22.32l85.94,24.69L247,160.85Z" fill="#c73c3c"/>
      <path id="Path_1526" data-name="Path 1526" d="M332.94,47.01,313.49,72.78,247,160.85l-66.48-11.28-19.47-3.3,19.47-28.08,47.9-69.08L247,22.32l18.58,5.34,47.91,13.77Z" opacity="0.3"/>
      <path id="Path_1527" data-name="Path 1527" d="M313.49,0V72.78L247,160.85l-66.48-11.28V76.77Z" fill="#fafbff"/>
      <path id="Path_1528" data-name="Path 1528" d="M224.74,108.75l-32.81,18.94V89.81l32.81-18.95Z" fill="#e9eaf2"/>
      <path id="Path_1529" data-name="Path 1529" d="M263.41,86.42,230.6,105.37V67.48l32.81-18.95Z" fill="#e9eaf2"/>
      <path id="Path_1530" data-name="Path 1530" d="M302.08,64.1,269.26,83.05V45.16l32.82-18.95Z" fill="#e9eaf2"/>
      <path id="Path_1531" data-name="Path 1531" d="M302.08,79.83,191.93,143.42v-6.59l110.15-63.6Z" fill="#e9eaf2"/>
      <path id="Path_1532" data-name="Path 1532" d="M285.67,96.91v6.6l-85.1,49.13-8.65-.88v-.72Z" fill="#e9eaf2"/>
      <path id="Path_1533" data-name="Path 1533" d="M269.26,119.58v6.6l-50.17,28.96-10.36-.61Z" fill="#e9eaf2"/>
      <path id="Path_1534" data-name="Path 1534" d="M260.63,138.77v4.03l-3.44,4.55-20.43,11.8-8.89-1.46Z" fill="#e9eaf2"/>
    </g>
  </g>
</svg>
