<svg xmlns="http://www.w3.org/2000/svg" width="362.845" height="400.373" viewBox="0 0 362.845 400.373">
  <g id="maintenance" transform="translate(-398.478 -34.573)">
    <ellipse id="Ellipse_129" data-name="Ellipse 129" cx="181.423" cy="14.674" rx="181.423" ry="14.674" transform="translate(398.478 405.598)" fill="#d7dcdc" opacity="0.1"/>
    <g id="Group_202" data-name="Group 202" transform="translate(413.954 34.573)">
      <g id="Group_200" data-name="Group 200">
        <path id="Path_1415" data-name="Path 1415" d="M776.8,603.1a6.177,6.177,0,0,0,6.174,6.174h221.837a6.177,6.177,0,0,0,6.174-6.174v-191H776.84v191Z" transform="translate(-665.862 -264.195)" fill="#c73c3c" opacity="0.19"/>
        <path id="Path_1416" data-name="Path 1416" d="M929.273,579.3a50.232,50.232,0,0,0,4.33,10.424,6.158,6.158,0,0,1-.241,6.415l-5.372,8.059,10.3,10.3,8.059-5.373a6.158,6.158,0,0,1,6.415-.241,48.486,48.486,0,0,0,10.424,4.33,6.252,6.252,0,0,1,4.37,4.731l1.884,9.5H984l1.925-9.542a6.181,6.181,0,0,1,4.37-4.731,50.231,50.231,0,0,0,10.424-4.33,6.158,6.158,0,0,1,6.415.241l8.059,5.372,10.3-10.3-5.372-8.059a6.158,6.158,0,0,1-.24-6.415,48.484,48.484,0,0,0,4.33-10.424,6.252,6.252,0,0,1,4.731-4.37l9.5-1.884V558.447l-9.542-1.924a6.182,6.182,0,0,1-4.731-4.37,50.236,50.236,0,0,0-4.33-10.424,6.158,6.158,0,0,1,.24-6.415l5.373-8.059-10.3-10.3-8.059,5.372a6.158,6.158,0,0,1-6.415.241,48.481,48.481,0,0,0-10.424-4.33,6.252,6.252,0,0,1-4.37-4.731L984,504H969.447l-1.924,9.542a6.181,6.181,0,0,1-4.37,4.731,50.236,50.236,0,0,0-10.424,4.33,6.158,6.158,0,0,1-6.415-.241l-8.059-5.372-10.3,10.3,5.373,8.059a6.158,6.158,0,0,1,.241,6.415,48.484,48.484,0,0,0-4.33,10.424,6.252,6.252,0,0,1-4.731,4.37l-9.5,1.884V573l9.542,1.924A6.066,6.066,0,0,1,929.273,579.3Zm47.39-50.558A36.966,36.966,0,1,1,939.7,565.7,36.977,36.977,0,0,1,976.664,528.738Z" transform="translate(-748.653 -319.25)" fill="#c73c3c"/>
        <path id="Path_1417" data-name="Path 1417" d="M776.8,325.974v18.483h234.145V325.974a6.177,6.177,0,0,0-6.174-6.174H782.934A6.143,6.143,0,0,0,776.8,325.974Zm61.624,0h12.309v12.349H838.423Zm-24.657,0h12.309v12.349H813.766Zm-24.657,0h12.309v12.349H789.109Z" transform="translate(-665.862 -208.902)" fill="#c73c3c"/>
        <path id="Path_1418" data-name="Path 1418" d="M1056.615,621.157a24.657,24.657,0,1,1-24.657-24.657A24.665,24.665,0,0,1,1056.615,621.157Z" transform="translate(-803.946 -374.663)" fill="#c73c3c"/>
        <path id="Path_1419" data-name="Path 1419" d="M734.285,49.374a6.177,6.177,0,0,0-6.174-6.174H506.274a6.177,6.177,0,0,0-6.174,6.174V67.857H734.245V49.374ZM524.757,61.683H512.449V49.374h12.309Zm24.657,0H537.106V49.374h12.309Zm24.657,0H561.764V49.374h12.309Z" transform="translate(-500.1 -43.2)" fill="#c73c3c"/>
        <path id="Path_1420" data-name="Path 1420" d="M598.69,215.507a18.463,18.463,0,0,1,18.483-18.483H734.245V135.4H500.1v191a6.177,6.177,0,0,0,6.174,6.174H598.69ZM648,166.232h12.309V178.54H648Zm-24.657,0h12.309V178.54H623.347Zm-24.657,0H611V178.54H598.69ZM574.072,314.1H524.757V301.788h49.315Zm0-24.657H524.757V277.13h49.315Zm0-24.617H524.757V252.513h49.315Zm0-24.657H524.757V227.855h49.315Zm0-24.657H524.757V203.2h49.315Zm0-36.966V166.232h12.309V178.54Z" transform="translate(-500.1 -98.434)" fill="#c73c3c" opacity="0.19"/>
      </g>
      <path id="Path_1421" data-name="Path 1421" d="M866.3,757.4l.241-6.5,4.611,1.4.882,8.1S867.623,760.683,866.3,757.4Z" transform="translate(-719.478 -467.159)" fill="#fcd2b1"/>
      <path id="Path_1422" data-name="Path 1422" d="M860.074,764.924a8.517,8.517,0,0,0,5.132.321l-.281-1.844a3.8,3.8,0,0,1,1.6,2.446c.321,1.644.4,1.2,2.486,2.486,2.125,1.283,1.965,4.17,1.965,4.17l-15.717-.4a9,9,0,0,1,2.406-6.535A2.057,2.057,0,0,1,860.074,764.924Z" transform="translate(-712.851 -474.648)" fill="#56535e"/>
      <path id="Path_1423" data-name="Path 1423" d="M802.95,527.8s-2.045,7.979.842,12.99,8.1-6.094,8.1-6.094S810.969,524.026,802.95,527.8Z" transform="translate(-681.106 -333.021)" fill="#c73c3c"/>
      <path id="Path_1424" data-name="Path 1424" d="M780.8,434.6s-10.585,14.394-12.349,23.094c-1.8,8.7.12,27.7.12,27.7h4.33s2.285-24.257,3.729-27.7c1.443-3.528,10.825-19.806,10.825-19.806Z" transform="translate(-660.395 -277.675)" fill="#ffe3ca"/>
      <g id="Group_201" data-name="Group 201" transform="translate(91.453 218.99)">
        <rect id="Rectangle_292" data-name="Rectangle 292" width="40.174" height="4.611" transform="translate(27.143 78.142)" fill="#d3d3d3"/>
        <rect id="Rectangle_293" data-name="Rectangle 293" width="43.181" height="4.611" transform="translate(18.563 109.976)" fill="#d3d3d3"/>
        <rect id="Rectangle_294" data-name="Rectangle 294" width="43.181" height="4.611" transform="translate(14.674 140.768)" fill="#d3d3d3"/>
        <path id="Path_1425" data-name="Path 1425" d="M746.811,767.808H742L777.443,601.1h2.686Z" transform="translate(-736.467 -596.409)" fill="#d3d3d3"/>
        <path id="Path_1426" data-name="Path 1426" d="M872.111,760.8H867.3l28.105-171.4,2.365,1.123Z" transform="translate(-811.53 -589.4)" fill="#d3d3d3"/>
        <path id="Path_1427" data-name="Path 1427" d="M779.038,760.8,804.9,594.372l-35.723-.281L733.733,760.8H728.2l36-171.4h47.871L785.493,760.8h-7.257" transform="translate(-728.2 -589.4)" fill="#f7f7f7"/>
      </g>
      <path id="Path_1428" data-name="Path 1428" d="M814.5,757.4l.241-6.5,4.611,1.4.882,8.1C820.193,760.4,815.823,760.683,814.5,757.4Z" transform="translate(-688.446 -467.159)" fill="#fcd2b1"/>
      <path id="Path_1429" data-name="Path 1429" d="M919.64,363.2s11.427-.842,12.79-6.134,1.123-19.566,1.123-19.566h3.969s2.726,13.271,2.566,19.566-7.818,17.04-20.448,16.358C907.05,372.742,919.64,363.2,919.64,363.2Z" transform="translate(-748.08 -219.505)" fill="#ffe3ca"/>
      <path id="Path_1430" data-name="Path 1430" d="M807.95,399.9s-6.615.682-9.342,3.568c-1.323,1.4-9.542,11.587-9.221,13.792l9.662,6.014,7.9-10.945Z" transform="translate(-673.396 -256.887)" fill="#2b2839"/>
      <path id="Path_1431" data-name="Path 1431" d="M807.937,514.508a32.431,32.431,0,0,0-.16,17.641c2.686,9.221,2.686,27.825,2.446,32.676s-4.771,18.884-.922,43.662h5.934s3.608-25.981,5.693-37.046c1.965-10.384,4.45-36.285,4.45-36.285s7.457,24.577,6.214,30.912c-1.363,6.976-1.523,42.379-1.523,42.379h5.974s6.7-30.471,7.1-38.65c.441-8.179-.481-54.046-.481-54.046S822.771,502.239,807.937,514.508Z" transform="translate(-683.727 -322.461)" fill="#56535e"/>
      <path id="Path_1432" data-name="Path 1432" d="M851.654,360,845.6,378.523l10.945,2.165,2.406-19.2Z" transform="translate(-707.077 -232.984)" fill="#fcd2b1"/>
      <path id="Path_1433" data-name="Path 1433" d="M834.247,395.937s7.417,1.524,8.179,11.226,1.8,51.079,1.8,54.647c-.241,1.644-29.068,7.137-37.648-1.2-2.165-2.125,4.931-38.129,3.929-47.591C809.469,403.6,815.082,391.607,834.247,395.937Z" transform="translate(-683.456 -253.967)" fill="#2b2839"/>
      <path id="Path_1434" data-name="Path 1434" d="M879.428,415.675s2.967-6.776,12.148-7.457c0,0,2.205-6.295,0-10.224,0,0-16.639-3.408-22.974-2.125S879.428,415.675,879.428,415.675Z" transform="translate(-720.017 -254.299)" fill="#2b2839"/>
      <path id="Path_1435" data-name="Path 1435" d="M960.976,326.385s1.243-6.656-.962-10.424c-1.323-2.245-2.766-3.288-4.21-2.887-.962.281-1.363,1.965-1.123,2.927a36.88,36.88,0,0,0,1.924,5.613s-1,0-2.045-2.245c-1-2.205-1.764,1.042-.962,2.566C954.8,324.14,958.771,330.194,960.976,326.385Z" transform="translate(-771.575 -204.822)" fill="#ffe3ca"/>
      <path id="Path_1436" data-name="Path 1436" d="M808.174,764.924a8.517,8.517,0,0,0,5.132.321l-.281-1.844a3.8,3.8,0,0,1,1.6,2.446c.321,1.644.4,1.2,2.486,2.486,2.125,1.283,1.965,4.17,1.965,4.17l-15.717-.4a9,9,0,0,1,2.406-6.535A2.072,2.072,0,0,1,808.174,764.924Z" transform="translate(-681.76 -474.648)" fill="#56535e"/>
      <path id="Path_1437" data-name="Path 1437" d="M862.027,334.339c-.281-2.325,4.771-3.889-4.891-10.7-4.931-3.448-13.511-1.924-16.158,3.288s-1.243,5.733-3.288,6.094c-2.045.4.12,16.518,12.469,16.318C862.548,349.134,862.027,334.339,862.027,334.339Z" transform="translate(-701.934 -210.09)" fill="#56535e"/>
      <path id="Path_1438" data-name="Path 1438" d="M813.6,406.6" transform="translate(-687.907 -260.901)" fill="#333"/>
      <path id="Path_1439" data-name="Path 1439" d="M804.335,515h37.608a2.919,2.919,0,0,1,2.927,2.606c.641,5.653,1.323,18.483-5.292,19.405-8.5,1.2-11.226-7.979-11.226-16.518l-24.7.12S802.811,516.524,804.335,515Z" transform="translate(-681.809 -325.839)" fill="#c73c3c"/>
      <path id="Path_1440" data-name="Path 1440" d="M769.9,561.3" transform="translate(-661.728 -353.576)" fill="#2a94f4"/>
      <path id="Path_1441" data-name="Path 1441" d="M771.9,555.7s-.722,8.54,2.045,10.865c2.766,2.365-4.891,3.408-6.776-.922s.682-9.943.682-9.943Z" transform="translate(-659.677 -350.221)" fill="#ffe3ca"/>
      <path id="Path_1442" data-name="Path 1442" d="M776.409,558.5a4.886,4.886,0,0,1,3.528,3.207,22.882,22.882,0,0,1,1.042,4.41.871.871,0,0,1-1.4.8,2.657,2.657,0,0,1-1.163-2.446c.2-2.606-2.927-1.844-2.927-1.844S774.445,559.542,776.409,558.5Z" transform="translate(-664.91 -351.899)" fill="#ffe3ca"/>
      <path id="Path_1443" data-name="Path 1443" d="M879.965,520.115H878V514.3a.617.617,0,0,1,.6-.6h.8a.617.617,0,0,1,.6.6v5.814Z" transform="translate(-726.487 -325.061)" fill="#f7f7f7"/>
      <path id="Path_1444" data-name="Path 1444" d="M887.265,523.05H885.3V519.2a.617.617,0,0,1,.6-.6h.8a.617.617,0,0,1,.6.6v3.849Z" transform="translate(-730.86 -327.996)" fill="#f7f7f7"/>
      <path id="Path_1445" data-name="Path 1445" d="M895.426,515.981H892.7V507.6a.8.8,0,0,1,.8-.8h1.123a.8.8,0,0,1,.8.8Z" transform="translate(-735.293 -320.927)" fill="#f7f7f7"/>
      <rect id="Rectangle_295" data-name="Rectangle 295" width="15.155" height="1.283" transform="translate(147.183 195.054)" fill="#161616" opacity="0.32"/>
    </g>
  </g>
</svg>
