<svg xmlns="http://www.w3.org/2000/svg" xmlns:xlink="http://www.w3.org/1999/xlink" width="560.331" height="380.628" viewBox="0 0 560.331 380.628">
  <defs>
    <linearGradient id="linear-gradient" x1="0.5" y1="1" x2="0.5" gradientUnits="objectBoundingBox">
      <stop offset="0" stop-color="gray" stop-opacity="0.251"/>
      <stop offset="0.54" stop-color="gray" stop-opacity="0.122"/>
      <stop offset="1" stop-color="gray" stop-opacity="0.102"/>
    </linearGradient>
  </defs>
  <g id="Group_196" data-name="Group 196" transform="translate(-20655.753 -6001.707)">
    <g id="accept-request" transform="translate(20603.5 5854.446)">
      <g id="Group_172" data-name="Group 172" transform="translate(52.753 147.761)">
        <circle id="Ellipse_123" data-name="Ellipse 123" cx="62.231" cy="62.231" r="62.231" transform="translate(0 0)" fill="none" stroke="#d3d3d3" stroke-miterlimit="10" stroke-width="1" stroke-dasharray="11.841 11.841"/>
      </g>
      <g id="Group_174" data-name="Group 174" transform="translate(85.702 188.718)">
        <path id="Path_1373" data-name="Path 1373" d="M550.387,223.035V458.02a6.007,6.007,0,0,1-5.685,6.235H117.585a6.007,6.007,0,0,1-5.685-6.235V223.035a6.007,6.007,0,0,1,5.685-6.235H544.763C547.881,216.8,550.387,219.612,550.387,223.035Z" transform="translate(-111.9 -216.8)" fill="#d7dcdc"/>
        <path id="Path_1374" data-name="Path 1374" d="M208.672,350.807H147.236a7.357,7.357,0,0,1-7.336-7.336V282.036a7.357,7.357,0,0,1,7.336-7.336h61.436a7.357,7.357,0,0,1,7.336,7.336v61.436A7.357,7.357,0,0,1,208.672,350.807Z" transform="translate(-122.784 -239.306)" fill="#f8fdff"/>
        <path id="Path_1375" data-name="Path 1375" d="M550.426,220.995v17.116H112V220.995c0-2.262,2.567-4.1,5.685-4.1H544.8C547.92,216.838,550.426,218.733,550.426,220.995Z" transform="translate(-111.939 -216.838)" fill="#c73c3c"/>
        <path id="Path_1376" data-name="Path 1376" d="M269.618,438.647H143.873a3.966,3.966,0,0,1-3.973-3.973h0a3.966,3.966,0,0,1,3.973-3.973H269.618a3.966,3.966,0,0,1,3.973,3.973h0A3.966,3.966,0,0,1,269.618,438.647Z" transform="translate(-122.784 -299.942)" fill="#f8fdff"/>
        <path id="Path_1377" data-name="Path 1377" d="M269.618,466.847H143.873a3.966,3.966,0,0,1-3.973-3.973h0a3.966,3.966,0,0,1,3.973-3.973H269.618a3.966,3.966,0,0,1,3.973,3.973h0A3.965,3.965,0,0,1,269.618,466.847Z" transform="translate(-122.784 -310.904)" fill="#f8fdff"/>
        <path id="Path_1378" data-name="Path 1378" d="M269.618,494.047H143.873a3.966,3.966,0,0,1-3.973-3.973h0a3.966,3.966,0,0,1,3.973-3.973H269.618a3.966,3.966,0,0,1,3.973,3.973h0A4,4,0,0,1,269.618,494.047Z" transform="translate(-122.784 -321.476)" fill="#f8fdff"/>
      </g>
      <g id="Group_181" data-name="Group 181" transform="translate(251.563 241.413)">
        <path id="Path_1398" data-name="Path 1398" d="M774.119,349.3H511.748A10.2,10.2,0,0,1,501.6,339.148h0A10.2,10.2,0,0,1,511.748,329h262.31a10.2,10.2,0,0,1,10.148,10.148h0A10.149,10.149,0,0,1,774.119,349.3Z" transform="translate(-429.237 -313.107)" fill="#c73c3c"/>
        <g id="Group_179" data-name="Group 179" transform="translate(75.603 20.111)">
          <path id="Path_1399" data-name="Path 1399" d="M779.969,357.418H517.659a10.759,10.759,0,1,1,0-21.518h262.31a10.759,10.759,0,0,1,0,21.518Zm-262.31-20.3a9.536,9.536,0,1,0,0,19.073h262.31a9.536,9.536,0,0,0,0-19.073Z" transform="translate(-506.9 -335.9)" fill="#c73c3c"/>
        </g>
        <circle id="Ellipse_126" data-name="Ellipse 126" cx="22.618" cy="22.618" r="22.618" transform="translate(8.176 0.611)" fill="none" stroke="#2b2839" stroke-miterlimit="10" stroke-width="10"/>
        <g id="Group_180" data-name="Group 180" transform="translate(0 0)">
          <path id="Path_1400" data-name="Path 1400" d="M396.475,346.586l-12.593-17.178a3.369,3.369,0,1,1,5.441-3.973l8.436,11.554,41.569-33.255a3.351,3.351,0,0,1,4.157,5.257Z" transform="translate(-383.225 -303.001)" fill="#c73c3c"/>
        </g>
      </g>
      <g id="Group_183" data-name="Group 183" transform="translate(251.563 306.639)">
        <circle id="Ellipse_127" data-name="Ellipse 127" cx="22.618" cy="22.618" r="22.618" transform="translate(8.176 0.672)" fill="none" stroke="#2b2839" stroke-miterlimit="10" stroke-width="10"/>
        <g id="Group_182" data-name="Group 182" transform="translate(0 0)">
          <path id="Path_1401" data-name="Path 1401" d="M396.475,453.286l-12.593-17.178a3.369,3.369,0,1,1,5.441-3.973l8.436,11.554,41.569-33.255a3.351,3.351,0,0,1,4.157,5.257Z" transform="translate(-383.225 -409.701)" fill="#c73c3c"/>
        </g>
      </g>
      <g id="Group_184" data-name="Group 184" transform="translate(259.74 372.598)">
        <circle id="Ellipse_128" data-name="Ellipse 128" cx="22.618" cy="22.618" r="22.618" transform="translate(0)" fill="none" stroke="#2b2839" stroke-miterlimit="10" stroke-width="10"/>
      </g>
      <path id="Path_1409" data-name="Path 1409" d="M776.758,450.9H514.448A10.2,10.2,0,0,1,504.3,440.748h0A10.2,10.2,0,0,1,514.448,430.6h262.31a10.2,10.2,0,0,1,10.148,10.148h0A10.162,10.162,0,0,1,776.758,450.9Z" transform="translate(-178.723 -111.185)" fill="#c73c3c"/>
      <g id="Group_193" data-name="Group 193" transform="translate(328.756 323.694)">
        <path id="Path_1410" data-name="Path 1410" d="M782.569,459.118H520.259a10.759,10.759,0,1,1,0-21.518h262.31a10.759,10.759,0,0,1,0,21.518Zm-262.31-20.3a9.536,9.536,0,0,0,0,19.073h262.31a9.536,9.536,0,0,0,0-19.073Z" transform="translate(-509.5 -437.6)" fill="#c73c3c"/>
      </g>
      <path id="Path_1411" data-name="Path 1411" d="M776.758,558.8H514.448A10.2,10.2,0,0,1,504.3,548.648h0A10.2,10.2,0,0,1,514.448,538.5h262.31a10.2,10.2,0,0,1,10.148,10.148h0A10.2,10.2,0,0,1,776.758,558.8Z" transform="translate(-178.723 -153.126)" fill="#c73c3c"/>
      <g id="Group_194" data-name="Group 194" transform="translate(328.756 389.592)">
        <path id="Path_1412" data-name="Path 1412" d="M782.569,566.918H520.259a10.759,10.759,0,1,1,0-21.518h262.31a10.759,10.759,0,0,1,0,21.518Zm-262.31-20.234a9.536,9.536,0,1,0,0,19.073h262.31a9.536,9.536,0,1,0,0-19.073Z" transform="translate(-509.5 -545.4)" fill="#c73c3c"/>
      </g>
    </g>
    <g id="Group_195" data-name="Group 195" transform="translate(20701.473 6119.6)">
      <path id="Path_467" data-name="Path 467" d="M964.65,551.812c-.258-.678,1.654-4.555,1.654-4.745s1.973-2.339,1.973-3.538,2.609-3.8,2.609-3.8,3.5-1.45,3.884-4.616,4.2-3.22,4.2-3.22h0v-.725a9.975,9.975,0,0,1,.468-3.694,3.719,3.719,0,0,1,2.162-1.837s.386-2.467,1.146-3.227a3.626,3.626,0,0,0,.895-3.389c-.386-1.193.508-4.23,2.352-4.677s3.952-1.139,3.952-1.139l.508.088.251-.088a10.583,10.583,0,0,0,1.356.17,1.676,1.676,0,0,0,1.078-.352c.637-.678,5.8-2.033,6.779-2.033a15.5,15.5,0,0,0,3.694-1.268s1.911-1.451,2.711-2.088a17.8,17.8,0,0,0,2.4-3.3v-.048h0a11.725,11.725,0,0,0,.576-1.661h0a14.961,14.961,0,0,1-2.366-3.26c-.068-.122-.129-.244-.19-.373a1.417,1.417,0,0,1-.413-.061l-.17-.068a2.753,2.753,0,0,1-1.356-1.613h0c-.048-.138-.088-.278-.122-.42v-.142l-.061-.285a1.447,1.447,0,0,0,0-.163l-.04-.285v-.162a.935.935,0,0,0-.048-.36h0a12.624,12.624,0,0,0-.2-1.356h0c-.379-1.715-1.417-3.165-2.142-4.745h0c-.1-.224-.2-.454-.291-.678s-.177-.508-.251-.766l-.061-.237c-.048-.19-.088-.379-.129-.569s0-.169-.047-.258q-.061-.387-.1-.793a9.8,9.8,0,0,1,.677-4.44c.475-1.186,1.187-2.257,1.668-3.443.733-1.8.929-3.837,1.816-5.552a6.61,6.61,0,0,1,7.931-3.227c1.356.515,2.589,1.512,3.993,1.959,1.884.6,3.891.149,5.843-.115s4.067-.3,5.667.976c1.8,1.464,2.291,4.216,3.986,5.823.678.678,1.592,1.1,2.345,1.729a3.832,3.832,0,0,1,1.179,1.613l.04.129a1.155,1.155,0,0,1,.041.169,1.606,1.606,0,0,1,.034.19.8.8,0,0,1,0,.129,1.424,1.424,0,0,1,0,.339h0a2.6,2.6,0,0,1-.048.318v.088a.785.785,0,0,1-.081.264c-.034.088,0,.034,0,.047s-.074.2-.115.292l-.06.142a.113.113,0,0,1-.054.115,8.4,8.4,0,0,0-.59,1.471,1.636,1.636,0,0,0,.061.969,2.857,2.857,0,0,0,.678.929,13.113,13.113,0,0,1,2.874,4.6q.115.3.2.59h-.089a3.867,3.867,0,0,1-.556.115,2.661,2.661,0,0,1-.318,0,4.948,4.948,0,0,1-1.3-.1l-.325-.081a7.353,7.353,0,0,1-1.288-.468c0,.129,0,.258,0,.386v.217a15.034,15.034,0,0,1-8.358,13.448,2.78,2.78,0,0,1-.054.407l-.041.346.169-.163s1.146-.57,2.23,1.071a7.2,7.2,0,0,0,3.118,2.406s11.591,1.83,12.038,3.349l5.423.318s1.911.251,2.1,4.237,1.206,4.359,1.206,4.359,2.231,3.925,2.034,5.945a3.317,3.317,0,0,0,1.722,3.037l.251,3.606a2.487,2.487,0,0,1,2.711,2.149,8.582,8.582,0,0,0,1.586,3.6s3.5,2.915,3.694,5.375l2.17,1.356s5.029-1.139,6.175-3.159c0,0,.136-.136.352-.332v-.047h0a20.467,20.467,0,0,1,2.1-1.851,1.522,1.522,0,0,0-.1,1.017l.373-.414,1-1.111s8.134-7.619,12.88-8.223h0c.061-.122.373-1.356,1.186-.576a6.644,6.644,0,0,1,.048,9.741l-7.619,7.111-.2.142-1.634,2.1a19.015,19.015,0,0,1,.678,1.884v.061l.122.366a.827.827,0,0,1,.034.122c.041.122.074.238.108.353l.061.2v.122c.183.637.3,1.125.353,1.4l.427-.135-.413.183v.2l-.393.169c-2.23.969-13.361,5.857-13.93,6.6s-4.84,3.227-8.664,1.2a9.122,9.122,0,0,1-4.643-5.118s-3.694-5.125-3.823-5.884-2.989-1.64-2.989-1.64-.257,8.466,1.207,11.571,4.2,16.817,4.2,16.817a1.94,1.94,0,0,0-.542,0l.163.793a1.845,1.845,0,0,0-.678,0c.2,1.559,1.356,8.812,1.356,8.812a18.038,18.038,0,0,0,1.017,4.426c.637,1.139.677,7.083.677,7.083l1.024,4.3s-.136.3-.386.738h0a11.01,11.01,0,0,1-2.929,3.789,7.483,7.483,0,0,0,.515,1.966,6.914,6.914,0,0,1,.508,3.037,39.43,39.43,0,0,1,.956,6.256,23.871,23.871,0,0,0,.678,4.806l1.145,11s.759,9.544.38,12.14a23.3,23.3,0,0,0,.257,6.1s-.766,7.524-.576,8.344,1.146,4.366.576,6.325-.257,7.334-.257,7.334-.38,7.084-.827,9.361a16.01,16.01,0,0,0,.129,5.185,42.7,42.7,0,0,0,.637,4.867c.19,0,1.844,3.349-1.526,6.636s-1.281,2.779-1.281,2.779,2.711-1.355,2.359,1.4c-.3,2.583-.719,1.912-.759,1.837l.637,2.081-.447.061.366.441a9.541,9.541,0,0,0,1.288,1.356,2.757,2.757,0,0,1,.827,1.83s4.711,5.125,9.1,7.714a26.324,26.324,0,0,1,5.172,3.477c.786.854.678,1.545-.97,2.088-3.437,1.139-9.49,1.708-13.815.251a16.165,16.165,0,0,1-6.778-4.358,9.591,9.591,0,0,0-5.423-.888c-2.711.508-8.026-2.969-8.026-2.969l.1-.895.278-2.589a2.034,2.034,0,0,0,.448-1.573,8.13,8.13,0,0,1,.223-2.277c.048-.251.1-.5.142-.732l-.488-.1s.63-3.22-.515-3.857-.82-8.914-.82-8.914a10,10,0,0,1,2.224-2.21c.766-.311.067-4.243-.068-4.745s-1.146-10.31-1.146-10.31.386-3.091-.122-4.42.637-6.453.637-6.453a1.179,1.179,0,0,0-.319-1.39c-.677-.759-.447-7.524-.447-7.524s.061-3.389.061-4.3a15.262,15.262,0,0,0-1.464-5.179c-.7-1.071-.251-4.426-.251-4.426h0l-.041-.251a.941.941,0,0,0-.054-.359l-.054-.339a49.3,49.3,0,0,0-1.248-5.491c-.827-2.65-1.783-7.328-1.783-7.328l-5.917-15.441-.068-.183s-2.711,5.057-2.711,9.741a61.509,61.509,0,0,0-.515,7.144c.162,1.518-.441,8.656-.441,8.656s-.828,10.242-.828,10.683-1.023,8.344-1.66,9.551.637,4.867,1.023,5.246-.128,9.673-.128,9.673.956,7.334,1.146,8.853.955,7.334.318,9.612-.38,2.589-.38,2.589-2.3,2.346-.956,2.535a3.505,3.505,0,0,1,2.549,4.609,60.776,60.776,0,0,1-2.807,6.778l-1.057-.224v.752l-.075,3.769a22,22,0,0,0-.19,4.426c.183.6.44,3.43.563,4.915.047.542.075.9.075.9s0,3.349-7.07,2.339-8.337-3.8-8.337-3.8l-.054-.346c-.1-.637-.332-1.993-.522-2.752-.251-1.01,2.034-5.565,2.034-5.565s.38-3.1,1.017-3.789a3.382,3.382,0,0,0,.515-1.356c.055-.258.109-.522.15-.779a4.582,4.582,0,0,0-.475.081s.387-2.21-1.084-2.908a2.083,2.083,0,0,1-.888-2.779,21.48,21.48,0,0,0-.569-4.175,2.033,2.033,0,0,0-.509-2.034c-.894-.888-1.593-7.084-1.593-7.084l-.129-23.9s-.448-4.236.061-5.945,1.017-5,.319-5.884-.061-4.989-.061-4.989,0-8.663-.956-10.845-.637-15.747-.637-15.747l-.25-8.914s-2.081-1.966-1.593-12.2c-2.217-.143-4.745-.224-5.1.088-.678.569-5.219,3.477-7.9,1.64a35.492,35.492,0,0,1-3.18-2.461l1.126-18.979-1.126,1.755c0-2.65-7.517-11.252-7.517-11.252s-7-9.042-8.527-10.114-4.522-6.779-4.522-6.779a27.6,27.6,0,0,0-1.531-3.159C962.61,555.54,964.9,552.5,964.65,551.812Zm16.424,6.636c1.911.19,5.925,4.555,5.985,5.5a3.907,3.907,0,0,0,.847,1.695c0-.38.061-.766.1-1.159.448-5.592.936-12.4.677-13.056-.379-1.139-.25-6.263-.25-6.263h0l-.075-.1c-1.281,3.972-5.267,8.649-5.267,8.649s-.678,2.034-1.532,2.081S981.075,558.448,981.075,558.448Z" transform="translate(-963.18 -469.039)" fill="url(#linear-gradient)"/>
      <path id="Path_468" data-name="Path 468" d="M993.9,593.011s-2.325-12.2-9.788-12.2l-5.463,11.232,3.64,2.508S990.2,594.767,993.9,593.011Z" transform="translate(-873.922 -505.046)" fill="#65617d"/>
      <path id="Path_469" data-name="Path 469" d="M978.65,592l3.64,2.508a43.1,43.1,0,0,0,9.544-.8,10.984,10.984,0,0,0,2.067-.678l-.041-.2v-.041a27.082,27.082,0,0,0-1.41-4.474c-.23-.549-.488-1.112-.773-1.674a11.348,11.348,0,0,0-4.745-5.186,6.433,6.433,0,0,0-2.488-.678h-.332l-.122.251-1.843,3.8Z" transform="translate(-873.922 -505.036)" opacity="0.1"/>
      <path id="Path_470" data-name="Path 470" d="M1101.94,655.391s-7.843-.753-8.534-.183-5.145,3.45-7.775,1.627-.881-8.134-.881-8.405.251-9.226.251-9.226l4.7-6.338,5.9-11.1,12.052-1.193-.312,17.624.061,9.036Z" transform="translate(-1059.209 -517.855)" fill="#65617d"/>
      <path id="Path_471" data-name="Path 471" d="M1101.94,655.391s-7.843-.753-8.534-.183-5.145,3.45-7.775,1.627-.881-8.134-.881-8.405.251-9.226.251-9.226l4.7-6.338,5.9-11.1,12.052-1.193-.312,17.624.061,9.036Z" transform="translate(-1059.209 -517.855)" opacity="0.1"/>
      <path id="Path_472" data-name="Path 472" d="M964.354,574.81s.63,7.653,5.423,7.782c0,0,1.356-.813,3.172-2.176,4.189-3.138,10.846-9.164,9-14.77-2.637-8.033-15.435,6.778-15.435,6.778l-.99,1.105Z" transform="translate(-852.598 -499.392)" fill="#fbbebe"/>
      <path id="Path_473" data-name="Path 473" d="M977.5,579.678s.631,7.653,5.423,7.781c0,0,1.355-.813,3.172-2.176l.407-.522a6.24,6.24,0,0,1-2.617.678,3.533,3.533,0,0,1-3.39-2.149,27.132,27.132,0,0,1-1.355-3.044,9.529,9.529,0,0,1-.482-1.877Z" transform="translate(-865.744 -504.26)" opacity="0.1"/>
      <path id="Path_474" data-name="Path 474" d="M983.792,593.254l1.071-1.356,3.613-4.65,1.837-2.379a6.186,6.186,0,0,1-2.609.678,3.512,3.512,0,0,1-3.39-2.149,26.521,26.521,0,0,1-1.322-3.037c-.6-1.695-.583-2.562-.373-2.86a16.775,16.775,0,0,0-2.075,1.844h0l-.346.326-.129.258-1.892,3.66a1.008,1.008,0,0,0,0,.156C978.044,584.9,977.434,592.21,983.792,593.254Z" transform="translate(-869.961 -503.967)" fill="#e7effd"/>
      <path id="Path_475" data-name="Path 475" d="M991.652,834.213s5.274,3.457,7.911,2.949a9.489,9.489,0,0,1,5.335.881,15.83,15.83,0,0,0,6.65,4.331c4.27,1.444,10.229.874,13.618-.251,1.6-.535,1.728-1.227.956-2.074a28.928,28.928,0,0,0-5.1-3.451,49.262,49.262,0,0,1-8.975-7.653,2.71,2.71,0,0,0-.813-1.823,9.386,9.386,0,0,1-1.268-1.356c-.678-.793-1.308-1.627-1.308-1.627l-15.53.583s-.264,1.118-.474,2.264a8.188,8.188,0,0,0-.217,2.257A2.032,2.032,0,0,1,992,830.81l-.277,2.562Z" transform="translate(-915.415 -583.435)" fill="#65617d"/>
      <path id="Path_476" data-name="Path 476" d="M1067.792,839.148c.183.752.413,2.094.515,2.711a1.144,1.144,0,0,0,.047.346s1.254,2.759,8.223,3.762,6.961-2.318,6.961-2.318l-.068-.9c-.122-1.464-.373-4.278-.556-4.874a22.261,22.261,0,0,1,.184-4.393l.074-3.741.054-2.6L1071.7,825.95a22.158,22.158,0,0,1-.373,2.569,3.3,3.3,0,0,1-.508,1.356c-.624.678-1,3.762-1,3.762S1067.521,838.145,1067.792,839.148Z" transform="translate(-1023.97 -584.018)" fill="#65617d"/>
      <path id="Path_477" data-name="Path 477" d="M1016.544,824.758s-.264,1.119-.474,2.264c1.674.305,9,1.573,10.845.678a28.74,28.74,0,0,1,6.528-1.566l-.074-.258c-.678-.793-1.308-1.627-1.308-1.627Z" transform="translate(-938.829 -583.471)" opacity="0.1"/>
      <path id="Path_478" data-name="Path 478" d="M1068.26,828.549c2.922-.495,9.341.678,11.862,1.221l.054-2.6-11.523-1.193A22.413,22.413,0,0,1,1068.26,828.549Z" transform="translate(-1020.94 -584.028)" opacity="0.1"/>
      <path id="Path_479" data-name="Path 479" d="M1016,671.342l.244,8.812s-.311,13.489.632,15.591.941,10.73.941,10.73-.63,4.067.061,4.955.189,4.142-.312,5.836-.061,5.9-.061,5.9l.122,23.724s.678,6.148,1.573,7.029a2.069,2.069,0,0,1,.5,2.033,21.1,21.1,0,0,1,.562,4.142,2.083,2.083,0,0,0,.875,2.759c1.437.691,1.071,2.888,1.071,2.888,3.451-.82,13.239,1.356,13.239,1.356a60.287,60.287,0,0,0,2.766-6.717,3.478,3.478,0,0,0-2.516-4.582c-1.314-.183.943-2.508.943-2.508s-.25-.312.38-2.576-.128-8.033-.319-9.537-1.125-8.812-1.125-8.812.5-9.226.122-9.6-1.627-4.019-1-5.206,1.634-9.036,1.634-9.49.814-10.608.814-10.608a84.564,84.564,0,0,0,.563-8.595,55.446,55.446,0,0,1,.509-7.09c0-4.643,2.711-9.666,2.711-9.666l.068.183,5.829,15.428s.942,4.643,1.755,7.28a47.623,47.623,0,0,1,1.227,5.423l.054.339.054.353.041.251h0s-.434,3.322.257,4.393a15.654,15.654,0,0,1,1.437,5.145c0,.881-.061,4.27-.061,4.27s-.25,6.711.441,7.456a1.174,1.174,0,0,1,.312,1.356s-1.126,5.084-.624,6.4.122,4.392.122,4.392,1,9.727,1.132,10.229.814,4.392.061,4.7a10.049,10.049,0,0,0-2.2,2.2s-.312,8.222.813,8.846.508,3.83.508,3.83,9.1,1.755,11.164.752a28.622,28.622,0,0,1,6.528-1.566l-.624-2.034c.04.075.454.746.746-1.823.318-2.711-2.318-1.356-2.318-1.356s-2.074.5,1.254-2.759,1.694-6.589,1.5-6.589a42.081,42.081,0,0,1-.623-4.833,15.971,15.971,0,0,1-.129-5.145c.441-2.257.813-9.286.813-9.286s-.312-5.335.257-7.28-.38-5.423-.569-6.277.569-8.283.569-8.283a23.254,23.254,0,0,1-.257-6.1c.38-2.576-.373-12.052-.373-12.052l-1.132-10.913a22.557,22.557,0,0,1-.678-4.745c.135-1.356-.942-6.209-.942-6.209a6.883,6.883,0,0,0-.5-3.016c-.63-1.254-.881-5.423-.881-5.423l-6.026-13.8-2.949-12.2-39.844-.38s-.141,1.058-.386,2.976-.584,4.745-.963,8.263c-.345,3.186-.725,6.935-1.1,11.1C1013.481,668.955,1016,671.342,1016,671.342Z" transform="translate(-975.202 -521.943)" fill="#c73c3c"/>
      <path id="Path_480" data-name="Path 480" d="M1058.77,522.492l9.28,9.93s11.916-4.745,10.662-6.406c-.481-.631-.406-2.623-.129-4.82.44-3.477,1.355-7.456,1.355-7.456s-20.831-3.389-19.068.122a5.774,5.774,0,0,1,.129,4.169A15.8,15.8,0,0,1,1058.77,522.492Z" transform="translate(-1014.27 -482.966)" fill="#fbbebe"/>
      <path id="Path_481" data-name="Path 481" d="M1058.876,513.813c.637,1.288.943,1.409.542,2.793,2.712,2.921,6.188,6.1,10.5,6.1a14.861,14.861,0,0,0,6.643-1.559c.441-3.478,1.356-7.456,1.356-7.456S1057.114,510.3,1058.876,513.813Z" transform="translate(-1012.247 -482.95)" opacity="0.1"/>
      <path id="Path_482" data-name="Path 482" d="M1048.54,497.981a14.937,14.937,0,0,0,29.874,0v-.217a14.934,14.934,0,0,0-29.866.217Z" transform="translate(-1005.809 -473.517)" fill="#fbbebe"/>
      <path id="Path_483" data-name="Path 483" d="M1033.823,646.559c1.979,0,8.568.068,15.929.19h.088l2.433.04h.075c8.73.135,17.332-1.566,20.789-1.247,7.342.678-2.636-6.778-2.636-6.778a61.571,61.571,0,0,1-16.723,1.688l-2.114-.109c-6.671-.379-13.374-1-16.879-2.033C1034.541,640.235,1034.2,643.055,1033.823,646.559Z" transform="translate(-993.254 -523.57)" opacity="0.1"/>
      <path id="Path_484" data-name="Path 484" d="M1033.823,646c1.979,0,8.568.075,15.929.19h.088l2.433.041h.075c8.73.142,17.332-1.566,20.789-1.24,7.342.677-2.636-6.779-2.636-6.779a61.266,61.266,0,0,1-16.723,1.688l-2.114-.108c-6.671-.373-13.374-1-16.879-2.033C1034.541,639.678,1034.2,642.5,1033.823,646Z" transform="translate(-993.254 -523.393)" fill="#2b2839"/>
      <path id="Path_485" data-name="Path 485" d="M1056.346,532.407l11.524,5.423,8.914,68.9s-5.274-2.386-8.284-.881-12.3.129-12.3.129-6.778-.38-7.782.38-12.8-3.138-12.8-3.138-2.136-4.745-.5-5.525-.5-8.134-.5-8.134l1-49.7,2.033-6.4,5.423-3.267,5.518,4.392,2.637.38Z" transform="translate(-994.662 -488.739)" opacity="0.1"/>
      <path id="Path_486" data-name="Path 486" d="M1056.3,531.3l11.523,5.423,8.934,68.9s-5.274-2.386-8.284-.881-12.3.129-12.3.129-6.779-.38-7.782.373-12.8-3.132-12.8-3.132-2.135-4.745-.5-5.525-.5-8.134-.5-8.134l1-49.7,2.033-6.4,5.423-3.267,5.518,4.392,2.637.379Z" transform="translate(-994.611 -488.385)" fill="#f2f9f9"/>
      <path id="Path_487" data-name="Path 487" d="M1062.124,536.6s-3.328,3.952-3.267,4.745.19,2.766.19,2.766l2.508,5.077s1.355,6.339,1.355,7.66,2.2,12.737,2.2,12.737l2.691,17.59,3.328,23.047-3.389,5.836-4.02-3.389-5.335-41.037-1.125-8.094s-1.193-14.56-1.193-16.065a51.423,51.423,0,0,1,.677-5.457s-.819-3.769-4.209-4.643.259-.19.259-.19l1.938-1.566,1.7.678S1061.121,534.847,1062.124,536.6Z" transform="translate(-1000.25 -490.488)" opacity="0.1"/>
      <path id="Path_488" data-name="Path 488" d="M1061.7,536.027s-3.322,3.952-3.261,4.745.19,2.759.19,2.759l2.508,5.084s1.356,6.338,1.356,7.653,2.2,12.737,2.2,12.737l2.63,17.57,3.328,23.047-3.389,5.836-4.013-3.389-5.335-41.037-1.132-8.094s-1.193-14.56-1.193-16.065a51.465,51.465,0,0,1,.678-5.463s-.813-3.762-4.2-4.643.251-.183.251-.183l1.946-1.573,1.694.678S1060.7,534.271,1061.7,536.027Z" transform="translate(-999.456 -490.292)" fill="#2b2839"/>
      <path id="Path_489" data-name="Path 489" d="M1064.143,526.79s.5.38.631,2.888,1.884,8.134,1.884,8.134-6.528-4.514-9.788-4.013Z" transform="translate(-999.7 -487.644)" opacity="0.1"/>
      <path id="Path_490" data-name="Path 490" d="M1064.143,525.68s.5.38.631,2.887,1.884,8.135,1.884,8.135-6.528-4.515-9.788-4.013Z" transform="translate(-999.7 -487.286)" fill="#f2f9f9"/>
      <path id="Path_491" data-name="Path 491" d="M1073.445,523.83l10.291,9.036s-8.656,5.145-9.789,6.4-2.257-12.3-2.257-12.3Z" transform="translate(-1026.823 -486.69)" opacity="0.1"/>
      <path id="Path_492" data-name="Path 492" d="M1073.995,522.72l10.29,9.036s-8.663,5.145-9.788,6.4-2.257-12.3-2.257-12.3Z" transform="translate(-1027.746 -486.332)" fill="#f2f9f9"/>
      <path id="Path_493" data-name="Path 493" d="M1017.233,526.746s1.125-.563,2.2,1.071a7.084,7.084,0,0,0,3.071,2.379s11.421,1.823,11.862,3.328l5.335.312s1.884.251,2.033,4.209,1.193,4.325,1.193,4.325,2.2,3.891,2.033,5.9a3.3,3.3,0,0,0,1.7,3.017l-7.843,20.389s-.251,8.412,1.193,11.483,4.142,16.7,4.142,16.7-1.132-.251-1.064.5,1.356,8.975,1.356,8.975a18.259,18.259,0,0,0,1,4.392c.623,1.132.677,7.023.677,7.023l1,4.27s-2.379,5.335-6.019,4.582-10.223-15-10.223-15l-4.2-15.373-3.267-15.184-.942-10.29-1.5-22.783-2.2-15.055S1016.352,527.817,1017.233,526.746Z" transform="translate(-953.163 -487.599)" opacity="0.1"/>
      <path id="Path_494" data-name="Path 494" d="M1016.669,525.636s1.132-.563,2.2,1.071a7.117,7.117,0,0,0,3.076,2.379s11.422,1.823,11.863,3.328l5.328.312s1.885.251,2.074,4.2,1.193,4.332,1.193,4.332,2.2,3.891,2.034,5.9a3.288,3.288,0,0,0,1.694,3.016l-7.87,20.417s-.251,8.412,1.193,11.483,4.142,16.7,4.142,16.7-1.132-.251-1.072.5,1.356,8.968,1.356,8.968a17.865,17.865,0,0,0,1,4.393c.63,1.125.677,7.029.677,7.029l1,4.271s-2.386,5.335-6.026,4.575-10.229-14.994-10.229-14.994l-4.2-15.374-3.261-15.184-.9-10.33-1.5-22.782-2.2-15.055S1015.794,526.706,1016.669,525.636Z" transform="translate(-952.226 -487.241)" fill="#c73c3c"/>
      <path id="Path_495" data-name="Path 495" d="M978.1,591.825l3.64,2.508a43.1,43.1,0,0,0,9.544-.8l2.034-.9.407-.176-.42.136a8.31,8.31,0,0,1-5.023.176c-5.152-1.735-4.582-10.236-4.379-12.16a1.794,1.794,0,0,1,.04-.366h0v.048a3.355,3.355,0,0,1-.237.332l-.231.244h0l-1.885,3.62a.944.944,0,0,0,0,.155Z" transform="translate(-873.372 -504.863)" opacity="0.1"/>
      <path id="Path_496" data-name="Path 496" d="M990.126,561.14l1.756.5.251,3.572a2.429,2.429,0,0,1,2.637,2.135,8.624,8.624,0,0,0,1.566,3.579s3.45,2.888,3.64,5.335l2.135,1.315s4.955-1.132,6.1-3.138c0,0-2.265,16.187,9.788,12.2,0,0-13.489,5.9-14.12,6.717a7.888,7.888,0,0,1-8.534,1.193,8.946,8.946,0,0,1-4.582-5.084s-3.64-5.084-3.762-5.836S984.052,582,984.052,582l-5.422-13.049Z" transform="translate(-898.006 -498.71)" fill="#c73c3c"/>
      <path id="Path_497" data-name="Path 497" d="M1113.319,531l-1.817-8.283s-.82,2.711-1.634,3.328l-2.711,2.034a15.922,15.922,0,0,1-3.64,1.254c-.929,0-6.027,1.356-6.65,2.034s-3.138.19-3.138.19-2.068.678-3.891,1.132-2.711,3.45-2.318,4.643a3.626,3.626,0,0,1-.881,3.389c-.753.752-1.132,3.2-1.132,3.2a3.673,3.673,0,0,0-2.128,1.817c-.631,1.356-.441,4.393-.441,4.393l9.347,13.177s-.122,5.084.251,6.216-1.315,20.336-1.315,20.336l-1.945,33a34.246,34.246,0,0,0,3.138,2.447c.563.251,1.126-11.672,1.126-12.106s14.5-21.691,14.5-21.691,1.945-3.139,1.945-3.83,1.817-7.029,1.817-7.029l2.759-12.2Z" transform="translate(-1065.253 -486.333)" opacity="0.1"/>
      <path id="Path_498" data-name="Path 498" d="M1084.027,549.424v.719l9.341,13.164h0s-.128,5.084.251,6.216c.217.678-.258,7.409-.678,12.954-.319,4-.61,7.375-.61,7.375l-.827,14-1.119,18.98a34.223,34.223,0,0,0,3.138,2.447c.563.251,1.125-11.673,1.125-12.113s14.5-21.691,14.5-21.691,1.946-3.139,1.946-3.83,1.816-7.029,1.816-7.029l2.759-12.2-1.255-37.4-1.064-8.283a17.775,17.775,0,0,1-2.386,3.321l-2.711,2.074a15.922,15.922,0,0,1-3.64,1.254c-.929,0-6.026,1.356-6.65,2.034s-3.139.19-3.139.19-2.075.678-3.891,1.132-2.711,3.45-2.318,4.643a3.634,3.634,0,0,1-.881,3.389c-.753.753-1.132,3.2-1.132,3.2a3.672,3.672,0,0,0-2.128,1.816A10.17,10.17,0,0,0,1084.027,549.424Z" transform="translate(-1067.109 -486.336)" fill="#c73c3c"/>
      <path id="Path_499" data-name="Path 499" d="M1030.772,808.76c-.312,0-13.49.5-13.239,2.637S1030.772,808.76,1030.772,808.76Z" transform="translate(-937.147 -578.481)" opacity="0.1"/>
      <path id="Path_500" data-name="Path 500" d="M1028.8,814s-8.846,1.444-6.528,2.759S1028.8,814,1028.8,814Z" transform="translate(-938.12 -580.169)" opacity="0.1"/>
      <path id="Path_501" data-name="Path 501" d="M1083.1,806.73s-14.682,1.254-12.486,2.881,7.4,1.884,7.653,1.946S1083.1,806.73,1083.1,806.73Z" transform="translate(-1025.307 -577.827)" opacity="0.1"/>
      <path id="Path_502" data-name="Path 502" d="M1076.212,816.26s-8.134,1.356-8.406,2.948S1076.212,816.26,1076.212,816.26Z" transform="translate(-1016.663 -580.897)" opacity="0.1"/>
      <path id="Path_503" data-name="Path 503" d="M1082.37,760.53s-7.456,1.756-7.91,2.949Z" transform="translate(-1027.336 -562.943)" opacity="0.1"/>
      <path id="Path_504" data-name="Path 504" d="M1030.98,768.49s3.891,1.132.122,3.389S1030.98,768.49,1030.98,768.49Z" transform="translate(-947.164 -565.508)" opacity="0.1"/>
      <path id="Path_505" data-name="Path 505" d="M1072.425,678.812c-.441,0-7.281-2.257-9.667-1.254a15.894,15.894,0,0,1-5.328,1Z" transform="translate(-1005.846 -536.131)" opacity="0.1"/>
      <path id="Path_506" data-name="Path 506" d="M1045.6,688.434l.068.624,5.85,15.319s.943,4.644,1.755,7.281a47.605,47.605,0,0,1,1.227,5.423l-5.178-32.11Z" transform="translate(-979.903 -538.601)" opacity="0.1"/>
      <path id="Path_507" data-name="Path 507" d="M1066.36,647.159l2.433.041h.074l1.43-6.324-2.115-.115Z" transform="translate(-1009.773 -524.359)" fill="#3f3d56"/>
      <path id="Path_508" data-name="Path 508" d="M1078.574,636.036l1.559,1.288,5.22,4.291s14.113,7.531,18,.379c3.43-6.3-12.574-10.8-16.431-11.788l-.82-.2Z" transform="translate(-1051.589 -520.896)" fill="#fbbebe"/>
      <path id="Path_509" data-name="Path 509" d="M1030.336,547.9s-2.759,1.254-3.389,3.01S1030.336,547.9,1030.336,547.9Z" transform="translate(-943.05 -494.444)" opacity="0.1"/>
      <path id="Path_510" data-name="Path 510" d="M1010.2,575.67s4.013,4.894,2.386,6.779S1010.2,575.67,1010.2,575.67Z" transform="translate(-914.377 -503.39)" opacity="0.1"/>
      <path id="Path_511" data-name="Path 511" d="M1114.45,552s3.762.38,3.891,3.64Z" transform="translate(-1090.414 -495.765)" opacity="0.1"/>
      <path id="Path_512" data-name="Path 512" d="M1079.769,622.121c-.38-.379-9.035-13.177-11.049-12.045Z" transform="translate(-1020.844 -514.452)" opacity="0.1"/>
      <path id="Path_513" data-name="Path 513" d="M1048.618,498a14.9,14.9,0,0,0,1.769,7.05h.108c.949-.2,1.444-1.3,2.162-1.993a2.935,2.935,0,0,1,3.39-.475,3.445,3.445,0,0,1,1.667,3.22c.475-2.034.325-4.149.793-6.162s1.871-4.067,3.8-4.067c.826,0,1.8.3,2.392-.319a5.91,5.91,0,0,0,.678-1.417c1.355-2.23,5.558-1.1,7.267.041s3.695,2.962,5.816,3.938a14.934,14.934,0,0,0-29.866.217Z" transform="translate(-1005.886 -473.533)" opacity="0.1"/>
      <path id="Path_514" data-name="Path 514" d="M1063.566,489.592a9.546,9.546,0,0,1-.678,1.424c-.6.617-1.566.3-2.393.312-1.925.034-3.335,2.074-3.8,4.067s-.318,4.148-.8,6.155a3.391,3.391,0,0,0-1.661-3.213,2.949,2.949,0,0,0-3.389.468c-.719.678-1.213,1.8-2.162,1.993s-1.857-.712-2.2-1.708a26.218,26.218,0,0,1-.542-3.125c-.427-1.952-1.708-3.559-2.414-5.423a9.837,9.837,0,0,1,.061-7.009c.474-1.179,1.173-2.237,1.647-3.389.726-1.783.915-3.8,1.8-5.5a6.507,6.507,0,0,1,7.816-3.213c1.355.515,2.548,1.5,3.931,1.952,1.857.6,3.837.149,5.755-.122s4.067-.291,5.586.969c1.776,1.457,2.264,4.189,3.931,5.782.678.678,1.573,1.1,2.312,1.715a3.189,3.189,0,0,1,1.3,2.549c-.116,1.3-1.356,2.481-.915,3.688a2.865,2.865,0,0,0,.678.915,13.136,13.136,0,0,1,3.037,5.172c-3.389,1.044-7-2.657-9.619-4.406C1069.125,488.494,1064.942,487.369,1063.566,489.592Z" transform="translate(-1004.051 -469.704)" fill="#7c5c5c"/>
      <path id="Path_515" data-name="Path 515" d="M1103.16,636.036l1.559,1.288c1.356-2.3,7.036-6.88,7.036-6.88l-.244-.237-.82-.2Z" transform="translate(-1076.175 -520.896)" opacity="0.1"/>
      <path id="Path_516" data-name="Path 516" d="M1103.72,632.754s.555,1.4,1.139,2.6,1.214,2.3,1.241,1.417c.068-1.762,7.341-7.66,7.341-7.66l-.983-.963-1.146-1.112Z" transform="translate(-1078.24 -519.939)" fill="#f2f9f9"/>
      <path id="Path_517" data-name="Path 517" d="M1104.637,618.265l-.827,14c1.952-3.03,7.3-10.8,10.737-10.547l-8.344-9.6a11.287,11.287,0,0,1-.956-1.227C1104.929,614.889,1104.637,618.265,1104.637,618.265Z" transform="translate(-1079.408 -514.737)" opacity="0.1"/>
      <path id="Path_518" data-name="Path 518" d="M1105.17,632.754s.556,1.4,1.139,2.6c2.19-3,5.192-6.541,7.6-7.206l-1.145-1.112Z" transform="translate(-1079.69 -519.939)" opacity="0.1"/>
      <path id="Path_519" data-name="Path 519" d="M1122.193,560.58l-2.257,1.756s-3.769.068-4.142,3.2-3.831,4.582-3.831,4.582-2.569,2.576-2.569,3.769-1.945,3.321-1.945,3.511-1.884,4.013-1.634,4.7-2.034,3.7-1.315,4.833a28.988,28.988,0,0,1,1.5,3.139s2.949,5.646,4.454,6.711,8.405,10.046,8.405,10.046,7.408,8.527,7.408,11.164c0,0,7.212-12.046,11.483-11.734l-8.344-9.6s-1.444-1.573-1.511-2.508-4.013-5.274-5.9-5.463c0,0-.311-2.569.5-2.637s1.505-2.033,1.505-2.033,5.525-6.528,5.586-10.669S1122.193,560.58,1122.193,560.58Z" transform="translate(-1102.99 -498.529)" fill="#c73c3c"/>
      <path id="Path_520" data-name="Path 520" d="M1125.885,569.37s5.274,3.891,4.142,5.152S1125.885,569.37,1125.885,569.37Z" transform="translate(-1110.01 -501.361)" opacity="0.1"/>
      <path id="Path_521" data-name="Path 521" d="M1143.391,592.407s-9.788-3.138-10.792,0Z" transform="translate(-1127.767 -508.333)" opacity="0.1"/>
      <path id="Path_522" data-name="Path 522" d="M991.652,838.578s5.274,3.457,7.911,2.949a9.492,9.492,0,0,1,5.335.881,15.829,15.829,0,0,0,6.65,4.332c4.27,1.444,10.229.874,13.618-.251,1.6-.535,1.728-1.227.956-2.074-3.68.732-11.917,2.189-14.133,1.132a58.867,58.867,0,0,1-7.029-4.392s-5.423-.752-6.148-.752a67.123,67.123,0,0,1-7.057-2.711Z" transform="translate(-915.415 -587.801)" opacity="0.1"/>
      <path id="Path_523" data-name="Path 523" d="M1067.8,849.45a1.151,1.151,0,0,0,.047.346s1.254,2.759,8.222,3.762,6.962-2.319,6.962-2.319l-.068-.9C1080.76,851.178,1075.948,852.107,1067.8,849.45Z" transform="translate(-1023.482 -591.589)" opacity="0.1"/>
      <path id="Path_524" data-name="Path 524" d="M1028.416,568.26s0,14.31,1.22,15.719S1028.416,568.26,1028.416,568.26Z" transform="translate(-943.733 -501.003)" opacity="0.1"/>
      <path id="Path_525" data-name="Path 525" d="M1116.087,575.07l-1.823,5.111S1113.545,575.165,1116.087,575.07Z" transform="translate(-1087.97 -503.197)" opacity="0.1"/>
      <g id="Group_95" data-name="Group 95" transform="translate(38.881 13.429)" opacity="0.1">
        <path id="Path_526" data-name="Path 526" d="M1047.185,492.443c-.46-1.172.746-2.332.9-3.592a2.314,2.314,0,0,1,.2,1.132c-.082.956-.787,1.844-.97,2.711A1.554,1.554,0,0,1,1047.185,492.443Z" transform="translate(-1013.584 -488.85)"/>
        <path id="Path_527" data-name="Path 527" d="M1042.97,507.847c.448-1.979.312-4.067.773-6.053s1.871-4.067,3.8-4.067c.827,0,1.8.3,2.393-.319.366-.373.434-.963.678-1.423,1.356-2.223,5.558-1.091,7.273.048,2.562,1.7,6.1,5.274,9.382,4.46.156.38.3.766.427,1.166-3.388,1.044-7-2.657-9.618-4.406-1.715-1.139-5.9-2.264-7.273-.041a9.5,9.5,0,0,1-.678,1.424c-.6.617-1.566.3-2.393.312-1.925.034-3.336,2.074-3.8,4.067s-.318,4.149-.8,6.155a3.378,3.378,0,0,0-.162-1.322Z" transform="translate(-1030.192 -490.738)"/>
        <path id="Path_528" data-name="Path 528" d="M1079.624,510.1c.339,1,1.234,1.912,2.2,1.708s1.437-1.3,2.156-1.993a2.956,2.956,0,0,1,3.389-.475,3.431,3.431,0,0,1,1.668,3.044,3.275,3.275,0,0,0-1.478-1.817,2.949,2.949,0,0,0-3.39.468c-.719.678-1.213,1.8-2.162,1.993s-1.858-.712-2.2-1.708a7.991,7.991,0,0,1-.346-1.8,4.426,4.426,0,0,0,.156.583Z" transform="translate(-1076.282 -495.345)"/>
        <path id="Path_529" data-name="Path 529" d="M1094.276,497.336c.678,1.858,1.987,3.464,2.414,5.423.081.393.135.8.183,1.207-.434-1.952-1.7-3.552-2.406-5.423a9.4,9.4,0,0,1-.577-2.6,9.545,9.545,0,0,0,.386,1.4Z" transform="translate(-1093.89 -491.134)"/>
      </g>
    </g>
  </g>
</svg>
