<svg xmlns="http://www.w3.org/2000/svg" width="438.578" height="451.788" viewBox="0 0 438.578 451.788">
  <g id="Слой_2" data-name="Слой 2" transform="translate(0 -48.212)">
    <g id="Слой_1" data-name="Слой 1">
      <path id="Path_939" data-name="Path 939" d="M388.86,204.44,119.34,48.84a3.44,3.44,0,0,0-3.16-.42h0l-.27.16-2.94,1.7,1.69,2.39V233.94a10.44,10.44,0,0,0,4.72,8.18L388.53,397.54l.38,2.41,3.27-1.89h0a3.31,3.31,0,0,0,1.4-3.06V212.62a10.44,10.44,0,0,0-4.72-8.18Z" fill="#d6d8e5"/>
      <path id="Path_940" data-name="Path 940" d="M390.3,214.52V396.89c0,3-2.1,4.23-4.72,2.72L116.06,244a10.44,10.44,0,0,1-4.72-8.18V53.46c0-3,2.11-4.24,4.72-2.73L385.58,206.34A10.41,10.41,0,0,1,390.3,214.52Z" fill="#fafbfc"/>
      <path id="Path_941" data-name="Path 941" d="M287.46,178.09,121.97,82.54V73l165.49,95.55Z" fill="#e9eaf2"/>
      <path id="Path_942" data-name="Path 942" d="M278.88,185,121.97,94.4V89.63l156.91,90.6Z" fill="#e9eaf2"/>
      <path id="Path_943" data-name="Path 943" d="M260.62,183,121.97,102.94V98.17l138.65,80.06Z" fill="#e9eaf2"/>
      <path id="Path_944" data-name="Path 944" d="M251.81,186.45,121.97,111.49v-4.77l129.84,74.96Z" fill="#e9eaf2"/>
      <path id="Path_945" data-name="Path 945" d="M379.21,302.03,318.4,266.92v-9.54l60.81,35.1Z" fill="#e9eaf2"/>
      <path id="Path_946" data-name="Path 946" d="M376.06,312.07,318.4,278.78v-4.77l57.66,33.29Z" fill="#e9eaf2"/>
      <path id="Path_947" data-name="Path 947" d="M369.35,316.74,318.4,287.32v-4.77l50.95,29.42Z" fill="#e9eaf2"/>
      <path id="Path_948" data-name="Path 948" d="M366.11,323.41,318.4,295.87V291.1l47.71,27.54Z" fill="#e9eaf2"/>
      <path id="Path_949" data-name="Path 949" d="M287.46,229.81,121.97,134.26v-9.54l165.49,95.55Z" fill="#e9eaf2"/>
      <path id="Path_950" data-name="Path 950" d="M278.88,236.72,121.97,146.13v-4.78l156.91,90.6Z" fill="#e9eaf2"/>
      <path id="Path_951" data-name="Path 951" d="M260.62,234.72,121.97,154.67V149.9l138.65,80.05Z" fill="#e9eaf2"/>
      <path id="Path_952" data-name="Path 952" d="M251.81,238.18,121.97,163.21v-4.77L251.81,233.4Z" fill="#e9eaf2"/>
      <path id="Path_953" data-name="Path 953" d="M287.46,281.54,121.97,185.99v-9.55L287.46,272Z" fill="#e9eaf2"/>
      <path id="Path_954" data-name="Path 954" d="M278.88,288.45l-156.91-90.6v-4.77l156.91,90.59Z" fill="#e9eaf2"/>
      <path id="Path_955" data-name="Path 955" d="M260.62,286.45,121.97,206.39v-4.77l138.65,80.05Z" fill="#e9eaf2"/>
      <path id="Path_956" data-name="Path 956" d="M251.81,289.9,121.97,214.94v-4.78l129.84,74.97Z" fill="#e9eaf2"/>
      <path id="Path_957" data-name="Path 957" d="M287.46,333.26,121.97,237.71v-9.54l165.49,95.55Z" fill="#e9eaf2"/>
      <path id="Path_958" data-name="Path 958" d="M278.89,335.4v2.62l-156.92-90.6V244.8Z" fill="#e9eaf2"/>
      <path id="Path_959" data-name="Path 959" d="M377.32,281.69l-57-32.92a4.55,4.55,0,0,1-1.89-3.61V188.93c0-1.39.85-2,1.89-1.43l57,32.92a4.55,4.55,0,0,1,1.89,3.61v56.23C379.21,281.65,378.36,282.29,377.32,281.69Z" fill="#e9eaf2"/>
      <g id="Search">
        <path id="Path_973" data-name="Path 973" d="M374.19,175.76l-1.6-2.75a2.57,2.57,0,0,0,.72-2,7.42,7.42,0,0,0-3.35-5.81c-1.86-1.07-3.36-.2-3.36,1.94A7.4,7.4,0,0,0,370,173a2.61,2.61,0,0,0,1.94.4l1.61,2.79c.19.32.49.5.68.39S374.37,176.09,374.19,175.76Zm-2.37-3.64a.28.28,0,0,0-.18,0,.27.27,0,0,0-.1.13A1.91,1.91,0,0,1,370,172a5.56,5.56,0,0,1-2.52-4.36c0-1.61,1.13-2.26,2.52-1.45a5.55,5.55,0,0,1,2.51,4.36,1.83,1.83,0,0,1-.69,1.57Z" fill="#fff"/>
      </g>
      <path id="Path_974" data-name="Path 974" d="M338.43,219.64c-16.2-27.3-43.47-41-60.91-30.69l-15.16,8.71,5.81,9.67a22.311,22.311,0,0,1,3.3-4.09c14.74-4.78,35,6.63,47.5,27.64s12.76,44.29,1.51,54.94a21.591,21.591,0,0,1-4.55.91l5.67,9.42,14.57-8.35C353.61,277.45,354.62,246.93,338.43,219.64Z" fill="#d6d8e5"/>
      <path id="Path_975" data-name="Path 975" d="M323.85,228c-16.2-27.3-43.47-41-60.91-30.69s-18.45,40.87-2.25,68.17,43.47,41,60.91,30.68S340.05,255.28,323.85,228Zm-3.37,57.83c-14.75,4.78-35-6.63-47.5-27.65s-12.76-44.28-1.51-54.93c14.74-4.78,35,6.63,47.5,27.64s12.76,44.28,1.51,54.93Z" fill="#b1b4c4"/>
      <path id="Path_976" data-name="Path 976" d="M273,258.17c-12.47-21-12.76-44.28-1.51-54.93,6.43-2.09,13.92-1.09,21.35,2.44-9.12-4.34-18.31-4.91-25.54-.62-14.85,8.81-15.79,34.67-2.1,57.74s36.84,34.64,51.69,25.83a20.2,20.2,0,0,0,3.61-2.81C305.73,290.6,285.45,279.19,273,258.17Z" fill="#a1a5b5"/>
      <path id="Path_977" data-name="Path 977" d="M319,230.88c-12.47-21-32.76-32.42-47.5-27.64-11.25,10.65-11,33.92,1.51,54.93s32.75,32.43,47.5,27.65C331.73,275.17,331.44,251.9,319,230.88Z" fill="#3e7eff" opacity="0.1"/>
      <path id="Path_978" data-name="Path 978" d="M339.29,264.71l32.69,18.85v8.42l-32.69-18.85Z" fill="#b1b4c4"/>
      <path id="Path_979" data-name="Path 979" d="M346.58,260.5l32.69,18.85-7.29,4.21-32.69-18.85Z" fill="#d6d8e5"/>
      <path id="Path_980" data-name="Path 980" d="M365.05,278.8c3.09-5.22,8.3-7.84,11.63-5.86l59.38,34.52-11.31,18.8-59.27-34.45C362.15,289.83,362,284,365.05,278.8Z" fill="#c73c3c"/>
      <path id="Path_981" data-name="Path 981" d="M436.38,320.4c-3.1,5.21-8.3,7.84-11.63,5.86s-3.53-7.8-.43-13,8.3-7.84,11.63-5.86S439.47,315.19,436.38,320.4Z" fill="#c73c3c"/>
      <path id="Path_982" data-name="Path 982" d="M436.38,320.4c-3.1,5.21-8.3,7.84-11.63,5.86s-3.53-7.8-.43-13,8.3-7.84,11.63-5.86S439.47,315.19,436.38,320.4Z" opacity="0.1"/>
      <path id="Path_983" data-name="Path 983" d="M367.22,427.72,126.3,284c-1.16-.66-1-1.83.32-2.6h0a5,5,0,0,1,4.5-.18L372,424.94c1.16.67,1,1.83-.32,2.6h0a5,5,0,0,1-4.46.18Z" fill="#d6d8e5" opacity="0.3"/>
      <path id="Path_984" data-name="Path 984" d="M37.5,500,0,478.55l56.13-32.13,37.5,21.45Z" fill="#d6d8e5" opacity="0.4"/>
      <path id="Path_985" data-name="Path 985" d="M38.28,456.75,7.22,438.81l31.06-17.93,31.06,17.93Z" fill="#d6d8e5"/>
      <path id="Path_986" data-name="Path 986" d="M38.28,492.61,7.22,474.68V438.81l31.06,17.94Z" fill="#b1b6c4"/>
      <path id="Path_987" data-name="Path 987" d="M69.34,474.68,38.28,492.61V456.75l31.06-17.94Z" fill="#c4c7d6"/>
      <g id="Men_5">
        <path id="Path_988" data-name="Path 988" d="M80,463.39a10.57,10.57,0,0,0,8-1c1.93.06,12.39-4.42,13.81-.66,1.25,3.3-3.28,6.35-5.7,6.93-5.29,1.28-9.2,3.92-11.32,4.36-1.58.34-3.63.56-4.89-.69C78.41,470.87,78.54,465.36,80,463.39Z" fill="#2b2839"/>
        <path id="Path_989" data-name="Path 989" d="M84.81,472.14c2.12-.45,6-3.08,11.32-4.36,2-.49,5.52-2.71,5.87-5.36.47,3-3.62,5.73-5.87,6.27-5.29,1.28-9.2,3.92-11.32,4.36-1.58.34-3.63.56-4.89-.69a3,3,0,0,1-.69-1.26,6.33,6.33,0,0,0,5.58,1.04Z" fill="#c73c3c"/>
        <path id="Path_990" data-name="Path 990" d="M61.16,453.35a10.63,10.63,0,0,0,8-1c1.93.06,12.38-4.42,13.81-.66,1.24,3.3-3.29,6.34-5.71,6.93C72,459.93,68.07,462.57,66,463c-1.58.34-3.63.55-4.89-.69C59.55,460.83,59.68,455.31,61.16,453.35Z" fill="#2b2839"/>
        <path id="Path_991" data-name="Path 991" d="M66,462.1c2.12-.45,6-3.08,11.31-4.36,2-.49,5.53-2.71,5.88-5.36.47,3-3.62,5.72-5.88,6.27C72,459.93,68.07,462.57,66,463c-1.58.34-3.63.55-4.89-.69a3.14,3.14,0,0,1-.69-1.26A6.33,6.33,0,0,0,66,462.1Z" fill="#c73c3c"/>
        <path id="Path_992" data-name="Path 992" d="M31.79,440.33c8.16,3.58,15.85,4.15,22.14.77l6.5-3.75c.39,8.39.76,16.45.76,16.45s5,3.77,8.86.41c0,0,.81-11.78,1.63-23.36l6.82-3.93a8.409,8.409,0,0,0-.26,1.89c.05,2.2,1.58,34.91,1.58,34.91s5,3,8.9-.38c0,0,2.61-37.9,3.21-43.95.68-6.81-6.88-10.17-11.67-8.42-1.11.4-3.85,1.42-7.31,2.71.15-1.89.27-3.37.36-4.21.67-6.81-6.89-10.16-11.67-8.42-4.36,1.59-33.79,12.63-33.79,12.63a75,75,0,0,0,1,8.43l-11.63-1C16.56,432.06,23.64,436.74,31.79,440.33Zm20.3-18.84L59.87,417a10.429,10.429,0,0,0-.25,1.67Z" fill="#c73c3c"/>
        <path id="Path_993" data-name="Path 993" d="M10.88,388s1,14.46,2.86,16.54S22.05,408,22.05,408L27,416.14s-4.51-25.86-5.49-26.48S10.88,388,10.88,388Z" fill="#ffcea9"/>
        <path id="_Контур_" data-name="&lt;Контур&gt;" d="M20.39,371.9a5.39,5.39,0,0,0-6.88,2.1c-1.82,3-3.71,13.34-3.88,15.11,0,0,2.55,3.52,6.38,2.93Z" fill="#ededed"/>
        <path id="_Контур_2" data-name="&lt;Контур&gt;" d="M22.13,372.08c2.5.12,4.36.76,4.67,0a33.411,33.411,0,0,0,.57-3.91c-.29-.73-.54-1.51-.54-1.51-3.14-1.93-4.13-5.32-4.54-9.27-.7-6.75,2.94-12.66,9.7-13.37,6.34-.66,11,3.8,12.26,9.93.67,3,2,8.74.2,13.71-1,2.78-2.31,5-3.61,5.42a33.277,33.277,0,0,1-3.76-.33h0s-.34,1.88-.57,3.08-.14,1.84,2.25,3.32-3.62,4.51-7.55,4.21-8.36-2.67-9.57-5.21C20.29,375.34,20.41,372,22.13,372.08Z" fill="#ffcea9"/>
        <g id="_Группа_" data-name="&lt;Группа&gt;">
          <g id="_Группа_2" data-name="&lt;Группа&gt;">
            <g id="_Группа_3" data-name="&lt;Группа&gt;">
              <path id="_Контур_3" data-name="&lt;Контур&gt;" d="M85.45,416.32h0a2,2,0,0,1-1,1.76l-19.06,11a2,2,0,0,1-2,0L36.64,413.66a2,2,0,0,1-1-1.76v-.15Z" fill="#e5e5e5"/>
              <path id="_Контур_4" data-name="&lt;Контур&gt;" d="M84.44,418.08l-19.06,11a2,2,0,0,1-1,.27v-13H85.45A2,2,0,0,1,84.44,418.08Z" fill="#e5e5e5"/>
              <g id="_Группа_4" data-name="&lt;Группа&gt;">
                <path id="_Контур_5" data-name="&lt;Контур&gt;" d="M65.08,428.08a1.46,1.46,0,0,1-1.43,0l-27.76-16c-.35-.21-.35-.54,0-.74L56.34,399.5l29.11,16.82Z" fill="#f4f4f4"/>
              </g>
              <g id="_Группа_5" data-name="&lt;Группа&gt;">
                <path id="_Контур_6" data-name="&lt;Контур&gt;" d="M47.3,416.32l.14.08,8.89,5.13,4.89-2.82.13-.08-9.03-5.21Z" fill="#bfbfbf"/>
                <path id="_Контур_7" data-name="&lt;Контур&gt;" d="M47.44,416.4l8.89,5.13,4.89-2.82-8.9-5.13Z" fill="#e5e5e5"/>
              </g>
              <path id="Path_994" data-name="Path 994" d="M77.9,417.15l1.29.74a.46.46,0,0,0,.41,0l1.22-.71c.12-.07.13-.17,0-.23l-1.28-.74a.46.46,0,0,0-.41,0l-1.23.71C77.81,417,77.8,417.09,77.9,417.15Z" fill="#3a2c6d"/>
              <path id="Path_995" data-name="Path 995" d="M76.09,416.1l1.28.74a.46.46,0,0,0,.41,0l1.22-.71c.13-.07.14-.17,0-.23l-1.28-.74a.46.46,0,0,0-.41,0l-1.22.7C76,415.93,76,416,76.09,416.1Z" fill="#3a2c6d"/>
              <path id="Path_996" data-name="Path 996" d="M74.27,415.05l1.29.74a.44.44,0,0,0,.4,0l1.23-.7c.12-.07.13-.18,0-.24l-1.29-.74a.44.44,0,0,0-.4,0l-1.23.7C74.18,414.88,74.17,415,74.27,415.05Z" fill="#3a2c6d"/>
              <path id="Path_997" data-name="Path 997" d="M72.46,414l1.28.74a.46.46,0,0,0,.41,0l1.22-.7c.12-.07.14-.18,0-.24l-1.25-.8a.46.46,0,0,0-.41,0l-1.22.7C72.36,413.83,72.35,413.94,72.46,414Z" fill="#3a2c6d"/>
              <path id="Path_998" data-name="Path 998" d="M70.64,413l1.28.74a.46.46,0,0,0,.41,0l1.23-.71c.12-.07.13-.18,0-.24L72.3,412a.46.46,0,0,0-.41,0l-1.22.71A.166.166,0,0,0,70.64,413Z" fill="#3a2c6d"/>
              <path id="Path_999" data-name="Path 999" d="M68.82,411.9l1.29.74a.44.44,0,0,0,.4,0l1.23-.71c.12-.07.13-.18,0-.24l-1.28-.74a.46.46,0,0,0-.41,0l-1.23.71C68.73,411.74,68.72,411.84,68.82,411.9Z" fill="#3a2c6d"/>
              <path id="Path_1000" data-name="Path 1000" d="M67,410.85l1.28.75a.46.46,0,0,0,.41,0l1.22-.71c.12-.07.14-.17,0-.23l-1.28-.75a.46.46,0,0,0-.41,0l-1.22.71C66.92,410.69,66.9,410.79,67,410.85Z" fill="#3a2c6d"/>
              <path id="Path_1001" data-name="Path 1001" d="M65.19,409.81l1.28.74a.46.46,0,0,0,.41,0l1.23-.71c.12-.07.13-.17,0-.23l-1.29-.74a.46.46,0,0,0-.41,0l-1.22.71A.128.128,0,0,0,65.19,409.81Z" fill="#3a2c6d"/>
              <path id="Path_1002" data-name="Path 1002" d="M63.37,408.76l1.29.74a.46.46,0,0,0,.41,0l1.22-.71c.12-.07.13-.17,0-.23L65,407.8a.46.46,0,0,0-.41,0l-1.23.71C63.28,408.59,63.27,408.7,63.37,408.76Z" fill="#3a2c6d"/>
              <path id="Path_1003" data-name="Path 1003" d="M61.56,407.71l1.28.74a.46.46,0,0,0,.41,0l1.22-.7c.12-.07.14-.18,0-.24l-1.28-.74a.46.46,0,0,0-.41,0l-1.22.7C61.47,407.54,61.45,407.65,61.56,407.71Z" fill="#3a2c6d"/>
              <path id="Path_1004" data-name="Path 1004" d="M59.74,406.66l1.28.74a.46.46,0,0,0,.41,0l1.23-.7c.12-.07.13-.18,0-.24l-1.29-.74a.44.44,0,0,0-.4,0l-1.23.7A.137.137,0,0,0,59.74,406.66Z" fill="#3a2c6d"/>
              <path id="Path_1005" data-name="Path 1005" d="M57.93,405.61l1.28.74a.49.49,0,0,0,.41,0l1.22-.71c.12-.07.14-.18,0-.24l-1.28-.74a.46.46,0,0,0-.41,0l-1.23.71C57.83,405.45,57.82,405.55,57.93,405.61Z" fill="#3a2c6d"/>
              <path id="Path_1006" data-name="Path 1006" d="M56.11,404.56l1.28.74a.46.46,0,0,0,.41,0l1.23-.71c.12-.07.13-.18,0-.24l-1.28-.74a.46.46,0,0,0-.41,0l-1.22.71C56,404.4,56,404.5,56.11,404.56Z" fill="#3a2c6d"/>
              <path id="Path_1007" data-name="Path 1007" d="M53.42,403l2.16,1.24a.41.41,0,0,0,.4,0l1.23-.71c.12-.07.13-.17,0-.23l-2.16-1.25a.46.46,0,0,0-.41,0l-1.22.7C53.33,402.84,53.31,403,53.42,403Z" fill="#3a2c6d"/>
              <path id="Path_1008" data-name="Path 1008" d="M73.45,416.61l1.28.74a.46.46,0,0,0,.41,0l1.23-.71c.12-.07.13-.17,0-.23l-1.29-.74a.46.46,0,0,0-.41,0l-1.22.71A.128.128,0,0,0,73.45,416.61Z" fill="#3a2c6d"/>
              <path id="Path_1009" data-name="Path 1009" d="M71.63,415.56l1.28.74a.46.46,0,0,0,.41,0l1.23-.71c.12-.07.13-.17,0-.23l-1.29-.74a.46.46,0,0,0-.41,0l-1.22.71A.128.128,0,0,0,71.63,415.56Z" fill="#3a2c6d"/>
              <path id="Path_1010" data-name="Path 1010" d="M69.81,414.51l1.28.74a.46.46,0,0,0,.41,0l1.23-.71c.12-.07.13-.17,0-.23l-1.29-.74a.46.46,0,0,0-.41,0l-1.22.71A.128.128,0,0,0,69.81,414.51Z" fill="#3a2c6d"/>
              <path id="Path_1011" data-name="Path 1011" d="M68,413.46l1.28.74a.46.46,0,0,0,.41,0l1.23-.71c.12-.07.13-.17,0-.23l-1.29-.74a.44.44,0,0,0-.4,0l-1.23.71A.123.123,0,0,0,68,413.46Z" fill="#3a2c6d"/>
              <path id="Path_1012" data-name="Path 1012" d="M66.19,412.41l1.28.74a.43.43,0,0,0,.41,0l1.22-.71c.12-.07.14-.17,0-.23l-1.28-.75a.46.46,0,0,0-.41,0l-1.22.71C66.1,412.25,66.08,412.35,66.19,412.41Z" fill="#3a2c6d"/>
              <path id="Path_1013" data-name="Path 1013" d="M64.37,411.36l1.28.74a.46.46,0,0,0,.41,0l1.22-.71c.12-.07.14-.17,0-.24L66,410.4a.46.46,0,0,0-.41,0l-1.22.71C64.28,411.2,64.26,411.3,64.37,411.36Z" fill="#3a2c6d"/>
              <path id="Path_1014" data-name="Path 1014" d="M62.55,410.31l1.28.74a.46.46,0,0,0,.41,0l1.22-.71c.12-.07.14-.18,0-.24l-1.28-.74a.46.46,0,0,0-.41,0l-1.22.71C62.46,410.15,62.44,410.25,62.55,410.31Z" fill="#3a2c6d"/>
              <path id="Path_1015" data-name="Path 1015" d="M60.73,409.26,62,410a.46.46,0,0,0,.41,0l1.22-.71c.13-.07.14-.18,0-.24l-1.28-.74a.46.46,0,0,0-.41,0l-1.22.71C60.64,409.1,60.62,409.2,60.73,409.26Z" fill="#3a2c6d"/>
              <path id="Path_1016" data-name="Path 1016" d="M58.91,408.21l1.28.74a.46.46,0,0,0,.41,0l1.23-.71c.12-.07.13-.18,0-.24l-1.28-.74a.46.46,0,0,0-.41,0l-1.22.71C58.82,408.05,58.8,408.15,58.91,408.21Z" fill="#3a2c6d"/>
              <path id="Path_1017" data-name="Path 1017" d="M57.09,407.16l1.28.74a.46.46,0,0,0,.41,0l1.23-.71c.12-.07.13-.18,0-.24l-1.29-.74a.46.46,0,0,0-.41,0l-1.22.71C57,407,57,407.1,57.09,407.16Z" fill="#3a2c6d"/>
              <path id="Path_1018" data-name="Path 1018" d="M55.27,406.11l1.28.74a.46.46,0,0,0,.41,0l1.23-.7c.12-.07.13-.18,0-.24l-1.29-.74a.46.46,0,0,0-.41,0l-1.22.71C55.18,406,55.17,406.05,55.27,406.11Z" fill="#3a2c6d"/>
              <path id="Path_1019" data-name="Path 1019" d="M53.45,405.06l1.28.74a.46.46,0,0,0,.41,0l1.23-.7c.12-.07.13-.18,0-.24l-1.29-.74a.46.46,0,0,0-.41,0l-1.22.7A.137.137,0,0,0,53.45,405.06Z" fill="#3a2c6d"/>
              <path id="Path_1020" data-name="Path 1020" d="M75.27,417.66l2.16,1.24a.46.46,0,0,0,.41,0l1.22-.71c.12-.07.13-.18,0-.24l-2.16-1.24a.49.49,0,0,0-.41,0l-1.22.71C75.18,417.49,75.16,417.6,75.27,417.66Z" fill="#3a2c6d"/>
              <path id="Path_1021" data-name="Path 1021" d="M53.3,403.06l1.28.74c.11.06.11.16,0,.22l-1.29.75a.42.42,0,0,1-.38,0l-.1-.06a.38.38,0,0,0-.36,0l-1.36.79a.42.42,0,0,1-.38,0l-.82-.47a.12.12,0,0,1,0-.22l1.28-.74.27-.15.19-.11.19-.11,1.1-.64a.42.42,0,0,1,.38,0Z" fill="#3a2c6d"/>
              <path id="Path_1022" data-name="Path 1022" d="M70.86,421.21l1.28.74a.46.46,0,0,0,.41,0l1.22-.71c.12-.07.14-.17,0-.23l-1.28-.74a.46.46,0,0,0-.41,0l-1.22.7A.13.13,0,0,0,70.86,421.21Z" fill="#3a2c6d"/>
              <path id="Path_1023" data-name="Path 1023" d="M69,420.16l1.29.74a.46.46,0,0,0,.41,0l1.22-.71c.12-.07.13-.18,0-.24l-1.28-.74a.46.46,0,0,0-.41,0l-1.23.71C69,420,68.94,420.1,69,420.16Z" fill="#3a2c6d"/>
              <path id="Path_1024" data-name="Path 1024" d="M67.23,419.12l1.29.74a.44.44,0,0,0,.4,0l1.23-.71c.12-.07.13-.17,0-.23l-1.28-.74a.46.46,0,0,0-.41,0l-1.23.71C67.14,419,67.13,419.06,67.23,419.12Z" fill="#3a2c6d"/>
              <path id="Path_1025" data-name="Path 1025" d="M51.81,410.21l1.28.74a.46.46,0,0,0,.41,0l1.23-.71c.12-.07.13-.18,0-.24l-1.28-.74a.46.46,0,0,0-.41,0l-1.22.71C51.72,410.05,51.71,410.15,51.81,410.21Z" fill="#3a2c6d"/>
              <path id="Path_1026" data-name="Path 1026" d="M50,409.17l1.28.74a.46.46,0,0,0,.41,0l1.22-.71c.13-.07.14-.17,0-.23l-1.28-.74a.46.46,0,0,0-.41,0l-1.22.71C49.91,409,49.89,409.11,50,409.17Z" fill="#3a2c6d"/>
              <path id="Path_1027" data-name="Path 1027" d="M48.19,408.12l1.28.74a.46.46,0,0,0,.41,0l1.22-.7c.12-.07.14-.18,0-.24l-1.28-.74a.46.46,0,0,0-.41,0l-1.22.7C48.1,408,48.08,408.06,48.19,408.12Z" fill="#3a2c6d"/>
              <path id="Path_1028" data-name="Path 1028" d="M46.38,407.07l1.28.75a.46.46,0,0,0,.41,0l1.22-.71c.12-.07.14-.17,0-.23L48,406.11a.46.46,0,0,0-.41,0l-1.22.71C46.28,406.91,46.27,407,46.38,407.07Z" fill="#3a2c6d"/>
              <path id="Path_1029" data-name="Path 1029" d="M65,417.8l1.75,1a.44.44,0,0,0,.4,0l1.23-.7c.12-.07.13-.18,0-.24l-1.75-1a.46.46,0,0,0-.41,0l-1.22.71C64.86,417.64,64.85,417.74,65,417.8Z" fill="#3a2c6d"/>
              <path id="Path_1030" data-name="Path 1030" d="M53.62,411.26l1.75,1a.46.46,0,0,0,.41,0l1.22-.71c.12-.07.14-.17,0-.23l-1.75-1a.46.46,0,0,0-.41,0l-1.22.71A.128.128,0,0,0,53.62,411.26Z" fill="#3a2c6d"/>
              <path id="Path_1031" data-name="Path 1031" d="M55.9,412.57l8.53,4.93a.46.46,0,0,0,.41,0l1.22-.71c.12-.07.13-.17,0-.23l-8.53-4.93a.46.46,0,0,0-.41,0l-1.22.71C55.81,412.41,55.79,412.51,55.9,412.57Z" fill="#3a2c6d"/>
              <path id="Path_1032" data-name="Path 1032" d="M71.2,417.34l1.28.74a.46.46,0,0,0,.41,0l1.22-.7c.12-.07.14-.18,0-.24l-1.28-.74a.46.46,0,0,0-.41,0l-1.23.7A.134.134,0,0,0,71.2,417.34Z" fill="#3a2c6d"/>
              <path id="Path_1033" data-name="Path 1033" d="M69.38,416.29l1.28.74a.46.46,0,0,0,.41,0l1.23-.7c.12-.07.13-.18,0-.24l-1.3-.76a.46.46,0,0,0-.41,0l-1.22.71C69.29,416.12,69.28,416.23,69.38,416.29Z" fill="#3a2c6d"/>
              <path id="Path_1034" data-name="Path 1034" d="M67.57,415.24l1.28.74a.46.46,0,0,0,.41,0l1.22-.71c.12-.07.14-.18,0-.24l-1.28-.74a.46.46,0,0,0-.41,0L67.6,415C67.48,415.08,67.46,415.18,67.57,415.24Z" fill="#3a2c6d"/>
              <path id="Path_1035" data-name="Path 1035" d="M65.75,414.2l1.29.74a.44.44,0,0,0,.4,0l1.23-.71c.12-.07.13-.17,0-.23l-1.29-.74a.44.44,0,0,0-.4,0l-1.23.71A.128.128,0,0,0,65.75,414.2Z" fill="#3a2c6d"/>
              <path id="Path_1036" data-name="Path 1036" d="M63.94,413.15l1.28.74a.46.46,0,0,0,.41,0l1.22-.7c.13-.07.14-.18,0-.24l-1.28-.74a.46.46,0,0,0-.41,0l-1.22.7C63.85,413,63.83,413.09,63.94,413.15Z" fill="#3a2c6d"/>
              <path id="Path_1037" data-name="Path 1037" d="M62.12,412.1l1.29.74a.46.46,0,0,0,.41,0l1.22-.7c.12-.07.13-.18,0-.24l-1.28-.74a.46.46,0,0,0-.41,0l-1.23.71C62,411.93,62,412,62.12,412.1Z" fill="#3a2c6d"/>
              <path id="Path_1038" data-name="Path 1038" d="M60.31,411.05l1.28.74a.46.46,0,0,0,.41,0l1.23-.71c.12-.07.13-.17,0-.24L62,410.09a.46.46,0,0,0-.41,0l-1.22.71C60.22,410.89,60.21,411,60.31,411.05Z" fill="#3a2c6d"/>
              <path id="Path_1039" data-name="Path 1039" d="M58.5,410l1.28.74a.46.46,0,0,0,.41,0l1.22-.71c.12-.07.14-.17,0-.23l-1.28-.74a.46.46,0,0,0-.41,0l-1.22.71C58.4,409.84,58.39,410,58.5,410Z" fill="#3a2c6d"/>
              <path id="Path_1040" data-name="Path 1040" d="M56.68,409l1.28.74a.46.46,0,0,0,.41,0l1.23-.7c.12-.07.13-.18,0-.24l-1.26-.8a.44.44,0,0,0-.4,0l-1.23.7A.179.179,0,0,0,56.68,409Z" fill="#3a2c6d"/>
              <path id="Path_1041" data-name="Path 1041" d="M54.87,407.91l1.28.74a.46.46,0,0,0,.41,0l1.22-.7c.12-.07.14-.18,0-.24L56.53,407a.46.46,0,0,0-.41,0l-1.22.71C54.78,407.75,54.76,407.85,54.87,407.91Z" fill="#3a2c6d"/>
              <path id="Path_1042" data-name="Path 1042" d="M53.05,406.86l1.29.74a.44.44,0,0,0,.4,0l1.23-.71c.12-.07.13-.17,0-.24l-1.28-.74a.46.46,0,0,0-.41,0l-1.23.71A.21.21,0,0,0,53.05,406.86Z" fill="#3a2c6d"/>
              <path id="Path_1043" data-name="Path 1043" d="M51.24,405.82l1.28.74a.46.46,0,0,0,.41,0l1.22-.71c.13-.07.14-.17,0-.23l-1.28-.74a.46.46,0,0,0-.41,0l-1.22.71C51.15,405.65,51.13,405.76,51.24,405.82Z" fill="#3a2c6d"/>
              <path id="Path_1044" data-name="Path 1044" d="M73,418.39l2.65,1.53a.46.46,0,0,0,.41,0l1.23-.71c.12-.07.13-.17,0-.23l-2.66-1.53a.46.46,0,0,0-.41,0l-1.22.71A.136.136,0,0,0,73,418.39Z" fill="#3a2c6d"/>
              <path id="Path_1045" data-name="Path 1045" d="M70.34,418.87l1.28.75a.46.46,0,0,0,.41,0l1.22-.71c.12-.07.14-.17,0-.23L72,417.92a.43.43,0,0,0-.41,0l-1.22.71C70.24,418.71,70.23,418.81,70.34,418.87Z" fill="#3a2c6d"/>
              <path id="Path_1046" data-name="Path 1046" d="M68.52,417.83l1.28.74a.46.46,0,0,0,.41,0l1.23-.71c.12-.07.13-.17,0-.23l-1.29-.74a.44.44,0,0,0-.4,0l-1.23.71A.128.128,0,0,0,68.52,417.83Z" fill="#3a2c6d"/>
              <path id="Path_1047" data-name="Path 1047" d="M66.71,416.78l1.28.74a.46.46,0,0,0,.41,0l1.22-.7c.12-.07.14-.18,0-.24l-1.28-.74a.46.46,0,0,0-.41,0l-1.22.7C66.62,416.61,66.6,416.72,66.71,416.78Z" fill="#3a2c6d"/>
              <path id="Path_1048" data-name="Path 1048" d="M64.89,415.73l1.29.74a.46.46,0,0,0,.41,0l1.22-.71c.12-.07.13-.18,0-.24l-1.28-.74a.46.46,0,0,0-.41,0l-1.23.71C64.8,415.57,64.79,415.67,64.89,415.73Z" fill="#3a2c6d"/>
              <path id="Path_1049" data-name="Path 1049" d="M63.08,414.69l1.28.74a.46.46,0,0,0,.41,0L66,414.7c.12-.07.13-.17,0-.23l-1.28-.74a.46.46,0,0,0-.41,0l-1.22.71A.155.155,0,0,0,63.08,414.69Z" fill="#3a2c6d"/>
              <path id="Path_1050" data-name="Path 1050" d="M61.27,413.64l1.28.74a.46.46,0,0,0,.41,0l1.22-.7c.12-.07.14-.18,0-.24l-1.28-.74a.46.46,0,0,0-.41,0l-1.22.7C61.17,413.47,61.16,413.58,61.27,413.64Z" fill="#3a2c6d"/>
              <path id="Path_1051" data-name="Path 1051" d="M59.45,412.59l1.28.74a.46.46,0,0,0,.41,0l1.23-.7c.12-.07.13-.18,0-.24l-1.29-.74a.44.44,0,0,0-.4,0l-1.23.71A.128.128,0,0,0,59.45,412.59Z" fill="#3a2c6d"/>
              <path id="Path_1052" data-name="Path 1052" d="M57.64,411.54l1.28.74a.46.46,0,0,0,.41,0l1.22-.71c.12-.07.14-.17,0-.24l-1.28-.74a.46.46,0,0,0-.41,0l-1.22.71C57.55,411.38,57.53,411.48,57.64,411.54Z" fill="#3a2c6d"/>
              <path id="Path_1053" data-name="Path 1053" d="M55.82,410.5l1.29.74a.46.46,0,0,0,.41,0l1.22-.71c.12-.07.13-.17,0-.23l-1.28-.74a.46.46,0,0,0-.41,0l-1.23.71A.128.128,0,0,0,55.82,410.5Z" fill="#3a2c6d"/>
              <path id="Path_1054" data-name="Path 1054" d="M54,409.45l1.28.74a.46.46,0,0,0,.41,0l1.23-.7c.12-.07.13-.18,0-.24l-1.29-.74a.46.46,0,0,0-.41,0l-1.22.7A.145.145,0,0,0,54,409.45Z" fill="#3a2c6d"/>
              <path id="Path_1055" data-name="Path 1055" d="M52.2,408.4l1.28.74a.46.46,0,0,0,.41,0l1.22-.71c.12-.07.14-.18,0-.24l-1.28-.74a.46.46,0,0,0-.41,0l-1.22.71C52.1,408.24,52.09,408.34,52.2,408.4Z" fill="#3a2c6d"/>
              <path id="Path_1056" data-name="Path 1056" d="M48.14,406.06l3.53,2a.44.44,0,0,0,.4,0l1.23-.71c.12-.07.13-.17,0-.23l-3.53-2a.46.46,0,0,0-.41,0l-1.22.7C48.05,405.89,48,406,48.14,406.06Z" fill="#3a2c6d"/>
              <path id="Path_1057" data-name="Path 1057" d="M72.15,419.92l1.75,1a.49.49,0,0,0,.41,0l1.22-.71c.12-.07.14-.18,0-.24l-1.75-1a.46.46,0,0,0-.41,0l-1.22.71C72.06,419.76,72,419.86,72.15,419.92Z" fill="#3a2c6d"/>
            </g>
            <g id="_Группа_6" data-name="&lt;Группа&gt;">
              <g id="_Группа_7" data-name="&lt;Группа&gt;">
                <g id="_Группа_8" data-name="&lt;Группа&gt;">
                  <path id="_Контур_8" data-name="&lt;Контур&gt;" d="M85.45,416.32h0L56.34,399.5V376.61l.22-.52.24-.12h0a2,2,0,0,1,2,0l26.64,15.39a2,2,0,0,1,1,1.74v21.48C86.27,415.69,86.07,416,85.45,416.32Z" fill="#e5e5e5"/>
                  <path id="_Контур_9" data-name="&lt;Контур&gt;" d="M82.78,394.13,56.34,377.37v-.76l.22-.52.24-.12a2,2,0,0,1,2,0l26.64,15.39a2.08,2.08,0,0,1,.77.79Z" fill="#e5e5e5"/>
                  <path id="_Контур_10" data-name="&lt;Контур&gt;" d="M57,376.09l28,16.14a1,1,0,0,1,.49.85v23.24L56.34,399.5v-23a.45.45,0,0,1,.66-.41Z" fill="#dceeff"/>
                  <path id="_Контур_11" data-name="&lt;Контур&gt;" d="M57,376.09l28,16.14a1,1,0,0,1,.49.85v23.24L56.34,399.5v-23a.45.45,0,0,1,.66-.41Z" fill="#f4f4f4"/>
                  <path id="_Контур_12" data-name="&lt;Контур&gt;" d="M85.45,416.31v-.82L56.34,398.67v.83Z" fill="#dbdbdb"/>
                </g>
                <path id="_Контур_13" data-name="&lt;Контур&gt;" d="M57.09,398.28V377.29l.36.21v20.61Z" fill="#1e3779"/>
                <path id="_Контур_14" data-name="&lt;Контур&gt;" d="M57.45,377.5v20.61L84.52,413.7V393.13Z" fill="#3a2c6d"/>
                <path id="_Контур_15" data-name="&lt;Контур&gt;" d="M57.09,398.28l27.43,15.83v-.41L57.45,398.11Z" fill="#031f60"/>
              </g>
            </g>
          </g>
        </g>
        <path id="_Контур_16" data-name="&lt;Контур&gt;" d="M25.74,372.45c-.69,1.72,1.07,3.84,5.76,5.31s5.12-.42,5.12-.42a94.608,94.608,0,0,1,9.13,4.7c2.81,2,4.06,7.67,4.44,17.29.44,11.14.48,27.66.11,30.51,0,0-5.27,5.24-12,4.69S20.22,428,17.47,423.41c.07-9.76,1.22-11.35-.36-17-3.62-12.87-5.53-18.15-3.77-26.7,1.45-7.05,3.48-7.93,6.27-7.86a58,58,0,0,1,6.13.6Z" fill="#f4f4f4"/>
        <path id="_Контур_17" data-name="&lt;Контур&gt;" d="M61.27,411.27c-5.52,1.39-6.82-2.09-7.55-5C52,399.3,51,393,49.7,389c-1.54-4.68-3.16-5.43-5.44-6.34-2.67-1.07-5,1.19-4.07,7.14,1.05,7.05,2.43,12,5.06,20.33.69,2.18,2.23,6.05,4.54,7.92,2.86,2.3,7.15,2.2,13.66.59,2.77-.69,5.81-2.35,11-4.8,1.41-.65,2.51-1.09,5.21-2.35a18.5,18.5,0,0,0,6.93-5.41c1.42-2.05,1.61-3,1.32-3.48s-1-.46-1.76.4a15.2,15.2,0,0,1-4,3.69s1.74-1.81,2.69-3A14.629,14.629,0,0,0,87,400.31c.5-1.19-.53-2.82-1.31-2s-1.16,1.73-2.59,3.44a14.721,14.721,0,0,1-2.56,2.44,27.439,27.439,0,0,0,2.36-3.79,6.25,6.25,0,0,0,.86-3.44c0-.62-.92-1.36-1.75-.18s-1.23,2.73-3,4.54c-1.26,1.31-2.33,2.06-2.37,1.7s.77-1.09,1.22-2.61,0-3.14-.85-3.32-.68-.13-1.35,1.3A51.08,51.08,0,0,0,73.17,403a9.23,9.23,0,0,1-2.27,3.91C69.54,408.35,66.53,410,61.27,411.27Z" fill="#ffcea9"/>
        <path id="_Контур_18" data-name="&lt;Контур&gt;" d="M42.22,381.73c3.69-.55,6.3,1.11,7.93,6.71s2.77,10.19,2.77,10.19a10.06,10.06,0,0,1-6.19,4.11c-4.41,1.06-6-1.05-6-1.05s-1.23-5.86-2-9.85S37.65,382.4,42.22,381.73Z" fill="#ededed"/>
        <path id="Path_1058" data-name="Path 1058" d="M44,353.08s5.83-8.87-6.81-10.67c-9.12-1.31-15,4.55-15.65,10.91-.65,6.07,3.09,12.38,5.79,14.88,1.32.47,4.15.74,7.88-.95a44,44,0,0,0,.17-5S31,352.92,44,353.08Z" fill="#3a2c6d"/>
      </g>
      <path id="Path_1059" data-name="Path 1059" d="M69.34,465.31V438.67L48.19,451.02l8.15,16.85Z" fill="#c4c7d6"/>
      <path id="Path_1060" data-name="Path 1060" d="M55.48,440.21l8.12-4.71,5.74,3.31-8.42,4.78Z" fill="#d6d8e5"/>
    </g>
  </g>
</svg>
