<svg xmlns="http://www.w3.org/2000/svg" width="416.363" height="397.933" viewBox="0 0 416.363 397.933">
  <g id="to-do-list" transform="translate(-194.021 -231.193)">
    <g id="List" transform="translate(257.77 231.193)">
      <rect id="Rectangle_298" data-name="Rectangle 298" width="274.722" height="344.283" transform="matrix(0.974, 0.228, -0.228, 0.974, 85.172, 0)" fill="#2b2839"/>
      <rect id="Rectangle_299" data-name="Rectangle 299" width="274.722" height="344.283" transform="translate(46.14 12.618) rotate(5.683)" fill="#c73c3c"/>
      <g id="Group_241" data-name="Group 241" transform="translate(0 20.635)">
        <rect id="Rectangle_300" data-name="Rectangle 300" width="278.244" height="323.15" transform="translate(19.15 0) rotate(3.397)" fill="#fff"/>
        <rect id="Rectangle_301" data-name="Rectangle 301" width="26.709" height="26.709" transform="translate(47.214 22.837) rotate(3.397)" fill="#56535e"/>
        <rect id="Rectangle_302" data-name="Rectangle 302" width="26.709" height="26.709" transform="translate(44.161 74.109) rotate(3.397)" fill="#56535e"/>
        <rect id="Rectangle_303" data-name="Rectangle 303" width="26.709" height="26.709" transform="translate(41.197 124.209) rotate(3.397)" fill="#56535e"/>
        <rect id="Rectangle_304" data-name="Rectangle 304" width="26.709" height="26.709" transform="translate(38.232 174.015) rotate(3.397)" fill="#56535e"/>
        <rect id="Rectangle_305" data-name="Rectangle 305" width="26.709" height="26.709" transform="translate(35.033 227.635) rotate(3.397)" fill="#56535e"/>
        <rect id="Rectangle_306" data-name="Rectangle 306" width="161.722" height="6.751" transform="translate(90.97 28.386) rotate(3.397)" fill="#56535e"/>
        <rect id="Rectangle_307" data-name="Rectangle 307" width="127.675" height="6.751" transform="translate(90.118 43.043) rotate(3.397)" fill="#56535e"/>
        <rect id="Rectangle_308" data-name="Rectangle 308" width="147.34" height="6.751" transform="translate(87.964 79.353) rotate(3.397)" fill="#56535e"/>
        <rect id="Rectangle_309" data-name="Rectangle 309" width="158.2" height="6.751" transform="translate(87.093 93.999) rotate(3.397)" fill="#56535e"/>
        <rect id="Rectangle_310" data-name="Rectangle 310" width="161.722" height="6.751" transform="translate(84.923 130.346) rotate(3.397)" fill="#56535e"/>
        <rect id="Rectangle_311" data-name="Rectangle 311" width="143.525" height="7.631" transform="translate(84.053 145.003) rotate(3.397)" fill="#56535e"/>
        <rect id="Rectangle_312" data-name="Rectangle 312" width="136.48" height="6.751" transform="translate(81.908 181.311) rotate(3.397)" fill="#56535e"/>
        <rect id="Rectangle_313" data-name="Rectangle 313" width="161.722" height="6.751" transform="translate(81.02 195.971) rotate(3.397)" fill="#56535e"/>
        <rect id="Rectangle_314" data-name="Rectangle 314" width="161.722" height="6.751" transform="translate(78.877 232.306) rotate(3.397)" fill="#56535e"/>
        <rect id="Rectangle_315" data-name="Rectangle 315" width="121.512" height="6.751" transform="translate(77.991 246.938) rotate(3.397)" fill="#56535e"/>
      </g>
      <path id="Path_1548" data-name="Path 1548" d="M565.8,695.761s23.6-9.979,28.118-12.445c4.549-2.465,8.864-48.341,8.981-54.416l8.218,2.055s-.5,53.154-6.076,59.64-34.076,21.631-34.076,21.631Z" transform="translate(-562.743 -534.818)" fill="#fcd2b1"/>
      <path id="Path_1549" data-name="Path 1549" d="M680.9,616.6s.822,4.344,3.551,4.725,0-4.725,0-4.725Z" transform="translate(-644.061 -526.128)" fill="#fcd2b1"/>
      <path id="Path_1550" data-name="Path 1550" d="M668.2,590.3c.763.117,25.8,12.445,25.8,12.445l-2.2,5.2L666,596.023Z" transform="translate(-633.534 -507.548)" fill="#2b2839"/>
      <path id="Path_1551" data-name="Path 1551" d="M690.561,609.139s-2.407-8.453-.088-9.363,8.805-.646,9.979,2.2-.91,6.222-2.084,8.159C697.224,612.1,691.09,611.341,690.561,609.139Z" transform="translate(-650.112 -513.913)" fill="#fcd2b1"/>
      <path id="Path_1552" data-name="Path 1552" d="M753.9,637.9h5.694l-3.493-5.2Z" transform="translate(-695.635 -537.503)" fill="#c73c3c"/>
      <g id="Group_242" data-name="Group 242" transform="translate(47.259 36.144)">
        <path id="Path_1553" data-name="Path 1553" d="M728.082,461.878,716.4,450.138l5.2-5.2,6.222,6.281L745.633,431.5l5.43,4.9Z" transform="translate(-716.4 -431.5)" fill="#c73c3c"/>
      </g>
      <g id="Group_243" data-name="Group 243" transform="translate(47.259 86.92)">
        <path id="Path_1554" data-name="Path 1554" d="M728.082,634.878,716.4,623.138l5.2-5.2,6.222,6.281L745.633,604.5l5.43,4.9Z" transform="translate(-716.4 -604.5)" fill="#c73c3c"/>
      </g>
      <g id="Group_244" data-name="Group 244" transform="translate(39.334 140.338)">
        <path id="Path_1555" data-name="Path 1555" d="M701.082,816.878,689.4,805.138l5.2-5.2,6.222,6.281L718.633,786.5l5.43,4.9Z" transform="translate(-689.4 -786.5)" fill="#c73c3c"/>
      </g>
      <g id="Group_245" data-name="Group 245" transform="translate(39.334 187.006)">
        <path id="Path_1556" data-name="Path 1556" d="M701.082,975.878,689.4,964.138l5.2-5.2,6.222,6.281L718.633,945.5l5.43,4.9Z" transform="translate(-689.4 -945.5)" fill="#c73c3c"/>
      </g>
      <g id="Group_246" data-name="Group 246" transform="translate(36.399 244.533)">
        <path id="Path_1557" data-name="Path 1557" d="M691.082,1171.878l-11.682-11.74,5.2-5.195,6.222,6.281,17.816-19.724,5.43,4.9Z" transform="translate(-679.4 -1141.5)" fill="#c73c3c"/>
      </g>
    </g>
    <g id="Person" transform="translate(194.021 357.331)">
      <path id="Path_1558" data-name="Path 1558" d="M523.7,1639.38c-6.809-8.629-22.483-9.422-24.977-9.3-2.025.7-3.992,1.35-5.841,1.966a45.848,45.848,0,0,1-6.78,2.524c.117,2.524.176,3.992.176,3.992Z" transform="translate(-442.687 -1368.274)" fill="#2b2839"/>
      <path id="Path_1559" data-name="Path 1559" d="M670.23,1514a48.521,48.521,0,0,1-10.684.91c-.029,3.551-.088,6.78-.147,9.422,2.994-.411,6.31-.44,9.216-1.409C668.792,1522.013,669.438,1518.667,670.23,1514Z" transform="translate(-565.122 -1286.274)" fill="#fcd2b1"/>
      <path id="Path_1560" data-name="Path 1560" d="M354.921,915.1s-17.023,44.554-16.73,54.534,35.221,42.852,35.221,42.852l1.174-10.273s-25.829-24.654-22.6-37.862,16.642-42.412,16.642-42.412Z" transform="translate(-338.187 -863.155)" fill="#fcd2b1"/>
      <path id="Path_1561" data-name="Path 1561" d="M689.371,1557.432c-6.956-11.388-21.309-12.8-21.309-12.8a2.153,2.153,0,0,0,.059-.235c-2.935.939-6.252,1-9.216,1.409-.117,4.461-.206,7.279-.206,7.279Z" transform="translate(-564.628 -1307.751)" fill="#2b2839"/>
      <path id="Path_1562" data-name="Path 1562" d="M382.5,894.507s4.784-20.34,15.673-19.049-2.847,29.673-2.847,29.673Z" transform="translate(-369.494 -835.106)" fill="#c73c3c"/>
      <path id="Path_1563" data-name="Path 1563" d="M497.9,1612.862a4.839,4.839,0,0,0-1.233.176s.059-2.847.147-7.338c-3.229,2.524-7.6,3.052-11.916,3.111.147,3.463.294,6.4.382,8.57a45.806,45.806,0,0,0,6.78-2.524C493.911,1614.212,495.877,1613.566,497.9,1612.862Z" transform="translate(-441.839 -1351.059)" fill="#fcd2b1"/>
      <path id="Path_1564" data-name="Path 1564" d="M458.4,1156.106c-1.174-17.4.029-87.406.029-87.406H427.9s.47,12.944,2.143,28.5c2.289,21.132,6.1,47.049,7.073,51.98,1.2,6.193,3.522,55.355,4.7,82.182,5.988-.117,12-.822,16.466-4.314C458.659,1208.38,459.276,1169.2,458.4,1156.106Z" transform="translate(-401.569 -971.672)" fill="#2b2839"/>
      <path id="Path_1565" data-name="Path 1565" d="M546.715,1201.9c3.023-18.227,7.4-51.1,2.084-64.542-7.514-19.078-43.615-64.219-43.615-64.219l-21.309-.029c-5.753-.851-5.489,13.443,7.572,32.2,8.805,12.65,29.174,28.558,35.69,38.537,4.432,6.78,4.99,37.393,4.813,59.318A67.369,67.369,0,0,0,546.715,1201.9Z" transform="translate(-438.583 -974.764)" fill="#2b2839"/>
      <path id="Path_1566" data-name="Path 1566" d="M435.9,824.8l3.375,16.466,13.355-.381L449.255,824.8Z" transform="translate(-407.221 -799.358)" fill="#fcd2b1"/>
      <path id="Path_1567" data-name="Path 1567" d="M436.334,762.1s8.805,21.9,0,26.709c-8.805,4.784-17.875-2.465-18.139-7.514s-5.2-15.82-5.2-15.82Z" transform="translate(-391.042 -755.061)" fill="#fcd2b1"/>
      <path id="Path_1568" data-name="Path 1568" d="M414.074,759.3h2.465l-3.375-10.361s15.409-1.027,15.937-6.751c.528-5.694-9.568-3.757-17.229-3.757-9.715,0-11.535,6.751-11.535,6.751s-1.086-.264,0,5.958c1.438,8.159,10.1,20.751,14.646,20.751,2.319,0-2.583-6.222-2.583-6.222l-.528-4.138s-3.375-4.784-2.2-5.577C410.846,755.136,414.074,759.3,414.074,759.3Z" transform="translate(-381.755 -738.118)" fill="#2b2839"/>
      <path id="Path_1569" data-name="Path 1569" d="M422.058,869.212s24.3-5.811,28.852-.235,9.1,58.114,9.1,58.114l-41.384,18.784S411.579,885.032,422.058,869.212Z" transform="translate(-393.378 -828.86)" fill="#c73c3c"/>
      <path id="Path_1570" data-name="Path 1570" d="M524.845,853.8s-19.371,3.17-17.464,10.332c1.878,7.161,13.677,14.91,27.414,10.419Z" transform="translate(-457.629 -819.847)" fill="#c73c3c"/>
    </g>
  </g>
</svg>
