<svg xmlns="http://www.w3.org/2000/svg" width="530.963" height="270.143" viewBox="0 0 530.963 270.143">
  <g id="undraw_connected_world_wuay" transform="translate(-34.791 -102.546)">
    <path id="Path_382" data-name="Path 382" d="M203.248,250.386a17.568,17.568,0,0,0-1.148-4.4,1.99,1.99,0,0,0-1.012-1.246,2.085,2.085,0,0,0-1-.011l-5.154.789a1.976,1.976,0,0,0-1.176.457c-.671.706-.01,1.843-.031,2.817a2.647,2.647,0,0,1-2.051,2.278,7.754,7.754,0,0,1-3.259-.04l-7.206-1.12a11.882,11.882,0,0,0,5.452-3.638c.948-1.123,1.453-3.221.082-3.753a3.364,3.364,0,0,0-1.252-.1c-3.265.025-5.834-2.7-8.891-3.849a9.83,9.83,0,0,0-11.064,3.3l3.839.185a1.7,1.7,0,0,1,1.023.273c.841.691-.2,2.019-.086,3.1.154,1.406,2.021,1.707,3.429,1.849s3.193,1.286,2.516,2.528c-7.074,2.437-14.274-4.763-21.7-3.877a44.1,44.1,0,0,0-5.492,1.428c-11.215,2.838-22.809-4.733-34.266-3.13a43.509,43.509,0,0,0-7.48,1.973,10.083,10.083,0,0,0-4.319,2.253c-1.133,1.187-1.564,3.218-.491,4.46a25.1,25.1,0,0,1-8.8-.836,4.928,4.928,0,0,1,2.533,4.343A52.191,52.191,0,0,0,82.872,260.5a22.521,22.521,0,0,0,2.767,3.686l-5.848,3.757a3.337,3.337,0,0,1,1.848,4.874c2.048-.911,3.318-3.269,5.508-3.747a7.423,7.423,0,0,1,4.257.825,6.65,6.65,0,0,0,4.267.672c1.409-.414,2.449-2.241,1.553-3.406a72.92,72.92,0,0,1,18.522-2.894,2.323,2.323,0,0,1,1.4.266c.817.566.6,1.79.558,2.783s.73,2.3,1.617,1.85c-1.044.905-.152,2.61.85,3.562s2.209,2.266,1.6,3.5c-.16.323-.432.582-.585.908-.455.963.267,2.085,1.118,2.724a9.534,9.534,0,0,1,2.485,1.971c.591.885.323,2.435-.735,2.558l-3.005-3.816a7.824,7.824,0,0,0-2.03,3.847,8.073,8.073,0,0,1,1,11.043c-1.363,1.6-3.3,2.575-4.995,3.825s-3.258,3.029-3.254,5.132c.007,3.634-.29,7.01,1.072,10.38a159.9,159.9,0,0,0,8.681,18.111c.859,1.536,1.969,3.219,3.708,3.484q-3.3-8.029-5.938-16.307c1.146,0,2.471.1,3.143,1.024.556.769.437,1.814.61,2.748a8.51,8.51,0,0,0,1.085,2.552l10.5,18.7c.87,1.55,1.869,3.215,3.532,3.842,1.063.4,2.294.326,3.273.9.767.453,1.284,1.257,2.066,1.684,2.212,1.206,5.287-1.107,7.354.333a20.683,20.683,0,0,1,1.511,1.538c1.909,1.653,5.04.547,7.244,1.78,1.42.795,2.156,2.384,2.914,3.825,1.9,3.608,4.968,7.143,9.034,7.43a25.187,25.187,0,0,1,3.831.132c1.249.284,2.478,1.374,2.277,2.639-.344,2.168.728,4.543.44,6.719-.524,3.964-6.147,5.707-6.63,9.676a22.457,22.457,0,0,1-.147,2.617c-.254,1.043-1.037,1.892-1.315,2.928-.527,1.964.88,3.919,2.426,5.24s3.39,2.461,4.235,4.31c.893,1.955.455,4.235.745,6.365.634,4.65,4.65,8.1,8.783,10.319a9.174,9.174,0,0,1,3.426,2.507c1.064,1.533.958,3.554,1.313,5.386.87,4.487,4.647,8.183,4.754,12.752.076,3.247-1.729,6.194-2.807,9.258a21.59,21.59,0,0,0,1.763,17.905,28.669,28.669,0,0,1,2.342,4.123c1.018,2.635.688,5.631,1.627,8.295,1.241,3.523,4.652,6.432,4.326,10.153,1.549,3.216,4.968,4.8,8.406,5.753l6.162,1.715a7.918,7.918,0,0,0,3.614.422,2.713,2.713,0,0,0,2.317-2.46c-3.022-.682-6.141-1.406-8.632-3.248s-4.2-5.121-3.252-8.071c.438-1.368,1.371-2.948.484-4.078-.508-.647-1.436-.816-2.008-1.407-.893-.921-.586-2.468.056-3.579s1.57-2.1,1.829-3.36a3.505,3.505,0,0,0-1.643-3.647,8.713,8.713,0,0,0,3.05-1.957,2.974,2.974,0,0,0,.542-3.37c1.874.238,4.086.354,5.316-1.079.982-1.145.915-2.856.527-4.313a18.423,18.423,0,0,1-1.065-4.381,79.846,79.846,0,0,0,12.953-.439,8.4,8.4,0,0,0-3.938-4.932c1.947-.329,3.721-2.66,4.336-4.537a11.672,11.672,0,0,0,.078-5.858,3.144,3.144,0,0,1-.058-1.535,2.99,2.99,0,0,1,1.541-1.49l9.664-5.55a5.627,5.627,0,0,0,1.545-1.141c1.012-1.189.862-2.985.344-4.458a22.391,22.391,0,0,1-1.549-4.408c-.6-4.633,4.362-7.957,6.036-12.318a18.56,18.56,0,0,0,.918-5.4c.137-1.964.147-4.245-1.361-5.511-1.446-1.213-3.7-.943-5.217-2.071-1.387-1.035-1.865-3.044-3.38-3.88-1.376-.759-3.1-.276-4.631-.633-2.694-.629-4.39-3.734-7.142-4.021-1.553-.162-3.31.6-4.582-.307-1.121-.8-1.166-2.4-1.38-3.757a10.492,10.492,0,0,0-8.468-8.5c-1.6-.257-3.343-.159-4.705-1.039-1.379-.891-2.011-2.559-3.094-3.792-1.746-1.988-4.5-2.695-7.071-3.3l-10.477-2.463c-1.86-.437-4.257-.669-5.255.96a7.528,7.528,0,0,0-.622,1.955,6.055,6.055,0,0,1-5.694,4.286,6.734,6.734,0,0,0-3.971-3.072,24.747,24.747,0,0,1-3.213-.765,4.513,4.513,0,0,1-1.958-6.26,5.617,5.617,0,0,0-.96-6.757c-1.782-1.6-4.359-1.986-6.748-1.826-.626-1.365.421-2.906,1.548-3.9s2.5-1.968,2.742-3.449c.386-2.331-2.587-4.1-4.845-3.406s-3.7,2.888-4.651,5.05a14.867,14.867,0,0,1-1.873,3.592,3.681,3.681,0,0,1-3.564,1.459c-1.859-.475-2.577-2.684-2.989-4.558a29.644,29.644,0,0,1-.992-7.636,9.985,9.985,0,0,1,2.879-6.954c3.09-2.837,7.831-2.559,12-2.107a3.048,3.048,0,0,1,.312-4.026,4.578,4.578,0,0,1,4.149-1.019,5.718,5.718,0,0,1,3.214,1.922c1.185,1.445,1.522,3.4,2.418,5.036s2.91,3.039,4.559,2.159c1.424-.76,1.65-2.735,1.3-4.31s-1.107-3.106-.979-4.715c.245-3.07,3.428-4.919,6.236-6.183s6.025-2.965,6.47-6.013a5.482,5.482,0,0,1,.333-1.747,3.429,3.429,0,0,1,1.258-1.183c8.2-5.417,16.531-10.9,25.9-13.86.487-.154.545.017,1.041-.1.7-.4.235-1.513-.432-1.961s-1.557-.791-1.727-1.576c-.124-.577.216-1.144.3-1.727a2.156,2.156,0,0,0-2.831-2.185c-.753-1,.737-2.155,1.941-2.486a52.7,52.7,0,0,1,11.072-1.809,2,2,0,0,1,1.26.214,1.506,1.506,0,0,1,.1,2.057,12.1,12.1,0,0,1-1.694,1.538,4.625,4.625,0,0,0-1.2,4.652c1.955.994,4.08,2.018,6.245,1.668s4.087-2.783,3.069-4.726c-.948-1.809-3.794-2.217-4.284-4.2-.573-2.321,2.713-4.386,1.973-6.66-.324-1-1.317-1.582-2.078-2.3a6.244,6.244,0,0,1-1.366-6.924,7.877,7.877,0,0,1-6.909-2.162c-1.653-1.668-2.971-4.3-5.318-4.224-2.153.068-4.008,2.581-6.022,1.814-.5-.189-1.018-.572-1.5-.347a1.237,1.237,0,0,0-.559.927c-.512,2.446.369,5.234-.965,7.348-1.451,2.3-4.807,2.619-6.566,4.694-.955,1.126-1.325,2.644-2.2,3.831s-2.741,1.942-3.794.907a5.229,5.229,0,0,0-1.421-6.358,13.953,13.953,0,0,0-3.138-1.526,18.606,18.606,0,0,1-3.505-1.954,3.452,3.452,0,0,1-1.287-1.377,3.138,3.138,0,0,1,.088-2.177,8.9,8.9,0,0,1,7.085-5.872c1.4-.191,3.035-.124,3.963-1.192.491-.565.749-1.42,1.462-1.65a2.155,2.155,0,0,1,1.349.166l5.234,1.842a3.674,3.674,0,0,0,1.865.308,1.264,1.264,0,0,0,1.093-1.329c-.167-.869-1.5-1.286-1.383-2.163a1.444,1.444,0,0,1,.438-.736,18.714,18.714,0,0,1,14.843-5.861c.661,1.085-.384,2.37-1.254,3.3s-1.568,2.581-.517,3.294a2.883,2.883,0,0,0,1.394.314,12.169,12.169,0,0,1,3.71,1.125q2.713,1.181,5.322,2.584a6.748,6.748,0,0,1,.134-3.427,2.321,2.321,0,0,1,2.749-1.5c1.04.4,1.573,1.78,2.681,1.906,1.478.168,2.061-2.015,1.444-3.369s-1.84-2.487-1.942-3.971c-.069-1,.312-2.243-.488-2.849a2.177,2.177,0,0,0-.944-.331l-19.969-3.675c-1.186-.218-2.9-.051-2.952,1.154-.029.672.571,1.338.305,1.956-.284.66-1.217.6-1.9.833a2.591,2.591,0,0,0-1.482,2.724,7.578,7.578,0,0,0,1.251,3.069C206.513,251.03,204.547,250.929,203.248,250.386Z" transform="translate(-45.001 -123.057)" fill="#2b2839"/>
    <path id="Path_383" data-name="Path 383" d="M283.021,228.737a6.466,6.466,0,0,0-7.1,2.127,1.423,1.423,0,0,0-.33,1.5c.395.672,1.4.407,2.142.166a5.39,5.39,0,0,1,3.383-.081c.7.239,1.319.661,2.018.891a2.032,2.032,0,0,0,2.072-.3,2.7,2.7,0,0,0,.511-1.936,1.557,1.557,0,0,0-.4-1.279,2.034,2.034,0,0,0-.917-.271,3.16,3.16,0,0,1-1.849-1.081" transform="translate(-140.707 -118.359)" fill="#2b2839"/>
    <path id="Path_384" data-name="Path 384" d="M302.677,225.125a1.645,1.645,0,0,0-1.59,2.317,6.667,6.667,0,0,0,2.658.173,2.272,2.272,0,0,0,1.858-1.7,4.277,4.277,0,0,1-3.029-.578" transform="translate(-153.162 -116.751)" fill="#2b2839"/>
    <path id="Path_385" data-name="Path 385" d="M345.095,216.487a30.579,30.579,0,0,0-6.817,2.316,5.122,5.122,0,0,1,3.271,5.144,2.679,2.679,0,0,0,.031,1.272c.25.607.976.835,1.614.99a10.638,10.638,0,0,0,3.539.452,3.605,3.605,0,0,0,2.929-1.79,12.766,12.766,0,0,1,.609-1.44c1.529-2.328,6.07.487,7.712-1.763.578-.793.525-1.986,1.279-2.614a2.873,2.873,0,0,1,1.315-.5,92.329,92.329,0,0,1,9.988-1.422c1.589-.138,3.659-.709,3.672-2.3a27.665,27.665,0,0,0-17.648,2.374c-1.967.985-4.569,3.058-6.464,1.752-.709-.489-.674-1.806-1.651-2.356A4.979,4.979,0,0,0,345.095,216.487Z" transform="translate(-171.422 -111.462)" fill="#2b2839"/>
    <path id="Path_386" data-name="Path 386" d="M388.969,219.86l2.809.54a3.64,3.64,0,0,0-3.788,3.944c2.63.879,5.5.024,8.269.14s5.994,2.1,5.521,4.828c-.143.826-.62,1.652-.372,2.453a9.129,9.129,0,0,0,.948,1.477,3.307,3.307,0,0,1-.618,3.419c-.735.979-1.724,1.761-2.369,2.8-1.605,2.589-.693,5.935.263,8.827a7.782,7.782,0,0,0,1.5,2.988c1.417,1.506,3.725,1.637,5.793,1.667,1.5.022,3.229-.052,4.18-1.218,1.242-1.522.374-3.9,1.192-5.684.743-1.623,2.636-2.319,4.351-2.812a65.089,65.089,0,0,0,9.313-3.04c3.688-1.7,7.135-4.34,11.189-4.558a15.357,15.357,0,0,0,3.4-.239A2.584,2.584,0,0,0,442.6,233c-.071-.971-.892-1.683-1.534-2.415s-1.146-1.857-.556-2.631l10.625-1.985c-.753-2.053-1.34-4.756.391-6.092.625-.482,1.461-.675,1.992-1.258.906-.993.451-2.7-.6-3.549a6.825,6.825,0,0,0-3.8-1.152,101.974,101.974,0,0,0-14.013.125l-27.375,1.5c-1.837.1-3.958-.053-5.642.574-1.426.531-2.44,1.5-4.072,1.847C395.008,218.6,391.694,218.169,388.969,219.86Z" transform="translate(-195.73 -111.175)" fill="#2b2839"/>
    <path id="Path_387" data-name="Path 387" d="M487.306,267.226a1.131,1.131,0,0,0-.818.185,1.032,1.032,0,0,0-.266.63,4.163,4.163,0,0,0,.6,2.98A2.918,2.918,0,0,0,489.5,272.3c1.265-.161,2.2-1.24,3.359-1.767,1.792-.811,9.4-2.075,4.138-4.919-1.814-.98-2.987-.115-4.416.531A10.048,10.048,0,0,1,487.306,267.226Z" transform="translate(-243.749 -136.34)" fill="#2b2839"/>
    <path id="Path_388" data-name="Path 388" d="M577.111,220.867a3.006,3.006,0,0,0-1.462,1.273,1.284,1.284,0,0,0,.482,1.7,1.917,1.917,0,0,0,.717.114l2.5.075c1.062.032,2.388.258,2.673,1.281.212.76-.262,1.736.31,2.279a1.612,1.612,0,0,0,.85.332,5.794,5.794,0,0,0,2.518.081c1.819-.488.863-1.6,1.436-2.586.876-1.512.725-.6,2.269-1.464,1.14-.64,2.614-1.8,1.662-3.432C589.411,217.687,579.554,219.649,577.111,220.867Z" transform="translate(-287.444 -113.788)" fill="#2b2839"/>
    <path id="Path_389" data-name="Path 389" d="M664.521,219.538l-1.451.194a58.464,58.464,0,0,0-9.716,1.86,16.172,16.172,0,0,0,4.255,1.044,13.071,13.071,0,0,1,2.384.339c1.392.414,2.8,1.485,4.14.937.834-.34,1.106-1.208,1.8-1.669.477-.318,2.286-.832,2.489-1.153C670.053,218.5,665.778,219.37,664.521,219.538Z" transform="translate(-325.521 -113.885)" fill="#2b2839"/>
    <path id="Path_390" data-name="Path 390" d="M681.295,231.424a27.216,27.216,0,0,0-5.356,3.922,3.243,3.243,0,0,0-1.317,2.372c.082,1.241,1.4,1.961,2.55,2.446l4.64,1.964c.563-.793.048-1.888-.534-2.668s-1.273-1.682-1.016-2.62c.293-1.071,1.6-1.435,2.693-1.62,1.783-.3,6.595-.276,6.016-3.151C688.29,228.684,683.085,230.423,681.295,231.424Z" transform="translate(-335.921 -119.175)" fill="#2b2839"/>
    <path id="Path_391" data-name="Path 391" d="M685.557,589.269a4.427,4.427,0,0,0,.28,3.9,3.953,3.953,0,0,0,4.058,1.4,7.31,7.31,0,0,0,3.767-2.422,12.972,12.972,0,0,0,2.167-3.323,25.937,25.937,0,0,0,1.606-5.877l1.441-7.564c.322-1.69.309-6.873-2.8-5.184-.849.461-2.814,4.1-3.7,5.136-1.6,1.861-1.815,3.667-2.659,5.922C688.659,584.086,686.535,586.44,685.557,589.269Z" transform="translate(-341.116 -285.361)" fill="#2b2839"/>
    <path id="Path_392" data-name="Path 392" d="M1002.781,682.252a22.661,22.661,0,0,1-2.952-1.406,24.885,24.885,0,0,0-1.5,8.157l6.957-3.937c1.047-.592,2.232-1.415,2.21-2.617a.828.828,0,0,0-.385-.753.937.937,0,0,0-.488-.057,11.772,11.772,0,0,0-2.945.946,3.6,3.6,0,0,1-3,.016" transform="translate(-494.244 -339.638)" fill="#2b2839"/>
    <path id="Path_393" data-name="Path 393" d="M1068.083,685.844a15.059,15.059,0,0,0-2.231.8c-1.6.812-2.682,2.355-4.119,3.425a16.341,16.341,0,0,1-4.654,2.132,1.116,1.116,0,0,0,.26,1.644,3.227,3.227,0,0,0,1.837.413,9.7,9.7,0,0,0,4.944-.762,15.586,15.586,0,0,0,2.328-1.848,24.656,24.656,0,0,1,5.859-3.313,6.729,6.729,0,0,0,2.042-1.221c1.291-1.272,1.382-3.234-.48-3.667C1072.364,683.1,1069.514,685.381,1068.083,685.844Z" transform="translate(-522.847 -340.893)" fill="#2b2839"/>
    <path id="Path_394" data-name="Path 394" d="M1104.712,662.889a5.8,5.8,0,0,0-1.775-4.755c-.019,1.751-.072,3.617-1.057,5.065-.7,1.032-1.8,1.729-2.571,2.712s-1.11,2.541-.208,3.4a3.38,3.38,0,0,0,2,.69c1.8.211,3.873.329,5.132-.968.687-.708,1.022-1.756,1.86-2.277a2.262,2.262,0,0,0,.816-.584c.346-.55-.2-1.275-.823-1.473s-1.3-.105-1.923-.293-1.193-.888-.874-1.454" transform="translate(-543.264 -328.53)" fill="#2b2839"/>
    <path id="Path_395" data-name="Path 395" d="M1027.252,535.987a8.071,8.071,0,0,1-2.88.17c-1.6-.294-2.842-1.5-4.132-2.486a18.228,18.228,0,0,0-10.65-3.721c-3.506-.066-7.045.884-10.489.221a4.137,4.137,0,0,0,2.438,2.748c1.143.558,2.4.839,3.551,1.385a8.479,8.479,0,0,1,4.107,4.273,12.061,12.061,0,0,0,1.163,2.556c1.145,1.54,3.314,1.879,5.229,1.753,2.5-.164,5.1-.882,7.427.048,1.777.712,3.049,2.267,4.532,3.476s3.573,2.107,5.277,1.234a8.724,8.724,0,0,1-6.036-8.394c1.671.154,6.484.094,6.224-2.745C1032.8,534.1,1028.688,535.728,1027.252,535.987Z" transform="translate(-494.62 -265.836)" fill="#2b2839"/>
    <path id="Path_396" data-name="Path 396" d="M963.65,572.2c.3-1.627,1.919-3.064,1.414-4.639a2.855,2.855,0,0,0-2.756-1.654c-1.144-.027-2.267.314-3.41.346a16.638,16.638,0,0,0-2.233.032c-2.27.373-3.669,2.752-5.808,3.6-1.3.514-2.762.416-4.115.772-3.071.807-5.013,3.709-7.16,6.048a25.552,25.552,0,0,1-12.969,7.563c-1.746.4-3.623.663-5.01,1.8-1.838,1.5-2.29,4.076-2.7,6.413a105.927,105.927,0,0,1-5.157,18.93l7.291.931a9.909,9.909,0,0,0,4.158-.06,12.07,12.07,0,0,0,2.735-1.457,27.3,27.3,0,0,1,10.668-3.851,11.326,11.326,0,0,1,5.7.4,5.3,5.3,0,0,1,3.479,4.24,4.479,4.479,0,0,1,4.477,1.089,7.781,7.781,0,0,1,2.137,4.267c.192,1,.384,2.193,1.31,2.611.755.341,1.621-.026,2.448-.092,2.8-.224,5.129,3.044,7.884,2.481,2.955-.6,3.68-5.029,6.563-5.915,1.656-.509,3.978.11,4.771-1.43.7-1.357-.7-2.924-.552-4.444.177-1.872,2.385-2.666,4.087-3.465a12.744,12.744,0,0,0,5.808-16.474c-1.685-3.451-5-6.167-5.611-9.958-.471-2.917.679-6.318-1.181-8.614-.946-1.168-2.548-1.813-3.111-3.206a15.82,15.82,0,0,1-.4-2.8c-.191-.927-1-1.9-1.914-1.656-2.656.7-3.5,8.9-4.926,10.9A3.3,3.3,0,0,1,963.65,572.2Z" transform="translate(-452.875 -282.476)" fill="#2b2839"/>
    <path id="Path_397" data-name="Path 397" d="M911.708,547.528a4.277,4.277,0,0,0-2.769-.141c-.87.364-1.378,1.641-.68,2.274a93.752,93.752,0,0,1,16.37.318c6.238.854,12.412,2.971,18.678,2.348a95.079,95.079,0,0,0-10.9-2.528l-6.134-1.172a47.414,47.414,0,0,0-4.981-.77C917.8,547.568,915.149,548.493,911.708,547.528Z" transform="translate(-450.031 -274.276)" fill="#2b2839"/>
    <path id="Path_398" data-name="Path 398" d="M921.016,504.311c-.453-.038-1.015-.07-1.249.319-.224.372.032.864-.088,1.282-.164.57-.912.716-1.5.639a2.874,2.874,0,0,0-1.747.02,1.481,1.481,0,0,0-.573,1.682,4.331,4.331,0,0,0,1.01,1.61,16.448,16.448,0,0,0,2.62,2.628c1.877,1.385,4.42,2.053,5.6,4.064a2.7,2.7,0,0,0,.748,1.007,2.079,2.079,0,0,0,1.918-.193l2.142-.979a2.433,2.433,0,0,0,1-.681,2.2,2.2,0,0,0-.222-2.323,3.992,3.992,0,0,1-.848-2.275c.157-1.462,2.037-2.021,2.81-3.272s.272-2.886.362-4.365c.105-1.73,1.192-3.981-.557-5.274-1.487-1.1-2.908-.083-3.975,1.13C926.218,501.886,925.154,504.657,921.016,504.311Z" transform="translate(-453.872 -250.079)" fill="#2b2839"/>
    <path id="Path_399" data-name="Path 399" d="M951.09,455.186c.731,1.4,2.255,2.236,3.053,3.6.864,1.478.766,3.387,1.7,4.82.962,1.47,2.9,2.25,3.437,3.922.589,1.825-.747,4.043.318,5.638a2.366,2.366,0,0,0,3.471.319,2.546,2.546,0,0,0-.105-3.553c-.631-.575-1.536-.824-2.063-1.5a3.137,3.137,0,0,1-.534-1.3,8.517,8.517,0,0,1,.134-4.082,1.817,1.817,0,0,0,.1-1.068c-.237-.689-1.17-.738-1.825-1.058-1.487-.726-1.451-2.825-1.191-4.46-.173,1.088-4.049-.763-4.455-1.379-.806-1.225-.367-3.587-.527-4.94A3.846,3.846,0,0,0,951.09,455.186Z" transform="translate(-470.945 -226.808)" fill="#2b2839"/>
    <path id="Path_400" data-name="Path 400" d="M871.658,500.928c-.716-.8-1.793-1.639-2.752-1.156a1.743,1.743,0,0,0-.646,2.149,4.73,4.73,0,0,0,1.561,1.861,54.475,54.475,0,0,1,5.9,5.053c3.121,3.43,4.774,8.057,8.168,11.217a4.581,4.581,0,0,0,2.572,1.392,2,2,0,0,0,2.213-1.528,2.913,2.913,0,0,0-1.027-2.142c-1.318-1.434-2.762-2.754-4.006-4.253a3.574,3.574,0,0,1-1.024-2.139c-.006-.807.729-1.651,1.511-1.451-.951-.243-1.656-1.827-3.051-2.125-1.166-.249-1.448.473-2.836-.122C875.588,506.549,873.511,503,871.658,500.928Z" transform="translate(-430.566 -251.008)" fill="#2b2839"/>
    <path id="Path_401" data-name="Path 401" d="M983.343,348.633a21.912,21.912,0,0,1-2.236-.8c-1.965-.59-4.566.855-4.3,2.89.174,1.352,1.432,2.264,2.127,3.437,1.031,1.739.756,3.945.214,5.893a4.61,4.61,0,0,1-.744,1.677A5.68,5.68,0,0,1,976.64,363a23.555,23.555,0,0,0-6.892,5.855,1.687,1.687,0,0,0-.416.785c-.094.687.6,1.188.987,1.761.867,1.273.24,2.986.326,4.524a1.279,1.279,0,0,0,.539,1.122c.523.266,1.142-.185,1.426-.7.94-1.7.232-4.439,2-5.26.334-.155.738-.221.961-.514.353-.465.012-1.154.191-1.709.269-.835,1.41-.872,2.286-.835a12.977,12.977,0,0,0,4.457-.593,2.967,2.967,0,0,0,1.475-.855,3.211,3.211,0,0,0,.375-2.431,32.95,32.95,0,0,0-3.893-11.879c1.55.2,3.236.369,4.573-.438.749-.452,1.647-1.8,1.275-2.725C985.722,347.651,984.659,348.876,983.343,348.633Z" transform="translate(-480.056 -176.702)" fill="#2b2839"/>
    <path id="Path_402" data-name="Path 402" d="M546.955,383.995a5.969,5.969,0,0,1,.042,3,2.052,2.052,0,0,1-2.32,1.465c-.751-.228-1.185-.983-1.719-1.559-2.968-3.2-9.663-1.349-11.5-5.312-.748-1.618-.24-3.556-.75-5.263a4.684,4.684,0,0,0-4.744-3.223,9.746,9.746,0,0,0-2.73.815,68.835,68.835,0,0,1-18.087,4.524,14.859,14.859,0,0,0-3.475.632c-2.548.924-4.29,3.286-5.529,5.7s-2.154,5.021-3.815,7.163c-1.746,2.251-4.193,3.827-6.475,5.532a6.607,6.607,0,0,0-2.136,2.239,7,7,0,0,0-.428,3.326l.466,13.715a12.386,12.386,0,0,0,.925,5.17c.986,1.971,2.934,3.262,4.285,5A9.8,9.8,0,0,1,491,433.178c-.029.908-.119,1.982.588,2.552a2.586,2.586,0,0,0,1.446.416l18.552,1.518c3.263.267,6.88.706,9.011,3.193,1.005,1.173,1.813,2.861,3.354,2.987a12.463,12.463,0,0,0,1.964-.27c1.667-.132,3.132,1.133,4.056,2.527a11.212,11.212,0,0,1,1.8,7.194c-.151,1.59-.645,3.135-.751,4.729-.4,6.063,4.736,11.331,4.836,17.408.059,3.574-1.638,6.913-3.292,10.082,2.67,4.044.484,9.43,1.546,14.158,1.008,4.486,4.748,8,5.68,12.5.427,2.061.451,4.6,2.269,5.659a5.172,5.172,0,0,0,2.567.514,33.843,33.843,0,0,0,15.412-3.509c2.247-1.115,4.576-2.78,4.969-5.258.317-2-.7-4.234.334-5.974,1.216-2.052,4.329-1.889,6.118-3.466,2.9-2.559.639-7.439,1.814-11.124,1.057-3.313,4.694-5.073,6.5-8.046a14.3,14.3,0,0,0,1.51-4.092,58.372,58.372,0,0,0,1.536-10.436,62.544,62.544,0,0,1,.472-6.392c1.944-12.077,13.883-20.164,17.76-31.766.37-1.108.544-2.584-.442-3.211a2.823,2.823,0,0,0-1.877-.2l-8.552,1.078a5.888,5.888,0,0,1-3.164-.182,2.03,2.03,0,0,1-1.157-2.613c1.453-2.631-1.535-5.956-2.863-8.652a127.67,127.67,0,0,0-12.714-20.619,2.1,2.1,0,0,1-.557-1.21l2.427.081c-.819-2.94-2.171-6.157-5.028-7.233a12.517,12.517,0,0,0-5.109-.3A74.661,74.661,0,0,1,546.955,383.995Z" transform="translate(-242.337 -189.121)" fill="#2b2839"/>
    <path id="Path_403" data-name="Path 403" d="M577.1,245.692c1.287,1.367,2.729,2.816,4.592,3.054,3.289.421,5.654-2.981,7.16-5.935a2.9,2.9,0,0,0,3.026,2.683,5.974,5.974,0,0,0,2.276-.89,44.841,44.841,0,0,1,21.243-5.492,2.294,2.294,0,0,1,1.752-2.522c1.51-.3,2.87,1.006,3.6,2.362s1.183,2.928,2.34,3.943,3.4.971,3.855-.5c.439-1.411-1.031-2.615-2.253-3.447s-2.509-2.372-1.686-3.6c6.24-1.381,12.519-2.768,18.9-3.042a7.916,7.916,0,0,0,3.182-.548,2.474,2.474,0,0,0,1.486-2.615,7.206,7.206,0,0,1-7.52-2.836c8.86-.731,18.283-1.354,26.135,2.815.942,2.023-3.86,3.706-2.575,5.53a2.326,2.326,0,0,0,1.942.663,96.332,96.332,0,0,0,16.339-.623,21.878,21.878,0,0,1,5.942-.482c3.3.407,6.117,2.606,9.36,3.324a5.008,5.008,0,0,0,3.913-.466,2.481,2.481,0,0,0,.679-3.514c3.054-2.993,8.122-2.251,12.151-.818s7.845,3.744,12.109,4.063c3.058.229,6.158-.593,9.179-.071a57.153,57.153,0,0,1,5.521,1.692c3.51.981,7.222.774,10.866.822a76.136,76.136,0,0,1,27.133,5.391,8.068,8.068,0,0,1,3.016,1.782,2.957,2.957,0,0,1,.673,3.245l-8.927-1.3c.841,1.656,3.017,1.938,4.784,2.509s3.6,2.523,2.537,4.046c-1.915-.61-3.65,1.3-4.617,3.066s-2.146,3.871-4.152,3.978c-1.8.1-3.97-1.434-5.141-.068a35.064,35.064,0,0,1,4.131,6.6c1.157,2.411,1.981,5.448.417,7.617a1.975,1.975,0,0,1-1.056.819c-1.277.323-2.107-1.239-3.023-2.186-1.154-1.193-2.9-1.531-4.463-2.091s-3.21-1.661-3.332-3.316a6.623,6.623,0,0,1,.868-2.94,11.328,11.328,0,0,0,.861-5.08,5.771,5.771,0,0,0-1.483-3.828,2.971,2.971,0,0,0-3.814-.392c-.5.417-.906,1.085-1.558,1.11-1.154.044-2.039-1.967-2.967-1.28a3.153,3.153,0,0,1-.429,2.109c-2.769,2.409-7.024,1.39-10.594,2.241a19.886,19.886,0,0,0-4.834,2.111,3.111,3.111,0,0,0-1.382,1.16,2.139,2.139,0,0,0,.831,2.551,6.6,6.6,0,0,0,2.741.936c4.353.824,8.769,2.1,12.206,4.9s5.69,7.417,4.6,11.712l-8.584-8.2q.489,5.166.555,10.36a4.657,4.657,0,0,1-.272,1.993c-.612,1.352-2.27,1.806-3.724,2.1a2.917,2.917,0,0,0-2.239,3.737,12.187,12.187,0,0,0,2.983,4.3,8.263,8.263,0,0,1,2.493,4.547c.154,1.754-1.169,3.731-2.925,3.609a3.859,3.859,0,0,1-2.887-2.492,15.834,15.834,0,0,0-1.759-3.579c-2.583-3.106-8.384-1.775-10.7-5.087a5.232,5.232,0,0,0-1.082,4.979c1.076-.674,2.55-.048,3.359.931a22.951,22.951,0,0,1,1.825,3.334c.857,1.484,2.221,2.8,2.341,4.509a14.75,14.75,0,0,0,.033,1.939c.213,1.036,1.088,1.779,1.695,2.645a7.594,7.594,0,0,1,.432,7.067,21.8,21.8,0,0,1-4.166,6.047,72.937,72.937,0,0,1-9.071,9.135,9.532,9.532,0,0,0-2.575,2.591,2.81,2.81,0,0,0,.289,3.39c-.655.033-1.831.355-2.486.388a57.8,57.8,0,0,1-.15-7.908c-2.587-1.242-5.372,2.084-5.038,4.934s2.4,5.137,3.863,7.6a8.983,8.983,0,0,1,1.512,5.973c-.358,2.067-2.2,3.975-4.294,3.792-3.325-.29-4.716-5.063-8.008-5.61a1.346,1.346,0,0,0-.867.086c-.489.268-.574.922-.6,1.479-.135,2.733-.251,5.575.816,8.094,1.561,3.686,5.593,6.782,4.747,10.695-4.556-2.118-6.925-7.227-8-12.135s-1.255-10.06-3.183-14.7c-1.464,1.876-4.541.325-5.879-1.643-1.268-1.866-2.049-4.025-3.279-5.917s-3.115-3.585-5.369-3.689c-2.363-.109-4.413,1.513-6.215,3.045a14.488,14.488,0,0,0-3.87,4.311c-1.261,2.535-.931,5.523-.992,8.353-.066,3.06-.714,6.288-2.8,8.528s-5.934,3.02-8.235,1a9.281,9.281,0,0,1-2.3-4.14,202.706,202.706,0,0,1-6.227-22.23c-.386,1.717-1.894,3.93-3.334,2.919a2.984,2.984,0,0,1-.768-.99c-2.687-4.553-7.662-7.285-12.689-8.922s-10.316-2.4-15.287-4.2a38.723,38.723,0,0,1-7.93-3.95,6.237,6.237,0,0,0-.381,6.38,5.082,5.082,0,0,0,5.734,2.4c1.1-.353,2.036-1.119,3.131-1.5s2.565-.193,3.044.863c.458,1.01-.234,2.232.109,3.286.524,1.606,2.946,1.73,3.793,3.192a2.94,2.94,0,0,1-.788,3.409,14.265,14.265,0,0,1-3.2,1.97c-3.564,1.982-6.1,5.365-9.214,8s-7.51,4.554-11.222,2.866c.885-4.481-4.453-7.771-5.435-12.231-.323-1.468-.156-3.028-.617-4.458-.668-2.071-2.506-3.5-4.014-5.066a19.88,19.88,0,0,1-5.453-14.464,20.3,20.3,0,0,0,0-5.514c-.42-1.8-1.908-3.536-3.751-3.455-4.211.186-9.515.5-11.724-3.09-.788-1.281-1.132-3.157.008-4.139a4,4,0,0,1,3.047-.523l9.487.933c2.219.218,4.617.4,6.521-.762s2.729-4.239.966-5.6c-1.288-1-3.6-.943-3.971-2.529-.312-1.32,1.15-2.819.36-3.922-.566-.791-1.838-.572-2.609.021a16.72,16.72,0,0,1-2.193,1.91c-1.514.788-3.323.038-4.951-.472s-3.812-.553-4.6.96c-.883,1.692.784,3.909-.093,5.6-1.159,2.241-5.085.965-6.713,2.893-1.868,2.212,1.271,5.511.641,8.337a5.19,5.19,0,0,1-5.113-.287,4.966,4.966,0,0,1-2.146-4.624c.156-1.271.819-2.569.375-3.77a4.424,4.424,0,0,0-2.241-2.051l-9.219-5.094c-.856,1.588.226,3.556,1.579,4.749s3.048,2.091,3.937,3.66a4.8,4.8,0,0,1-1.808,6.334,1.109,1.109,0,0,1-.914.159,1.275,1.275,0,0,1-.593-.8c-1.627-4.163-4.069-8.267-7.973-10.441s-9.515-1.727-12.075,1.936c-.608.87-1.016,1.862-1.546,2.782-2.815,4.887-8.849,7.2-14.486,7.05a2.876,2.876,0,0,1-1.58-.371c-.911-.629-.87-1.965-.731-3.063l.592-4.662a3.7,3.7,0,0,1,1.032-2.555c1.044-.824,2.551-.3,3.881-.323a4.919,4.919,0,0,0,4.464-3.445,5.543,5.543,0,0,0-1.543-5.512c-.61-.573-1.428-1.292-1.106-2.064a1.706,1.706,0,0,1,1.2-.806c2.389-.694,4.913-.876,7.263-1.694s4.627-2.493,5.184-4.918c.17-.743.248-1.643.916-2.012a2.745,2.745,0,0,1,1.058-.216,5.149,5.149,0,0,0,4.417-5.368c1.126-.787,2.7-.208,3.792.629s2.051,1.942,3.376,2.3c2.47.672,4.857-1.515,7.416-1.525,1.076,0,2.191.376,3.2.011s1.64-1.392,2.428-2.147,2.17-1.215,2.9-.4l-.62-4.589a9.022,9.022,0,0,0,7.342-1.327l-8.007-2.705a1.742,1.742,0,0,1-.749-.4c-.582-.627,0-1.6.47-2.316,1.132-1.7,1.322-4.513-.54-5.361-1.271-.579-2.73.116-3.95.8l-5.844,3.259c-.186,1.111,1.173,1.74,2.015,2.489a3.378,3.378,0,0,1-2.2,5.9,4.209,4.209,0,0,1,.752,3.568l-3.932.283a1.7,1.7,0,0,1-1.275-.249c-.421-.374-.364-1.028-.461-1.582a3.433,3.433,0,0,0-2.881-2.514,10.131,10.131,0,0,0-4.026.372,2.4,2.4,0,0,1-1.731-.04,1.728,1.728,0,0,1-.685-.864,4.44,4.44,0,0,1,.894-4.262,23.649,23.649,0,0,1,3.352-3.083,19.539,19.539,0,0,0,5.81-9.011c2.165-.907,4.406-2.139,6.57-3.046a20.105,20.105,0,0,1,10.807-2.094l7.331.14a17.577,17.577,0,0,1,6.406.922,5.974,5.974,0,0,1,3.909,4.783,1.468,1.468,0,0,1-.47,1.342,1.732,1.732,0,0,1-.927.209C579.989,245.117,579.126,245.621,577.1,245.692Z" transform="translate(-257.421 -117.072)" fill="#2b2839"/>
    <path id="Path_404" data-name="Path 404" d="M517.18,307.4a2.145,2.145,0,0,0,.585-2.157,4.013,4.013,0,0,0-4.155.784A7.007,7.007,0,0,0,512.5,307.5c-.963,1.572-1.815,3.449-1.257,5.206a1.478,1.478,0,0,0,.677.926,1.78,1.78,0,0,0,.789.124,26.434,26.434,0,0,0,3.175-.2c.647-.079,1.4-.262,1.648-.864.329-.791-.467-1.686-.235-2.511a2.745,2.745,0,0,1,.677-.97,1.282,1.282,0,0,0,.4-1.077c-.094-.387-.686-.606-.9-.27" transform="translate(-255.929 -155.805)" fill="#2b2839"/>
    <path id="Path_405" data-name="Path 405" d="M529.985,295.543a8.88,8.88,0,0,0-2.877-.181,1.254,1.254,0,0,0-.613.139,1.022,1.022,0,0,0-.378.547,2.718,2.718,0,0,0,1.582,3.33,3.4,3.4,0,0,1,.981.394c.814.631.295,1.922.449,2.94.173,1.143,1.28,2.1,1.077,3.242-.16.9-1.118,1.607-.964,2.505.161.94,1.355,1.223,2.306,1.3a2.9,2.9,0,0,0,1.634-.187,2.53,2.53,0,0,0,1.031-1.493,9.569,9.569,0,0,0,.482-3.6,3.417,3.417,0,0,0-.406-1.59,8.876,8.876,0,0,0-.949-1.087C531.518,299.678,533.437,296.516,529.985,295.543Z" transform="translate(-263.231 -151.083)" fill="#2b2839"/>
    <path id="Path_406" data-name="Path 406" d="M622.8,475.47s-139.584-80.123-199.677-64.942c0,0-127.354,13.705-142.113,43.857,0,0-40.483-126.51-55.243-130.727" transform="translate(-116.397 -164.943)" fill="none" stroke="#c73c3c" stroke-miterlimit="10" stroke-width="2" opacity="0.8"/>
    <path id="Path_407" data-name="Path 407" d="M281.013,453.578c23.4-62.412,234.255-131.571,234.255-131.571-29.941,7.591-92.142,87.714-92.142,87.714S291.556,313.994,225.77,322.85c0,0,289.708,9.488,397.032,151.812" transform="translate(-116.397 -164.136)" fill="none" stroke="#c73c3c" stroke-miterlimit="10" stroke-width="2" opacity="0.8"/>
    <circle id="Ellipse_45" data-name="Ellipse 45" cx="6.115" cy="6.115" r="6.115" transform="translate(103.259 152.6)" fill="#c73c3c"/>
    <circle id="Ellipse_46" data-name="Ellipse 46" cx="6.115" cy="6.115" r="6.115" transform="translate(158.502 283.327)" fill="#c73c3c"/>
    <circle id="Ellipse_47" data-name="Ellipse 47" cx="6.115" cy="6.115" r="6.115" transform="translate(392.757 151.756)" fill="#c73c3c"/>
    <circle id="Ellipse_48" data-name="Ellipse 48" cx="6.115" cy="6.115" r="6.115" transform="translate(500.291 304.412)" fill="#c73c3c"/>
    <circle id="Ellipse_49" data-name="Ellipse 49" cx="6.115" cy="6.115" r="6.115" transform="translate(300.615 239.47)" fill="#c73c3c"/>
  </g>
</svg>
