<svg id="Слой_2" data-name="Слой 2" xmlns="http://www.w3.org/2000/svg" xmlns:xlink="http://www.w3.org/1999/xlink" width="393.788" height="511.771" viewBox="0 0 393.788 511.771">
  <defs>
    <linearGradient id="linear-gradient" x1="0.5" y1="1" x2="0.5" gradientUnits="objectBoundingBox">
      <stop offset="0" stop-color="#e9eaf4"/>
      <stop offset="0.63" stop-color="#e9eaf4" stop-opacity="0"/>
    </linearGradient>
    <clipPath id="clip-path">
      <circle id="Ellipse_88" data-name="Ellipse 88" cx="154.883" cy="154.883" r="154.883" fill="none"/>
    </clipPath>
  </defs>
  <g id="Слой_1" data-name="Слой 1" transform="translate(0 0)">
    <path id="Path_589" data-name="Path 589" d="M229.313,398.678l-48.188-27.82c-2.242-1.3-1.965-3.562.635-5.056l46.919-27.093c2.6-1.494,6.52-1.658,8.762-.368l48.178,27.82c2.252,1.3,1.965,3.562-.624,5.056l-46.929,27.093C235.475,399.814,231.555,399.967,229.313,398.678Z" transform="translate(4.229 7.945)" fill="#d6d8e5" opacity="0.4"/>
    <path id="Path_590" data-name="Path 590" d="M211.8,381.01v.01L90.085,451.286l-70.2,40.532,1.556.9,70.2-40.543L213.35,381.911h0Z" transform="translate(0.468 8.97)" fill="#d6d8e5" opacity="0.4"/>
    <path id="Path_591" data-name="Path 591" d="M290.473,363l-2.375.727L240.78,336.4c-2.242-1.29-6.141-1.126-8.751.368L185.1,363.862l-.113.072-2.047-.624v3.664h0a2.743,2.743,0,0,0,1.474,1.9L232.6,396.7c2.242,1.29,6.141,1.136,8.762-.368l47.063-27.052a3.705,3.705,0,0,0,2.129-2.7h0Z" transform="translate(4.307 7.899)" fill="#d5d6e0"/>
    <path id="Path_592" data-name="Path 592" d="M232.693,393.547,184.5,365.768c-2.242-1.29-1.955-3.552.635-5.046l46.929-27.093c2.59-1.5,6.51-1.668,8.751-.368l48.188,27.82c2.242,1.3,1.965,3.562-.635,5.056L241.455,393.23C238.855,394.683,234.935,394.847,232.693,393.547Z" transform="translate(4.308 7.825)" fill="#e9eaf4"/>
    <path id="Path_593" data-name="Path 593" d="M256.317,360.489V356.4l-5.834,1.535L237.5,350.408a3.664,3.664,0,0,0-3.316.143l-12.62,7.288-5.967-1.576v4.411h0V361.7a.491.491,0,0,0,0,.123v.1h0a1.024,1.024,0,0,0,.563.716l18.27,10.635a3.7,3.7,0,0,0,3.316-.133l17.789-10.235a1.392,1.392,0,0,0,.8-1.024h0V360.53Z" transform="translate(5.076 8.242)" fill="#d5d6e0"/>
    <path id="Path_594" data-name="Path 594" d="M234.434,367.863,216.143,357.29c-.85-.491-.747-1.351.235-1.914l17.789-10.235a3.665,3.665,0,0,1,3.337-.133l18.26,10.542c.85.491.747,1.351-.235,1.924L237.74,367.71a3.7,3.7,0,0,1-3.306.154Z" transform="translate(5.075 8.115)" fill="#e9eaf4"/>
    <path id="Path_595" data-name="Path 595" d="M237.985,358.5l-108.9-97.482,218.107-4.084Z" transform="translate(3.039 6.049)" fill="url(#linear-gradient)"/>
    <circle id="Ellipse_87" data-name="Ellipse 87" cx="154.883" cy="154.883" r="154.883" transform="translate(84.023)" fill="#e9eaf4"/>
    <g id="Group_134" data-name="Group 134" transform="translate(84.023)" clip-path="url(#clip-path)">
      <path id="Path_596" data-name="Path 596" d="M196.211,62.507l.522-1.832V56.7a9.314,9.314,0,0,1-2.221,0c-.389-.174-.123-1.259-.123-1.259l1.822-1.566-3.654.778-1.31,2.047-4.094,2.528,1.832,1.024,1.177.778,1.761.266V60.143s2.047-.522,2.549.256l-.256,1.443ZM150.95,119.058a4.094,4.094,0,0,0-3.357,0,2.764,2.764,0,0,1-2.62,2.794l2.989,1.668,2.989-1.116,3.91-1.3,3.347,2.416c2.518-3.071,0-4.841,0-4.841ZM214.512,176l-2.9-.614-5.036-3.2h-4.422L198.34,170.2h-1.525s.307-2.139-.154-2.293-3.808-2.139-3.808-2.139l-2.6.921v-1.832l-1.832-.768H186.9l.154-1.525s1.372-2.712.614-3.183-3.511-6.581-3.511-6.581l-4.094-2.293h-4.422l-3.818-3.654-3.808-3.071-2.139-4.268-2.293-1.525s-2.59,1.679-3.2,1.525-4.422-1.525-4.422-1.525l-3.2-.911-4,1.873v4.094l-1.525-1.024v-1.535l1.372-2.59.614-1.832-1.372-.6-1.832,2.129-4.575,1.361-.921,1.986-2.139,1.986-.6,1.679-3.357-2.743a26.471,26.471,0,0,1-3.511,1.525,23.2,23.2,0,0,1-3.511-2.293l-1.679-3.2.921-4.268.757-4.432-2.9-1.832H120.52l-3.071-.911,1.433-2.293,1.679-3.357,1.525-2.436s.43-1.116.921-1.372c1.945-1.024,0-1.986,0-1.986s-4.094-.307-4.729,0-2.293,1.218-2.293,1.218v3.511l-3.071,1.372-4.729,1.024-3.2-3.214c-.461-.45-1.525-5.486-1.525-5.486l1.975-1.832.921-1.525.154-3.664,1.975-1.679.768-1.986,2.272-1.658,2.18-2,1.986-.6,2.743.6c.154-1.024,5.189-.6,5.189-.6l1.986-.1-.154-1.116c.921-.768,3.971,0,3.971,0l4.094-.348c.9.194,1.658,2.047,1.658,2.047l-1.832,1.679,1.228,3.654,1.218,1.679-.461,1.679,2.938-.43.143-2.907.154-3.511-.45-3.849,2.743-5.916,11.136-7.165-.154-2.6.757-3.736,1.986.686,3.511-4.166,4.575-1.515,2.743-1.863,1.372-2.753,5.036-1.525,5.036-2.59-2.313,2.467-.307,2.139,2.743-.614,2.446-1.372,2.129-.6,1.986-.614.614-1.372h-1.372l-2.139-.768c-1.372-1.024-3.071-2.283-3.071-2.283a1.7,1.7,0,0,1,.45-1.382l1.382-1.238s.6-.737.154-.737-3.818-.737-3.818-.737l-3.664,1.474H170l2.6-2.262h2.9l3.2-.768h6.653l3.664-.768,2.61-1.4,3.2-.328.921-3.429-2.139-1.832L190.54,45.8l-.614-3.6-1.679-3.664h-1.525l-.154,1.986h-2.436l-.614,1.218-.911.614-1.525.307L179.7,41.279l1.832-1.975L179.4,37.318l-2.6-1.372h-2.712l-1.986.6-2.743,3.2-2.139,1.832.614,1.679-.778,2.549.461,1.024-2.6.921-2.9.6-1.218-.307-.921,1.228,1.679,3.429-1.679,1.146H157.6l-1.935-2.487-.461-1.412,1.372-.757-1.024-1.832-3.2-.154-4.268-2.651H146.1l-.461-1.627-1.372-.6,1.986-2.293,2.9-1.679,5.036-1.832,1.832-.6L159.977,35l2.661-1.474,2.436-2.139h3.2l3.818-.962h2.446l1.024-2.845h-4.882l-1.832,1.4h-3.2a5.517,5.517,0,0,0-2.446-1.4V26.458l1.679-1.525,2.18-1.638a12.814,12.814,0,0,0,1.832-3.2l4.422,1.525,3.347-.174,2.3-.133,2.9.154,1.679.614c-.461,1.218-2.283.307-2.283.307l-5.5.6-2.446,1.331.768-1.679-2.6.154-3.071,1.975,2.139,1.075h5.036l2.743,1.024,2.293-.911,2.436.911,2.907.921-3.511,1.1-3.071,1.443-3.071.665-2.436.911,1.024,2.139,6.407-.154,4.043,2.487h3.357L188.862,35l.757-1.372,1.535-.307-1.228-1.679-.45-1.269H191.3l1.535,1.116c1.218.921,3.808-1.116,3.808-1.116l3.818-1.443-4.729-1.4L194.2,26.008c.45-.921-5.036-2.293-5.036-2.293l-4.278-2.59-1.024-1.075h-3.634l2.9-1.218,7.165.757,3.664-.757,8.393-2.139,5.64-1.372,4.094-1.525-4.739-.737s-3.357.921-3.818.921-4.422.307-4.882.307H187.961l-3.347.757,3.071.768-1.832,1.024h-3.2l-1.832.614,2.436-1.832L180.663,15l-3.2.768-3.971,2.283,1.832.614,2.6-1.024,2.129.45-2.283.614-.921,1.218,1.525.461-4.094.307-7.165-1.218-2.9,3.5-5.8,4.094,1.525,1.218-1.024.645-1.372.727-3.971-.727-5.486,1.443-10.072,2.487-33.664,32.4-13.429,17.5L83.14,129.457l13.726-4.575L99,127.164l3.664.614,2.446,1.525,2.59-1.024,2.139,2.139,4.729,2.59,4.575.614,1.372,4.575s3.2,2.9,3.071,3.511,1.024,3.357,1.679,3.357a31.127,31.127,0,0,1,4.432,1.986l2.59.3,1.024-2.283h2.293v2.283l.921,1.228.3,3.5.921,2.6-1.525,1.679-2.446,3.071-3.071,4.248.307,4.094-.768,2.743,2.293.768-1.986,2.743a33.317,33.317,0,0,1,1.024,3.511,31.131,31.131,0,0,0,1.679,3.818l2.139,1.832.921,3.071,5.189,10.676L145.156,200l5.343,2.743s3.357,3.664,3.511,4.094S155.842,214,155.842,214l-.072,3.767,1.024,3.961.307,4.432.461,6.141,1.525,4.882,1.372,6.407-1.679,2.139,1.024,3.163,1.228,4.616,2.129,2.293-.143,3.664.45,3.654,9.468,10.072,1.822,1.986V270.45l3.071-1.771v-2.8l-3.071-1.372v-2.139l1.5-1.372,1.515-2.446v-1.986c1.259-.45,0-1.832,0-1.832h-2.1l-.154-1.975h1.986l.819,1.218,1.617-1.218-1.218-2.446c.307-.757,2.446,0,2.446,0l3.654-2.139,1.525-1.822V243.9l-1.74-1.566-1.535-2.446h1.832s2.753,1.382,3.664,0,2.293-3.2,2.293-3.2l1.679-3.961s3.2-5.8,3.511-6.264,0-6.141,0-6.141l5.036-4.094h3.357l2.743-4.585,2.139-3.009V203.51l.757-4.882-1.2-4.77,4.268-5.65,3.2-3.071-1.218-5.64Zm34-119.9,1.024.6,1.392-1.208H252.9l1.822-.614.819-1.126-.389-1.556.778-.829c.092-1.259-1.9-2.17-1.9-2.17H252.9l-1.392,1.607h-1.474l-.522,1.822L249.732,54l-1.218.757Zm9.212-11.535-1.556.7V47.6l.174.6a6.509,6.509,0,0,1,.174,1.474l1.126.778,1.126.7.522,1.024s-.174,1.024-.778,1.024l-1.392.44.522.952s-1.024.522-1.126.952l.952.7-.87.87h-1.9v1.024h3.992l1.648-1.024,2.426.43s2-.43,2.426-.43l-.348-.44.614-.778.952-1.126-1.218-.491-1.382-.43.174-1.474-1.31-1.024-1.986-1.085-.174-2,.174-1.73h-2.047l-.43-.87,1.208-1.126Zm11.361,7.462v-.655h1.392l.778-.563v-2.17l1.024-.522-.348-1.73-1.627-.573-2.426.778V47.86l-1.474.174-.348,1.167,1.024.481-1.648.952-.44.737,1.392,1.259ZM356.5,104.605l5.732,3.071,2.958-1.146,1.965,2.784,5.251,1.157,2.293,1.146,6.4-16.888-1.832-9L350.6,38.833l-8.557-6.325H331.718l-4.6.655-1.146,2.3-2.446-.911-1.157-2.047h-2.3l1.024,1.024.829,1.648h-3.613v2.037l-2.579-.379-1.566-.235-.88.44.819.5,1.136.256-1.024.379-1.372-.553-1.709-.573-.512-1.136-1.259-1.024L307.91,34.7l-1.024-1.2,2.231.194,1.965.88,1.638.194s1.024-.256,1.136-.072a12.406,12.406,0,0,0,2.405.512l1.331-1.024-2.252-1.679-3.992-1.177s-6.7-.921-7.021-.9a29.5,29.5,0,0,1-2.845-.87l-2.334-.573h-5.118l-7.779,1.443-4.3,2.733-5.118,4.616s-4.422.635-4.678.7a20.926,20.926,0,0,0-2.047,1.955l1.024,2.221-.256,1.024.7.563.512,1.024.7,1.024,2.59-.379,2.784-1.576,2.149,1.136,1.648,2.845.307,1.709,1.965.379,1.331-1.136,1.392-.317.757-2.283.123-1.771,1.9-.563V43.162l-.7-.5-.89-.573-.317-2.047,2.9-1.832s1.535-1.392,1.535-1.638.757-1.085.757-1.085,1.208.072,1.586.133,2.4.757,2.4.757l.768.573-2.344,1.136-1.382,1.392-1.024.7.952,2.211,2.467,1.269,2.211-.45,3.511-.174s4.023.809,4.207.942-1.157.563-1.157.563l-1.566.44-.88.573-1.494-.757a3.869,3.869,0,0,0-2.047-.7,4.186,4.186,0,0,0-1.709.757l.952,1.453,1.32.89s-.563,1.638-.942,1.576-1.024-1.2-1.024-1.2L296.354,47l-.942.573.123,1.392-.409,1.965-1.576,1.024-1.146.89-1.515-.89-1.955.573-3.419-.194-.757.7-1.208-.5s-2.968.123-3.163.184a10.87,10.87,0,0,1-1.955-.88l-.757-1.709.942-1.136-.44-.512-.379-.942.635-.768-.952-.246L275.9,48.1l-.072,1.525s.829,1.453.89,1.638a11.168,11.168,0,0,1,.061,1.331l-1.576.635-1.709.5.317.635,1.771.317-.573,1.024-1.024.061-.5,1.269-.317.7-1.392-.379.061-.89.061-1.136-.563-.573-.829.89-.88,1.136-2.047.379-.952.757L266,59.3l-1.515.7-1.2.757-1.842-.942-.246.44.379.942-.44.512-2.405-.194L257.4,61.33,257.2,63.1l2.344.379,1.136,1.024s.891,1.075,1.075,1.075,1.464.317,1.464.317l-.512,2.784-1.136,2.59-4.749-.061-5.179-.123L250,71.709l-.512,1.453.45,1.525-.921,2.856-.379,1.525a7.165,7.165,0,0,0,.174,1.546c.133.184.89,1.515.89,1.515l-.573,2.149,1.709.512,2.845.184,1.515.829,1.146.184,1.894-.819,2.845-.379,2.661-2.221-.44-2.712,1.638-2.047,3.48-2.211,1.515-.512-.184-2.272,2.047-1.208,2.047.7,1.392-.757,4.278-1.31,4.237,3.93,5.814,3.982s1.208,2.405,1.269,2.59a7.983,7.983,0,0,1-.89,1.648h-3.265l-1.228.276s.379.942.624.942,2.856,1.208,2.856,1.208l.819.635.44-.133-.061-1.2.256-1.136.88.123a7.955,7.955,0,0,0,.952-1.269,18.345,18.345,0,0,1,.88-1.638l-.7-1.331.389-.89,1.023.133.123,1.32h.379l-.123-1.638-1.024-.635-1.372-.911-.952-1.382-1.648-.45-1.894-1.331-.44-1.515-1.771-.88-.461-1.392.512-1.453,1.136-.194.061,1.392,1.136.379.768-.44,1.136,2.047,2.334,1.32,1.842,1.024,1.136.133,1.894,2.047.45,2.651,3.541,3.675.5,2.59,2.528,1.771.7-.573-.379-1.638,1.392-.757-.44-1.146-1.4-.481L302.9,80.5l.256-1.842-.819-.942.757.123.563.7.89-1.2,1.515.061,1.525.635,1.136,1.556,1.136,1.771s-.757.44-.819.635a5.894,5.894,0,0,0,.635,1.392l1.453,1.32,1.136,1.6,2.272-.061.256,1.024,1.648.184,1.576-.379.45-1.024.7.952,1.832.635,1.576-.123,1.331-1.464,1.2.512.891.563-.317,1.269.788,2.6-1.146,2.631v3.439h-6.909l-2.62,1.024-4.248-2.119-2.784.328L304,94.575h-3.767L299.087,95.6l.655,1.8-1.474,1.474-3.777-2.293-2.948.328L290.4,94.943l-4.432-1.31-3.071-1.484-2.354-1.157,2.784-3.275-.819-2.784-1.965-1.157L268.893,85.1l-4.585,1.8-2.958.164-3.071,1.146-3.767-.819-2.467,2.948L249.1,92.3l-2.661,5.578.7,2.456-3.439,3.286-3.439,1.31L238.616,108s-3.613,8.035-3.941,8.69,0,4.759,0,4.759l1.474,4.749-3.439,8.035,1.31,3.941,1.8,3.6,4.759,6.725-.143,3.378,9.806,7.462,6.571-2.641,6.326,2.006L271,154.452s2.631,0,3.449,1.474,1.31,2.784,4.258,2.784S283.14,162,283.14,162l-1.31,3.767.655,1.965-1.31,3.071,3.071,6.387,2.293,4.923,2.139,4.759.491,6.059-.491,3.449-3.777,6.561,1.146,10.164,1.31,2.293-.491,1.638,2.3,2.467,1.474,5.732-1.31,5.415,1.965,4.094s1.8,4.432,1.965,4.923,1.31,2.129,1.146,2.948-.655,2.958-.655,2.958l.655,3.275h8.362l3.941-1.31,9.672-9.836a34.16,34.16,0,0,0,2.456-3.286c.164-.491,1.474-6.551,1.474-6.551l6.888-2.794v-5.353l-1.474-4.268,3.6-3.439,9.683-5.578.819-4.268v-7.37l-1.812-5.578.491-3.439-1.679-1.484,3.122-4.585,1.146-6.07,4.585-2.784,1.024-2.794,8.362-8.669,2.631-8.25,2.456-4.555v-4.923l-2.293-.819-2.631,2.129-3.6.328-3.767,1.024-3.122-1.975.328-2.456-3.93-4.422-3.941-2.3-1.8-5.9-3.849-3.664-.328-4.585-2.794-4.094-3.439-7.7-3.613-3.6-.328-2.958,1.484.665,1.638,1.31.655,2.456c1.31,0,1.8-2.456,1.8-2.456l1.146,2.456,1.146,3.071,3.613,5.415,1.965.328,2.293,4.759-.164,2.129,6.561,6.725,1.146,6.223,1.146,2.794,2.139,2.129,9.836-2.62,1.8-1.648,4.258-1.31v-1.965l4.923-3.275,2.047-3.808,1.187-1.935,1.648-2.293-2.712-3.736-3.787-3.2-1.208-3.071-1.392.328L363.2,113.08l-3.767,1.024-1.965-1.31-.655-2.784-1.31.328-1.975-3.613-1.8-1.024-2.293-3.767,1.638-1.812ZM279.732,80.47l.348-1.566V76.653a2.528,2.528,0,0,0-1.259-.6,1.371,1.371,0,0,0-.911.348V78.9a4.658,4.658,0,0,1,0,1.566Zm0-6.766a1.024,1.024,0,0,0-1.218-1.126l-.6,1.73.6,1.3h1.218ZM235,28.935h6.141l3.347-4.821H252.2l1.238-3.071,4.739-2.508c2.242-1.955,0-5.5,0-5.5l-9.662-1.208-9.6,1.228-13.961-2.6-8.608,3.91s-6.192,3.347-7.032,3.071a29.857,29.857,0,0,0-5.026,0s3.071,2.784,4.463,3.071a10.1,10.1,0,0,0,3.071,0s0,2.723.563,3.347c1.955,2.242-2.047,3.91-2.047,3.91v2.641s.44,4.985,1.269,4.759,2.19,2.651,2.19,2.651l2.569,2.794h4.7l5.865-6.981,5.773-2.508ZM355.628,195.916l-.757-2.047-.87.86-.757,1.74-1.73,1.024-.757,2.283-1.085,2.7-4.227,1.3-1.842,3.142-.43,5.2-1.515,2.579-1.73,1.842.645,3.071,1.2,1.412-1.2,1.617,1.2,1.024h4l2.272-3.357s1.842-3.9,1.842-4.227.87-3.9.87-3.9l3.132-4.094v-5.67h2.17l-.645-4.012ZM136.989,112.855l-4.749-1.617s-1.32.184-2.866.553a17.225,17.225,0,0,0-3.316,1.024l6.735,2.293h2.723l4.545,3.91h3.071s2.508-1.116,1.668-3.071l-3.9-1.4Z" transform="translate(-82.065 0.246)" fill="#c73c3c"/>
    </g>
    <path id="Path_597" data-name="Path 597" d="M252.029,273.583A154.975,154.975,0,0,1,103.616,74.34,154.9,154.9,0,1,0,385.4,197.482,154.79,154.79,0,0,1,252.029,273.583Z" transform="translate(1.932 1.75)" opacity="0.05"/>
    <path id="Path_598" data-name="Path 598" d="M27.82,500.914,0,485,41.638,461.16l27.82,15.916Z" transform="translate(0 10.857)" fill="#d6d8e5" opacity="0.4"/>
    <path id="Path_599" data-name="Path 599" d="M28.28,469.262,5.24,455.956l23.04-13.3,23.04,13.3Z" transform="translate(0.123 10.422)" fill="#e9eaf4"/>
    <path id="Path_600" data-name="Path 600" d="M28.28,495.558,5.24,482.252v-26.6l23.04,13.306Z" transform="translate(0.123 10.727)" fill="#c5c7d3"/>
    <path id="Path_601" data-name="Path 601" d="M50.79,482.252,27.75,495.558v-26.6L50.79,455.65Z" transform="translate(0.653 10.727)" fill="#d5d6e0"/>
    <g id="Men_5" transform="translate(7.165 394.725)">
      <path id="Path_602" data-name="Path 602" d="M58.02,473.524a7.912,7.912,0,0,0,5.937-.716c1.423,0,9.212-3.286,10.235-.491.921,2.436-2.436,4.7-4.237,5.118-3.92.952-6.817,2.907-8.393,3.234-1.177.246-2.692.409-3.623-.512C56.823,479.071,56.925,474.977,58.02,473.524Z" transform="translate(-5.819 -383.632)" fill="#38226d"/>
      <path id="Path_603" data-name="Path 603" d="M61.565,479.976c1.576-.338,4.473-2.283,8.393-3.234,1.5-.368,4.094-2.047,4.36-3.971.348,2.242-2.682,4.237-4.36,4.647-3.92.952-6.817,2.907-8.393,3.234-1.177.246-2.692.409-3.623-.512a2.283,2.283,0,0,1-.512-.942,4.678,4.678,0,0,0,4.135.778Z" transform="translate(-5.813 -383.595)" fill="#9c73ff"/>
      <path id="Path_604" data-name="Path 604" d="M44.35,466.244a7.861,7.861,0,0,0,5.937-.716c1.423,0,9.212-3.286,10.235-.491.931,2.446-2.436,4.708-4.227,5.118-3.92.952-6.817,2.907-8.393,3.234-1.177.246-2.692.409-3.623-.512C43.152,471.791,43.255,467.7,44.35,466.244Z" transform="translate(-6.141 -383.803)" fill="#38226d"/>
      <path id="Path_605" data-name="Path 605" d="M47.9,472.7c1.576-.328,4.473-2.283,8.393-3.234,1.5-.368,4.094-2.047,4.36-3.971.348,2.252-2.682,4.237-4.36,4.647-3.92.952-6.817,2.907-8.393,3.234-1.177.246-2.692.409-3.623-.512a2.313,2.313,0,0,1-.522-.931,4.729,4.729,0,0,0,4.145.768Z" transform="translate(-6.135 -383.766)" fill="#9c73ff"/>
      <path id="Path_606" data-name="Path 606" d="M23.248,457.428c6.049,2.661,11.761,3.071,16.428.573l4.821-2.784c.287,6.223.563,12.2.563,12.2s3.695,2.8,6.571.307c0,0,.6-8.741,1.218-17.329l5.087-2.948a6.264,6.264,0,0,0-.184,1.4c0,1.638,1.167,25.9,1.167,25.9s3.726,2.221,6.6-.276c0,0,1.934-28.117,2.385-32.61.5-5.046-5.118-7.533-8.659-6.244l-5.425,2.047c.113-1.412.2-2.508.266-3.122.5-5.056-5.118-7.543-8.649-6.254-3.234,1.177-25.067,9.365-25.067,9.365a56.07,56.07,0,0,0,.768,6.264l-8.618-.727C11.989,451.3,17.239,454.767,23.248,457.428Zm15.107-13.971,5.773-3.337a7.564,7.564,0,0,0-.194,1.238Z" transform="translate(-6.871 -384.65)" fill="#c73c3c"/>
      <path id="Path_607" data-name="Path 607" d="M7.89,418.79s.706,10.737,2.119,12.283,6.141,2.6,6.141,2.6l3.664,6.039s-3.347-19.181-4.094-19.642S7.89,418.79,7.89,418.79Z" transform="translate(-6.979 -384.866)" fill="#ffcea9"/>
      <path id="_Контур_" data-name="&lt;Контур&gt;" d="M14.963,407.159A4.023,4.023,0,0,0,9.845,408.7C8.5,410.935,7.1,418.6,7,419.912c0,0,1.894,2.62,4.729,2.18Z" transform="translate(-7 -385.148)" fill="#ededed"/>
      <path id="_Контур_2" data-name="&lt;Контур&gt;" d="M16.023,407.76c1.853.092,3.234.573,3.46,0a23.419,23.419,0,0,0,.43-2.9c-.215-.532-.4-1.116-.4-1.116-2.334-1.433-3.071-3.951-3.367-6.878-.522-5.005,2.18-9.4,7.165-9.918,4.708-.491,8.188,2.815,9.1,7.359.5,2.252,1.494,6.489.154,10.174-.747,2.047-1.72,3.705-2.682,4.022a22.517,22.517,0,0,1-2.784-.246h0s-.246,1.392-.42,2.293-.1,1.361,1.668,2.457-2.682,3.347-5.6,3.122-6.2-1.975-7.1-3.869C14.7,410.186,14.785,407.7,16.023,407.76Z" transform="translate(-6.811 -385.616)" fill="#ffcea9"/>
      <g id="_Группа_" data-name="&lt;Группа&gt;" transform="translate(19.248 24.841)">
        <g id="_Группа_2" data-name="&lt;Группа&gt;">
          <g id="_Группа_3" data-name="&lt;Группа&gt;" transform="translate(0 17.65)">
            <path id="_Контур_3" data-name="&lt;Контур&gt;" d="M62.78,439.429h0a1.5,1.5,0,0,1-.747,1.3L47.9,448.917a1.515,1.515,0,0,1-1.5,0L26.577,437.453a1.494,1.494,0,0,1-.757-1.3V436Z" transform="translate(-25.805 -426.952)" fill="#e5e5e5"/>
            <path id="_Контур_4" data-name="&lt;Контур&gt;" d="M61.543,440.649l-14.135,8.188a1.515,1.515,0,0,1-.757.194V439.37H62.29A1.5,1.5,0,0,1,61.543,440.649Z" transform="translate(-25.314 -426.873)" fill="#e5e5e5"/>
            <g id="_Группа_4" data-name="&lt;Группа&gt;">
              <path id="_Контур_5" data-name="&lt;Контур&gt;" d="M47.673,448.358a1.023,1.023,0,0,1-1.024,0L26,436.464c-.266-.143-.266-.389,0-.542l15.159-8.762,21.6,12.477Z" transform="translate(-25.805 -427.16)" fill="#f4f4f4"/>
            </g>
            <g id="_Группа_5" data-name="&lt;Группа&gt;" transform="translate(8.675 10.328)">
              <path id="_Контур_6" data-name="&lt;Контур&gt;" d="M34.28,439.4l.1.051,6.6,3.818,3.623-2.1.1-.051-6.7-3.869Z" transform="translate(-34.28 -437.25)" fill="#bfbfbf"/>
              <path id="_Контур_7" data-name="&lt;Контур&gt;" d="M34.38,439.448l6.6,3.818,3.623-2.1L38,437.36Z" transform="translate(-34.278 -437.247)" fill="#e5e5e5"/>
            </g>
            <path id="Path_608" data-name="Path 608" d="M56.461,440.017l.952.553a.358.358,0,0,0,.307,0l.911-.522c.092,0,.092-.133,0-.174l-.952-.553a.327.327,0,0,0-.307,0l-.9.522C56.4,439.843,56.389,439.914,56.461,440.017Z" transform="translate(-25.084 -426.875)" fill="#3a2c6d"/>
            <path id="Path_609" data-name="Path 609" d="M55.151,439.207l.952.553a.338.338,0,0,0,.3,0l.911-.522c.092-.051.1-.133,0-.174l-.952-.553a.307.307,0,0,0-.3,0l-.911.522C55.08,439.084,55.069,439.156,55.151,439.207Z" transform="translate(-25.115 -426.894)" fill="#3a2c6d"/>
            <path id="Path_610" data-name="Path 610" d="M53.831,438.447l.952.553a.358.358,0,0,0,.307,0l.9-.522c.092-.051.1-.133,0-.174l-.952-.553a.327.327,0,0,0-.307,0l-.911.522A.106.106,0,0,0,53.831,438.447Z" transform="translate(-25.146 -426.912)" fill="#3a2c6d"/>
            <path id="Path_611" data-name="Path 611" d="M52.521,437.687l.952.553a.338.338,0,0,0,.3,0l.911-.522c.092-.051.1-.133,0-.174l-.952-.553a.327.327,0,0,0-.307,0l-.9.522C52.45,437.564,52.439,437.636,52.521,437.687Z" transform="translate(-25.177 -426.929)" fill="#3a2c6d"/>
            <path id="Path_612" data-name="Path 612" d="M51.2,436.927l.952.553a.338.338,0,0,0,.3,0l.911-.522c.092-.051.1-.133,0-.174l-.952-.553a.307.307,0,0,0-.3,0l-.911.522C51.13,436.8,51.119,436.876,51.2,436.927Z" transform="translate(-25.208 -426.947)" fill="#3a2c6d"/>
            <path id="Path_613" data-name="Path 613" d="M49.881,436.167l.952.553a.358.358,0,0,0,.307,0l.911-.522c.082-.051.092-.133,0-.174l-.952-.553a.327.327,0,0,0-.307,0l-.911.522C49.82,436.013,49.81,436.116,49.881,436.167Z" transform="translate(-25.239 -426.965)" fill="#3a2c6d"/>
            <path id="Path_614" data-name="Path 614" d="M48.571,435.407l.952.553a.338.338,0,0,0,.3,0l.911-.522c.092,0,.1-.133,0-.174l-.952-.553a.327.327,0,0,0-.307,0l-.9.522C48.5,435.284,48.489,435.356,48.571,435.407Z" transform="translate(-25.27 -426.983)" fill="#3a2c6d"/>
            <path id="Path_615" data-name="Path 615" d="M47.251,434.647l.952.553a.358.358,0,0,0,.307,0l.9-.522c.092-.051.1-.133,0-.174l-.952-.553a.307.307,0,0,0-.3,0l-.911.522C47.18,434.524,47.169,434.6,47.251,434.647Z" transform="translate(-25.301 -427.001)" fill="#3a2c6d"/>
            <path id="Path_616" data-name="Path 616" d="M45.931,433.887l.952.553a.358.358,0,0,0,.307,0l.911-.522c.082-.051.092-.133,0-.174l-.952-.553a.327.327,0,0,0-.307,0l-.911.522A.1.1,0,0,0,45.931,433.887Z" transform="translate(-25.332 -427.019)" fill="#3a2c6d"/>
            <path id="Path_617" data-name="Path 617" d="M44.621,433.127l.952.553a.338.338,0,0,0,.3,0l.911-.522c.092-.051.1-.133,0-.174l-.952-.553a.338.338,0,0,0-.3,0l-.911.532C44.55,433.014,44.539,433.076,44.621,433.127Z" transform="translate(-25.363 -427.037)" fill="#3a2c6d"/>
            <path id="Path_618" data-name="Path 618" d="M43.3,432.367l.952.553a.358.358,0,0,0,.307,0l.9-.522c.092-.051.1-.133,0-.174l-.952-.553a.338.338,0,0,0-.3,0l-.911.532C43.23,432.244,43.219,432.316,43.3,432.367Z" transform="translate(-25.394 -427.055)" fill="#3a2c6d"/>
            <path id="Path_619" data-name="Path 619" d="M42,431.607l.952.553a.358.358,0,0,0,.307,0l.911-.522c.082-.051.092-.133,0-.174l-.952-.553a.358.358,0,0,0-.307,0l-.9.532C41.92,431.484,41.909,431.556,42,431.607Z" transform="translate(-25.425 -427.073)" fill="#3a2c6d"/>
            <path id="Path_620" data-name="Path 620" d="M40.671,430.847l.952.543a.307.307,0,0,0,.3,0l.911-.522c.092,0,.1-.133,0-.174l-.952-.553a.338.338,0,0,0-.3,0l-.911.532C40.6,430.724,40.589,430.8,40.671,430.847Z" transform="translate(-25.456 -427.091)" fill="#3a2c6d"/>
            <path id="Path_621" data-name="Path 621" d="M38.721,429.717l1.6.921a.327.327,0,0,0,.307,0l.9-.522c.092-.051.1-.133,0-.174l-1.607-.921a.307.307,0,0,0-.3,0l-.911.522C38.65,429.594,38.639,429.676,38.721,429.717Z" transform="translate(-25.502 -427.117)" fill="#3a2c6d"/>
            <path id="Path_622" data-name="Path 622" d="M53.241,439.577l.952.543a.307.307,0,0,0,.3,0l.911-.522c.092-.051.1-.133,0-.174l-.952-.553a.358.358,0,0,0-.307,0l-.9.532C53.17,439.454,53.159,439.526,53.241,439.577Z" transform="translate(-25.16 -426.885)" fill="#3a2c6d"/>
            <path id="Path_623" data-name="Path 623" d="M51.921,438.817l.952.542a.307.307,0,0,0,.3,0l.911-.522c.092-.051.1-.133,0-.174l-.952-.553a.338.338,0,0,0-.3,0l-.911.532C51.85,438.694,51.839,438.766,51.921,438.817Z" transform="translate(-25.192 -426.903)" fill="#3a2c6d"/>
            <path id="Path_624" data-name="Path 624" d="M50.6,438.017l.952.542a.307.307,0,0,0,.3,0l.911-.522c.092-.051.1-.133,0-.174l-.952-.553a.338.338,0,0,0-.3,0l-.911.522C50.53,437.925,50.519,438.017,50.6,438.017Z" transform="translate(-25.223 -426.922)" fill="#3a2c6d"/>
            <path id="Path_625" data-name="Path 625" d="M49.281,437.287l.952.553a.358.358,0,0,0,.307,0l.9-.522c.092-.051.1-.133,0-.174l-.952-.553a.307.307,0,0,0-.3,0l-.911.522C49.21,437.164,49.2,437.246,49.281,437.287Z" transform="translate(-25.254 -426.939)" fill="#3a2c6d"/>
            <path id="Path_626" data-name="Path 626" d="M48,436.537l.952.553a.358.358,0,0,0,.307,0l.9-.522c.092,0,.1-.133,0-.174l-.952-.553a.327.327,0,0,0-.307,0l-.911.522C47.91,436.414,47.9,436.486,48,436.537Z" transform="translate(-25.284 -426.957)" fill="#3a2c6d"/>
            <path id="Path_627" data-name="Path 627" d="M46.651,435.777l.952.543a.327.327,0,0,0,.307,0l.911-.522c.082,0,.092-.133,0-.174l-.952-.553a.358.358,0,0,0-.307,0l-.911.532A.1.1,0,0,0,46.651,435.777Z" transform="translate(-25.315 -426.975)" fill="#3a2c6d"/>
            <path id="Path_628" data-name="Path 628" d="M45.331,435.017l.952.542a.327.327,0,0,0,.307,0l.911-.522c.092-.051.092-.133,0-.174l-.952-.553a.358.358,0,0,0-.307,0l-.9.522C45.27,434.894,45.259,435.017,45.331,435.017Z" transform="translate(-25.346 -426.992)" fill="#3a2c6d"/>
            <path id="Path_629" data-name="Path 629" d="M44,434.247l.952.553a.307.307,0,0,0,.3,0l.911-.522c.092-.051.1-.133,0-.174l-.952-.553a.358.358,0,0,0-.307,0l-.9.522C44,434.124,43.939,434.206,44,434.247Z" transform="translate(-25.377 -427.01)" fill="#3a2c6d"/>
            <path id="Path_630" data-name="Path 630" d="M42.7,433.487l.952.553a.338.338,0,0,0,.3,0l.911-.522c.092-.061.1-.133,0-.184l-.952-.542a.307.307,0,0,0-.3,0l-.911.522C42.63,433.364,42.619,433.446,42.7,433.487Z" transform="translate(-25.409 -427.028)" fill="#3a2c6d"/>
            <path id="Path_631" data-name="Path 631" d="M41.381,432.727l.952.553a.338.338,0,0,0,.3,0l.911-.532c.092-.051.1-.123,0-.174l-.952-.542a.307.307,0,0,0-.3,0l-.911.522C41.31,432.6,41.3,432.686,41.381,432.727Z" transform="translate(-25.44 -427.046)" fill="#3a2c6d"/>
            <path id="Path_632" data-name="Path 632" d="M40.061,432.017l.952.553a.358.358,0,0,0,.307,0l.9-.532c.092,0,.1-.123,0-.174l-.952-.553a.338.338,0,0,0-.3,0l-.911.522C40,431.843,40,431.925,40.061,432.017Z" transform="translate(-25.47 -427.063)" fill="#3a2c6d"/>
            <path id="Path_633" data-name="Path 633" d="M38.741,431.207l.952.553a.358.358,0,0,0,.307,0l.9-.522c.092-.051.1-.133,0-.174l-.952-.553a.358.358,0,0,0-.307,0l-.911.522C38.67,431.084,38.659,431.166,38.741,431.207Z" transform="translate(-25.502 -427.082)" fill="#3a2c6d"/>
            <path id="Path_634" data-name="Path 634" d="M54.551,440.337l1.607.921a.307.307,0,0,0,.3,0l.911-.522c.092-.051.1-.133,0-.174l-1.6-.931a.358.358,0,0,0-.307,0l-.9.522C54.49,440.214,54.479,440.3,54.551,440.337Z" transform="translate(-25.129 -426.867)" fill="#3a2c6d"/>
            <path id="Path_635" data-name="Path 635" d="M38.69,429.741l.952.553c.082,0,.082.113,0,.154l-.962.563a.327.327,0,0,1-.276,0l-.082-.051a.287.287,0,0,0-.256,0l-1.024.594a.348.348,0,0,1-.287,0l-.6-.348c-.082-.051-.082-.123,0-.164l.952-.553.194-.113.143-.082.143-.082.819-.471a.3.3,0,0,1,.287,0Z" transform="translate(-25.563 -427.1)" fill="#3a2c6d"/>
            <path id="Path_636" data-name="Path 636" d="M51.361,442.907l.952.553a.338.338,0,0,0,.3,0l.911-.532c.092,0,.1-.123,0-.174l-.952-.542a.327.327,0,0,0-.307,0l-.9.522C51.29,442.784,51.279,442.866,51.361,442.907Z" transform="translate(-25.205 -426.807)" fill="#3a2c6d"/>
            <path id="Path_637" data-name="Path 637" d="M50,442.147l.952.553a.328.328,0,0,0,.307,0l.911-.522c.082,0,.092-.133,0-.174l-.952-.553a.358.358,0,0,0-.307,0l-.911.522Z" transform="translate(-25.235 -426.824)" fill="#3a2c6d"/>
            <path id="Path_638" data-name="Path 638" d="M48.731,441.4l.952.543a.328.328,0,0,0,.307,0l.9-.522c.092-.051.1-.133,0-.174l-.952-.553a.338.338,0,0,0-.3,0l-.911.532C48.66,441.274,48.649,441.346,48.731,441.4Z" transform="translate(-25.267 -426.842)" fill="#3a2c6d"/>
            <path id="Path_639" data-name="Path 639" d="M37.551,434.937l.952.553a.358.358,0,0,0,.307,0l.9-.532c.092-.051.1-.123,0-.174l-.952-.542a.327.327,0,0,0-.307,0l-.911.522A.1.1,0,0,0,37.551,434.937Z" transform="translate(-25.53 -426.994)" fill="#3a2c6d"/>
            <path id="Path_640" data-name="Path 640" d="M36.241,434.177l.952.553a.307.307,0,0,0,.3,0l.911-.522c.092-.051.1-.133,0-.174l-.952-.553a.338.338,0,0,0-.3,0l-.911.522C36.17,434.013,36.159,434.136,36.241,434.177Z" transform="translate(-25.561 -427.012)" fill="#3a2c6d"/>
            <path id="Path_641" data-name="Path 641" d="M34.931,433.427l.952.543a.307.307,0,0,0,.3,0l.911-.522c.092-.051.1-.133,0-.174l-.952-.553a.358.358,0,0,0-.307,0l-.9.532C34.86,433.3,34.849,433.376,34.931,433.427Z" transform="translate(-25.591 -427.03)" fill="#3a2c6d"/>
            <path id="Path_642" data-name="Path 642" d="M33.611,432.667l.952.553a.358.358,0,0,0,.307,0l.911-.522c.082-.051.092-.133,0-.174l-.952-.553a.327.327,0,0,0-.307,0l-.911.522A.1.1,0,0,0,33.611,432.667Z" transform="translate(-25.622 -427.048)" fill="#3a2c6d"/>
            <path id="Path_643" data-name="Path 643" d="M47.081,440.437l1.3.757a.338.338,0,0,0,.3,0l.911-.522c.092-.051.1-.133,0-.174l-1.3-.747a.307.307,0,0,0-.3,0l-.911.522A.085.085,0,0,0,47.081,440.437Z" transform="translate(-25.306 -426.864)" fill="#3a2c6d"/>
            <path id="Path_644" data-name="Path 644" d="M38.861,435.7l1.3.747a.327.327,0,0,0,.307,0l.911-.522c.082-.051.092-.133,0-.174L40.1,435a.358.358,0,0,0-.307,0l-.9.522C38.8,435.574,38.789,435.656,38.861,435.7Z" transform="translate(-25.499 -426.976)" fill="#3a2c6d"/>
            <path id="Path_645" data-name="Path 645" d="M40.511,436.647l6.336,3.654a.307.307,0,0,0,.3,0l.911-.522c.092-.051.1-.133,0-.174l-6.325-3.654a.327.327,0,0,0-.307,0l-.9.522C40.45,436.524,40.439,436.606,40.511,436.647Z" transform="translate(-25.46 -426.954)" fill="#3a2c6d"/>
            <path id="Path_646" data-name="Path 646" d="M51.6,440.107l.952.542a.327.327,0,0,0,.307,0l.911-.522c.082-.051.092-.133,0-.174l-.952-.553a.358.358,0,0,0-.307,0l-.911.532C51.54,440.015,51.529,440.015,51.6,440.107Z" transform="translate(-25.199 -426.873)" fill="#3a2c6d"/>
            <path id="Path_647" data-name="Path 647" d="M50.291,439.347l.952.553a.338.338,0,0,0,.3,0l.911-.522c.092,0,.1-.133,0-.174l-.952-.553a.307.307,0,0,0-.3,0l-.911.522C50.22,439.224,50.209,439.3,50.291,439.347Z" transform="translate(-25.23 -426.89)" fill="#3a2c6d"/>
            <path id="Path_648" data-name="Path 648" d="M49,438.587l.952.553a.358.358,0,0,0,.307,0l.911-.522c.082-.051.092-.133,0-.174l-.952-.553a.358.358,0,0,0-.307,0l-.911.522C48.91,438.464,48.9,438.546,49,438.587Z" transform="translate(-25.261 -426.908)" fill="#3a2c6d"/>
            <path id="Path_649" data-name="Path 649" d="M47.661,437.827l.952.553a.307.307,0,0,0,.3,0l.911-.522c.092-.051.1-.123,0-.174l-.952-.553a.338.338,0,0,0-.3,0l-.911.522C47.59,437.7,47.579,437.786,47.661,437.827Z" transform="translate(-25.292 -426.926)" fill="#3a2c6d"/>
            <path id="Path_650" data-name="Path 650" d="M46.341,437.067l.952.553a.358.358,0,0,0,.307,0l.911-.532c.082-.051.092-.123,0-.174l-.952-.543a.327.327,0,0,0-.307,0l-.911.522A.1.1,0,0,0,46.341,437.067Z" transform="translate(-25.323 -426.944)" fill="#3a2c6d"/>
            <path id="Path_651" data-name="Path 651" d="M45,436.307l.952.553a.338.338,0,0,0,.3,0l.911-.532c.092-.051.1-.123,0-.174l-.952-.542a.307.307,0,0,0-.3,0l-.911.522Z" transform="translate(-25.353 -426.962)" fill="#3a2c6d"/>
            <path id="Path_652" data-name="Path 652" d="M43.711,435.547l.952.553a.358.358,0,0,0,.307,0l.911-.532c.082-.051.092-.123,0-.174l-.952-.542a.327.327,0,0,0-.307,0l-.911.522C43.65,435.424,43.639,435.506,43.711,435.547Z" transform="translate(-25.385 -426.98)" fill="#3a2c6d"/>
            <path id="Path_653" data-name="Path 653" d="M42.4,434.787l.952.553a.338.338,0,0,0,.3,0l.911-.522c.092-.051.1-.133,0-.184l-.952-.542a.307.307,0,0,0-.3,0l-.911.522C42.33,434.664,42.319,434.746,42.4,434.787Z" transform="translate(-25.416 -426.998)" fill="#3a2c6d"/>
            <path id="Path_654" data-name="Path 654" d="M41.081,434.017l.952.553a.358.358,0,0,0,.307,0l.911-.522c.082,0,.092-.133,0-.174l-.952-.553a.327.327,0,0,0-.307,0l-.911.522C41,433.9,41,434.017,41.081,434.017Z" transform="translate(-25.447 -427.016)" fill="#3a2c6d"/>
            <path id="Path_655" data-name="Path 655" d="M39.771,433.277l.952.542a.307.307,0,0,0,.3,0l.911-.522c.092,0,.1-.133,0-.174l-.952-.553a.338.338,0,0,0-.3,0l-.911.522A.1.1,0,0,0,39.771,433.277Z" transform="translate(-25.478 -427.033)" fill="#3a2c6d"/>
            <path id="Path_656" data-name="Path 656" d="M38.451,432.517l.952.542a.327.327,0,0,0,.307,0l.911-.522c.082-.051.092-.133,0-.174l-.952-.553a.358.358,0,0,0-.307,0l-.911.522C38.39,432.394,38.38,432.466,38.451,432.517Z" transform="translate(-25.508 -427.051)" fill="#3a2c6d"/>
            <path id="Path_657" data-name="Path 657" d="M37.141,431.757l.952.542a.307.307,0,0,0,.3,0l.911-.522c.092-.051.1-.133,0-.174l-.952-.553a.338.338,0,0,0-.3,0l-.911.532C37.07,431.634,37.059,431.706,37.141,431.757Z" transform="translate(-25.539 -427.069)" fill="#3a2c6d"/>
            <path id="Path_658" data-name="Path 658" d="M52.921,440.866l1.965,1.177a.327.327,0,0,0,.307,0l.9-.522c.092-.051.1-.123,0-.174l-1.965-1.136a.338.338,0,0,0-.3,0l-.911.532C52.85,440.743,52.839,440.815,52.921,440.866Z" transform="translate(-25.168 -426.854)" fill="#3a2c6d"/>
            <path id="Path_659" data-name="Path 659" d="M51,441.217l.952.553a.338.338,0,0,0,.3,0l.911-.532c.092,0,.1-.123,0-.174l-.952-.543a.307.307,0,0,0-.3,0l-.911.491C50.91,441.094,50.9,441.176,51,441.217Z" transform="translate(-25.214 -426.846)" fill="#3a2c6d"/>
            <path id="Path_660" data-name="Path 660" d="M49.661,440.457l.952.553a.358.358,0,0,0,.307,0l.911-.532c.082-.051.092-.123,0-.174l-.952-.542a.327.327,0,0,0-.307,0l-.9.522C49.6,440.334,49.589,440.416,49.661,440.457Z" transform="translate(-25.245 -426.864)" fill="#3a2c6d"/>
            <path id="Path_661" data-name="Path 661" d="M48.351,439.7l.952.553a.338.338,0,0,0,.3,0l.911-.522c.092-.061.1-.133,0-.184L49.559,439a.307.307,0,0,0-.3,0l-.911.522C48.28,439.574,48.269,439.656,48.351,439.7Z" transform="translate(-25.276 -426.882)" fill="#3a2c6d"/>
            <path id="Path_662" data-name="Path 662" d="M47,438.937l.952.553a.358.358,0,0,0,.307,0l.911-.522c.092-.051.092-.133,0-.174l-.952-.553a.327.327,0,0,0-.307,0l-.9.522A1.053,1.053,0,0,0,47,438.937Z" transform="translate(-25.306 -426.9)" fill="#3a2c6d"/>
            <path id="Path_663" data-name="Path 663" d="M45.721,438.177l.952.553a.328.328,0,0,0,.307,0l.9-.522c.092-.051.1-.133,0-.174l-.952-.553a.338.338,0,0,0-.3,0l-.911.522C45.65,438.013,45.639,438.136,45.721,438.177Z" transform="translate(-25.337 -426.918)" fill="#3a2c6d"/>
            <path id="Path_664" data-name="Path 664" d="M44.4,437.427l.952.543a.327.327,0,0,0,.307,0l.911-.522c.092-.051.1-.133,0-.174l-.952-.553a.358.358,0,0,0-.307,0l-.9.532C44.34,437.3,44.329,437.376,44.4,437.427Z" transform="translate(-25.368 -426.936)" fill="#3a2c6d"/>
            <path id="Path_665" data-name="Path 665" d="M43.092,436.667l.952.543a.327.327,0,0,0,.307,0l.9-.522c.092-.051.1-.133,0-.174l-.952-.553a.338.338,0,0,0-.3,0l-.911.532C43,436.544,43,436.616,43.092,436.667Z" transform="translate(-25.4 -426.954)" fill="#3a2c6d"/>
            <path id="Path_666" data-name="Path 666" d="M41.781,435.907l.952.542a.307.307,0,0,0,.3,0l.911-.522c.092,0,.1-.133,0-.174l-.952-.553a.358.358,0,0,0-.307,0l-.9.532C41.71,435.784,41.7,435.856,41.781,435.907Z" transform="translate(-25.43 -426.971)" fill="#3a2c6d"/>
            <path id="Path_667" data-name="Path 667" d="M40.461,435.147l.952.553a.358.358,0,0,0,.307,0l.9-.522c.092-.051.1-.133,0-.174l-.952-.553a.327.327,0,0,0-.307,0l-.911.522A.1.1,0,0,0,40.461,435.147Z" transform="translate(-25.461 -426.989)" fill="#3a2c6d"/>
            <path id="Path_668" data-name="Path 668" d="M39.151,434.387l.952.553a.338.338,0,0,0,.3,0l.911-.522c.092-.051.1-.133,0-.174l-.952-.553a.358.358,0,0,0-.307,0l-.9.522C39.08,434.264,39.069,434.346,39.151,434.387Z" transform="translate(-25.492 -427.007)" fill="#3a2c6d"/>
            <path id="Path_669" data-name="Path 669" d="M37.831,433.627l.952.553a.358.358,0,0,0,.307,0l.9-.532c.092-.051.1-.123,0-.174l-.952-.542a.327.327,0,0,0-.307,0l-.911.522A.1.1,0,0,0,37.831,433.627Z" transform="translate(-25.523 -427.025)" fill="#3a2c6d"/>
            <path id="Path_670" data-name="Path 670" d="M34.891,431.927l2.62,1.515a.338.338,0,0,0,.3,0l.911-.532c.092-.051.1-.123,0-.174l-2.62-1.5a.307.307,0,0,0-.3,0l-.911.522C34.82,431.8,34.809,431.886,34.891,431.927Z" transform="translate(-25.592 -427.065)" fill="#3a2c6d"/>
            <path id="Path_671" data-name="Path 671" d="M52.291,442.017l1.3.747a.328.328,0,0,0,.307,0l.9-.522c.092-.051.1-.133,0-.174l-1.3-.757a.358.358,0,0,0-.307,0l-.911.522C52.23,441.853,52.22,441.935,52.291,442.017Z" transform="translate(-25.183 -426.828)" fill="#3a2c6d"/>
          </g>
          <g id="_Группа_6" data-name="&lt;Группа&gt;" transform="translate(15.379)">
            <g id="_Группа_7" data-name="&lt;Группа&gt;">
              <g id="_Группа_8" data-name="&lt;Группа&gt;">
                <path id="_Контур_8" data-name="&lt;Контур&gt;" d="M62.427,440.043h0l-21.6-12.477V410.585l.164-.389.184-.082h0a1.484,1.484,0,0,1,1.484,0l19.765,11.413a1.494,1.494,0,0,1,.747,1.29v15.937C63.041,439.572,62.887,439.777,62.427,440.043Z" transform="translate(-40.83 -409.916)" fill="#e5e5e5"/>
                <path id="_Контур_9" data-name="&lt;Контур&gt;" d="M60.451,423.574,40.83,411.148v-.563l.164-.389.184-.082a1.484,1.484,0,0,1,1.484,0l19.765,11.413a1.5,1.5,0,0,1,.573.583Z" transform="translate(-40.83 -409.916)" fill="#e5e5e5"/>
                <path id="_Контур_10" data-name="&lt;Контур&gt;" d="M41.332,410.191l20.737,11.975a.727.727,0,0,1,.358.624v17.247L40.83,427.56V410.478a.338.338,0,0,1,.5-.287Z" transform="translate(-40.83 -409.91)" fill="#dceeff"/>
                <path id="_Контур_11" data-name="&lt;Контур&gt;" d="M41.332,410.191l20.737,11.975a.727.727,0,0,1,.358.624v17.247L40.83,427.56V410.478a.338.338,0,0,1,.5-.287Z" transform="translate(-40.83 -409.91)" fill="#f4f4f4"/>
                <path id="_Контур_12" data-name="&lt;Контур&gt;" d="M62.427,439.651v-.624L40.83,426.56v.614Z" transform="translate(-40.83 -409.524)" fill="#dbdbdb"/>
              </g>
              <path id="_Контур_13" data-name="&lt;Контур&gt;" d="M41.38,426.638V411.06l.256.154v15.292Z" transform="translate(-40.817 -409.889)" fill="#1e3779"/>
              <path id="_Контур_14" data-name="&lt;Контур&gt;" d="M41.63,411.21V426.5l20.092,11.566V422.807Z" transform="translate(-40.811 -409.885)" fill="#3a2c6d"/>
              <path id="_Контур_15" data-name="&lt;Контур&gt;" d="M41.38,426.283l20.348,11.74v-.307L41.636,426.15Z" transform="translate(-40.817 -409.534)" fill="#031f60"/>
            </g>
          </g>
        </g>
      </g>
      <path id="_Контур_16" data-name="&lt;Контур&gt;" d="M18.883,407.56c-.512,1.279.788,2.845,4.268,3.941s3.8-.307,3.8-.307a69.738,69.738,0,0,1,6.776,3.48c2.047,1.464,3.009,5.691,3.3,12.835.328,8.26.348,20.471.082,22.631,0,0-3.91,3.889-8.9,3.48s-13.408-4.831-15.455-8.25c.061-7.247.9-8.424-.266-12.6-2.682-9.55-4.094-13.46-2.794-19.806,1.075-5.23,2.579-5.885,4.647-5.834a43.13,43.13,0,0,1,4.555.43Z" transform="translate(-6.948 -385.14)" fill="#f4f4f4"/>
      <path id="_Контур_17" data-name="&lt;Контур&gt;" d="M44.773,436.182c-4.094,1.024-5.067-1.556-5.609-3.695-1.3-5.189-2.047-9.867-2.979-12.815-1.146-3.47-2.344-4.023-4.033-4.7-1.975-.8-3.685.88-3.019,5.292a88.2,88.2,0,0,0,3.756,15.087c.512,1.617,1.658,4.483,3.367,5.875,2.119,1.709,5.3,1.638,10.123.43,2.047-.512,4.319-1.74,8.188-3.552,1.024-.491,1.853-.809,3.859-1.75a13.654,13.654,0,0,0,5.118-4.012c1.024-1.515,1.187-2.231,1.024-2.579s-.747-.338-1.31.3a10.84,10.84,0,0,1-2.948,2.733s1.3-1.341,2-2.211a10.708,10.708,0,0,0,1.556-2.528c.368-.891-.4-2.1-1.024-1.464s-.86,1.279-1.924,2.549a11.016,11.016,0,0,1-1.894,1.812,20.7,20.7,0,0,0,1.75-2.815,4.678,4.678,0,0,0,.635-2.549c0-.461-.686-1.024-1.3-.133a16.766,16.766,0,0,1-2.2,3.367c-.942.972-1.73,1.525-1.76,1.259s.573-.8.9-1.935,0-2.334-.624-2.456-.5-.1-1.024.962a30,30,0,0,0-1.832,3.388,7.083,7.083,0,0,1-1.689,2.907C50.9,434.012,48.673,435.2,44.773,436.182Z" transform="translate(-6.482 -384.96)" fill="#ffcea9"/>
      <path id="_Контур_18" data-name="&lt;Контур&gt;" d="M30.667,414.282c2.733-.409,4.667.829,5.885,4.974S38.6,426.82,38.6,426.82a7.482,7.482,0,0,1-4.6,3.071c-3.275.8-4.452-.768-4.452-.768s-.911-4.35-1.474-7.308S27.279,414.783,30.667,414.282Z" transform="translate(-6.512 -384.973)" fill="#ededed"/>
      <path id="Path_672" data-name="Path 672" d="M32.3,393.705s4.33-6.581-5.056-7.922c-6.766-.972-11.105,3.378-11.607,8.1-.481,4.5,2.293,9.212,4.3,11.034a8.188,8.188,0,0,0,5.844-.706,33.984,33.984,0,0,0,.123-3.685S22.612,393.583,32.3,393.705Z" transform="translate(-6.798 -385.646)" fill="#3a2c6d"/>
    </g>
    <path id="Path_673" data-name="Path 673" d="M50.621,475.315V455.55L34.93,464.711l6.039,12.5Z" transform="translate(0.822 10.725)" fill="#d5d6e0"/>
    <path id="Path_674" data-name="Path 674" d="M40.21,456.74l6.018-3.49,4.268,2.456-6.244,3.541Z" transform="translate(0.947 10.671)" fill="#e9eaf4"/>
    <ellipse id="Ellipse_89" data-name="Ellipse 89" cx="4.186" cy="2.416" rx="4.186" ry="2.416" transform="translate(236.981 362.13)" fill="#d5d6e0"/>
  </g>
</svg>
