<?xml version="1.0" encoding="UTF-8" standalone="no"?>
<!DOCTYPE svg PUBLIC "-//W3C//DTD SVG 1.1//EN" "http://www.w3.org/Graphics/SVG/1.1/DTD/svg11.dtd">
<svg width="100%" height="100%" viewBox="0 0 500 443" version="1.1" xmlns="http://www.w3.org/2000/svg" xmlns:xlink="http://www.w3.org/1999/xlink" xml:space="preserve" xmlns:serif="http://www.serif.com/" style="fill-rule:evenodd;clip-rule:evenodd;stroke-miterlimit:10;">
    <g id="Слой_2">
        <g id="Слой_1-2">
            <g id="Coin">
                <ellipse cx="132.95" cy="58.16" rx="46.31" ry="26.74" style="fill-opacity:0.3;"/>
                <ellipse cx="140" cy="52.46" rx="46.31" ry="26.74" style="fill:rgb(221,153,14);"/>
                <path d="M93.7,52.86L93.7,40.68L102.85,48.83L93.7,52.86Z" style="fill:rgb(221,153,14);fill-rule:nonzero;"/>
                <path d="M186.31,41L186.31,52.45L181.63,57.42L179.34,44.3L186.31,41Z" style="fill:rgb(221,153,14);fill-rule:nonzero;"/>
                <ellipse cx="140" cy="41" rx="46.31" ry="26.74" style="fill:rgb(249,203,7);"/>
                <path d="M173.09,41.83C172.62,46.33 169.42,50.76 163.45,54.21C150.5,61.68 129.5,61.68 116.56,54.21C110.56,50.76 107.38,46.33 106.92,41.83C106.36,36.55 109.58,31.17 116.56,27.15C129.5,19.66 150.5,19.66 163.45,27.15C170.42,31.17 173.64,36.55 173.09,41.83Z" style="fill:rgb(204,139,9);fill-rule:nonzero;"/>
                <path d="M173.09,41.83C172.62,46.33 169.42,50.76 163.45,54.21C150.5,61.68 129.5,61.68 116.56,54.21C110.56,50.76 107.38,46.33 106.92,41.83C107.38,37.32 110.59,32.89 116.56,29.44C129.5,21.96 150.5,21.96 163.45,29.44C169.42,32.89 172.62,37.32 173.09,41.83Z" style="fill:rgb(232,163,10);fill-rule:nonzero;"/>
                <path d="M139.51,35.56C139.105,35.559 138.7,35.592 138.3,35.66C137.747,35.74 137.137,35.85 136.47,35.99C135.79,36.13 135.09,36.31 134.36,36.53C133.648,36.742 132.953,37.006 132.28,37.32L137.6,40.4L138.6,40.06C139.95,39.61 141.23,39.23 142.43,38.91C143.559,38.612 144.715,38.421 145.88,38.34C146.942,38.276 148.007,38.35 149.05,38.56C150.108,38.785 151.122,39.184 152.05,39.74C152.974,40.201 153.765,40.889 154.35,41.74C154.738,42.359 154.857,43.111 154.68,43.82C154.455,44.604 154.027,45.315 153.44,45.88C152.704,46.615 151.885,47.263 151,47.81L154.39,49.76L152.54,50.83L149.13,48.83C147.487,49.642 145.769,50.292 144,50.77C142.165,51.26 140.291,51.594 138.4,51.77L136.61,48.57C137.108,48.562 137.606,48.525 138.1,48.46C138.77,48.38 139.51,48.25 140.34,48.08C141.17,47.91 142.02,47.68 142.94,47.41C143.83,47.14 144.699,46.806 145.54,46.41L140.24,43.35C140.014,43.442 139.784,43.522 139.55,43.59L138.83,43.82C137.49,44.25 136.27,44.6 135.16,44.82C134.136,45.059 133.091,45.2 132.04,45.24C131.113,45.268 130.186,45.181 129.28,44.98C128.386,44.772 127.527,44.435 126.73,43.98C125.855,43.52 125.096,42.866 124.51,42.07C124.092,41.489 123.881,40.785 123.91,40.07C123.993,39.308 124.299,38.588 124.79,38C125.398,37.222 126.127,36.547 126.95,36L123.81,34.18L125.65,33.12L128.8,35C130.26,34.28 131.792,33.717 133.37,33.32C134.873,32.943 136.4,32.669 137.94,32.5L139.51,35.56ZM130.51,41.14C131.21,41.542 132.017,41.716 132.82,41.64C133.899,41.517 134.962,41.279 135.99,40.93L130.99,38.05C129.13,39.25 129,40.28 130.46,41.14L130.51,41.14ZM148,42.6C147.236,42.187 146.36,42.029 145.5,42.15C144.324,42.308 143.163,42.566 142.03,42.92L147.03,45.78C149.05,44.49 149.38,43.43 148,42.6Z" style="fill:rgb(204,139,9);fill-rule:nonzero;"/>
                <path d="M136.65,48.62L136.65,46.83L138.65,48.14L137.77,49.5L136.65,48.62Z" style="fill:rgb(204,139,9);fill-rule:nonzero;"/>
                <path d="M154.38,49.76L154.38,47.97L149.98,48.3L152.51,50.03L154.38,49.76Z" style="fill:rgb(204,139,9);fill-rule:nonzero;"/>
                <path d="M154.75,43.17L154.75,41.35L151.46,42.55L154.75,43.17Z" style="fill:rgb(204,139,9);fill-rule:nonzero;"/>
                <path d="M141.1,43.07L142.19,42.07L146.06,44.75L145.82,45.54C145.82,45.54 142.93,44.32 142.82,44.25C142.71,44.18 141.1,43.07 141.1,43.07Z" style="fill:rgb(204,139,9);fill-rule:nonzero;"/>
                <path d="M131,37.42L136.14,40.33L137.14,39.56C137.14,39.56 136.49,38.82 136.44,38.75C135.982,38.223 135.442,37.774 134.84,37.42C134.46,37.34 132.03,36.25 132.03,36.25L131,37.42Z" style="fill:rgb(204,139,9);fill-rule:nonzero;"/>
                <path d="M139.51,35.56L139.51,33.77L137.16,33L136.65,34.41L136.77,35.05L139.51,35.56Z" style="fill:rgb(204,139,9);fill-rule:nonzero;"/>
                <path d="M123.85,34.26L123.85,32.47L126.58,32.76L125.7,34.5L123.85,34.26Z" style="fill:rgb(204,139,9);fill-rule:nonzero;"/>
                <path d="M124,40.36L124,38.49L127.13,38.49L126.37,40.16L125,41.66L124,40.36Z" style="fill:rgb(204,139,9);fill-rule:nonzero;"/>
                <path d="M139.51,33.77C139.105,33.764 138.7,33.795 138.3,33.86C137.747,33.94 137.137,34.05 136.47,34.19C135.79,34.33 135.09,34.52 134.36,34.73C133.65,34.946 132.955,35.21 132.28,35.52L137.6,38.6L138.6,38.26C139.95,37.81 141.23,37.43 142.43,37.12C143.557,36.812 144.713,36.621 145.88,36.55C146.941,36.478 148.008,36.548 149.05,36.76C150.107,36.99 151.12,37.388 152.05,37.94C152.973,38.401 153.765,39.09 154.35,39.94C154.738,40.559 154.857,41.311 154.68,42.02C154.455,42.801 154.027,43.508 153.44,44.07C152.709,44.811 151.89,45.46 151,46L154.39,48L152.53,49L149.12,47C147.483,47.832 145.768,48.502 144,49C142.166,49.507 140.293,49.858 138.4,50.05L136.61,46.85C137.108,46.837 137.606,46.797 138.1,46.73C138.853,46.644 139.601,46.517 140.34,46.35C141.16,46.17 142.02,45.95 142.94,45.68C143.83,45.41 144.699,45.076 145.54,44.68L140.24,41.62L139.55,41.86L138.83,42.08C137.49,42.52 136.27,42.86 135.16,43.08C134.136,43.319 133.091,43.46 132.04,43.5C131.113,43.533 130.185,43.446 129.28,43.24C128.385,43.036 127.525,42.699 126.73,42.24C125.856,41.783 125.097,41.133 124.51,40.34C124.095,39.758 123.884,39.054 123.91,38.34C123.989,37.577 124.296,36.856 124.79,36.27C125.401,35.495 126.13,34.82 126.95,34.27L123.81,32.46L125.65,31.39L128.76,33.19C130.216,32.461 131.749,31.897 133.33,31.51C134.833,31.13 136.36,30.852 137.9,30.68L139.51,33.77ZM130.51,39.35C131.211,39.749 132.018,39.92 132.82,39.84C133.9,39.722 134.963,39.483 135.99,39.13L130.99,36.25C129.13,37.45 129,38.48 130.46,39.35L130.51,39.35ZM148,40.8C147.237,40.386 146.359,40.231 145.5,40.36C144.324,40.514 143.163,40.769 142.03,41.12L147.03,43.98C149.05,42.69 149.38,41.63 148,40.8Z" style="fill:rgb(249,202,6);fill-rule:nonzero;"/>
            </g>
            <g id="Coin-2">
                <ellipse cx="143.78" cy="38.2" rx="46.31" ry="26.74" style="fill:rgb(221,153,14);"/>
                <path d="M97.48,38.6L97.48,26.42L106.63,34.57L97.48,38.6Z" style="fill:rgb(221,153,14);fill-rule:nonzero;"/>
                <path d="M190.09,26.74L190.09,38.2L185.42,43.16L183.12,30.05L190.09,26.74Z" style="fill:rgb(221,153,14);fill-rule:nonzero;"/>
                <ellipse cx="143.78" cy="26.74" rx="46.31" ry="26.74" style="fill:rgb(249,203,7);"/>
                <path d="M176.88,27.57C176.41,32.07 173.2,36.51 167.23,39.96C154.28,47.43 133.29,47.43 120.34,39.96C114.34,36.51 111.16,32.07 110.7,27.57C110.14,22.3 113.36,16.91 120.34,12.89C133.29,5.41 154.28,5.41 167.23,12.89C174.21,16.91 177.43,22.3 176.88,27.57Z" style="fill:rgb(204,139,9);fill-rule:nonzero;"/>
                <path d="M176.88,27.57C176.41,32.07 173.2,36.51 167.23,39.96C154.28,47.43 133.29,47.43 120.34,39.96C114.34,36.51 111.16,32.07 110.7,27.57C111.16,23.06 114.37,18.63 120.34,15.18C133.29,7.7 154.28,7.7 167.23,15.18C173.2,18.63 176.41,23.06 176.88,27.57Z" style="fill:rgb(232,163,10);fill-rule:nonzero;"/>
                <path d="M143.3,21.3C142.891,21.299 142.483,21.332 142.08,21.4C141.54,21.48 140.93,21.59 140.25,21.73C139.57,21.87 138.87,22.05 138.14,22.27C137.428,22.482 136.733,22.746 136.06,23.06L141.39,26.14L142.39,25.8C143.75,25.35 145.02,24.97 146.23,24.65C147.356,24.352 148.508,24.162 149.67,24.08C150.732,24.016 151.797,24.089 152.84,24.3C153.896,24.532 154.909,24.931 155.84,25.48C156.761,25.941 157.549,26.63 158.13,27.48C158.517,28.1 158.64,28.849 158.47,29.56C158.239,30.34 157.808,31.047 157.22,31.61C156.485,32.34 155.67,32.984 154.79,33.53L158.18,35.53L156.33,36.6L152.91,34.6C151.283,35.404 149.582,36.047 147.83,36.52C145.996,37.016 144.122,37.351 142.23,37.52L140.45,34.33C140.948,34.317 141.446,34.277 141.94,34.21C142.61,34.13 143.35,34.01 144.17,33.83C144.99,33.65 145.86,33.43 146.77,33.16C147.661,32.895 148.531,32.561 149.37,32.16L144.08,29.16L143.38,29.4L142.66,29.62C141.33,30.06 140.11,30.4 139,30.62C137.972,30.859 136.924,31 135.87,31.04C134.946,31.073 134.022,30.985 133.12,30.78C132.223,30.57 131.361,30.233 130.56,29.78C129.69,29.32 128.935,28.671 128.35,27.88C127.923,27.281 127.711,26.555 127.75,25.82C127.829,25.059 128.132,24.339 128.62,23.75C129.237,22.995 129.966,22.337 130.78,21.8L127.63,20L129.48,18.93L132.59,20.72C134.047,19.997 135.58,19.437 137.16,19.05C138.661,18.664 140.189,18.387 141.73,18.22L143.3,21.3ZM134.25,26.88C134.947,27.287 135.757,27.462 136.56,27.38C137.639,27.257 138.702,27.019 139.73,26.67L134.73,23.79C132.91,24.99 132.75,26.02 134.25,26.88ZM151.73,28.34C150.97,27.928 150.096,27.774 149.24,27.9C148.06,28.049 146.895,28.304 145.76,28.66L150.76,31.52C152.847,30.233 153.17,29.173 151.73,28.34Z" style="fill:rgb(204,139,9);fill-rule:nonzero;"/>
                <path d="M140.44,34.37C140.49,34.23 140.44,32.57 140.44,32.57L142.44,33.88L141.55,35.24L140.44,34.37Z" style="fill:rgb(204,139,9);fill-rule:nonzero;"/>
                <path d="M158.16,35.5L158.16,33.71L153.76,34.04L156.29,35.77L158.16,35.5Z" style="fill:rgb(204,139,9);fill-rule:nonzero;"/>
                <path d="M158.54,28.91L158.54,27.1L155.24,28.29L158.54,28.91Z" style="fill:rgb(204,139,9);fill-rule:nonzero;"/>
                <path d="M144.88,28.82L145.98,27.77L149.84,30.44L149.61,31.23C149.61,31.23 146.72,30.01 146.61,29.94C146.5,29.87 144.88,28.82 144.88,28.82Z" style="fill:rgb(204,139,9);fill-rule:nonzero;"/>
                <path d="M134.76,23.16L139.89,26.07L140.94,25.31C140.94,25.31 140.3,24.57 140.25,24.49C139.788,23.967 139.248,23.519 138.65,23.16C138.27,23.09 135.83,22 135.83,22L134.76,23.16Z" style="fill:rgb(204,139,9);fill-rule:nonzero;"/>
                <path d="M143.3,21.3L143.3,19.51L140.94,18.74L140.44,20.15L140.56,20.79L143.3,21.3Z" style="fill:rgb(204,139,9);fill-rule:nonzero;"/>
                <path d="M127.63,20.01L127.63,18.21L130.36,18.5L129.48,20.25L127.63,20.01Z" style="fill:rgb(204,139,9);fill-rule:nonzero;"/>
                <path d="M127.73,26.1L127.73,24.23L130.87,24.23L130.1,25.9L128.74,27.4L127.73,26.1Z" style="fill:rgb(204,139,9);fill-rule:nonzero;"/>
                <path d="M143.3,19.51C142.891,19.509 142.483,19.542 142.08,19.61C141.54,19.68 140.93,19.79 140.25,19.93C139.57,20.07 138.87,20.26 138.14,20.48C137.428,20.692 136.733,20.956 136.06,21.27L141.39,24.34L142.39,24C143.75,23.55 145.02,23.17 146.23,22.86C147.354,22.553 148.507,22.362 149.67,22.29C150.731,22.217 151.798,22.288 152.84,22.5C153.896,22.732 154.909,23.131 155.84,23.68C156.757,24.147 157.544,24.834 158.13,25.68C158.516,26.3 158.638,27.049 158.47,27.76C158.233,28.523 157.802,29.212 157.22,29.76C156.49,30.495 155.674,31.14 154.79,31.68L158.18,33.68L156.33,34.74L152.91,32.74C151.283,33.544 149.582,34.187 147.83,34.66C145.997,35.168 144.123,35.52 142.23,35.71L140.45,32.51C140.948,32.497 141.446,32.457 141.94,32.39C142.69,32.305 143.434,32.178 144.17,32.01C144.99,31.83 145.86,31.61 146.77,31.35C147.66,31.08 148.529,30.746 149.37,30.35L144.08,27.29L143.38,27.53L142.66,27.75C141.33,28.19 140.11,28.53 139,28.75C137.972,28.989 136.924,29.13 135.87,29.17C134.946,29.203 134.022,29.115 133.12,28.91C132.222,28.705 131.359,28.368 130.56,27.91C129.688,27.453 128.932,26.803 128.35,26.01C127.923,25.415 127.711,24.692 127.75,23.96C127.829,23.199 128.132,22.479 128.62,21.89C129.234,21.117 129.962,20.443 130.78,19.89L127.64,18.08L129.49,17.01L132.6,18.81C134.059,18.088 135.591,17.525 137.17,17.13C138.672,16.749 140.199,16.472 141.74,16.3L143.3,19.51ZM134.25,25.09C134.949,25.493 135.757,25.668 136.56,25.59C137.639,25.463 138.702,25.221 139.73,24.87L134.73,22C132.91,23.193 132.75,24.223 134.25,25.09ZM151.73,26.55C150.973,26.129 150.097,25.971 149.24,26.1C148.06,26.253 146.895,26.511 145.76,26.87L150.76,29.73C152.83,28.44 153.17,27.37 151.73,26.55Z" style="fill:rgb(249,202,6);fill-rule:nonzero;"/>
            </g>
            <g id="Coin-3">
                <ellipse cx="437.35" cy="416.22" rx="46.31" ry="26.74" style="fill-opacity:0.3;"/>
                <ellipse cx="448.8" cy="409.34" rx="46.31" ry="26.74" style="fill:rgb(221,153,14);"/>
                <path d="M402.51,409.75L402.51,397.56L411.66,405.71L402.51,409.75Z" style="fill:rgb(221,153,14);fill-rule:nonzero;"/>
                <path d="M495.12,397.88L495.12,409.34L490.44,414.31L488.15,401.19L495.12,397.88Z" style="fill:rgb(221,153,14);fill-rule:nonzero;"/>
                <ellipse cx="448.8" cy="397.88" rx="46.31" ry="26.74" style="fill:rgb(249,203,7);"/>
                <path d="M481.9,398.71C481.43,403.22 478.22,407.65 472.25,411.1C459.31,418.57 438.31,418.57 425.36,411.1C419.36,407.65 416.18,403.22 415.73,398.71C415.16,393.44 418.38,388.06 425.36,384.03C438.31,376.55 459.31,376.55 472.25,384.03C479.23,388.06 482.45,393.44 481.9,398.71Z" style="fill:rgb(204,139,9);fill-rule:nonzero;"/>
                <path d="M481.9,398.71C481.43,403.22 478.22,407.65 472.25,411.1C459.31,418.57 438.31,418.57 425.36,411.1C419.36,407.65 416.18,403.22 415.73,398.71C416.18,394.21 419.39,389.77 425.36,386.33C438.31,378.84 459.31,378.84 472.25,386.33C478.22,389.77 481.43,394.21 481.9,398.71Z" style="fill:rgb(232,163,10);fill-rule:nonzero;"/>
                <path d="M448.32,392.45C447.915,392.449 447.51,392.482 447.11,392.55C446.56,392.62 445.95,392.73 445.27,392.87C444.59,393.01 443.89,393.2 443.17,393.42C442.458,393.63 441.762,393.894 441.09,394.21L446.41,397.28L447.41,396.94C448.76,396.49 450.04,396.11 451.24,395.8C452.367,395.492 453.523,395.301 454.69,395.23C455.751,395.163 456.817,395.234 457.86,395.44C458.916,395.673 459.928,396.071 460.86,396.62C461.779,397.084 462.566,397.772 463.15,398.62C463.541,399.238 463.664,399.99 463.49,400.7C463.257,401.463 462.83,402.152 462.25,402.7C461.519,403.438 460.699,404.083 459.81,404.62L463.2,406.62L461.35,407.68L457.94,405.68C456.312,406.482 454.611,407.125 452.86,407.6C451.021,408.091 449.145,408.425 447.25,408.6L445.47,405.4C445.968,405.387 446.466,405.347 446.96,405.28C447.71,405.195 448.454,405.068 449.19,404.9C450.01,404.73 450.88,404.5 451.79,404.24C452.684,403.972 453.556,403.638 454.4,403.24L449.1,400.18L448.41,400.42L447.68,400.64C446.35,401.08 445.13,401.42 444.02,401.64C442.996,401.879 441.951,402.019 440.9,402.06C439.972,402.098 439.044,402.01 438.14,401.8C437.245,401.596 436.385,401.259 435.59,400.8C434.714,400.346 433.954,399.696 433.37,398.9C432.943,398.305 432.731,397.582 432.77,396.85C432.848,396.087 433.155,395.366 433.65,394.78C434.257,394.005 434.983,393.33 435.8,392.78L432.66,390.97L434.51,389.9L437.62,391.7C439.08,390.98 440.612,390.417 442.19,390.02C443.693,389.64 445.22,389.362 446.76,389.19L448.32,392.45ZM439.27,398C439.97,398.402 440.777,398.576 441.58,398.5C442.659,398.377 443.722,398.139 444.75,397.79L439.75,394.91C437.94,396.13 437.77,397.16 439.27,398ZM456.76,399.46C455.998,399.042 455.12,398.884 454.26,399.01C453.08,399.164 451.915,399.422 450.78,399.78L455.78,402.64C457.85,401.38 458.19,400.31 456.76,399.49L456.76,399.46Z" style="fill:rgb(204,139,9);fill-rule:nonzero;"/>
                <path d="M445.46,405.51C445.51,405.38 445.46,403.71 445.46,403.71L447.46,405.02L446.58,406.38L445.46,405.51Z" style="fill:rgb(204,139,9);fill-rule:nonzero;"/>
                <path d="M463.19,406.65L463.19,404.85L458.78,405.19L461.31,406.91L463.19,406.65Z" style="fill:rgb(204,139,9);fill-rule:nonzero;"/>
                <path d="M463.56,400.06L463.56,398.24L460.26,399.44L463.56,400.06Z" style="fill:rgb(204,139,9);fill-rule:nonzero;"/>
                <path d="M449.9,400L451,399L454.87,401.67L454.63,402.46C454.63,402.46 451.74,401.24 451.63,401.17L449.9,400Z" style="fill:rgb(204,139,9);fill-rule:nonzero;"/>
                <path d="M439.78,394.3L444.91,397.21L445.91,396.45C445.91,396.45 445.27,395.71 445.22,395.64C444.758,395.114 444.219,394.662 443.62,394.3C443.24,394.23 440.81,393.14 440.81,393.14L439.78,394.3Z" style="fill:rgb(204,139,9);fill-rule:nonzero;"/>
                <path d="M448.32,392.45L448.32,390.65L445.96,389.89L445.46,391.3L445.58,391.94L448.32,392.45Z" style="fill:rgb(204,139,9);fill-rule:nonzero;"/>
                <path d="M432.65,391.15L432.65,389.36L435.39,389.65L434.5,391.39L432.65,391.15Z" style="fill:rgb(204,139,9);fill-rule:nonzero;"/>
                <path d="M432.75,397.25L432.75,395.38L435.88,395.38L435.12,397.05L433.75,398.54L432.75,397.25Z" style="fill:rgb(204,139,9);fill-rule:nonzero;"/>
                <path d="M448.32,390.65C447.915,390.649 447.51,390.682 447.11,390.75C446.56,390.83 445.95,390.94 445.27,391.08C444.59,391.22 443.89,391.4 443.17,391.62C442.458,391.83 441.762,392.094 441.09,392.41L446.41,395.49L447.41,395.15C448.76,394.7 450.04,394.32 451.24,394C452.369,393.702 453.525,393.511 454.69,393.43C455.752,393.366 456.817,393.44 457.86,393.65C458.917,393.878 459.93,394.277 460.86,394.83C461.782,395.289 462.571,395.978 463.15,396.83C463.541,397.448 463.664,398.2 463.49,398.91C463.263,399.69 462.835,400.397 462.25,400.96C461.513,401.692 460.695,402.336 459.81,402.88L463.2,404.88L461.35,405.95L457.94,403.95C456.312,404.752 454.611,405.395 452.86,405.87C451.02,406.356 449.144,406.69 447.25,406.87L445.47,403.67C445.969,403.667 446.466,403.63 446.96,403.56C447.63,403.48 448.37,403.36 449.19,403.18C450.01,403 450.88,402.78 451.79,402.51C452.684,402.242 453.556,401.908 454.4,401.51L449.1,398.46L448.41,398.7L447.68,398.92C446.35,399.36 445.13,399.7 444.02,399.92C442.996,400.159 441.951,400.299 440.9,400.34C439.973,400.373 439.045,400.286 438.14,400.08C437.246,399.872 436.387,399.535 435.59,399.08C434.716,398.623 433.957,397.973 433.37,397.18C432.943,396.581 432.731,395.855 432.77,395.12C432.848,394.357 433.155,393.636 433.65,393.05C434.261,392.292 434.986,391.634 435.8,391.1L432.66,389.29L434.51,388.22L437.62,390.01C439.08,389.29 440.612,388.727 442.19,388.33C443.693,387.953 445.22,387.679 446.76,387.51L448.32,390.65ZM439.27,396.23C439.968,396.636 440.777,396.811 441.58,396.73C442.659,396.607 443.722,396.369 444.75,396.02L439.75,393.14C437.94,394.34 437.77,395.37 439.27,396.23ZM456.76,397.69C455.997,397.276 455.119,397.121 454.26,397.25C453.08,397.4 451.915,397.655 450.78,398.01L455.78,400.87C457.867,399.577 458.193,398.517 456.76,397.69Z" style="fill:rgb(249,202,6);fill-rule:nonzero;"/>
            </g>
            <g id="Coin-4">
                <ellipse cx="452.59" cy="395.08" rx="46.31" ry="26.74" style="fill:rgb(221,153,14);"/>
                <path d="M406.29,395.49L406.29,383.31L415.44,391.46L406.29,395.49Z" style="fill:rgb(221,153,14);fill-rule:nonzero;"/>
                <path d="M498.9,383.63L498.9,395.08L494.22,400.05L491.93,386.93L498.9,383.63Z" style="fill:rgb(221,153,14);fill-rule:nonzero;"/>
                <ellipse cx="452.59" cy="383.63" rx="46.31" ry="26.74" style="fill:rgb(249,203,7);"/>
                <path d="M485.69,384.45C485.22,388.96 482.01,393.39 476.04,396.84C463.04,404.31 442.1,404.31 429.15,396.84C423.15,393.39 419.97,388.96 419.51,384.45C418.95,379.18 422.17,373.8 429.15,369.78C442.15,362.29 463.09,362.29 476.04,369.78C483,373.8 486.24,379.18 485.69,384.45Z" style="fill:rgb(204,139,9);fill-rule:nonzero;"/>
                <path d="M485.69,384.45C485.22,388.96 482.01,393.39 476.04,396.84C463.04,404.31 442.1,404.31 429.15,396.84C423.15,393.39 419.97,388.96 419.51,384.45C419.97,379.95 423.18,375.52 429.15,372.07C442.15,364.58 463.09,364.58 476.04,372.07C482,375.52 485.22,380 485.69,384.45Z" style="fill:rgb(232,163,10);fill-rule:nonzero;"/>
                <path d="M452.11,378.19C451.701,378.189 451.293,378.222 450.89,378.29C450.35,378.37 449.73,378.47 449.06,378.62C448.39,378.77 447.68,378.94 446.95,379.16C446.238,379.372 445.543,379.636 444.87,379.95L450.2,383L451.15,382.67C452.51,382.22 453.78,381.83 454.98,381.52C456.109,381.222 457.265,381.031 458.43,380.95C459.491,380.887 460.556,380.958 461.6,381.16C462.657,381.393 463.67,381.795 464.6,382.35C465.524,382.811 466.315,383.499 466.9,384.35C467.286,384.97 467.408,385.719 467.24,386.43C467.011,387.214 466.58,387.925 465.99,388.49C465.257,389.219 464.442,389.86 463.56,390.4L466.94,392.4L465.1,393.47L461.68,391.47C460.053,392.274 458.352,392.917 456.6,393.39C454.766,393.898 452.893,394.249 451,394.44L449.21,391.24C449.54,391.24 450.04,391.24 450.71,391.13C451.38,391.02 452.12,390.92 452.94,390.74C453.76,390.56 454.63,390.35 455.54,390.08C456.43,389.81 457.299,389.476 458.14,389.08L452.85,386.02C452.62,386.11 452.39,386.19 452.15,386.26L451.43,386.49C450.1,386.92 448.87,387.27 447.77,387.49C446.741,387.721 445.694,387.859 444.64,387.9C443.716,387.936 442.792,387.852 441.89,387.65C440.994,387.439 440.132,387.103 439.33,386.65C438.46,386.187 437.704,385.534 437.12,384.74C436.695,384.163 436.483,383.456 436.52,382.74C436.599,381.979 436.902,381.259 437.39,380.67C438.001,379.894 438.73,379.219 439.55,378.67L436.41,376.85L438.25,375.79L441.36,377.58C442.82,376.86 444.352,376.297 445.93,375.9C447.436,375.523 448.966,375.249 450.51,375.08L452.11,378.19ZM443.06,383.77C443.756,384.173 444.56,384.348 445.36,384.27C446.439,384.147 447.502,383.909 448.53,383.56L443.53,380.68C441.717,381.88 441.56,382.91 443.06,383.77ZM460.54,385.23C459.781,384.815 458.907,384.657 458.05,384.78C456.869,384.933 455.705,385.19 454.57,385.55L459.52,388.41C461.64,387.123 461.98,386.063 460.54,385.23Z" style="fill:rgb(204,139,9);fill-rule:nonzero;"/>
                <path d="M449.24,391.25C449.29,391.12 449.24,389.46 449.24,389.46L451.24,390.76L450.35,392.12L449.24,391.25Z" style="fill:rgb(204,139,9);fill-rule:nonzero;"/>
                <path d="M466.97,392.39L466.97,390.59L462.57,390.93L465.1,392.66L466.97,392.39Z" style="fill:rgb(204,139,9);fill-rule:nonzero;"/>
                <path d="M467.35,385.8L467.35,383.98L464.05,385.18L467.35,385.8Z" style="fill:rgb(204,139,9);fill-rule:nonzero;"/>
                <path d="M453.69,385.7L454.79,384.65L458.65,387.33L458.41,388.11C458.41,388.11 455.53,386.9 455.41,386.82L453.69,385.7Z" style="fill:rgb(204,139,9);fill-rule:nonzero;"/>
                <path d="M443.56,380L448.7,383L449.75,382.24C449.75,382.24 449.1,381.5 449.06,381.43C448.596,380.907 448.057,380.455 447.46,380.09C447.07,380.02 444.64,378.93 444.64,378.93L443.56,380Z" style="fill:rgb(204,139,9);fill-rule:nonzero;"/>
                <path d="M452.11,378.19L452.11,376.39L449.75,375.63L449.24,377.04L449.37,377.68L452.11,378.19Z" style="fill:rgb(204,139,9);fill-rule:nonzero;"/>
                <path d="M436.44,376.89L436.44,375.1L439.17,375.39L438.29,377.13L436.44,376.89Z" style="fill:rgb(204,139,9);fill-rule:nonzero;"/>
                <path d="M436.54,383L436.54,381.13L439.67,381.13L438.91,382.8L437.55,384.29L436.54,383Z" style="fill:rgb(204,139,9);fill-rule:nonzero;"/>
                <path d="M452.11,376.39C451.701,376.394 451.294,376.427 450.89,376.49C450.35,376.57 449.73,376.68 449.06,376.82C448.39,376.96 447.68,377.14 446.95,377.36C446.24,377.576 445.545,377.84 444.87,378.15L450.2,381.23L451.15,380.89C452.51,380.44 453.78,380.06 454.98,379.74C456.109,379.44 457.264,379.252 458.43,379.18C459.491,379.107 460.558,379.178 461.6,379.39C462.657,379.62 463.67,380.018 464.6,380.57C465.526,381.028 466.318,381.717 466.9,382.57C467.287,383.19 467.41,383.939 467.24,384.65C467.009,385.43 466.578,386.137 465.99,386.7C465.258,387.433 464.442,388.077 463.56,388.62L466.94,390.57L465.1,391.64L461.68,389.64C460.053,390.444 458.352,391.087 456.6,391.56C454.766,392.068 452.893,392.419 451,392.61L449.21,389.41C449.712,389.397 450.213,389.357 450.71,389.29C451.37,389.21 452.12,389.09 452.94,388.91C453.76,388.73 454.63,388.51 455.54,388.24C456.431,387.975 457.301,387.641 458.14,387.24L452.85,384.19L452.15,384.43L451.43,384.65C450.1,385.09 448.87,385.43 447.77,385.65C446.742,385.889 445.694,386.03 444.64,386.07C443.716,386.103 442.792,386.015 441.89,385.81C440.991,385.608 440.128,385.271 439.33,384.81C438.46,384.35 437.705,383.701 437.12,382.91C436.684,382.316 436.471,381.586 436.52,380.85C436.599,380.089 436.902,379.369 437.39,378.78C438.01,378.027 438.738,377.37 439.55,376.83L436.41,375.02L438.25,373.95L441.36,375.75C442.816,375.021 444.349,374.457 445.93,374.07C447.435,373.685 448.966,373.407 450.51,373.24L452.11,376.39ZM443.06,382C443.757,382.399 444.561,382.571 445.36,382.49C446.439,382.367 447.502,382.129 448.53,381.78L443.53,378.9C441.717,380.087 441.56,381.12 443.06,382ZM460.54,383.45C459.78,383.038 458.906,382.884 458.05,383.01C456.87,383.158 455.705,383.413 454.57,383.77L459.52,386.63C461.64,385.323 461.98,384.257 460.54,383.43L460.54,383.45Z" style="fill:rgb(249,202,6);fill-rule:nonzero;"/>
            </g>
            <g id="Coin-5">
                <ellipse cx="449.75" cy="381.36" rx="46.31" ry="26.74" style="fill:rgb(221,153,14);"/>
                <path d="M403.45,381.76L403.45,369.58L412.6,377.73L403.45,381.76Z" style="fill:rgb(221,153,14);fill-rule:nonzero;"/>
                <path d="M496.06,369.9L496.06,381.36L491.38,386.32L489.09,373.2L496.06,369.9Z" style="fill:rgb(221,153,14);fill-rule:nonzero;"/>
                <ellipse cx="449.75" cy="369.9" rx="46.31" ry="26.74" style="fill:rgb(249,203,7);"/>
                <path d="M482.85,370.73C482.38,375.23 479.17,379.67 473.2,383.11C460.25,390.59 439.26,390.59 426.31,383.11C420.31,379.67 417.13,375.23 416.67,370.73C416.11,365.46 419.33,360.07 426.31,356.05C439.26,348.57 460.25,348.57 473.2,356.05C480.18,360.07 483.4,365.46 482.85,370.73Z" style="fill:rgb(204,139,9);fill-rule:nonzero;"/>
                <path d="M482.85,370.73C482.38,375.23 479.17,379.67 473.2,383.11C460.25,390.59 439.26,390.59 426.31,383.11C420.31,379.67 417.13,375.23 416.67,370.73C417.13,366.22 420.34,361.79 426.31,358.34C439.26,350.86 460.25,350.86 473.2,358.34C479.17,361.79 482.38,366.22 482.85,370.73Z" style="fill:rgb(232,163,10);fill-rule:nonzero;"/>
                <path d="M449.26,364.46C448.855,364.459 448.45,364.492 448.05,364.56C447.51,364.64 446.89,364.75 446.22,364.89C445.55,365.03 444.84,365.21 444.11,365.43C443.398,365.642 442.703,365.906 442.03,366.22L447.36,369.3L448.31,368.96C449.67,368.51 450.94,368.13 452.14,367.81C453.269,367.512 454.425,367.321 455.59,367.24C456.652,367.176 457.717,367.25 458.76,367.46C459.817,367.69 460.83,368.088 461.76,368.64C462.686,369.098 463.478,369.787 464.06,370.64C464.449,371.259 464.568,372.011 464.39,372.72C464.163,373.5 463.735,374.207 463.15,374.77C462.415,375.5 461.6,376.144 460.72,376.69L464.1,378.69L462.25,379.76L458.84,377.76C457.213,378.564 455.512,379.207 453.76,379.68C451.926,380.175 450.052,380.509 448.16,380.68L446.37,377.48C446.869,377.477 447.366,377.44 447.86,377.37C448.53,377.29 449.28,377.17 450.1,376.99C450.92,376.81 451.78,376.59 452.7,376.32C453.59,376.05 454.459,375.716 455.3,375.32L450,372.27L449.31,372.51L448.59,372.73C447.26,373.17 446.03,373.51 444.92,373.73C443.896,373.969 442.851,374.11 441.8,374.15C440.876,374.183 439.952,374.095 439.05,373.89C438.152,373.684 437.29,373.347 436.49,372.89C435.618,372.43 434.859,371.781 434.27,370.99C433.843,370.391 433.631,369.665 433.67,368.93C433.759,368.17 434.065,367.452 434.55,366.86C435.165,366.102 435.894,365.444 436.71,364.91L433.57,363.1L435.41,362.03L438.52,363.82C439.98,363.1 441.512,362.537 443.09,362.14C444.596,361.762 446.126,361.488 447.67,361.32L449.26,364.46ZM440.21,370C440.908,370.406 441.717,370.581 442.52,370.5C443.599,370.377 444.662,370.139 445.69,369.79L440.69,366.91C438.88,368.15 438.72,369.18 440.21,370ZM457.7,371.46C456.94,371.048 456.066,370.894 455.21,371.02C454.03,371.168 452.865,371.423 451.73,371.78L456.68,374.64C458.8,373.38 459.14,372.333 457.7,371.5L457.7,371.46Z" style="fill:rgb(204,139,9);fill-rule:nonzero;"/>
                <path d="M446.4,377.52C446.45,377.39 446.4,375.73 446.4,375.73L448.4,377.04L447.52,378.4L446.4,377.52Z" style="fill:rgb(204,139,9);fill-rule:nonzero;"/>
                <path d="M464.13,378.66L464.13,376.87L459.73,377.2L462.26,378.93L464.13,378.66Z" style="fill:rgb(204,139,9);fill-rule:nonzero;"/>
                <path d="M464.5,372.07L464.5,370.26L461.21,371.45L464.5,372.07Z" style="fill:rgb(204,139,9);fill-rule:nonzero;"/>
                <path d="M450.85,372L451.94,370.95L455.81,373.62L455.57,374.41C455.57,374.41 452.68,373.19 452.57,373.12L450.85,372Z" style="fill:rgb(204,139,9);fill-rule:nonzero;"/>
                <path d="M440.72,366.32L445.86,369.23L446.91,368.47C446.91,368.47 446.26,367.73 446.21,367.65C445.754,367.125 445.217,366.676 444.62,366.32C444.23,366.25 441.8,365.16 441.8,365.16L440.72,366.32Z" style="fill:rgb(204,139,9);fill-rule:nonzero;"/>
                <path d="M449.26,364.46L449.26,362.67L446.91,361.9L446.4,363.31L446.52,363.95L449.26,364.46Z" style="fill:rgb(204,139,9);fill-rule:nonzero;"/>
                <path d="M433.6,363.17L433.6,361.37L436.33,361.66L435.45,363.4L433.6,363.17Z" style="fill:rgb(204,139,9);fill-rule:nonzero;"/>
                <path d="M433.7,369.26L433.7,367.39L436.83,367.39L436.07,369.06L434.71,370.56L433.7,369.26Z" style="fill:rgb(204,139,9);fill-rule:nonzero;"/>
                <path d="M449.26,362.67C448.855,362.67 448.451,362.7 448.05,362.76C447.51,362.84 446.89,362.95 446.22,363.09C445.55,363.23 444.84,363.42 444.11,363.64C443.398,363.852 442.703,364.116 442.03,364.43L447.36,367.5L448.31,367.16C449.67,366.71 450.94,366.33 452.14,366.02C453.267,365.712 454.423,365.521 455.59,365.45C456.651,365.378 457.718,365.448 458.76,365.66C459.817,365.89 460.83,366.288 461.76,366.84C462.681,367.305 463.472,367.992 464.06,368.84C464.448,369.459 464.567,370.211 464.39,370.92C464.165,371.701 463.737,372.408 463.15,372.97C462.42,373.705 461.604,374.35 460.72,374.89L464.1,376.89L462.25,377.95L458.84,375.95C457.213,376.754 455.512,377.397 453.76,377.87C451.926,378.377 450.053,378.728 448.16,378.92L446.37,375.72C446.868,375.707 447.366,375.667 447.86,375.6C448.613,375.515 449.361,375.388 450.1,375.22C450.92,375.04 451.78,374.82 452.7,374.56C453.59,374.29 454.459,373.956 455.3,373.56L450,370.5L449.31,370.74L448.59,370.96C447.26,371.4 446.03,371.74 444.92,371.96C443.896,372.199 442.851,372.34 441.8,372.38C440.876,372.413 439.952,372.325 439.05,372.12C438.151,371.918 437.288,371.581 436.49,371.12C435.616,370.663 434.856,370.013 434.27,369.22C433.843,368.625 433.631,367.902 433.67,367.17C433.755,366.409 434.061,365.689 434.55,365.1C435.161,364.325 435.89,363.65 436.71,363.1L433.57,361.29L435.41,360.22L438.52,362.02C439.98,361.3 441.512,360.737 443.09,360.34C444.596,359.959 446.126,359.681 447.67,359.51L449.26,362.67ZM440.21,368.25C440.91,368.652 441.717,368.826 442.52,368.75C443.599,368.623 444.662,368.381 445.69,368.03L440.69,365.16C438.88,366.35 438.72,367.38 440.21,368.25ZM457.7,369.7C456.94,369.288 456.066,369.134 455.21,369.26C454.03,369.413 452.866,369.668 451.73,370.02L456.68,372.89C458.8,371.59 459.14,370.527 457.7,369.7Z" style="fill:rgb(249,202,6);fill-rule:nonzero;"/>
            </g>
            <g id="Coin-6">
                <ellipse cx="453.69" cy="368.12" rx="46.31" ry="26.74" style="fill:rgb(221,153,14);"/>
                <path d="M407.39,368.52L407.39,356.34L416.54,364.49L407.39,368.52Z" style="fill:rgb(221,153,14);fill-rule:nonzero;"/>
                <path d="M500,356.66L500,368.12L495.32,373.08L493.03,359.96L500,356.66Z" style="fill:rgb(221,153,14);fill-rule:nonzero;"/>
                <ellipse cx="453.69" cy="356.66" rx="46.31" ry="26.74" style="fill:rgb(249,203,7);"/>
                <path d="M486.78,357.49C486.31,361.99 483.11,366.42 477.14,369.87C464.19,377.35 443.19,377.35 430.25,369.87C424.25,366.42 421.07,361.99 420.61,357.49C420.05,352.22 423.27,346.83 430.25,342.81C443.19,335.32 464.19,335.32 477.14,342.81C484.11,346.83 487.33,352.22 486.78,357.49Z" style="fill:rgb(204,139,9);fill-rule:nonzero;"/>
                <path d="M486.78,357.49C486.31,361.99 483.11,366.42 477.14,369.87C464.19,377.35 443.19,377.35 430.25,369.87C424.25,366.42 421.07,361.99 420.61,357.49C421.07,352.98 424.28,348.55 430.25,345.1C443.19,337.62 464.19,337.62 477.14,345.1C483.11,348.55 486.31,353 486.78,357.49Z" style="fill:rgb(232,163,10);fill-rule:nonzero;"/>
                <path d="M453.2,351.22C452.795,351.219 452.39,351.252 451.99,351.32C451.437,351.4 450.827,351.51 450.16,351.65C449.48,351.79 448.78,351.97 448.05,352.19C447.348,352.41 446.663,352.681 446,353L451.32,356.08L452.32,355.74C453.67,355.29 454.95,354.91 456.15,354.59C457.279,354.292 458.435,354.101 459.6,354.02C460.662,353.956 461.727,354.03 462.77,354.24C463.828,354.465 464.842,354.864 465.77,355.42C466.696,355.878 467.488,356.567 468.07,357.42C468.459,358.039 468.578,358.791 468.4,359.5C468.173,360.28 467.745,360.987 467.16,361.55C466.423,362.282 465.605,362.926 464.72,363.47L468.11,365.42L466.26,366.49L462.85,364.49C461.222,365.292 459.521,365.935 457.77,366.41C455.934,366.895 454.061,367.23 452.17,367.41L450.38,364.21C450.878,364.202 451.376,364.165 451.87,364.1C452.54,364.02 453.28,363.9 454.11,363.72C454.94,363.54 455.79,363.32 456.71,363.05C457.6,362.78 458.469,362.446 459.31,362.05L454.01,359.05L453.32,359.29L452.6,359.51C451.26,359.95 450.04,360.29 448.93,360.51C447.906,360.749 446.861,360.89 445.81,360.93C444.883,360.963 443.955,360.876 443.05,360.67C442.156,360.462 441.297,360.125 440.5,359.67C439.626,359.213 438.867,358.563 438.28,357.77C437.853,357.171 437.641,356.445 437.68,355.71C437.763,354.948 438.069,354.228 438.56,353.64C439.175,352.882 439.904,352.224 440.72,351.69L437.58,349.88L439.42,348.81L442.53,350.6C443.99,349.88 445.522,349.317 447.1,348.92C448.603,348.543 450.13,348.269 451.67,348.1L453.2,351.22ZM444.15,356.8C444.848,357.206 445.657,357.381 446.46,357.3C447.539,357.177 448.602,356.939 449.63,356.59L444.63,353.71C442.82,354.91 442.66,355.94 444.15,356.8ZM461.64,358.26C460.877,357.846 459.999,357.691 459.14,357.82C457.963,357.97 456.802,358.224 455.67,358.58L460.62,361.44C462.74,360.15 463.07,359.09 461.64,358.26Z" style="fill:rgb(204,139,9);fill-rule:nonzero;"/>
                <path d="M450.34,364.28C450.39,364.15 450.34,362.49 450.34,362.49L452.34,363.8L451.46,365.16L450.34,364.28Z" style="fill:rgb(204,139,9);fill-rule:nonzero;"/>
                <path d="M468.07,365.42L468.07,363.63L463.67,363.96L466.2,365.69L468.07,365.42Z" style="fill:rgb(204,139,9);fill-rule:nonzero;"/>
                <path d="M468.44,358.83L468.44,357.02L465.15,358.21L468.44,358.83Z" style="fill:rgb(204,139,9);fill-rule:nonzero;"/>
                <path d="M454.79,358.73L455.88,357.68L459.75,360.36L459.51,361.15C459.51,361.15 456.62,359.93 456.51,359.86L454.79,358.73Z" style="fill:rgb(204,139,9);fill-rule:nonzero;"/>
                <path d="M444.66,353.08L449.8,356L450.85,355.24C450.85,355.24 450.2,354.5 450.15,354.42C449.692,353.893 449.152,353.444 448.55,353.09C448.17,353.02 445.74,351.92 445.74,351.92L444.66,353.08Z" style="fill:rgb(204,139,9);fill-rule:nonzero;"/>
                <path d="M453.2,351.22L453.2,349.43L450.85,348.66L450.34,350.07L450.46,350.71L453.2,351.22Z" style="fill:rgb(204,139,9);fill-rule:nonzero;"/>
                <path d="M437.54,349.93L437.54,348.13L440.27,348.42L439.39,350.16L437.54,349.93Z" style="fill:rgb(204,139,9);fill-rule:nonzero;"/>
                <path d="M437.64,356L437.64,354.13L440.77,354.13L440.01,355.8L438.65,357.3L437.64,356Z" style="fill:rgb(204,139,9);fill-rule:nonzero;"/>
                <path d="M453.2,349.43C452.795,349.43 452.391,349.46 451.99,349.52C451.437,349.6 450.827,349.71 450.16,349.85C449.48,350 448.78,350.18 448.05,350.39C447.338,350.605 446.643,350.873 445.97,351.19L451.29,354.26L452.29,353.92C453.64,353.47 454.92,353.09 456.12,352.78C457.247,352.472 458.403,352.281 459.57,352.21C460.631,352.138 461.698,352.208 462.74,352.42C463.797,352.65 464.81,353.048 465.74,353.6C466.663,354.061 467.455,354.75 468.04,355.6C468.428,356.219 468.547,356.971 468.37,357.68C468.145,358.461 467.717,359.168 467.13,359.73C466.399,360.468 465.579,361.113 464.69,361.65L468.08,363.65L466.23,364.71L462.82,362.71C461.192,363.512 459.491,364.155 457.74,364.63C455.906,365.137 454.033,365.488 452.14,365.68L450.35,362.48C450.848,362.467 451.346,362.427 451.84,362.36C452.593,362.274 453.341,362.147 454.08,361.98C454.9,361.8 455.76,361.58 456.68,361.32C457.57,361.05 458.439,360.716 459.28,360.32L454,357.3L453.31,357.54L452.59,357.76C451.25,358.2 450.03,358.54 448.92,358.76C447.896,358.999 446.851,359.14 445.8,359.18C444.863,359.243 443.921,359.182 443,359C442.105,358.796 441.245,358.459 440.45,358C439.574,357.546 438.814,356.896 438.23,356.1C437.815,355.518 437.604,354.814 437.63,354.1C437.709,353.337 438.016,352.616 438.51,352.03C439.121,351.255 439.85,350.58 440.67,350.03L437.53,348.22L439.37,347.15L442.48,348.95C443.94,348.23 445.472,347.667 447.05,347.27C448.553,346.89 450.08,346.612 451.62,346.44L453.2,349.43ZM444.15,355C444.849,355.403 445.658,355.575 446.46,355.49C447.54,355.372 448.603,355.133 449.63,354.78L444.63,351.9C442.82,353.11 442.66,354.14 444.15,355ZM461.64,356.45C460.877,356.036 459.999,355.881 459.14,356.01C457.964,356.164 456.803,356.419 455.67,356.77L460.62,359.64C462.74,358.35 463.07,357.29 461.64,356.46L461.64,356.45Z" style="fill:rgb(249,202,6);fill-rule:nonzero;"/>
            </g>
            <g id="Coin-7">
                <ellipse cx="450.85" cy="354.39" rx="46.31" ry="26.74" style="fill:rgb(221,153,14);"/>
                <path d="M404.55,354.8L404.55,342.61L413.7,350.76L404.55,354.8Z" style="fill:rgb(221,153,14);fill-rule:nonzero;"/>
                <path d="M497.16,342.93L497.16,354.39L492.48,359.36L490.19,346.24L497.16,342.93Z" style="fill:rgb(221,153,14);fill-rule:nonzero;"/>
                <ellipse cx="450.85" cy="342.93" rx="46.31" ry="26.74" style="fill:rgb(249,203,7);"/>
                <path d="M483.94,343.76C483.47,348.26 480.27,352.7 474.3,356.15C461.35,363.62 440.35,363.62 427.4,356.15C421.4,352.7 418.23,348.26 417.77,343.76C417.21,338.49 420.43,333.1 427.4,329.08C440.4,321.6 461.4,321.6 474.3,329.08C481.27,333.1 484.49,338.49 483.94,343.76Z" style="fill:rgb(204,139,9);fill-rule:nonzero;"/>
                <path d="M483.94,343.76C483.47,348.26 480.27,352.7 474.3,356.15C461.35,363.62 440.35,363.62 427.4,356.15C421.4,352.7 418.23,348.26 417.77,343.76C418.23,339.26 421.43,334.82 427.4,331.37C440.4,323.89 461.4,323.89 474.3,331.37C480.27,334.82 483.47,339.26 483.94,343.76Z" style="fill:rgb(232,163,10);fill-rule:nonzero;"/>
                <path d="M450.36,337.5C449.955,337.494 449.55,337.525 449.15,337.59C448.603,337.67 447.993,337.78 447.32,337.92C446.64,338.06 445.94,338.25 445.21,338.46C444.5,338.676 443.805,338.94 443.13,339.25L448.45,342.33L449.45,341.99C450.8,341.54 452.08,341.16 453.28,340.85C454.407,340.542 455.563,340.351 456.73,340.28C457.791,340.208 458.858,340.278 459.9,340.49C460.956,340.721 461.969,341.12 462.9,341.67C463.821,342.131 464.609,342.82 465.19,343.67C465.581,344.288 465.704,345.04 465.53,345.75C465.305,346.531 464.877,347.238 464.29,347.8C463.559,348.538 462.739,349.183 461.85,349.72L465.24,351.67L463.39,352.74L459.98,350.74C458.352,351.542 456.651,352.185 454.9,352.66C453.066,353.167 451.193,353.518 449.3,353.71L447.51,350.51C448.008,350.497 448.506,350.457 449,350.39C449.75,350.305 450.494,350.178 451.23,350.01C452.06,349.83 452.92,349.61 453.84,349.34C454.731,349.075 455.601,348.741 456.44,348.34L451.14,345.29L450.45,345.53L449.73,345.75C448.39,346.19 447.17,346.53 446.06,346.75C445.036,346.989 443.991,347.129 442.94,347.17C442.013,347.203 441.085,347.116 440.18,346.91C439.285,346.706 438.425,346.369 437.63,345.91C436.756,345.453 435.997,344.803 435.41,344.01C434.995,343.428 434.784,342.724 434.81,342.01C434.889,341.247 435.196,340.526 435.69,339.94C436.297,339.165 437.023,338.49 437.84,337.94L434.7,336.13L436.55,335.06L439.66,336.86C441.116,336.131 442.649,335.567 444.23,335.18C445.732,334.795 447.259,334.518 448.8,334.35L450.36,337.5ZM441.31,343.08C442.011,343.479 442.818,343.65 443.62,343.57C444.7,343.452 445.763,343.213 446.79,342.86L441.79,339.98C440,341.18 439.81,342.21 441.31,343.08ZM458.8,344.53C458.037,344.116 457.159,343.961 456.3,344.09C455.124,344.244 453.963,344.499 452.83,344.85L457.78,347.71C459.893,346.423 460.233,345.363 458.8,344.53Z" style="fill:rgb(204,139,9);fill-rule:nonzero;"/>
                <path d="M447.5,350.56C447.55,350.43 447.5,348.76 447.5,348.76L449.5,350.07L448.62,351.43L447.5,350.56Z" style="fill:rgb(204,139,9);fill-rule:nonzero;"/>
                <path d="M465.23,351.69L465.23,349.9L460.82,350.24L463.36,351.96L465.23,351.69Z" style="fill:rgb(204,139,9);fill-rule:nonzero;"/>
                <path d="M465.6,345.1L465.6,343.29L462.31,344.48L465.6,345.1Z" style="fill:rgb(204,139,9);fill-rule:nonzero;"/>
                <path d="M451.94,345L453,344L456.87,346.67L456.63,347.46C456.63,347.46 453.74,346.24 453.63,346.17L451.94,345Z" style="fill:rgb(204,139,9);fill-rule:nonzero;"/>
                <path d="M441.82,339.35L446.95,342.26L448.01,341.5C448.01,341.5 447.36,340.76 447.31,340.69C446.853,340.159 446.313,339.707 445.71,339.35C445.33,339.28 442.9,338.19 442.9,338.19L441.82,339.35Z" style="fill:rgb(204,139,9);fill-rule:nonzero;"/>
                <path d="M450.36,337.5L450.36,335.7L448,334.93L447.5,336.34L447.62,336.99L450.36,337.5Z" style="fill:rgb(204,139,9);fill-rule:nonzero;"/>
                <path d="M434.69,336.2L434.69,334.4L437.43,334.69L436.55,336.44L434.69,336.2Z" style="fill:rgb(204,139,9);fill-rule:nonzero;"/>
                <path d="M434.8,342.29L434.8,340.42L437.93,340.42L437.17,342.1L435.81,343.59L434.8,342.29Z" style="fill:rgb(204,139,9);fill-rule:nonzero;"/>
                <path d="M450.36,335.7C449.955,335.699 449.55,335.732 449.15,335.8C448.603,335.867 447.993,335.977 447.32,336.13C446.64,336.27 445.94,336.45 445.21,336.67C444.498,336.882 443.803,337.146 443.13,337.46L448.45,340.53L449.45,340.2C450.8,339.75 452.08,339.36 453.28,339.05C454.409,338.752 455.565,338.561 456.73,338.48C457.791,338.418 458.856,338.488 459.9,338.69C460.957,338.925 461.969,339.327 462.9,339.88C463.822,340.339 464.611,341.028 465.19,341.88C465.58,342.498 465.703,343.25 465.53,343.96C465.299,344.724 464.872,345.414 464.29,345.96C463.559,346.698 462.739,347.343 461.85,347.88L465.24,349.88L463.38,351L460,349C458.372,349.802 456.671,350.445 454.92,350.92C453.085,351.41 451.211,351.744 449.32,351.92L447.53,348.72C447.86,348.72 448.36,348.72 449.02,348.61C449.68,348.5 450.43,348.4 451.25,348.22C452.07,348.04 452.94,347.82 453.86,347.56C454.75,347.29 455.619,346.956 456.46,346.56L451.16,343.5C450.934,343.592 450.704,343.672 450.47,343.74L449.75,343.96C448.41,344.4 447.19,344.75 446.08,344.96C445.055,345.191 444.01,345.328 442.96,345.37C442.033,345.406 441.105,345.322 440.2,345.12C439.306,344.911 438.447,344.575 437.65,344.12C436.774,343.666 436.014,343.016 435.43,342.22C435.003,341.625 434.791,340.902 434.83,340.17C434.913,339.408 435.219,338.688 435.71,338.1C436.318,337.34 437.044,336.681 437.86,336.15L434.72,334.33L436.57,333.27L439.68,335.06C441.14,334.34 442.672,333.777 444.25,333.38C445.752,332.998 447.279,332.724 448.82,332.56L450.36,335.7ZM441.31,341.28C442.01,341.682 442.817,341.856 443.62,341.78C444.699,341.657 445.762,341.419 446.79,341.07L441.79,338.19C440,339.38 439.81,340.42 441.31,341.28ZM458.8,342.74C458.038,342.322 457.16,342.164 456.3,342.29C455.123,342.444 453.962,342.701 452.83,343.06L457.78,345.92C459.893,344.64 460.233,343.58 458.8,342.74Z" style="fill:rgb(249,202,6);fill-rule:nonzero;"/>
            </g>
            <g id="Coin-8">
                <ellipse cx="46.31" cy="380.77" rx="46.31" ry="26.74" style="fill-opacity:0.3;"/>
                <ellipse cx="50.95" cy="377.33" rx="46.31" ry="26.74" style="fill:rgb(221,153,14);"/>
                <path d="M4.66,377.74L4.66,365.55L13.81,373.7L4.66,377.74Z" style="fill:rgb(221,153,14);fill-rule:nonzero;"/>
                <path d="M97.27,365.87L97.27,377.33L92.59,382.3L90.3,369.18L97.27,365.87Z" style="fill:rgb(221,153,14);fill-rule:nonzero;"/>
                <ellipse cx="50.95" cy="365.87" rx="46.31" ry="26.74" style="fill:rgb(249,203,7);"/>
                <path d="M84.05,366.7C83.58,371.2 80.37,375.64 74.4,379.09C61.4,386.56 40.46,386.56 27.51,379.09C21.51,375.64 18.33,371.2 17.87,366.7C17.31,361.43 20.53,356.04 27.51,352.02C40.51,344.54 61.45,344.54 74.4,352.02C81.38,356 84.6,361.43 84.05,366.7Z" style="fill:rgb(204,139,9);fill-rule:nonzero;"/>
                <path d="M84.05,366.7C83.58,371.2 80.37,375.64 74.4,379.09C61.4,386.56 40.46,386.56 27.51,379.09C21.51,375.64 18.33,371.2 17.87,366.7C18.33,362.2 21.54,357.76 27.51,354.31C40.51,346.83 61.45,346.83 74.4,354.31C80.37,357.76 83.58,362.2 84.05,366.7Z" style="fill:rgb(232,163,10);fill-rule:nonzero;"/>
                <path d="M50.47,360.44C50.061,360.434 49.653,360.464 49.25,360.53C48.71,360.61 48.1,360.72 47.42,360.86C46.75,361 46.04,361.19 45.31,361.4C44.601,361.614 43.909,361.881 43.24,362.2L48.56,365.27L49.51,364.93C50.843,364.477 52.123,364.097 53.35,363.79C54.474,363.483 55.627,363.292 56.79,363.22C57.855,363.148 58.924,363.218 59.97,363.43C61.026,363.663 62.038,364.061 62.97,364.61C63.891,365.071 64.679,365.76 65.26,366.61C65.646,367.23 65.768,367.979 65.6,368.69C65.371,369.471 64.94,370.179 64.35,370.74C63.646,371.477 62.857,372.129 62,372.68L65.39,374.68L63.54,375.74L60.12,373.74C58.48,374.543 56.765,375.182 55,375.65C53.167,376.158 51.293,376.51 49.4,376.7L47.62,373.5C48.118,373.487 48.616,373.447 49.11,373.38C49.86,373.295 50.604,373.168 51.34,373C52.16,372.82 53.03,372.6 53.94,372.33C54.83,372.062 55.7,371.728 56.54,371.33L51.25,368.27L50.56,368.51L49.83,368.73C48.5,369.17 47.28,369.51 46.17,369.73C45.146,369.969 44.101,370.109 43.05,370.15C42.123,370.183 41.195,370.096 40.29,369.89C39.395,369.686 38.535,369.349 37.74,368.89C36.866,368.433 36.107,367.783 35.52,366.99C35.105,366.408 34.894,365.704 34.92,364.99C34.995,364.226 35.302,363.504 35.8,362.92C36.407,362.145 37.133,361.47 37.95,360.92L34.81,359.11L36.66,358.04L39.77,359.84C41.225,359.109 42.758,358.546 44.34,358.16C45.842,357.779 47.369,357.502 48.91,357.33L50.47,360.44ZM41.47,366.02C42.169,366.423 42.978,366.595 43.78,366.51C44.86,366.392 45.923,366.153 46.95,365.8L41.95,362.92C40.09,364.12 39.92,365.15 41.42,366L41.47,366.02ZM58.95,367.47C58.19,367.058 57.316,366.904 56.46,367.03C55.281,367.184 54.116,367.439 52.98,367.79L57.98,370.65C60.033,369.363 60.34,368.303 58.9,367.47L58.95,367.47Z" style="fill:rgb(204,139,9);fill-rule:nonzero;"/>
                <path d="M47.61,373.5L47.61,371.7L49.61,373.01L48.73,374.37L47.61,373.5Z" style="fill:rgb(204,139,9);fill-rule:nonzero;"/>
                <path d="M65.34,374.63L65.34,372.84L60.93,373.18L63.46,374.9L65.34,374.63Z" style="fill:rgb(204,139,9);fill-rule:nonzero;"/>
                <path d="M65.71,368.04L65.71,366.23L62.41,367.42L65.71,368.04Z" style="fill:rgb(204,139,9);fill-rule:nonzero;"/>
                <path d="M52.05,368L53.15,366.95L57,369.57L56.76,370.36C56.76,370.36 53.87,369.14 53.76,369.07C53.65,369 52.05,368 52.05,368Z" style="fill:rgb(204,139,9);fill-rule:nonzero;"/>
                <path d="M41.93,362.29L47.06,365.2L48.06,364.44C48.06,364.44 47.42,363.7 47.37,363.63C46.908,363.104 46.369,362.652 45.77,362.29C45.39,362.22 42.95,361.13 42.95,361.13L41.93,362.29Z" style="fill:rgb(204,139,9);fill-rule:nonzero;"/>
                <path d="M50.47,360.44L50.47,358.64L48.11,357.87L47.61,359.28L47.73,359.93L50.47,360.44Z" style="fill:rgb(204,139,9);fill-rule:nonzero;"/>
                <path d="M34.8,359.14L34.8,357.34L37.54,357.63L36.65,359.38L34.8,359.14Z" style="fill:rgb(204,139,9);fill-rule:nonzero;"/>
                <path d="M34.9,365.23L34.9,363.36L38,363.36L37.27,365L35.91,366.49L34.9,365.23Z" style="fill:rgb(204,139,9);fill-rule:nonzero;"/>
                <path d="M50.47,358.64C50.061,358.639 49.653,358.672 49.25,358.74C48.71,358.82 48.1,358.92 47.42,359.07C46.74,359.22 46.04,359.39 45.31,359.61C44.601,359.82 43.909,360.084 43.24,360.4L48.56,363.47L49.51,363.14C50.87,362.69 52.15,362.3 53.35,361.99C54.476,361.692 55.628,361.502 56.79,361.42C57.855,361.358 58.923,361.428 59.97,361.63C61.026,361.867 62.039,362.268 62.97,362.82C63.892,363.279 64.681,363.968 65.26,364.82C65.646,365.44 65.768,366.189 65.6,366.9C65.386,367.695 64.965,368.42 64.38,369C63.661,369.716 62.863,370.346 62,370.88L65.39,372.88L63.54,373.95L60.12,371.95C58.48,372.749 56.765,373.386 55,373.85C53.165,374.342 51.292,374.676 49.4,374.85L47.62,371.65C47.94,371.65 48.44,371.65 49.11,371.54C49.78,371.43 50.52,371.33 51.34,371.15C52.16,370.97 53.03,370.76 53.94,370.49C54.83,370.222 55.7,369.888 56.54,369.49L51.25,366.43C51.017,366.523 50.787,366.603 50.56,366.67L49.83,366.9C48.5,367.33 47.28,367.68 46.17,367.9C45.145,368.136 44.101,368.273 43.05,368.31C42.123,368.347 41.195,368.263 40.29,368.06C39.397,367.847 38.539,367.511 37.74,367.06C36.865,366.6 36.106,365.946 35.52,365.15C35.093,364.555 34.881,363.832 34.92,363.1C34.998,362.337 35.305,361.616 35.8,361.03C36.408,360.27 37.134,359.611 37.95,359.08L34.81,357.26L36.66,356.2L39.77,357.99C41.229,357.268 42.761,356.705 44.34,356.31C45.843,355.932 47.37,355.658 48.91,355.49L50.47,358.64ZM41.47,364.22C42.17,364.622 42.977,364.796 43.78,364.72C44.842,364.59 45.888,364.349 46.9,364L41.9,361.12C40.09,362.33 39.92,363.36 41.42,364.22L41.47,364.22ZM58.95,365.68C58.191,365.265 57.317,365.107 56.46,365.23C55.28,365.388 54.116,365.646 52.98,366L57.98,368.86C60.033,367.567 60.34,366.507 58.9,365.68L58.95,365.68Z" style="fill:rgb(249,202,6);fill-rule:nonzero;"/>
            </g>
            <path d="M125.17,301.28L123.71,299.54C122.62,298.243 121.567,296.951 120.551,295.663C94.317,262.402 92.814,232.11 115.91,203.18C136.34,177.6 172.4,157.56 204.22,139.88C210.93,136.15 217.22,132.63 223.28,129.16L230.1,125.16L236.93,129.16C273.82,150.45 312.53,160.54 358.77,160.92L368.16,160.99L368.29,166.41C368.94,193.11 386.42,215.47 423.29,236.76L430.12,240.7L423.29,244.64C417.29,248.12 411.18,251.78 404.72,255.64C374.1,274.02 339.38,294.84 295.08,306.64C243.03,320.49 188.43,319.02 128.16,302.14L125.17,301.28ZM230.17,140.89C226.11,143.18 221.93,145.5 217.6,147.89C154.27,183.09 82.6,222.94 139.6,292.89C260.8,325.89 329.84,284.44 390.8,247.89C395,245.41 399,243 403,240.66C369.18,219.77 351.95,197.66 349.34,171.87C304.62,170.37 266.36,160.42 230.18,140.89L230.17,140.89Z" style="fill-opacity:0.4;fill-rule:nonzero;"/>
            <path d="M136.35,294.57L134.89,292.84C105.65,258.04 103.1,226.52 127.09,196.47C147.52,170.89 183.59,150.85 215.4,133.17C222.11,129.44 228.4,125.92 234.46,122.45L241.29,118.51L248.11,122.45C285,143.74 323.71,153.83 370,154.21L379.39,154.28L379.52,159.7C380.17,186.4 397.65,208.76 434.52,230.05L441.35,233.99L434.52,237.94C428.52,241.41 422.41,245.07 415.96,248.94C385.33,267.31 350.62,288.13 306.31,299.94C254.31,313.8 199.66,312.32 139.39,295.44L136.35,294.57ZM241.35,134.18C237.29,136.47 233.11,138.79 228.79,141.18C165.45,176.38 93.79,216.23 150.79,286.18C271.98,319.18 341.02,277.73 401.98,241.18C406.15,238.69 410.17,236.27 414.13,233.93C380.32,213.04 363.08,190.93 360.47,165.14C315.8,163.66 277.54,153.71 241.36,134.18L241.35,134.18Z" style="fill:rgb(255,0,0);fill-rule:nonzero;"/>
            <path d="M136.35,294.57L136.35,278.92L354.79,215.7L440.88,217.94L441.32,233.99L327.95,285.82L257.23,303.53L159.4,295.78L136.35,294.57Z" style="fill:rgb(255,0,0);fill-rule:nonzero;"/>
            <path d="M110.84,237.79L110.84,223.09L118.68,233.87L110.84,237.79Z" style="fill:rgb(255,0,0);fill-rule:nonzero;"/>
            <path d="M427.66,218.34C389.06,196.05 370.51,172.61 369.82,144.13C320.49,143.73 279.89,133.02 241.29,110.74C177.96,147.3 74.13,192.11 143.58,274.74C286.72,314.85 364.33,254.9 427.66,218.34Z" style="fill:rgb(255,0,0);fill-rule:nonzero;"/>
            <g transform="matrix(1,0,0,1,-6.59559e-05,-0.55)">
                <path d="M136.35,278.92L134.89,277.18C123.63,263.783 116.328,250.87 112.975,238.34C107.622,218.332 112.338,199.298 127.09,180.82C147.52,155.24 183.59,135.2 215.4,117.51C222.11,113.79 228.4,110.27 234.46,106.79L241.29,102.85L248.11,106.79C285,128.09 323.71,138.18 369.95,138.55L379.34,138.63L379.47,144.05C380.12,170.75 397.6,193.05 434.47,214.4L441.3,218.34L434.47,222.28C428.47,225.76 422.36,229.41 415.91,233.28C385.28,251.65 350.57,272.48 306.26,284.28C254.26,298.13 199.61,296.66 139.34,279.77L136.35,278.92ZM241.35,118.53C237.29,120.82 233.11,123.14 228.79,125.53C165.45,160.72 93.79,200.58 150.79,270.53C271.98,303.48 341.02,262.08 401.98,225.53C406.15,223.03 410.17,220.62 414.13,218.28C380.32,197.39 363.08,175.28 360.47,149.49C315.8,148 277.54,138.05 241.36,118.53L241.35,118.53Z" style="fill:rgb(255,105,105);fill-rule:nonzero;"/>
            </g>
            <ellipse cx="264.9" cy="203.4" rx="40.58" ry="23.43" style="fill-opacity:0.15;"/>
            <path d="M294.2,144L252.25,119.78C249.14,117.98 246.62,113.17 246.62,109.03L246.62,80.53C246.62,76.39 249.14,74.53 252.25,76.28L294.2,100.5C297.31,102.3 299.83,107.11 299.83,111.25L299.83,139.75C299.83,143.89 297.31,145.79 294.2,144Z" style="fill:rgb(232,163,10);fill-rule:nonzero;"/>
            <path d="M279.37,155.36L298.11,144.15L286.75,118.38L269.11,127.1L279.37,155.36Z" style="fill:rgb(232,163,10);fill-rule:nonzero;"/>
            <path d="M230.49,86.83L248.98,75.8L253.61,110.14L230.49,86.83Z" style="fill:rgb(232,163,10);fill-rule:nonzero;"/>
            <path d="M275.82,155L233.82,130.78C230.71,128.99 228.2,124.18 228.2,120.04L228.2,91.52C228.2,87.38 230.71,85.52 233.82,87.27L275.82,111.5C278.92,113.29 281.44,118.1 281.44,122.24L281.44,150.74C281.44,154.88 278.92,156.79 275.82,155Z" style="fill:rgb(249,203,7);fill-rule:nonzero;"/>
            <path d="M251.12,86.44L251.12,64.79C251.12,56 257.29,52.44 264.9,56.79C272.51,61.18 278.68,71.87 278.68,80.65L278.68,102.3" style="fill:none;fill-rule:nonzero;stroke:rgb(204,139,9);stroke-width:10.46px;"/>
            <ellipse cx="250.93" cy="86.59" rx="6.11" ry="3.53" style="fill:rgb(204,139,9);"/>
            <ellipse cx="278.68" cy="101.33" rx="6.11" ry="3.53" style="fill:rgb(204,139,9);"/>
        </g>
    </g>
</svg>
