<?xml version="1.0" encoding="UTF-8" standalone="no"?>
<!DOCTYPE svg PUBLIC "-//W3C//DTD SVG 1.1//EN" "http://www.w3.org/Graphics/SVG/1.1/DTD/svg11.dtd">
<svg width="100%" height="100%" viewBox="0 0 793 552" version="1.1" xmlns="http://www.w3.org/2000/svg" xmlns:xlink="http://www.w3.org/1999/xlink" xml:space="preserve" xmlns:serif="http://www.serif.com/" style="fill-rule:evenodd;clip-rule:evenodd;stroke-linejoin:round;stroke-miterlimit:2;">
    <g transform="matrix(1.15676,0,0,1.15676,-405.969,-201.431)">
        <path d="M977.709,651.097L417.291,651.097C406.983,651.097 398.5,642.615 398.5,632.306C601.651,608.696 800.985,608.696 996.5,632.306C996.5,642.615 988.017,651.097 977.709,651.097Z" style="fill:rgb(47,46,65);fill-rule:nonzero;"/>
    </g>
    <g transform="matrix(1.15676,0,0,1.15676,-405.969,-201.431)">
        <path d="M996.5,633.412L398.5,632.306L467.806,515.691L468.138,515.138L468.138,258.131C468.138,258.13 468.138,258.129 468.138,258.129C468.138,245.099 478.86,234.376 491.89,234.376C491.891,234.376 491.891,234.376 491.892,234.376L899.792,234.376C899.793,234.376 899.793,234.376 899.794,234.376C912.824,234.376 923.546,245.099 923.546,258.129C923.546,258.129 923.546,258.13 923.546,258.131L923.546,516.906L996.5,633.412Z" style="fill:rgb(63,61,86);fill-rule:nonzero;"/>
    </g>
    <g transform="matrix(1.15676,0,0,1.15676,-405.969,-201.431)">
        <path d="M491.35,250.957C487.107,250.962 483.618,254.451 483.613,258.694L483.613,493.031C483.618,497.274 487.107,500.763 491.35,500.768L903.65,500.768C907.892,500.763 911.382,497.273 911.387,493.031L911.387,258.694C911.382,254.452 907.893,250.962 903.65,250.957L491.35,250.957Z" style="fill:white;fill-rule:nonzero;"/>
    </g>
    <g transform="matrix(1.15676,0,0,1.15676,-405.969,-201.431)">
        <path d="M493.078,531.718C491.786,531.721 490.607,532.476 490.065,533.648L468.71,580.074C468.51,580.508 468.406,580.981 468.406,581.46C468.406,583.279 469.903,584.776 471.722,584.776L920.814,584.776C922.633,584.776 924.13,583.279 924.13,581.46C924.13,580.945 924.01,580.437 923.779,579.976L900.567,533.551C900.009,532.427 898.856,531.715 897.602,531.718L493.078,531.718Z" style="fill:rgb(47,46,65);fill-rule:nonzero;"/>
    </g>
    <g transform="matrix(1.15676,0,0,1.15676,-170.568,7.10543e-15)">
        <circle cx="492.342" cy="67.98" r="4.974" style="fill:white;"/>
    </g>
    <g transform="matrix(1.15676,0,0,1.15676,-405.969,-201.431)">
        <path d="M651.7,593.619C650.206,593.62 648.888,594.63 648.498,596.072L643.141,615.969C643.066,616.25 643.027,616.54 643.027,616.831C643.027,618.65 644.524,620.147 646.343,620.147L748.217,620.147C750.036,620.147 751.532,618.651 751.532,616.832C751.532,616.462 751.471,616.095 751.35,615.746L744.463,595.85C744.001,594.518 742.739,593.619 741.329,593.619L651.7,593.619Z" style="fill:rgb(47,46,65);fill-rule:nonzero;"/>
    </g>
    <g transform="matrix(1.15676,0,0,1.15676,-170.568,7.10543e-15)">
        <path d="M720.046,337.135L720.046,341.556L264.306,341.556L264.649,341.004L264.649,337.135L720.046,337.135Z" style="fill:rgb(47,46,65);fill-rule:nonzero;"/>
    </g>
    <g transform="matrix(1.15676,0,0,1.15676,-170.568,7.10543e-15)">
        <circle cx="707.335" cy="77.375" r="77.375" style="fill:rgb(198,61,61);"/>
    </g>
    <g transform="matrix(1.15676,0,0,1.15676,-405.969,-201.431)">
        <path d="M942.89,285.223L878.779,285.223C876.354,285.221 874.36,283.226 874.358,280.802L874.358,242.114C874.36,239.689 876.355,237.695 878.779,237.692L942.89,237.692C945.315,237.695 947.309,239.689 947.311,242.114L947.311,280.802C947.309,283.226 945.315,285.221 942.89,285.223ZM878.779,242.114L878.779,280.802L942.893,280.802L942.89,242.114L878.779,242.114Z" style="fill:white;fill-rule:nonzero;"/>
    </g>
    <g transform="matrix(1.15676,0,0,1.15676,-405.969,-201.431)">
        <path d="M930.731,242.114L890.938,242.114L890.938,224.428C890.938,211.618 899.306,202.321 910.835,202.321C922.363,202.321 930.731,211.618 930.731,224.428L930.731,242.114ZM895.36,237.692L926.31,237.692L926.31,224.428C926.31,214.015 919.946,206.742 910.835,206.742C901.723,206.742 895.36,214.015 895.36,224.428L895.36,237.692Z" style="fill:white;fill-rule:nonzero;"/>
    </g>
    <g transform="matrix(1.15676,0,0,1.15676,-170.568,7.10543e-15)">
        <circle cx="707.335" cy="86.218" r="4.421" style="fill:white;"/>
    </g>
    <g transform="matrix(1.15676,0,0,1.15676,-405.969,-201.431)">
        <path d="M856.82,421.284L538.18,421.284C534.944,421.28 532.283,418.619 532.279,415.383L532.279,336.342C532.283,333.106 534.944,330.445 538.18,330.441L856.82,330.441C860.056,330.445 862.717,333.106 862.721,336.342L862.721,415.383C862.717,418.619 860.056,421.28 856.82,421.284ZM538.18,332.802C536.239,332.804 534.642,334.401 534.64,336.342L534.64,415.383C534.642,417.324 536.239,418.921 538.18,418.923L856.82,418.923C858.761,418.921 860.358,417.324 860.36,415.383L860.36,336.342C860.358,334.401 858.761,332.804 856.82,332.802L538.18,332.802Z" style="fill:rgb(230,230,230);fill-rule:nonzero;"/>
    </g>
    <g transform="matrix(1.15676,0,0,1.15676,-170.568,7.10543e-15)">
        <circle cx="384.19" cy="198.695" r="24.036" style="fill:rgb(230,230,230);"/>
    </g>
    <g transform="matrix(1.15676,0,0,1.15676,-405.969,-201.431)">
        <path d="M643.203,356.805C643.201,356.805 643.199,356.805 643.197,356.805C640.999,356.805 639.191,358.614 639.191,360.811C639.191,363.009 640.999,364.818 643.197,364.818C643.199,364.818 643.201,364.818 643.203,364.818L832.061,364.818C834.258,364.818 836.067,363.009 836.067,360.811C836.067,358.614 834.258,356.805 832.061,356.805L643.203,356.805Z" style="fill:rgb(230,230,230);fill-rule:nonzero;"/>
    </g>
    <g transform="matrix(1.15676,0,0,1.15676,-405.969,-201.431)">
        <path d="M643.203,380.842C641.005,380.842 639.197,382.65 639.197,384.848C639.197,387.046 641.005,388.854 643.203,388.854L724.469,388.854C726.667,388.854 728.475,387.046 728.475,384.848C728.475,382.65 726.667,380.842 724.469,380.842L643.203,380.842Z" style="fill:rgb(230,230,230);fill-rule:nonzero;"/>
    </g>
</svg>
