<svg xmlns="http://www.w3.org/2000/svg" xmlns:xlink="http://www.w3.org/1999/xlink" width="380.082" height="385.997" viewBox="0 0 380.082 385.997">
  <defs>
    <linearGradient id="linear-gradient" x1="0.5" y1="1" x2="0.5" gradientUnits="objectBoundingBox">
      <stop offset="0" stop-color="gray" stop-opacity="0.251"/>
      <stop offset="0.54" stop-color="gray" stop-opacity="0.122"/>
      <stop offset="1" stop-color="gray" stop-opacity="0.102"/>
    </linearGradient>
    <linearGradient id="linear-gradient-2" y1="1" y2="-0.001" xlink:href="#linear-gradient"/>
  </defs>
  <g id="Group_262" data-name="Group 262" transform="translate(-40.25)">
    <path id="Path_1690" data-name="Path 1690" d="M825.983,493.778c.644,4.8,11.2,17.543,11.2,17.543s6.815-15.077,6.171-19.877a8.766,8.766,0,0,0-17.375,2.334Z" transform="translate(-433.764 -267.862)" fill="#6c63ff"/>
    <path id="Path_1697" data-name="Path 1697" d="M825.983,493.778c.644,4.8,11.2,17.543,11.2,17.543s6.815-15.077,6.171-19.877a8.766,8.766,0,0,0-17.375,2.334Z" transform="translate(-433.764 -267.862)" opacity="0.25"/>
    <path id="Path_1704" data-name="Path 1704" d="M835.107,421.309c3.2,3.633,19.045,8.4,19.045,8.4s-2.679-16.33-5.871-19.969a8.774,8.774,0,1,0-13.194,11.57Z" transform="translate(-437.215 -229.89)" fill="#6c63ff"/>
    <path id="Path_1705" data-name="Path 1705" d="M799.631,494.148c2.537,4.126,17.35,11.5,17.35,11.5s.122-16.548-2.41-20.674a8.766,8.766,0,1,0-14.94,9.175Z" transform="translate(-420.185 -266.36)" fill="#6c63ff"/>
    <path id="Path_1706" data-name="Path 1706" d="M281.84,0V357.992H539.325V0Z" transform="translate(-118.993)" fill="url(#linear-gradient)"/>
    <rect id="Rectangle_317" data-name="Rectangle 317" width="252.969" height="13.646" transform="translate(165.105 3.141)" fill="#f6f7f9"/>
    <g id="Group_249" data-name="Group 249" transform="translate(165.105 3.141)" opacity="0.2">
      <rect id="Rectangle_318" data-name="Rectangle 318" width="252.969" height="13.646" transform="translate(0)" fill="#c73c3c"/>
    </g>
    <rect id="Rectangle_319" data-name="Rectangle 319" width="252.969" height="338.064" transform="translate(165.105 16.787)" fill="#f6f7f9"/>
    <circle id="Ellipse_154" data-name="Ellipse 154" cx="2.314" cy="2.314" r="2.314" transform="translate(169.444 7.647)" fill="#f6f7f9"/>
    <circle id="Ellipse_155" data-name="Ellipse 155" cx="2.314" cy="2.314" r="2.314" transform="translate(175.716 7.647)" fill="#f6f7f9"/>
    <circle id="Ellipse_156" data-name="Ellipse 156" cx="2.314" cy="2.314" r="2.314" transform="translate(181.988 7.647)" fill="#f6f7f9"/>
    <g id="Group_250" data-name="Group 250" transform="translate(210.254 37.628)" opacity="0.2">
      <rect id="Rectangle_320" data-name="Rectangle 320" width="162.666" height="6.369" fill="#c73c3c"/>
    </g>
    <rect id="Rectangle_321" data-name="Rectangle 321" width="21.613" height="6.369" transform="translate(351.307 37.628)" fill="#c73c3c"/>
    <g id="Group_251" data-name="Group 251" transform="translate(186.941 167.776)" opacity="0.2">
      <rect id="Rectangle_322" data-name="Rectangle 322" width="102.365" height="73.323" fill="#6c63ff" opacity="0.2"/>
    </g>
    <g id="Group_252" data-name="Group 252" transform="translate(186.941 72.663)" opacity="0.2">
      <rect id="Rectangle_323" data-name="Rectangle 323" width="102.365" height="73.323" fill="#6c63ff" opacity="0.2"/>
    </g>
    <g id="Group_253" data-name="Group 253" transform="translate(186.941 261.651)" opacity="0.2">
      <rect id="Rectangle_324" data-name="Rectangle 324" width="102.365" height="73.323" fill="#6c63ff" opacity="0.2"/>
    </g>
    <g id="Group_254" data-name="Group 254" transform="translate(293.873 167.776)" opacity="0.2">
      <rect id="Rectangle_325" data-name="Rectangle 325" width="102.365" height="73.323" fill="#6c63ff" opacity="0.2"/>
    </g>
    <g id="Group_255" data-name="Group 255" transform="translate(293.873 72.663)" opacity="0.2">
      <rect id="Rectangle_326" data-name="Rectangle 326" width="102.365" height="73.323" fill="#6c63ff" opacity="0.2"/>
    </g>
    <g id="Group_256" data-name="Group 256" transform="translate(293.873 261.651)" opacity="0.2">
      <rect id="Rectangle_327" data-name="Rectangle 327" width="102.365" height="73.323" fill="#6c63ff" opacity="0.2"/>
    </g>
    <path id="Path_1719" data-name="Path 1719" d="M683.781,226.969s-.929-2.319,5.333-1.741,24.241,2.578,32.016.827,12.407-2.309,11.946,0-13.453,7.526-13.453,7.526L702.8,235.322l-12.407-1.974L683.73,229.4Z" transform="translate(-363.738 -140.137)" fill="#2b2839"/>
    <path id="Path_1720" data-name="Path 1720" d="M733.107,226.051c-.467,2.309-13.453,7.526-13.453,7.526l-16.822,1.741-12.407-1.969-6.658-3.943.046-2.436a1.015,1.015,0,0,1,.355-1.122c.573-.507,1.913-.9,4.978-.619,6.267.579,24.241,2.573,32.016.822,6.333-1.426,10.586-2.06,11.672-1.015a1.015,1.015,0,0,1,.274,1.015Z" transform="translate(-363.754 -139.119)" opacity="0.1"/>
    <path id="Path_1721" data-name="Path 1721" d="M734.128,266.444a72.612,72.612,0,0,0-29.849,13.219,5.536,5.536,0,0,0-2.38-2.827,8.359,8.359,0,0,0-2.416-1.015,2.433,2.433,0,0,0-2.207.954,12.5,12.5,0,0,0-1.964,2.908c-11.829-8.119-29.773-13.3-29.773-13.3V264.76a8.962,8.962,0,0,1,.117-1.142c.061-.436.137-.822.233-1.294,1.522-7.744,7.541-25.439,7.541-25.439h6.805l13.194,2.74,14.843-.908,14.95-3.111,1.938-.406c3.232,2.537,6.9,20.3,8.343,27.86.183.959.325,1.751.431,2.334C734.062,266.054,734.128,266.444,734.128,266.444Z" transform="translate(-354.779 -145.395)" fill="#2b2839"/>
    <path id="Path_1722" data-name="Path 1722" d="M668.006,264.71c.391-7.434,6.3-23.546,7.3-26.22h-1.862s-6.374,18.776-7.668,26.1a.182.182,0,0,0,0,.056c-.036.2-.071.391-.1.573-.061.436-.1.822-.117,1.142v1.624s17.944,5.186,29.773,13.3a12.5,12.5,0,0,1,1.964-2.908C692.775,274.271,675.628,267.573,668.006,264.71Z" transform="translate(-354.788 -147.015)" fill="#6c63ff"/>
    <path id="Path_1723" data-name="Path 1723" d="M769.236,265.354c-.046-.259-.1-.558-.162-.888-.076-.426-.167-.908-.269-1.446h0c-1.441-7.571-5.11-25.337-8.343-27.86l-1.938.406c1.177,3.161,8.764,23.8,8.119,27.834-12.686,2.537-25.545,10.784-29.433,13.417a5.536,5.536,0,0,1,2.38,2.827,72.612,72.612,0,0,1,29.849-13.219S769.363,266.034,769.236,265.354Z" transform="translate(-390.079 -145.375)" fill="#6c63ff"/>
    <path id="Path_1724" data-name="Path 1724" d="M668.926,263.8c.386-7.434,6.3-23.546,7.3-26.215h-1.867s-6.374,18.776-7.668,26.1v.056q-.056.3-.091.578c-.061.436-.1.822-.117,1.142v1.624s17.939,5.181,29.773,13.3a12.286,12.286,0,0,1,1.959-2.908C693.69,273.371,676.548,266.657,668.926,263.8Z" transform="translate(-355.242 -146.567)" opacity="0.1"/>
    <path id="Path_1725" data-name="Path 1725" d="M668.006,264.71c.391-7.434,6.3-23.546,7.3-26.22h-1.862s-6.374,18.776-7.668,26.1a.182.182,0,0,0,0,.056c-.036.2-.071.391-.1.573-.061.436-.1.822-.117,1.142v1.624s17.944,5.186,29.773,13.3a12.5,12.5,0,0,1,1.964-2.908C692.775,274.271,675.628,267.573,668.006,264.71Z" transform="translate(-354.788 -147.015)" fill="#2b2839"/>
    <path id="Path_1726" data-name="Path 1726" d="M768.331,264.434l-.162-.888c-.081-.426-.167-.9-.269-1.446h0c-1.436-7.566-5.11-25.332-8.343-27.86l-1.933.411c1.177,3.161,8.764,23.8,8.119,27.834-12.686,2.537-25.551,10.784-29.433,13.412a5.546,5.546,0,0,1,2.38,2.832A72.536,72.536,0,0,1,768.534,265.5S768.458,265.124,768.331,264.434Z" transform="translate(-389.636 -144.922)" fill="#56535e" opacity="0.1"/>
    <path id="Path_1727" data-name="Path 1727" d="M769.236,265.354c-.046-.259-.1-.558-.162-.888-.076-.426-.167-.908-.269-1.446h0c-1.441-7.571-5.11-25.337-8.343-27.86l-1.938.406c1.177,3.161,8.764,23.8,8.119,27.834-12.686,2.537-25.545,10.784-29.433,13.417a5.536,5.536,0,0,1,2.38,2.827,72.612,72.612,0,0,1,29.849-13.219S769.363,266.034,769.236,265.354Z" transform="translate(-390.079 -145.375)" fill="#2b2839"/>
    <path id="Path_1728" data-name="Path 1728" d="M678.312,253.231s11.773,7.409,14.523-3.441l2.619.7s.863,12.022-17.923,5.161Z" transform="translate(-360.684 -152.581)" opacity="0.1"/>
    <path id="Path_1729" data-name="Path 1729" d="M678.312,251.4s11.773,7.409,14.523-3.441l2.619.7s.863,12.022-17.923,5.161Z" transform="translate(-360.684 -151.68)" fill="#2b2839"/>
    <path id="Path_1730" data-name="Path 1730" d="M752.07,250.022s1.522,8.865,17.654,4.567l-.568-1.675s-11.017,4.567-15.011-3.364Z" transform="translate(-397.398 -152.463)" opacity="0.1"/>
    <path id="Path_1731" data-name="Path 1731" d="M752.07,248.192s1.522,8.865,17.654,4.567l-.568-1.675s-11.017,4.567-15.011-3.364Z" transform="translate(-397.398 -151.562)" fill="#2b2839"/>
    <path id="Path_1732" data-name="Path 1732" d="M730.91,248.506v18.5h2.862s3.958-1.426,3.867-9.743-.7-10.555-.7-10.555Z" transform="translate(-386.976 -151.064)" opacity="0.1"/>
    <path id="Path_1733" data-name="Path 1733" d="M730,247.6v18.5h2.862s3.958-1.426,3.867-9.743-.7-10.555-.7-10.555Z" transform="translate(-386.528 -150.616)" fill="#2b2839"/>
    <path id="Path_1734" data-name="Path 1734" d="M732.825,232.651c-1.167,2.172-11.763,5.739-13.635,6.353l-.284.091s-.67.173-1.791.406c-3.41.71-11.012,2.03-16.746.873-.832-.162-1.695-.34-2.573-.507l-2.03-.441c-6.6-1.467-13.422-3.385-14.635-5.075,0,0,.33-5.516,1.441-5.369s13.519,5.369,13.519,5.369l.178.025c.32.041,1.045.132,2.065.249,4.029.441,12.519,1.142,17.086-.081.218-.061.421-.122.619-.193.345-.117.705-.238,1.076-.376,5.876-2.081,14.676-5.805,14.676-5.805S734.114,230.261,732.825,232.651Z" transform="translate(-362.457 -141.932)" opacity="0.1"/>
    <path id="Path_1735" data-name="Path 1735" d="M733.107,226.575c-.467,2.309-13.453,7.526-13.453,7.526l-16.822,1.741-12.407-1.969-6.658-3.943.046-2.436a1.015,1.015,0,0,1,.355-1.122c2.207.67,13.194,5.293,13.194,5.293l.178.025c.32.041,1.045.132,2.065.249,4.029.441,12.519,1.142,17.086-.081.218-.061.421-.122.619-.193.345-.112.705-.239,1.076-.376,5.313-1.883,13.021-5.11,14.447-5.709A1.015,1.015,0,0,1,733.107,226.575Z" transform="translate(-363.754 -140.657)" opacity="0.1"/>
    <path id="Path_1736" data-name="Path 1736" d="M732.825,230.806c-1.167,2.172-11.763,5.734-13.635,6.348l-.284.1s-.67.167-1.791.4c-3.41.71-11.012,2.03-16.746.873-.832-.162-1.695-.34-2.573-.507l-2.03-.441c-6.6-1.467-13.422-3.385-14.635-5.075,0,0,.33-5.516,1.441-5.364S696.09,232.5,696.09,232.5l.178.025c.32.041,1.045.137,2.065.249,4.029.441,12.519,1.142,17.086-.081.218-.061.421-.122.619-.193.345-.112.705-.239,1.076-.376,5.876-2.081,14.676-5.805,14.676-5.805S734.114,228.426,732.825,230.806Z" transform="translate(-362.457 -141.021)" fill="#2b2839"/>
    <circle id="Ellipse_158" data-name="Ellipse 158" cx="1.857" cy="1.857" r="1.857" transform="translate(344.086 93.789)" opacity="0.1"/>
    <circle id="Ellipse_159" data-name="Ellipse 159" cx="1.857" cy="1.857" r="1.857" transform="translate(344.086 93.322)" fill="#2b2839"/>
    <path id="Path_1737" data-name="Path 1737" d="M713.437,238.759,712.93,244l-2.03-.441.507-5.044C711.692,238.561,712.422,238.657,713.437,238.759Z" transform="translate(-377.12 -147.025)" opacity="0.1"/>
    <path id="Path_1738" data-name="Path 1738" d="M712.537,238.759,712.03,244l-2.03-.441.507-5.044C710.787,238.561,711.522,238.657,712.537,238.759Z" transform="translate(-376.677 -147.025)" fill="#2b2839"/>
    <path id="Path_1739" data-name="Path 1739" d="M751.546,242.779l-.284.1s-.665.167-1.791.4l-1.73-4.968c.218-.061.426-.122.624-.193.345-.112.705-.238,1.076-.376Z" transform="translate(-395.265 -146.646)" opacity="0.1"/>
    <path id="Path_1740" data-name="Path 1740" d="M752.466,242.779l-.284.1s-.67.167-1.791.4l-1.73-4.968c.218-.061.421-.122.619-.193.345-.112.705-.238,1.076-.376Z" transform="translate(-395.719 -146.646)" fill="#2b2839"/>
    <g id="Group_257" data-name="Group 257" transform="translate(206.08 81.716)" opacity="0.5">
      <path id="Path_1741" data-name="Path 1741" d="M497.629,220.143a13.4,13.4,0,0,1,6.744,1.873s6.181.751,9.55,0,5.075-3.37,5.714-2.624.655,7.774.655,7.774l-2.9,7.774-6.556,4.867-10.393-2.994L497,228.018Z" transform="translate(-477.846 -219.259)" fill="#2b2839"/>
      <path id="Path_1742" data-name="Path 1742" d="M520.292,227.191l-2.9,7.774-6.556,4.867-10.393-2.994-3.441-8.8.655-7.866h.152a13.762,13.762,0,0,1,6.6,1.878s6.181.751,9.55,0c3.2-.71,4.887-3.116,5.582-2.71h0a.315.315,0,0,1,.107.081C520.292,220.158,520.292,227.191,520.292,227.191Z" transform="translate(-477.846 -219.274)" opacity="0.1"/>
      <path id="Path_1743" data-name="Path 1743" d="M520.292,227.24l-2.9,7.774-6.556,4.867-10.393-2.994-3.441-8.8.655-7.866h.152c.579,2.481,3.045,10.317,10.9,10.87,8.079.563,10.372-9.048,10.849-11.7a.315.315,0,0,1,.107.081C520.292,220.207,520.292,227.24,520.292,227.24Z" transform="translate(-477.846 -219.324)" opacity="0.1"/>
      <path id="Path_1744" data-name="Path 1744" d="M479.038,220.271s1.685,10.956,11.052,11.611,10.956-12.362,10.956-12.362,13.58,4.45,16.746,12.387,5.526,14.305,5.526,14.305-1.015,1.776-2.157,1.964-8.9,5.526-8.9,5.526-.091,15.173.751,16.107.563,4.963-1.969,4.775-20.04-4.121-35.015-.842c0,0-6.272,2.248-6.089-1.406s.467-17.979.467-17.979-9.459-4.121-10.017-4.121-1.969-.741-.472-3.182,3.375-10.768,3.375-10.768S467.052,224.331,479.038,220.271Z" transform="translate(-459.255 -219.388)" fill="#2b2839"/>
      <path id="Path_1745" data-name="Path 1745" d="M555.63,259.77s2.811,2.06,2.157,3.654S555.63,259.77,555.63,259.77Z" transform="translate(-506.724 -239.212)" opacity="0.1"/>
      <path id="Path_1746" data-name="Path 1746" d="M563.559,263.67a5.075,5.075,0,0,0,0,2.8" transform="translate(-510.532 -241.133)" opacity="0.1"/>
      <path id="Path_1747" data-name="Path 1747" d="M566.716,273.8s.376,2.537-.746,2.806" transform="translate(-511.817 -246.123)" opacity="0.1"/>
      <path id="Path_1748" data-name="Path 1748" d="M488.429,258.48s-5.242,4.567-3.466,6.369" transform="translate(-471.737 -238.577)" opacity="0.1"/>
      <path id="Path_1749" data-name="Path 1749" d="M485.689,280.26s-.086,4.775,1.36,5.151" transform="translate(-472.274 -249.305)" opacity="0.1"/>
      <path id="Path_1750" data-name="Path 1750" d="M515.4,309.537s3.552-2.431,4.5-2.339" transform="translate(-486.909 -262.571)" opacity="0.1"/>
      <path id="Path_1751" data-name="Path 1751" d="M522.4,314.329s3.847-2.72,4.877-2.537" transform="translate(-490.357 -264.831)" opacity="0.1"/>
    </g>
    <g id="Group_258" data-name="Group 258" transform="translate(311.959 174.779)" opacity="0.5">
      <path id="Path_1752" data-name="Path 1752" d="M687,402.65s30.64,1.451,45.874.558l-.335,4.019-26.956,3.552-7.977-2.456Z" transform="translate(-677.308 -402.65)" fill="#2b2839"/>
      <path id="Path_1753" data-name="Path 1753" d="M732.895,403.208l-.335,4.019-26.951,3.552-7.982-2.456L687,402.65s.629.036,1.751.081h0c6.648.289,30.585,1.223,43.728.507Z" transform="translate(-677.308 -402.65)" opacity="0.1"/>
      <path id="Path_1754" data-name="Path 1754" d="M734.093,460.358c-5.917,3.552-26.454.112-26.454.112l-5.694-20.3-6.364,20.649c-9.038,3.238-27.682-1.451-27.682-1.451l7.257-44.656,1.253-6.155,1.182-5.907,11.5,3.461s3.456,2.344,17.857,1.675,16.518-4.567,16.518-4.567c.634.183,1.238,2.421,1.847,5.2.883,4.06,1.781,9.266,2.842,10.987C729.962,422.3,734.093,460.358,734.093,460.358Z" transform="translate(-667.9 -402.65)" fill="#2b2839"/>
      <path id="Path_1755" data-name="Path 1755" d="M733.594,409.29c-12.839,7.049-23.891,6.856-23.891,6.856-2.735.335-25.033-6.714-25.033-6.714l1.182-5.9,11.5,3.461s3.456,2.344,17.857,1.675,16.518-4.567,16.518-4.567C732.381,404.276,732.985,406.509,733.594,409.29Z" transform="translate(-676.16 -403.083)" opacity="0.1"/>
      <path id="Path_1756" data-name="Path 1756" d="M732.895,403.208l-.335,4.019-26.951,3.552-7.982-2.456L687,402.65s.629.036,1.751.081h0l9.743,2.933s3.456,2.344,17.857,1.675c11.311-.507,15.046-3.045,16.127-4.105Z" transform="translate(-677.308 -402.65)" opacity="0.1"/>
      <path id="Path_1757" data-name="Path 1757" d="M733.594,408.41c-12.839,7.049-23.891,6.856-23.891,6.856-2.735.335-25.033-6.714-25.033-6.714l1.182-5.9,11.5,3.461s3.456,2.344,17.857,1.675,16.518-4.567,16.518-4.567C732.381,403.391,732.985,405.629,733.594,408.41Z" transform="translate(-676.16 -402.65)" fill="#2b2839"/>
      <circle id="Ellipse_160" data-name="Ellipse 160" cx="1.172" cy="1.172" r="1.172" transform="translate(34.548 9.205)" opacity="0.1"/>
      <circle id="Ellipse_161" data-name="Ellipse 161" cx="1.172" cy="1.172" r="1.172" transform="translate(34.548 8.759)" fill="none" stroke="#56535e" stroke-miterlimit="10" stroke-width="1"/>
      <path id="Path_1758" data-name="Path 1758" d="M679.23,463.58s2.065,6.14,3.517,6.029S679.23,463.58,679.23,463.58Z" transform="translate(-673.481 -432.66)" opacity="0.1"/>
      <path id="Path_1759" data-name="Path 1759" d="M676.59,475.46s1.284,3.684,2.624,4.3" transform="translate(-672.18 -438.512)" opacity="0.1"/>
      <path id="Path_1760" data-name="Path 1760" d="M676.59,483.05a16.206,16.206,0,0,0,3.232,3.182" transform="translate(-672.18 -442.25)" opacity="0.1"/>
      <path id="Path_1761" data-name="Path 1761" d="M784,437.3s1.9,2.847,0,3.461" transform="translate(-725.084 -419.717)" opacity="0.1"/>
      <path id="Path_1762" data-name="Path 1762" d="M784.479,445.793c-2.2-2.613-.842,3.552-.842,3.552S785.043,446.463,784.479,445.793Z" transform="translate(-724.701 -423.582)" opacity="0.1"/>
      <path id="Path_1763" data-name="Path 1763" d="M785.2,452.69s-3.349,4.968-2.679,5.526" transform="translate(-724.313 -427.297)" opacity="0.1"/>
      <path id="Path_1764" data-name="Path 1764" d="M692.207,430.93a24.435,24.435,0,0,1-8.627-1.969l.183-.411c.081.041,8.277,3.6,12.712.929,1.675-1.015,2.613-2.8,2.8-5.328l.447.036c-.193,2.679-1.208,4.567-3.014,5.673a8.627,8.627,0,0,1-4.5,1.071Z" transform="translate(-675.623 -413.24)" opacity="0.26"/>
      <path id="Path_1765" data-name="Path 1765" d="M692.207,430.05a24.435,24.435,0,0,1-8.627-1.969l.183-.406c.081.036,8.277,3.593,12.712.924,1.675-1.015,2.613-2.8,2.8-5.328l.447.036c-.193,2.679-1.208,4.567-3.014,5.673a8.627,8.627,0,0,1-4.5,1.071Z" transform="translate(-675.623 -412.806)" fill="#2b2839"/>
      <path id="Path_1766" data-name="Path 1766" d="M760.267,431.949a6.947,6.947,0,0,1-3.045-.655c-3.329-1.6-3.867-5.531-3.892-5.7l.447-.056c0,.041.533,3.862,3.644,5.354,2.771,1.335,6.7.507,11.672-2.537l.228.381C765.783,430.878,762.754,431.949,760.267,431.949Z" transform="translate(-709.978 -413.924)" opacity="0.26"/>
      <path id="Path_1767" data-name="Path 1767" d="M760.267,431.069a6.948,6.948,0,0,1-3.045-.655c-3.329-1.6-3.867-5.531-3.892-5.7l.447-.056c0,.041.533,3.862,3.644,5.354,2.771,1.335,6.7.507,11.672-2.537l.228.381C765.783,430,762.754,431.069,760.267,431.069Z" transform="translate(-709.978 -413.491)" fill="#2b2839"/>
    </g>
    <path id="Path_1768" data-name="Path 1768" d="M503.34,404s5.76,8.043,9.672,7.262,4.3-1.639,7.774-7.262l2.852,6.561-3.359,8.119-3.978,5.151-8.434-1.324-2.73-9.215Z" transform="translate(-274.889 -228.536)" fill="#2b2839"/>
    <path id="Path_1769" data-name="Path 1769" d="M523.638,410.542l-3.359,8.119-3.978,5.151-8.434-1.324-2.73-9.215-1.8-9.286s.507.7,1.3,1.664c1.933,2.309,5.612,6.145,8.373,5.582,3.857-.771,4.288-1.619,7.637-7.033l.137-.228Z" transform="translate(-274.889 -228.521)" opacity="0.1"/>
    <path id="Path_1770" data-name="Path 1770" d="M523.638,410.556l-3.359,8.119-3.978,5.151-8.434-1.324-2.73-9.215L503.34,404s.507.7,1.3,1.664c1.258,4.06,3.963,10.57,8.373,10.515,4.978-.056,6.988-8.3,7.637-11.951l.137-.228Z" transform="translate(-274.889 -228.536)" opacity="0.1"/>
    <path id="Path_1771" data-name="Path 1771" d="M493.444,402.529s-1.954-.233-.939,2.187,2.887,10.383,1.954,12.022-.467,6.09-4.527,6.952l1.167,4.6s.233,10.149-.233,11.636-.548,9.677-.391,10.535.081,6.48-.543,6.719-1.015,2.964,1.015,3.43,10.692.705,12.255,1.172,12.646,0,12.646,0,4.684-.624,5.856-1.015,1.406-1.324,1.015-3.121-2.187-14.833-1.8-16.472.472-17.644.472-17.644-3.045-1.015-3.045-3.984-1.172-10.931,1.248-15.924c0,0-1.954-1.34-2.263-1.1s-3.258-.619-3.258-.619-1.522,13.585-7.891,13.661-9.205-13.661-9.205-13.661S497.037,400.656,493.444,402.529Z" transform="translate(-268.038 -227.303)" fill="#2b2839"/>
    <path id="Path_1772" data-name="Path 1772" d="M515.49,489.38s1.314,3.2,3.507,3.669S515.49,489.38,515.49,489.38Z" transform="translate(-280.873 -270.589)" opacity="0.1"/>
    <path id="Path_1773" data-name="Path 1773" d="M511.49,494.3s4.242,3.435,4.06,4.141" transform="translate(-278.903 -273.012)" opacity="0.1"/>
    <path id="Path_1774" data-name="Path 1774" d="M494.72,454.3s3.359,2.263,3.359,3.9" transform="translate(-270.643 -253.311)" opacity="0.1"/>
    <path id="Path_1775" data-name="Path 1775" d="M497.668,464.438s-.934-3.278-1.558-3.978" transform="translate(-271.327 -256.345)" opacity="0.1"/>
    <path id="Path_1776" data-name="Path 1776" d="M496.11,470.76a29.229,29.229,0,0,1,1.558,3.593" transform="translate(-271.327 -261.418)" opacity="0.1"/>
    <path id="Path_1777" data-name="Path 1777" d="M545.91,459.53s-4.369,1.33-3.984,2.969" transform="translate(-293.882 -255.887)" opacity="0.1"/>
    <path id="Path_1778" data-name="Path 1778" d="M541.91,483.088s5.724-6.638,4-6.48S541.91,483.088,541.91,483.088Z" transform="translate(-293.886 -264.296)" opacity="0.1"/>
    <g id="Group_259" data-name="Group 259" transform="translate(221.384 174.194)" opacity="0.1">
      <path id="Path_1779" data-name="Path 1779" d="M546.137,430.741c0-1.37-.249-3.806-.279-6.521-.03,3.116.279,6,.279,7.536,0,2.9,2.908,3.933,3.045,3.978v-1.015S546.137,433.71,546.137,430.741Z" transform="translate(-517.214 -412.689)"/>
      <path id="Path_1780" data-name="Path 1780" d="M553.207,498.5a7.913,7.913,0,0,1,.137.807,5.075,5.075,0,0,0-.137-1.822c-.335-1.522-1.695-11.3-1.837-15.112C551.218,484.978,552.852,496.792,553.207,498.5Z" transform="translate(-519.925 -441.33)"/>
      <path id="Path_1781" data-name="Path 1781" d="M491.349,480.123a45.58,45.58,0,0,1,.462-7.612,44.141,44.141,0,0,0,.294-6.891,35.058,35.058,0,0,1-.294,5.876C491.466,472.6,491.334,477.363,491.349,480.123Z" transform="translate(-490.366 -433.08)"/>
      <path id="Path_1782" data-name="Path 1782" d="M496.176,403.543c3.588-1.873,3.512-.624,3.512-.624s2.811,13.742,9.205,13.661,7.916-13.661,7.916-13.661,2.969.858,3.278.619,1.35.507,1.923.873c.107-.269.218-.533.345-.787,0,0-1.954-1.34-2.268-1.1s-3.278-.619-3.278-.619-1.522,13.585-7.891,13.661-9.205-13.661-9.205-13.661.076-1.248-3.512.624c0,0-1.588-.183-1.147,1.568C495.308,403.442,496.176,403.543,496.176,403.543Z" transform="translate(-492.154 -401.497)"/>
      <path id="Path_1783" data-name="Path 1783" d="M489.919,507.812c.507-.188.644-3.664.614-5.582-.025,1.928-.2,4.41-.614,4.567s-.609,1.015-.452,1.842C489.549,508.2,489.711,507.883,489.919,507.812Z" transform="translate(-489.414 -451.112)"/>
      <path id="Path_1784" data-name="Path 1784" d="M494.942,431.506a4.364,4.364,0,0,0,.238-2.086,2.674,2.674,0,0,1-.238,1.071c-.939,1.639-.472,6.089-4.532,6.952l.244.954C494.449,437.413,494.023,433.114,494.942,431.506Z" transform="translate(-489.904 -415.25)"/>
    </g>
    <path id="Path_1785" data-name="Path 1785" d="M523.019,588.675c-1.918,3.491-21.389,0-21.389,0l.051-.35.386-2.7h20.517l.391,2.7Z" transform="translate(-274.046 -317.991)" fill="#2b2839"/>
    <path id="Path_1786" data-name="Path 1786" d="M523.019,591.156c-1.918,3.491-21.389,0-21.389,0l.051-.35c.934,0,15.021-.335,21.313,0Z" transform="translate(-274.046 -320.472)" opacity="0.1"/>
    <path id="Path_1787" data-name="Path 1787" d="M485.568,591.493h0s-3.491.873-8.906,15.538-7.333,33.614-7.333,33.614-3.045,5.156,9.951,5.5c0,0-1.045,3.405,6.287,2.882s6.277-.518,6.277-.518,4.714-2.969,6.81-2.446a11.033,11.033,0,0,1,5.673,2.618c2.268,1.918,9.52,1.137,9.606-.345a13.7,13.7,0,0,0,0-2.187s11.088.7,8.992-7.333-3.841-21.217-3.841-21.217-5.673-25.754-12.138-26.1S485.568,591.493,485.568,591.493Z" transform="translate(-257.984 -320.809)" fill="#2b2839"/>
    <rect id="Rectangle_328" data-name="Rectangle 328" width="44.717" height="0.35" transform="matrix(0.092, -0.996, 0.996, 0.092, 221.139, 325.349)" opacity="0.1"/>
    <rect id="Rectangle_329" data-name="Rectangle 329" width="46.884" height="0.35" transform="translate(233.674 327.671) rotate(-89.78)" opacity="0.1"/>
    <path id="Path_1788" data-name="Path 1788" d="M535.18,611.6" transform="translate(-290.571 -330.787)" fill="none" stroke="#6c63ff" stroke-miterlimit="10" stroke-width="1"/>
    <rect id="Rectangle_330" data-name="Rectangle 330" width="0.35" height="47.092" transform="translate(244.463 280.79) rotate(-2.13)" opacity="0.1"/>
    <path id="Path_1789" data-name="Path 1789" d="M552.122,655.258c-.609-26.819-5.176-45.179-5.232-45.342l.34-.086c.046.183,4.638,18.578,5.242,45.443Z" transform="translate(-296.339 -329.915)" opacity="0.1"/>
    <path id="Path_1790" data-name="Path 1790" d="M502.567,596.8s-.609.35,0,2.03" transform="translate(-274.375 -323.498)" opacity="0.1"/>
    <path id="Path_1791" data-name="Path 1791" d="M505.564,596.8s-1.659,1.045,0,2.8" transform="translate(-275.621 -323.498)" opacity="0.1"/>
    <path id="Path_1792" data-name="Path 1792" d="M536.9,596.8s2.268,2.182,1.746,2.8" transform="translate(-291.418 -323.498)" opacity="0.1"/>
    <path id="Path_1793" data-name="Path 1793" d="M540.5,595.77s.355,2.618,1.664,3.319" transform="translate(-293.191 -322.99)" opacity="0.1"/>
    <g id="Group_260" data-name="Group 260" transform="translate(325.023 267.27)" opacity="0.5">
      <path id="Path_1794" data-name="Path 1794" d="M722.637,586.243s8.566-3.41,12.27.751-2.537,9.226-2.537,9.226l-2.618,5.227-6.161-.675-1.451-7.226Z" transform="translate(-707.68 -584.92)" fill="#2b2839"/>
      <path id="Path_1795" data-name="Path 1795" d="M732.37,596.187l-2.618,5.227-6.161-.655-1.451-7.221.507-7.3.137-.051c1.086-.4,8.419-2.958,11.925.563a2.743,2.743,0,0,1,.208.213C738.612,591.1,732.37,596.187,732.37,596.187Z" transform="translate(-707.68 -584.913)" opacity="0.1"/>
      <path id="Path_1796" data-name="Path 1796" d="M732.37,597.422l-2.618,5.227-6.161-.655-1.451-7.221.507-7.3.137-.051c1.061,5.81,3.892,8.261,4.369,8.627l.071.051,1.741-.142c3.385-1.867,5.171-6.308,5.744-7.987a2.732,2.732,0,0,1,.208.213C738.612,592.337,732.37,597.422,732.37,597.422Z" transform="translate(-707.68 -586.148)" opacity="0.1"/>
      <path id="Path_1797" data-name="Path 1797" d="M733.3,617.423s-1.888,24.043-1.375,26.946-1.091,3.121-1.091,3.121-6.83,1.522-8.119.507a7.767,7.767,0,0,0-3.486-1.213s-5.075,1.162-7.338.294-6.029-.507-6.029-.507-2.9,1.746-3.7,1.38-1.817-.218-4.141-.868-3.633-1.238-2.4-5.232.152-16.634.076-18.162a77.427,77.427,0,0,0-1.817-9.642c-1.02-4.415,1.741-3.486,1.741-3.486,6.47-3.339,3.781-9.88,2.766-12.783s.579-3.045,1.375-3.045,3.852-2.613,3.852-2.613l1.238-1.111,3.776-3.39c.939,6.348,3.984,9.013,4.491,9.408l.071.056,1.741-.147c4.212-2.319,5.953-8.627,5.953-8.627a11,11,0,0,0,2.9,2.761,49.726,49.726,0,0,0,5.161,3.2c3.045,1.817.8,3.633.8,3.633-3.7,12.636,1.522,13.194,1.522,13.194C735.112,611.663,733.3,617.423,733.3,617.423Z" transform="translate(-693.644 -586.246)" fill="#2b2839"/>
      <path id="Path_1798" data-name="Path 1798" d="M714.471,601.69s-1.091.584-1.091,1.233" transform="translate(-703.365 -593.177)" opacity="0.1"/>
      <path id="Path_1799" data-name="Path 1799" d="M715.629,604.12s-1.451,1.522-1.2,1.964" transform="translate(-703.868 -594.373)" opacity="0.1"/>
      <path id="Path_1800" data-name="Path 1800" d="M716.085,608s-1.091,1.162-.655,1.817" transform="translate(-704.324 -596.284)" opacity="0.1"/>
      <path id="Path_1801" data-name="Path 1801" d="M723.112,598.7l-4.567,4.41a20.052,20.052,0,0,0-3.7-10.479l3.775-3.39C719.539,595.639,722.609,598.3,723.112,598.7Z" transform="translate(-704.084 -587.044)" fill="#2b2839" opacity="0.1"/>
      <path id="Path_1802" data-name="Path 1802" d="M723.977,596.979l-4.567,4.415a20.077,20.077,0,0,0-3.7-10.484l3.776-3.39C720.424,593.919,723.469,596.583,723.977,596.979Z" transform="translate(-704.513 -586.197)" fill="#2b2839"/>
      <path id="Path_1803" data-name="Path 1803" d="M745.285,593.445c-1.827,2.852-5.222,10.383-5.222,10.383l-3.633-4.5c4.212-2.324,5.953-8.627,5.953-8.627A11.4,11.4,0,0,0,745.285,593.445Z" transform="translate(-714.718 -587.764)" opacity="0.1"/>
      <path id="Path_1804" data-name="Path 1804" d="M744.415,591.735c-1.822,2.857-5.222,10.388-5.222,10.388l-3.623-4.5c4.212-2.319,5.952-8.627,5.952-8.627A11.5,11.5,0,0,0,744.415,591.735Z" transform="translate(-714.294 -586.926)" fill="#2b2839"/>
      <path id="Path_1805" data-name="Path 1805" d="M746.553,686.14s-.776,6.6-1.223,6.973" transform="translate(-719.102 -634.772)" opacity="0.1"/>
      <path id="Path_1806" data-name="Path 1806" d="M760.33,688.43s.873,4.719.507,5.81" transform="translate(-726.49 -635.9)" opacity="0.1"/>
      <path id="Path_1807" data-name="Path 1807" d="M723.346,689s-.8,4.43,0,4.938" transform="translate(-708.099 -636.18)" opacity="0.1"/>
      <path id="Path_1808" data-name="Path 1808" d="M713.885,687.71a55.228,55.228,0,0,0-.507,6.176" transform="translate(-703.353 -635.545)" opacity="0.1"/>
      <path id="Path_1809" data-name="Path 1809" d="M760.641,637.47s-2.03,1.6-1.888,2.03" transform="translate(-725.71 -610.8)" opacity="0.1"/>
      <path id="Path_1810" data-name="Path 1810" d="M762.925,639.48s-3.887,3.268-1.944,2.9S762.925,639.48,762.925,639.48Z" transform="translate(-726.543 -611.79)" opacity="0.1"/>
    </g>
    <path id="Path_1811" data-name="Path 1811" d="M238.291,408.141l.025-.036-.046-.036h0l-.274-.183.056.041a.908.908,0,0,0-1.2.264l-.112.157h0l-6.166,8.87L229.5,418.8c-3.253-.979-8.535,3.141-11.21,5.506-.167.147-.325.284-.467.416-.213-.477-.34-.781-.34-.781-.132,1.451-5.257,3.628-6.455,4.42a4.314,4.314,0,0,1-1.786.6c.173-5.516-4.1-11.321-4.1-11.321l-10.428-13.27a11.712,11.712,0,0,1,1.066-7.038c.086-.173.173-.345.269-.507h.051a11.54,11.54,0,0,0-.655,3.466c.025.9.858,5.252,2.03,5.075a.639.639,0,0,0,.6-.284c.934-1.086,1.015-2.933.969-4.643a9.514,9.514,0,0,1-.167,1.5c.076-1.421-.086-2.923-.086-3.994,0-.426,0-.847.03-1.274h.127v0h.132a14.012,14.012,0,0,0,6.369-2.953,3.415,3.415,0,0,0,2.4-1.122,2.329,2.329,0,0,1-.452,2.172,3.789,3.789,0,0,0,3.116-2.426,8.464,8.464,0,0,0,.4-4.06,28.211,28.211,0,0,1-.3-4.126,15.177,15.177,0,0,0,.122-2.248,4.334,4.334,0,0,0-.122-.68h.041a1.015,1.015,0,0,0,.726-.284,3.383,3.383,0,0,0,.913-1.989,16.939,16.939,0,0,0,.538-4.724c-.03.482-.091.969-.162,1.451a6.383,6.383,0,0,0-1.335-4.927,9.728,9.728,0,0,0-3.111-1.974,2.279,2.279,0,0,1-1.015-.726,2.938,2.938,0,0,1-.315-1.259c-.391-2.669-2.9-4.526-5.4-5.582-3.217-1.4-7.1-2-10.175-.335a32.282,32.282,0,0,0-4.06,3.1c-1.715,1.3-3.694,2.218-5.526,3.354a11.07,11.07,0,0,0-4.45,4.537c-1.345,3.045-.335,6.5-.167,9.8.269,5.2-1.873,10.657-6.115,13.7a5.486,5.486,0,0,0-1.345,1.162,1.451,1.451,0,0,0-.112,1.659c.218.284.563.447.8.716a2.273,2.273,0,0,1,.2,2.086A13.078,13.078,0,0,1,166.982,407c.076.538.741.751,1.284.832a29.559,29.559,0,0,0,4.339.315h.624c-.066.167-.137.345-.208.533-.787,2.07-1.807,5.257-1.467,7.206.507,3.075,2.131,17.137,1.33,19.6s1.289,20.349,1.289,20.349.279,1.38.761,3.441c-1.253,2.953-2.684,6.232-3.4,7.546-1.441,2.634-.731,16.081,4.237,22.059,0,0,2.03,2.9,1.522,3.953a4.949,4.949,0,0,0,.091,2.9l.787,17.4a45.1,45.1,0,0,1-.365,5.318c-2.121,2.624-5.389,6.45-6.927,7.074-2.38.969-20.131,22.5-20.131,22.5s.142.259.421.68l-.507.578-3.405,3.948-.269.31c-.639-.122-4.9-.893-8.272-1.137h-.335v-.061a12.627,12.627,0,0,0-3.552.1,1.142,1.142,0,0,0-.589.3c-1.152,1.411-1.771,23.556-1.771,23.556s1.228,11.088,5.075,11.707a2.03,2.03,0,0,0,.609.112h.167a5.3,5.3,0,0,0,4.567-2.847,4.41,4.41,0,0,0,.381-1.015,8.178,8.178,0,0,1,.751-4.7c1.2-2.725,3.436-7.521,3.436-7.521s4.06-4.268,3.334-6.338c.112-.167.244-.35.386-.558,1.522-2.172,4.608-6.46,7.1-9.322a7.367,7.367,0,0,1,.507-.548,12.463,12.463,0,0,0,2.832.817s3.816-1.492,5.232-4.831c.6-1.421,2.974-3.938,5.5-6.358l-.081.644-.086,21.181a15.136,15.136,0,0,0,2.608,1.436v.508a68,68,0,0,1-.548,9.028l-.076.472c-.315-.223-.589-.3-.761-.127-.781.792-1.269,5.846-1.314,8.175v.234c-.127,2.324-1.451,5.7,2.537,5.876,2.984.127,15.848.32,22.729.421a15.3,15.3,0,0,0,10.149-3.6c2.187-1.873,3.512-4.1.533-5.739-.183-.1-.376-.2-.589-.294l-6.6-1.015-11.271-5.755s-.066-3.481-1.421-2.9a3.808,3.808,0,0,0-1.142.452c-.066-.127-.137-.264-.2-.406a12.965,12.965,0,0,1-1.39-5.866,4.156,4.156,0,0,1,.025-.558,11.2,11.2,0,0,0,.934-.959s-.086-7.911.8-9.4,3.638-16.614,3.638-16.614a7.163,7.163,0,0,1,1.862-4.481c1.776-1.67,1.152-6.506,1.152-6.506s2.487-1.319,3.283-5.623,3.375-13.7,3.375-13.7,5.323-13.889,4.973-22.673a66.349,66.349,0,0,1,.507-13.361l1.106-20.42v-.315c.441.335.741.609.741.609v-.223c.162.137.254.223.254.223s.568-9.266.376-12.94c3.106-1.056,7.835-2.791,8.119-3.674.4-1.314,5.724-5.47,5.724-5.47a.882.882,0,0,1-.325-.122c.167-.076.34-.167.507-.264,3.491-1.867,9.977-7.328,8.886-10.657l7.1-10.195a1.73,1.73,0,0,0-.178-2.167Z" transform="translate(-92.22 -206.797)" fill="url(#linear-gradient-2)"/>
    <path id="Path_1812" data-name="Path 1812" d="M302.84,491.47a4.629,4.629,0,0,1-1.7.645c-2.218.066-4.06-5.937-4.06-5.937s.629-.639,1.634-1.522c2.974-2.644,9.21-7.526,12.133-4.8C314.146,482.909,306.681,489.4,302.84,491.47Z" transform="translate(-173.297 -265.503)" fill="#ecb4b6"/>
    <path id="Path_1813" data-name="Path 1813" d="M227.958,773.451l-8.185,8.835s-7.571.086-6.09-4.09a15.27,15.27,0,0,0,.629-2.781,68.329,68.329,0,0,0,.533-8.941c0-1.959-.03-3.334-.03-3.334s11.92-5.222,10.7.218a10.226,10.226,0,0,0-.244,2.07,12.961,12.961,0,0,0,1.36,5.81A13.153,13.153,0,0,0,227.958,773.451Z" transform="translate(-132.126 -404.314)" fill="#ecb4b6"/>
    <path id="Path_1814" data-name="Path 1814" d="M227.958,783.5l-8.185,8.835s-7.571.086-6.09-4.09a15.271,15.271,0,0,0,.629-2.781,17.452,17.452,0,0,1,2.634,3.3s5.222,1.522,6.658-3.045a7.752,7.752,0,0,1,3.045-4.435,13.151,13.151,0,0,0,1.309,2.213Z" transform="translate(-132.126 -414.366)" opacity="0.1"/>
    <path id="Path_1815" data-name="Path 1815" d="M245.4,796.687a14.889,14.889,0,0,1-9.966,3.552c-6.749-.1-19.36-.294-22.288-.416-3.918-.173-2.618-3.517-2.492-5.821v-.228c.046-2.309.507-7.312,1.289-8.094s3.456,3.481,3.456,3.481,5.222,1.522,6.658-3.045,4.354-5.009,4.354-5.009c1.324-.573,1.39,2.872,1.39,2.872l11.052,5.7,6.485,1.015c.208.1.4.193.573.289C248.843,792.627,247.544,794.829,245.4,796.687Z" transform="translate(-130.577 -414.245)" fill="#c17174"/>
    <circle id="Ellipse_162" data-name="Ellipse 162" cx="0.477" cy="0.477" r="0.477" transform="translate(93.924 372.704)" fill="#fff" opacity="0.25"/>
    <circle id="Ellipse_163" data-name="Ellipse 163" cx="0.477" cy="0.477" r="0.477" transform="translate(98.41 374.926)" fill="#fff" opacity="0.25"/>
    <circle id="Ellipse_164" data-name="Ellipse 164" cx="0.477" cy="0.477" r="0.477" transform="translate(100.714 375.956)" fill="#fff" opacity="0.25"/>
    <circle id="Ellipse_165" data-name="Ellipse 165" cx="0.477" cy="0.477" r="0.477" transform="translate(105.499 377.793)" fill="#fff" opacity="0.25"/>
    <circle id="Ellipse_166" data-name="Ellipse 166" cx="0.477" cy="0.477" r="0.477" transform="translate(103.063 377.012)" fill="#fff" opacity="0.25"/>
    <path id="Path_1816" data-name="Path 1816" d="M245.4,806.349a14.889,14.889,0,0,1-9.966,3.552c-6.749-.1-19.36-.294-22.288-.416-3.918-.173-2.618-3.517-2.492-5.821l24.6,1.522s10.073-1.522,10.657-4.527C248.843,802.289,247.544,804.491,245.4,806.349Z" transform="translate(-130.577 -423.907)" fill="#c17174"/>
    <path id="Path_1817" data-name="Path 1817" d="M245.4,806.349a14.889,14.889,0,0,1-9.966,3.552c-6.749-.1-19.36-.294-22.288-.416-3.918-.173-2.618-3.517-2.492-5.821l24.6,1.522s10.073-1.522,10.657-4.527C248.843,802.289,247.544,804.491,245.4,806.349Z" transform="translate(-130.577 -423.907)" fill="#fff" opacity="0.25"/>
    <path id="Path_1818" data-name="Path 1818" d="M172.6,736.305a16.978,16.978,0,0,0-2.466,2.476c-2.441,2.832-5.46,7.1-6.957,9.226-.579.832-.929,1.355-.929,1.355l-3.268-.482s-3.522-5.394-3.476-5.521,2.791-5.922,2.791-5.922l1.061-1.243,3.344-3.907,1.522-1.766S175.544,734.174,172.6,736.305Z" transform="translate(-103.563 -389.36)" fill="#ecb4b6"/>
    <path id="Path_1819" data-name="Path 1819" d="M163.172,753.524c-.579.832-.929,1.355-.929,1.355l-3.268-.482s-3.522-5.394-3.476-5.521,2.791-5.932,2.791-5.932l1.061-1.243.345.066h.832c-2.918,3.045.213,9.743.213,9.743A3.558,3.558,0,0,1,163.172,753.524Z" transform="translate(-103.563 -394.867)" opacity="0.1"/>
    <path id="Path_1820" data-name="Path 1820" d="M149.491,759.456s-2.177,4.7-3.354,7.4a8.17,8.17,0,0,0-.741,4.653,4.567,4.567,0,0,1-.37,1.015,5.125,5.125,0,0,1-4.456,2.822h-.213c-3.968-.1-5.227-11.621-5.227-11.621s.609-21.927,1.741-23.343a1.086,1.086,0,0,1,.573-.3,12.18,12.18,0,0,1,3.5-.1c3.588.259,8.2,1.142,8.2,1.142h.827c-2.918,3.045.213,9.748.213,9.748a3.586,3.586,0,0,1,2.481,2.086C153.749,754.914,149.491,759.456,149.491,759.456Z" transform="translate(-93.53 -393.979)" fill="#c17174"/>
    <circle id="Ellipse_167" data-name="Ellipse 167" cx="0.477" cy="0.477" r="0.477" transform="translate(50.694 358.474)" fill="#fff" opacity="0.25"/>
    <circle id="Ellipse_168" data-name="Ellipse 168" cx="0.477" cy="0.477" r="0.477" transform="translate(50.455 362.275)" fill="#fff" opacity="0.25"/>
    <path id="Path_1821" data-name="Path 1821" d="M144.4,772.333a5.125,5.125,0,0,1-4.456,2.821h-.208c-3.968-.1-5.232-11.621-5.232-11.621s.609-21.927,1.741-23.343a1.086,1.086,0,0,1,.573-.3,12.18,12.18,0,0,1,3.5-.1c-.066,3.943-.254,16.4,0,17.639S142.812,769.03,144.4,772.333Z" transform="translate(-93.22 -393.885)" fill="#c17174"/>
    <path id="Path_1822" data-name="Path 1822" d="M144.4,772.333a5.125,5.125,0,0,1-4.456,2.821h-.208c-3.968-.1-5.232-11.621-5.232-11.621s.609-21.927,1.741-23.343a1.086,1.086,0,0,1,.573-.3,12.18,12.18,0,0,1,3.5-.1c-.066,3.943-.254,16.4,0,17.639S142.812,769.03,144.4,772.333Z" transform="translate(-93.22 -393.885)" fill="#fff" opacity="0.25"/>
    <path id="Path_1823" data-name="Path 1823" d="M139.722,775.348c-3.968-.1-5.232-11.621-5.232-11.621s.609-21.927,1.741-23.343a1.086,1.086,0,0,1,.573-.3c.832,1.238,1.563,3.979.9,10.007-1.238,11.423.254,12.144.254,12.144S139.823,771.938,139.722,775.348Z" transform="translate(-93.215 -394.069)" fill="#c17174"/>
    <path id="Path_1824" data-name="Path 1824" d="M139.722,775.348c-3.968-.1-5.232-11.621-5.232-11.621s.609-21.927,1.741-23.343a1.086,1.086,0,0,1,.573-.3c.832,1.238,1.563,3.979.9,10.007-1.238,11.423.254,12.144.254,12.144S139.823,771.938,139.722,775.348Z" transform="translate(-93.215 -394.069)" opacity="0.1"/>
    <path id="Path_1825" data-name="Path 1825" d="M302.84,496.905a4.627,4.627,0,0,1-1.7.644c-2.218.066-4.06-5.937-4.06-5.937s.629-.639,1.634-1.522C299.44,491.714,301.439,496.093,302.84,496.905Z" transform="translate(-173.297 -270.939)" opacity="0.1"/>
    <path id="Path_1826" data-name="Path 1826" d="M278.3,494.384a5.58,5.58,0,0,0,3-.65c1.172-.781,6.2-2.938,6.333-4.374,0,0,3,7.307,4.7,7.571,0,0-5.222,4.11-5.612,5.415s-10.575,4.506-10.575,4.506Z" transform="translate(-162.983 -270.579)" fill="#c73c3c"/>
    <path id="Path_1827" data-name="Path 1827" d="M278.3,494.384a5.58,5.58,0,0,0,3-.65c1.172-.781,6.2-2.938,6.333-4.374,0,0,3,7.307,4.7,7.571,0,0-5.222,4.11-5.612,5.415s-10.575,4.506-10.575,4.506Z" transform="translate(-162.983 -270.579)" fill="#c73c3c" opacity="0.1"/>
    <path id="Path_1828" data-name="Path 1828" d="M179.576,736.305a16.979,16.979,0,0,0-2.466,2.476,17.6,17.6,0,0,1-7.439-6.5l1.522-1.766S182.524,734.174,179.576,736.305Z" transform="translate(-110.543 -389.36)" opacity="0.1"/>
    <path id="Path_1829" data-name="Path 1829" d="M198.273,669s-6.384,8.53-8.718,9.49-19.735,22.277-19.735,22.277,3.74,6.876,10.616,8c0,0,3.74-1.477,5.135-4.785s12.357-12.656,12.357-12.656Z" transform="translate(-110.616 -359.059)" fill="#5e5a6b"/>
    <path id="Path_1830" data-name="Path 1830" d="M198.273,669s-6.384,8.53-8.718,9.49-19.735,22.277-19.735,22.277,3.74,6.876,10.616,8c0,0,3.74-1.477,5.135-4.785s12.357-12.656,12.357-12.656Z" transform="translate(-110.616 -359.059)" opacity="0.1"/>
    <path id="Path_1831" data-name="Path 1831" d="M187.78,725.215a27.827,27.827,0,0,0,5.81,0C197.026,724.885,194.438,726.976,187.78,725.215Z" transform="translate(-119.462 -386.729)" opacity="0.1"/>
    <path id="Path_1832" data-name="Path 1832" d="M184.69,729.62s4.567,2.608,6.333,1.3S189.323,732.183,184.69,729.62Z" transform="translate(-117.94 -388.917)" opacity="0.1"/>
    <path id="Path_1833" data-name="Path 1833" d="M226.822,763.348a10.227,10.227,0,0,0-.244,2.07c-3.527,3.2-7.774,2.213-10.428,1.045,0-1.959-.03-3.334-.03-3.334S228.04,757.888,226.822,763.348Z" transform="translate(-133.421 -404.306)" opacity="0.1"/>
    <path id="Path_1834" data-name="Path 1834" d="M244.33,541.415l-.127,2.405-1.086,20.222a63.571,63.571,0,0,0-.507,13.224c.365,8.7-4.892,22.48-4.892,22.48s-2.537,9.312-3.309,13.575-3.217,5.582-3.217,5.582.609,4.785-1.132,6.44a7.142,7.142,0,0,0-1.827,4.435s-2.7,14.97-3.552,16.452-.787,9.312-.787,9.312c-5.653,6.7-13.92.609-13.92.609l.086-20.973s2.35-19.319,4.09-22.019,1.741-10.093,1.741-10.093l-.776-17.254a4.65,4.65,0,0,1-.086-2.872c.533-1.045-1.487-3.912-1.487-3.912-4.877-5.922-5.582-19.238-4.156-21.821s5.643-13.052,5.643-13.052l5.821-3.395,10.52.31Z" transform="translate(-129.783 -295.896)" fill="#5e5a6b"/>
    <path id="Path_1835" data-name="Path 1835" d="M230.1,744.15s1.375,4.765,2.481,5.288S230.1,744.15,230.1,744.15Z" transform="translate(-140.307 -396.073)" opacity="0.1"/>
    <path id="Path_1836" data-name="Path 1836" d="M233.83,712.9s3.552,2.811,5.075,2.806S233.83,712.9,233.83,712.9Z" transform="translate(-142.144 -380.682)" opacity="0.1"/>
    <path id="Path_1837" data-name="Path 1837" d="M249.025,447.927v5.744l-3.791-1.634-3.781-1.629-8.231-8.094s-6.511-4.227-9.992-8.079c-1.989-2.2-2.989-4.273-1.238-5.369a10.909,10.909,0,0,0,2.279-1.994,37.46,37.46,0,0,0,4.537-6.7c.056-.1.112-.193.162-.289,1.695-3.111,2.816-5.765,2.816-5.765a34.3,34.3,0,0,1,7.835,3.694c.249.173.482.35.705.533,1.71,1.4,2.563,3.045.984,4.648a12.178,12.178,0,0,0-1.121,1.34h0a11,11,0,0,0-.7,1.1c-.091.173-.183.34-.264.507a11.7,11.7,0,0,0-1.045,6.967Z" transform="translate(-135.869 -233.52)" fill="#ecb4b6"/>
    <path id="Path_1838" data-name="Path 1838" d="M274.556,396.785c.2.345.472.639.655.99a4.755,4.755,0,0,1,.289,2.436,13.853,13.853,0,0,0,.254,3.887,18.118,18.118,0,0,1,.812,3.43,9,9,0,0,1-1.639,4.633,3.334,3.334,0,0,0,2.385-1.111,2.314,2.314,0,0,1-.436,2.147,3.689,3.689,0,0,0,3.045-2.4,8.368,8.368,0,0,0,.391-4.06,27.7,27.7,0,0,1-.294-4.085,14.934,14.934,0,0,0,.117-2.228,8.082,8.082,0,0,0-1.908-3.958l-1.766-2.426a1.248,1.248,0,0,0-.507-.462C274.282,392.867,274.09,395.942,274.556,396.785Z" transform="translate(-162.095 -223.35)" fill="#464353"/>
    <path id="Path_1839" data-name="Path 1839" d="M248.864,422.986a12.184,12.184,0,0,0-1.121,1.34h0a11,11,0,0,0-.7,1.1c-.091.173-.183.34-.264.507a13.7,13.7,0,0,1-10.256-5.541c-.056-.076-.112-.152-.162-.233.056-.1.112-.193.162-.289,1.695-3.111,2.816-5.765,2.816-5.765a34.3,34.3,0,0,1,7.835,3.694c.249.173.482.35.705.533C249.569,419.738,250.422,421.362,248.864,422.986Z" transform="translate(-143.39 -233.51)" opacity="0.1"/>
    <path id="Path_1840" data-name="Path 1840" d="M258.778,396.151a13.7,13.7,0,0,1-11.223,13.479,13.858,13.858,0,0,1-2.483.223h-.507a13.7,13.7,0,1,1,14.209-13.7Z" transform="translate(-140.932 -217.926)" fill="#ecb4b6"/>
    <path id="Path_1841" data-name="Path 1841" d="M257.029,463.867s6.9,3.892,5.135.609l-9.007-13.316h0L263.382,464.3s6.526,8.967,2.958,15.143c0,0-.507,5.136.086,6.353S266.255,500,266.255,500s-2.441-2.263-3.745-1.832-10.509,1.2-10.509,1.2Z" transform="translate(-151.093 -251.764)" opacity="0.1"/>
    <path id="Path_1842" data-name="Path 1842" d="M265.877,541.676l-.127,2.405c-.827-.6-1.979-1.269-2.745-1.015-1.3.436-10.525,1.223-10.525,1.223l.421-3Z" transform="translate(-151.33 -296.157)" opacity="0.1"/>
    <path id="Path_1843" data-name="Path 1843" d="M257.524,463.867s6.906,3.892,5.135.609l-9.007-13.316h0L263.878,464.3s6.526,8.967,2.958,15.143c0,0-.507,5.136.086,6.353S266.75,500,266.75,500s-2.436-2.263-3.74-1.832-10.53,1.223-10.53,1.223Z" transform="translate(-151.33 -251.764)" fill="#464353"/>
    <path id="Path_1844" data-name="Path 1844" d="M240.792,464.915a47.539,47.539,0,0,1-2.121,9.165s-1.218,12.357-2.8,16.031-.873,8.7-1.741,18.015a11.786,11.786,0,0,1-2.852,7.211,10.689,10.689,0,0,1-8.515,2.933l-.639-.051c-4.354-.431-8.53-21.4-8.53-21.4s-2-17.842-1.218-20.3-.771-16.345-1.294-19.39c-.335-1.933.665-5.075,1.436-7.135.452-1.187.822-2.03.822-2.03s1.482-4.7,3.918-7.135a3.593,3.593,0,0,1,2.583-1.086,6.46,6.46,0,0,1,3.222,1.015.9.9,0,0,1,.112.076s15.843,16.188,17.32,19.928A9.569,9.569,0,0,1,240.792,464.915Z" transform="translate(-130.909 -246.139)" opacity="0.1"/>
    <path id="Path_1845" data-name="Path 1845" d="M239.767,464.415a47.8,47.8,0,0,1-2.126,9.16s-1.218,12.362-2.786,16.015-.868,8.7-1.741,18.015a11.812,11.812,0,0,1-2.852,7.211c-2.4,2.537-5.815,3.085-8.515,2.933l-.639-.051c-4.354-.436-8.53-21.41-8.53-21.41s-2-17.837-1.218-20.273-.781-16.361-1.3-19.41c-.335-1.928.665-5.075,1.436-7.135.452-1.187.822-2,.822-2s1.482-4.7,3.918-7.135a3.552,3.552,0,0,1,2.583-1.081,6.353,6.353,0,0,1,3.222,1.015l.112.071s15.843,16.188,17.32,19.928A9.371,9.371,0,0,1,239.767,464.415Z" transform="translate(-130.401 -245.898)" fill="#c73c3c"/>
    <path id="Path_1846" data-name="Path 1846" d="M228.849,614.38s-3.593,3.2-4.831,3.045S228.849,614.38,228.849,614.38Z" transform="translate(-137.229 -332.156)" opacity="0.1"/>
    <path id="Path_1847" data-name="Path 1847" d="M230.635,620.381a51.486,51.486,0,0,1-4.917,2.03C224.586,622.685,229.173,619.93,230.635,620.381Z" transform="translate(-138.061 -335.088)" opacity="0.1"/>
    <path id="Path_1848" data-name="Path 1848" d="M264.44,525.68s5.612.066,6.46,1.827S266.247,524.96,264.44,525.68Z" transform="translate(-157.221 -288.428)" opacity="0.1"/>
    <path id="Path_1849" data-name="Path 1849" d="M262.89,531.8s4.308.913,5.612,1.959S262.89,531.8,262.89,531.8Z" transform="translate(-156.457 -291.482)" opacity="0.1"/>
    <path id="Path_1850" data-name="Path 1850" d="M245.766,510.84s-.507,17.685-2.446,19.974S245.766,510.84,245.766,510.84Z" transform="translate(-146.574 -281.159)" opacity="0.1"/>
    <path id="Path_1851" data-name="Path 1851" d="M238.228,608.2s-3.6,15.6,3.623,16.563S246.845,607,246.845,607Z" transform="translate(-143.868 -328.521)" opacity="0.1"/>
    <path id="Path_1852" data-name="Path 1852" d="M237.716,607.7s-3.583,15.6,3.628,16.574,4.988-17.761,4.988-17.761Z" transform="translate(-143.62 -328.28)" fill="#ecb4b6"/>
    <path id="Path_1853" data-name="Path 1853" d="M249.629,394.644a5.282,5.282,0,0,1-.507-.949c-.959-2-3.425-1.015-5.232-.066l-.964,1.243a7.737,7.737,0,0,0-1.1,1.7,12.865,12.865,0,0,0-.462,1.522c-.249.883-.614,1.725-.944,2.588a30.086,30.086,0,0,0-1.923,8.952,13.858,13.858,0,0,1-2.487.223h-.061V409.8c.091-.345.167-.7.238-1.045h0a18.106,18.106,0,0,0,.137-5.988v-.132c-.066-.441-.152-.888-.188-1.33-.167.3-.33.614-.507.929-1.091,2.03-2.238,4.06-4.3,4.948a8.815,8.815,0,0,1-2.613.589,14.911,14.911,0,0,0-3.268.543,2.03,2.03,0,0,0-.949.573,2.8,2.8,0,0,0-.477,1.431,11.534,11.534,0,0,1-.507,1.984,17.4,17.4,0,0,1-4.263,6.353l-.472.457a8.835,8.835,0,0,1-2.821,1.954,8.627,8.627,0,0,1-2.989.447c.452-1.187.822-2,.822-2s1.482-4.7,3.918-7.135a3.552,3.552,0,0,1,2.583-1.081,38.329,38.329,0,0,0,4.7-6.988,13.7,13.7,0,1,1,24.647-9.642Z" transform="translate(-131.87 -217.931)" opacity="0.1"/>
    <path id="Path_1854" data-name="Path 1854" d="M244.754,374.9a9.35,9.35,0,0,0-3.045-1.954,2.319,2.319,0,0,1-.99-.721,3.014,3.014,0,0,1-.3-1.243c-.381-2.649-2.847-4.481-5.3-5.557-3.156-1.385-6.947-1.979-9.977-.335a32.366,32.366,0,0,0-3.963,3.075c-1.685,1.289-3.623,2.192-5.42,3.319a10.647,10.647,0,0,0-4.364,4.5c-1.319,2.994-.33,6.43-.162,9.7.259,5.156-1.837,10.54-6,13.59a5.237,5.237,0,0,0-1.319,1.152,1.446,1.446,0,0,0-.107,1.639c.208.284.553.447.781.71a2.255,2.255,0,0,1,.193,2.07A12.95,12.95,0,0,1,201.3,410.8c.071.538.721.746,1.253.827a28.465,28.465,0,0,0,4.258.31,7.155,7.155,0,0,0,5.952-2.4c2.537-2.385,4.684-5.364,5.257-8.794a2.9,2.9,0,0,1,.477-1.431,2.146,2.146,0,0,1,.949-.573c1.893-.65,4.06-.33,5.881-1.132,2.375-1.015,3.552-3.552,4.8-5.876.041.441.122.888.193,1.335a18.046,18.046,0,0,1-.355,7.165,14.87,14.87,0,0,0-.8,4.009c.025,1.015,1.055,6.318,2.41,4.729s.858-5.1.858-7.069a30.219,30.219,0,0,1,1.994-10.784c.325-.858.7-1.705.944-2.588a13.869,13.869,0,0,1,.457-1.522,7.951,7.951,0,0,1,1.106-1.7l.969-1.243c1.807-.959,4.273-1.933,5.232.066.365.766.563,1.614,1.522.868a3.41,3.41,0,0,0,.893-1.969C246.154,380.257,246.652,377,244.754,374.9Z" transform="translate(-126.122 -208.883)" fill="#464353"/>
    <path id="Path_1855" data-name="Path 1855" d="M233.337,471.88c-.37-9.373-13.488-11.311-16.548-2.446a1.283,1.283,0,0,0-.061.183c-2,6-1.132,21.207-1.132,21.207s.259,10.21,1.218,13.6,3.654,13.138,3.654,14.716,2.5,7.571,3.552,8.008,1.583,3.826,1.842,4.435,1.015,8.53,1.015,8.53,9.835-.609,10.007-2.177-2.177-9.226-2.177-9.226a17.752,17.752,0,0,1-1.954-5.653c-.223-2.522-1.583-3.669-1.314-5.409s-.787-2.608-.787-3.74a27.839,27.839,0,0,0-.781-4.176s-1.654-1.309-1.39-2.872-2.35-4.7-1.654-5.831a11.775,11.775,0,0,0,.868-3.918s.873-12.529,1.482-15.924,4.176-8.875,4.176-8.875S233.347,472.159,233.337,471.88Z" transform="translate(-133.07 -257.95)" opacity="0.1"/>
    <path id="Path_1856" data-name="Path 1856" d="M231.922,526.61c-2.4,2.537-5.815,3.085-8.515,2.933-.315-1.187-.771-2.649-1.436-2.923-1.056-.436-3.552-6.44-3.552-8s-2.695-11.316-3.654-14.716-1.218-13.6-1.218-13.6-.873-15.224,1.132-21.212a.528.528,0,0,1,.061-.178c3.045-8.87,16.178-6.927,16.548,2.446v.431s-3.552,5.481-4.176,8.875-1.472,15.924-1.472,15.924a11.823,11.823,0,0,1-.873,3.918c-.7,1.132,1.913,4.268,1.654,5.831s1.39,2.872,1.39,2.872a27.807,27.807,0,0,1,.781,4.181c0,1.137,1.045,2,.787,3.74s1.132,2.872,1.355,5.394a14.068,14.068,0,0,0,1.187,4.085Z" transform="translate(-132.06 -257.692)" opacity="0.1"/>
    <path id="Path_1857" data-name="Path 1857" d="M232.307,471.37c-.37-9.373-13.488-11.311-16.548-2.446l-.061.178c-2,6.008-1.132,21.212-1.132,21.212s.259,10.205,1.218,13.6,3.654,13.143,3.654,14.716,2.5,7.571,3.552,8.008,1.583,3.831,1.842,4.44,1.015,8.525,1.015,8.525,9.835-.609,10.007-2.172-2.172-9.226-2.172-9.226a17.758,17.758,0,0,1-1.959-5.658c-.223-2.522-1.614-3.654-1.35-5.394s-.787-2.613-.787-3.745a27.839,27.839,0,0,0-.781-4.176s-1.654-1.3-1.39-2.872-2.35-4.7-1.654-5.831a11.753,11.753,0,0,0,.868-3.913s.873-12.534,1.482-15.929,4.176-8.875,4.176-8.875A2.209,2.209,0,0,0,232.307,471.37Z" transform="translate(-132.563 -257.699)" fill="#c73c3c"/>
    <path id="Path_1858" data-name="Path 1858" d="M217.88,522.706c.259-.264,5.222-5.744,6.785-3.786S217.88,522.706,217.88,522.706Z" transform="translate(-134.288 -284.931)" opacity="0.1"/>
    <path id="Path_1859" data-name="Path 1859" d="M218.78,531.511c.193-.2,4.958-.391,6.135-3.045S218.78,531.511,218.78,531.511Z" transform="translate(-134.731 -289.493)" opacity="0.1"/>
    <g id="Group_261" data-name="Group 261" transform="translate(75.326 169.461)" opacity="0.1">
      <path id="Path_1860" data-name="Path 1860" d="M207.113,438.286a1.344,1.344,0,0,1,.259.472,2.03,2.03,0,0,0-.259-1.776c-.233-.269-.573-.426-.787-.71,0,0-.025-.046-.041-.071a1.345,1.345,0,0,0,.041,1.375C206.565,437.859,206.879,438.022,207.113,438.286Z" transform="translate(-203.819 -413.857)"/>
      <path id="Path_1861" data-name="Path 1861" d="M220.663,400.341v-1.482c-.091-1.776-.421-3.6-.507-5.379a65.019,65.019,0,0,0,.507,6.683C220.663,400.214,220.658,400.27,220.663,400.341Z" transform="translate(-210.727 -392.815)"/>
      <path id="Path_1862" data-name="Path 1862" d="M258.91,445.8c-1.208,1.416-2.157-2.659-2.365-4.268a6.7,6.7,0,0,0-.046.842c.03,1.015,1.056,6.318,2.41,4.73.919-1.076,1.015-2.908.954-4.6A5.472,5.472,0,0,1,258.91,445.8Z" transform="translate(-228.635 -416.482)"/>
      <path id="Path_1863" data-name="Path 1863" d="M230.607,418.6a17.455,17.455,0,0,1,.188,2.06,17.833,17.833,0,0,0-.188-3.37c-.066-.441-.152-.888-.193-1.335-1.253,2.344-2.415,4.851-4.79,5.881-1.842.8-3.989.482-5.881,1.132a2.03,2.03,0,0,0-.949.573,2.831,2.831,0,0,0-.477,1.431c-.579,3.43-2.73,6.409-5.262,8.794a7.155,7.155,0,0,1-5.952,2.4,29.083,29.083,0,0,1-4.253-.31,3.216,3.216,0,0,1-.639-.168c-.2.223-.406.436-.619.645.071.538.726.746,1.258.827a28.414,28.414,0,0,0,4.253.31,7.155,7.155,0,0,0,5.953-2.4c2.537-2.385,4.684-5.364,5.262-8.794a2.847,2.847,0,0,1,.477-1.431,2.09,2.09,0,0,1,.949-.573c1.893-.65,4.06-.33,5.881-1.132,2.375-1.015,3.552-3.552,4.79-5.876C230.454,417.711,230.541,418.157,230.607,418.6Z" transform="translate(-201.59 -403.888)"/>
      <path id="Path_1864" data-name="Path 1864" d="M276.058,395.545a3.431,3.431,0,0,1-.9,1.969c-.954.741-1.147-.1-1.522-.868-.959-2-3.425-1.015-5.232-.066l-.969,1.243a7.74,7.74,0,0,0-1.1,1.7,11.966,11.966,0,0,0-.457,1.522c-.254.883-.619,1.725-.949,2.583a30.372,30.372,0,0,0-1.989,10.784v.538a30.3,30.3,0,0,1,1.984-10.012c.33-.858.7-1.705.949-2.588a11.956,11.956,0,0,1,.457-1.522,7.739,7.739,0,0,1,1.1-1.7l.969-1.243c1.807-.959,4.273-1.933,5.232.066.37.766.563,1.614,1.522.868a3.415,3.415,0,0,0,.9-1.969,17.209,17.209,0,0,0,.507-4.679A22.378,22.378,0,0,1,276.058,395.545Z" transform="translate(-231.807 -392.17)"/>
    </g>
    <path id="Path_1865" data-name="Path 1865" d="M311.975,477.414l.269.183a1.076,1.076,0,0,1-.279-1.522l12.1-17.528a1.071,1.071,0,0,1,1.5-.274l-.269-.188a1.73,1.73,0,0,1,.441,2.405L314.38,476.968A1.736,1.736,0,0,1,311.975,477.414Z" transform="translate(-180.529 -255.172)" fill="#464353"/>
    <path id="Path_1866" data-name="Path 1866" d="M.883,0h.249V23.475H.883A.883.883,0,0,1,0,22.592V.888A.883.883,0,0,1,.883.005Z" transform="translate(144.163 202.478) rotate(34.56)" fill="#9f9eff"/>
    <rect id="Rectangle_331" data-name="Rectangle 331" width="0.218" height="1.913" rx="0.109" transform="translate(143.286 205.546) rotate(34.56)" fill="#464353"/>
    <path id="Path_1867" data-name="Path 1867" d="M824.608,331.744A8.764,8.764,0,1,1,815.844,323a8.764,8.764,0,0,1,8.764,8.743Zm-9.779,4.638,6.506-6.5a.568.568,0,0,0,0-.8l-.8-.8a.558.558,0,0,0-.8,0l-5.3,5.3-2.476-2.466a.573.573,0,0,0-.8,0l-.8.8a.558.558,0,0,0,0,.8l3.674,3.674a.558.558,0,0,0,.8,0Z" transform="translate(-424.493 -188.64)" fill="#3acc6c"/>
    <path id="Path_1868" data-name="Path 1868" d="M615.4,521.264a8.764,8.764,0,1,1-8.764-8.764A8.764,8.764,0,0,1,615.4,521.264Zm-9.779,4.638,6.526-6.5a.563.563,0,0,0,0-.8l-.822-.771a.563.563,0,0,0-.8,0l-5.3,5.278-2.476-2.476a.558.558,0,0,0-.8,0l-.8.8a.573.573,0,0,0,0,.8l3.674,3.674a.563.563,0,0,0,.8,0Z" transform="translate(-321.448 -281.976)" fill="#3acc6c"/>
    <path id="Path_1869" data-name="Path 1869" d="M615.4,709.924a8.764,8.764,0,1,1-8.764-8.764A8.764,8.764,0,0,1,615.4,709.924Zm-9.779,4.638,6.526-6.5a.563.563,0,0,0,0-.8l-.8-.8a.563.563,0,0,0-.8,0l-5.3,5.3-2.476-2.476a.558.558,0,0,0-.8,0l-.8.8a.573.573,0,0,0,0,.8l3.674,3.674a.563.563,0,0,0,.8,0Z" transform="translate(-321.448 -374.899)" fill="#3acc6c"/>
  </g>
</svg>
