<?xml version="1.0" encoding="UTF-8" standalone="no"?>
<!DOCTYPE svg PUBLIC "-//W3C//DTD SVG 1.1//EN" "http://www.w3.org/Graphics/SVG/1.1/DTD/svg11.dtd">
<svg width="100%" height="100%" viewBox="0 0 942 746" version="1.1" xmlns="http://www.w3.org/2000/svg" xmlns:xlink="http://www.w3.org/1999/xlink" xml:space="preserve" xmlns:serif="http://www.serif.com/" style="fill-rule:evenodd;clip-rule:evenodd;stroke-linejoin:round;stroke-miterlimit:2;">
    <g opacity="0.5">
        <path d="M386.65,4.5C386.65,2.016 384.634,0 382.15,0L56.82,0C54.336,0 52.32,2.016 52.32,4.5L52.32,500.88C52.32,503.364 54.336,505.38 56.82,505.38L382.15,505.38C384.634,505.38 386.65,503.364 386.65,500.88L386.65,4.5Z" style="fill:url(#_Linear1);"/>
    </g>
    <path d="M382.36,8.21C382.36,5.726 380.344,3.71 377.86,3.71L61.1,3.71C58.616,3.71 56.6,5.726 56.6,8.21L56.6,494.37C56.6,496.854 58.616,498.87 61.1,498.87L377.86,498.87C380.344,498.87 382.36,496.854 382.36,494.37L382.36,8.21Z" style="fill:rgb(242,242,242);"/>
    <g opacity="0.5">
        <path d="M154.33,99.43C154.33,96.946 152.314,94.93 149.83,94.93L93.68,94.93C91.196,94.93 89.18,96.946 89.18,99.43L89.18,149.07C89.18,151.554 91.196,153.57 93.68,153.57L149.83,153.57C152.314,153.57 154.33,151.554 154.33,149.07L154.33,99.43Z" style="fill:rgb(198,61,61);"/>
    </g>
    <path d="M349.79,97.75C349.79,96.194 348.526,94.93 346.97,94.93L176.7,94.93C175.144,94.93 173.88,96.194 173.88,97.75L173.88,98.63C173.88,100.186 175.144,101.45 176.7,101.45L346.97,101.45C348.526,101.45 349.79,100.186 349.79,98.63L349.79,97.75Z" style="fill:rgb(224,224,224);"/>
    <path d="M320.11,117.29C320.11,115.734 318.846,114.47 317.29,114.47L176.7,114.47C175.144,114.47 173.88,115.734 173.88,117.29L173.88,118.17C173.88,119.726 175.144,120.99 176.7,120.99L317.29,120.99C318.846,120.99 320.11,119.726 320.11,118.17L320.11,117.29Z" style="fill:rgb(224,224,224);"/>
    <g opacity="0.5">
        <path d="M154.33,190.64C154.33,188.156 152.314,186.14 149.83,186.14L93.68,186.14C91.196,186.14 89.18,188.156 89.18,190.64L89.18,240.28C89.18,242.764 91.196,244.78 93.68,244.78L149.83,244.78C152.314,244.78 154.33,242.764 154.33,240.28L154.33,190.64Z" style="fill:rgb(198,61,61);"/>
    </g>
    <path d="M349.79,188.96C349.79,187.404 348.526,186.14 346.97,186.14L176.7,186.14C175.144,186.14 173.88,187.404 173.88,188.96L173.88,189.84C173.88,191.396 175.144,192.66 176.7,192.66L346.97,192.66C348.526,192.66 349.79,191.396 349.79,189.84L349.79,188.96Z" style="fill:rgb(224,224,224);"/>
    <path d="M349.79,208.5C349.79,206.944 348.526,205.68 346.97,205.68L176.7,205.68C175.144,205.68 173.88,206.944 173.88,208.5L173.88,209.38C173.88,210.936 175.144,212.2 176.7,212.2L346.97,212.2C348.526,212.2 349.79,210.936 349.79,209.38L349.79,208.5Z" style="fill:rgb(224,224,224);"/>
    <g opacity="0.5">
        <path d="M154.33,281.85C154.33,279.366 152.314,277.35 149.83,277.35L93.68,277.35C91.196,277.35 89.18,279.366 89.18,281.85L89.18,331.49C89.18,333.974 91.196,335.99 93.68,335.99L149.83,335.99C152.314,335.99 154.33,333.974 154.33,331.49L154.33,281.85Z" style="fill:rgb(198,61,61);"/>
    </g>
    <path d="M349.79,280.17C349.79,278.614 348.526,277.35 346.97,277.35L176.7,277.35C175.144,277.35 173.88,278.614 173.88,280.17L173.88,281.05C173.88,282.606 175.144,283.87 176.7,283.87L346.97,283.87C348.526,283.87 349.79,282.606 349.79,281.05L349.79,280.17Z" style="fill:rgb(224,224,224);"/>
    <path d="M193.43,299.72C193.43,298.164 192.166,296.9 190.61,296.9L176.7,296.9C175.144,296.9 173.88,298.164 173.88,299.72L173.88,300.6C173.88,302.156 175.144,303.42 176.7,303.42L190.61,303.42C192.166,303.42 193.43,302.156 193.43,300.6L193.43,299.72Z" style="fill:rgb(224,224,224);"/>
    <g opacity="0.5">
        <path d="M589.68,167.22C589.68,164.736 587.664,162.72 585.18,162.72L264.86,162.72C262.376,162.72 260.36,164.736 260.36,167.22L260.36,455.28C260.36,457.764 262.376,459.78 264.86,459.78L585.18,459.78C587.664,459.78 589.68,457.764 589.68,455.28L589.68,167.22Z" style="fill:url(#_Linear2);"/>
    </g>
    <path d="M585.15,170.2C585.15,167.716 583.134,165.7 580.65,165.7L269.95,165.7C267.466,165.7 265.45,167.716 265.45,170.2L265.45,448.93C265.45,451.414 267.466,453.43 269.95,453.43L580.65,453.43C583.134,453.43 585.15,451.414 585.15,448.93L585.15,170.2Z" style="fill:white;"/>
    <g opacity="0.5">
        <path d="M365.53,232.02C365.53,229.536 363.514,227.52 361.03,227.52L301.34,227.52C298.856,227.52 296.84,229.536 296.84,232.02L296.84,284.84C296.84,287.324 298.856,289.34 301.34,289.34L361.03,289.34C363.514,289.34 365.53,287.324 365.53,284.84L365.53,232.02Z" style="fill:rgb(198,61,61);"/>
    </g>
    <path d="M571.6,230.5C571.6,228.855 570.265,227.52 568.62,227.52L389.12,227.52C387.475,227.52 386.14,228.855 386.14,230.5L386.14,231.41C386.14,233.055 387.475,234.39 389.12,234.39L568.62,234.39C570.265,234.39 571.6,233.055 571.6,231.41L571.6,230.5Z" style="fill:rgb(224,224,224);"/>
    <path d="M571.6,251.11C571.6,249.465 570.265,248.13 568.62,248.13L389.12,248.13C387.475,248.13 386.14,249.465 386.14,251.11L386.14,252.02C386.14,253.665 387.475,255 389.12,255L568.62,255C570.265,255 571.6,253.665 571.6,252.02L571.6,251.11Z" style="fill:rgb(224,224,224);"/>
    <path d="M571.6,325.9C571.6,324.255 570.265,322.92 568.62,322.92L292.95,322.92C291.305,322.92 289.97,324.255 289.97,325.9L289.97,326.81C289.97,328.455 291.305,329.79 292.95,329.79L568.62,329.79C570.265,329.79 571.6,328.455 571.6,326.81L571.6,325.9Z" style="fill:rgb(224,224,224);"/>
    <path d="M571.6,346.51C571.6,344.865 570.265,343.53 568.62,343.53L292.95,343.53C291.305,343.53 289.97,344.865 289.97,346.51L289.97,347.42C289.97,349.065 291.305,350.4 292.95,350.4L568.62,350.4C570.265,350.4 571.6,349.065 571.6,347.42L571.6,346.51Z" style="fill:rgb(224,224,224);"/>
    <path d="M571.6,373.98C571.6,372.335 570.265,371 568.62,371L292.95,371C291.305,371 289.97,372.335 289.97,373.98L289.97,374.89C289.97,376.535 291.305,377.87 292.95,377.87L568.62,377.87C570.265,377.87 571.6,376.535 571.6,374.89L571.6,373.98Z" style="fill:rgb(224,224,224);"/>
    <path d="M502.91,394.59C502.91,392.945 501.575,391.61 499.93,391.61L292.95,391.61C291.305,391.61 289.97,392.945 289.97,394.59L289.97,395.5C289.97,397.145 291.305,398.48 292.95,398.48L499.93,398.48C501.575,398.48 502.91,397.145 502.91,395.5L502.91,394.59Z" style="fill:rgb(224,224,224);"/>
    <g opacity="0.5">
        <g transform="matrix(1,0,0,1,-129,-78.76)">
            <path d="M726.64,352.64L727.81,347.42L726.17,352.52C683.518,341 639.55,335.07 595.37,334.88C277.05,333 129,614.33 129,614.33L430.66,773.49C430.66,773.49 467.66,658.75 599.07,662.49C608.109,662.736 617.125,663.524 626.07,664.85L586.09,789.38C583.464,793.117 582.055,797.575 582.055,802.143C582.055,814.321 592.076,824.343 604.255,824.343C611.954,824.343 619.124,820.337 623.16,813.78L623.16,813.72C625.235,810.348 626.364,806.479 626.43,802.52C626.43,801.85 626.43,801.18 626.36,800.52L655.26,671.38C741.36,697.86 767.45,773.48 767.45,773.48L1071,621.73C1071,621.73 957,415.2 726.64,352.64Z" style="fill:url(#_Linear3);fill-rule:nonzero;"/>
        </g>
    </g>
    <g transform="matrix(1,0,0,1,-129,-78.76)">
        <path d="M595.43,338C281.17,336.17 135,613.89 135,613.89L432.82,771C432.82,771 469.36,657.72 599.09,661.37C608.228,661.617 617.341,662.425 626.38,663.79L725,355.54C682.756,344.087 639.199,338.191 595.43,338Z" style="fill:rgb(198,61,61);fill-rule:nonzero;"/>
    </g>
    <g transform="matrix(1,0,0,1,-129,-78.76)">
        <path d="M725,355.54L626.38,663.82C734,680.17 765.35,771 765.35,771L1065,621.2C1065,621.2 952.41,417.3 725,355.54Z" style="fill:rgb(224,224,224);fill-rule:nonzero;"/>
    </g>
    <g transform="matrix(1,0,0,1,-129,-78.76)">
        <path d="M626.06,797.71L726.18,350.38L586.26,786.71C583.604,790.427 582.176,794.884 582.176,799.452C582.176,811.477 592.071,821.372 604.096,821.372C611.758,821.372 618.884,817.355 622.85,810.8L622.85,810.74C624.898,807.413 626.013,803.596 626.08,799.69C626.14,799 626.11,798.36 626.06,797.71Z" style="fill:rgb(83,84,97);fill-rule:nonzero;"/>
    </g>
    <defs>
        <linearGradient id="_Linear1" x1="0" y1="0" x2="1" y2="0" gradientUnits="userSpaceOnUse" gradientTransform="matrix(3.09456e-14,-505.38,505.38,3.09456e-14,219.48,505.38)"><stop offset="0" style="stop-color:rgb(128,128,128);stop-opacity:0.25"/><stop offset="0.54" style="stop-color:rgb(128,128,128);stop-opacity:0.12"/><stop offset="1" style="stop-color:rgb(128,128,128);stop-opacity:0.1"/></linearGradient>
        <linearGradient id="_Linear2" x1="0" y1="0" x2="1" y2="0" gradientUnits="userSpaceOnUse" gradientTransform="matrix(5.40343e-12,-88244.6,88244.6,5.40343e-12,140228,136745)"><stop offset="0" style="stop-color:rgb(128,128,128);stop-opacity:0.25"/><stop offset="0.54" style="stop-color:rgb(128,128,128);stop-opacity:0.12"/><stop offset="1" style="stop-color:rgb(128,128,128);stop-opacity:0.1"/></linearGradient>
        <linearGradient id="_Linear3" x1="0" y1="0" x2="1" y2="0" gradientUnits="userSpaceOnUse" gradientTransform="matrix(1.46708e-11,-239592,239592,1.46708e-11,565329,403836)"><stop offset="0" style="stop-color:rgb(128,128,128);stop-opacity:0.25"/><stop offset="0.54" style="stop-color:rgb(128,128,128);stop-opacity:0.12"/><stop offset="1" style="stop-color:rgb(128,128,128);stop-opacity:0.1"/></linearGradient>
    </defs>
</svg>
