<svg xmlns="http://www.w3.org/2000/svg" xmlns:xlink="http://www.w3.org/1999/xlink" width="458.14" height="484.898" viewBox="0 0 458.14 484.898">
  <defs>
    <linearGradient id="linear-gradient" x1="1.185" y1="0.728" x2="-0.185" y2="0.272" gradientUnits="objectBoundingBox">
      <stop offset="0" stop-color="#fff" stop-opacity="0.4"/>
      <stop offset="0.89" stop-color="#fff" stop-opacity="0"/>
    </linearGradient>
  </defs>
  <g id="Слой_2" data-name="Слой 2" transform="translate(-11.36 -1.002)">
    <g id="Слой_1" data-name="Слой 1" transform="translate(3 1)">
      <g id="monitor">
        <path id="Path_1291" data-name="Path 1291" d="M288,383.5l-58.21-33.61c-4.2-2.42-3.67-6.66,1.18-9.45l37.71-21.78L342.12,361l-37.71,21.78C299.57,385.62,292.24,385.92,288,383.5Z" fill="#d6d8e5" opacity="0.4"/>
        <path id="Path_1292" data-name="Path 1292" d="M292.29,381l-58.21-33.61c-4.2-2.42-3.67-6.66,1.18-9.45L273,316.16l73.4,42.38-37.71,21.78C303.82,383.12,296.49,383.42,292.29,381Z" fill="#b1b4c4"/>
        <path id="Path_1293" data-name="Path 1293" d="M346.38,358.55v-2.23l-3.39,1.96Z" fill="#b1b4c4"/>
        <path id="Path_1294" data-name="Path 1294" d="M231.25,343.38v-2.25l3.48,1.44Z" fill="#b1b4c4"/>
        <path id="Path_1295" data-name="Path 1295" d="M292.29,378.77l-58.21-33.6c-4.2-2.43-3.67-6.66,1.18-9.46L273,313.94l73.4,42.38-37.71,21.77C303.82,380.89,296.49,381.2,292.29,378.77Z" fill="#d6d8e5"/>
        <path id="Path_1296" data-name="Path 1296" d="M273.17,314.04l-9.09-30.14,74.21,42.56,8.09,29.86Z" fill="#9ea1af"/>
        <path id="Path_1297" data-name="Path 1297" d="M344.22,357.56l2.15-1.24-3.19-2.55Z" fill="#9ea1af"/>
        <path id="Path_1298" data-name="Path 1298" d="M270.82,315.17l-9.08-30.14,74.21,42.57,8.27,29.96Z" fill="#b1b4c4"/>
        <path id="Path_1299" data-name="Path 1299" d="M459.2,408.36,172,242.52c-4-2.32-7.3-8.57-7.3-13.94V6.39c0-5.37,3.27-7.84,7.3-5.51L459.2,166.72c4,2.32,7.3,8.56,7.3,13.93v222.2C466.5,408.22,463.23,410.69,459.2,408.36Z" fill="#c4c7d6"/>
        <path id="Path_1300" data-name="Path 1300" d="M460.68,410.65l3.18-1.83-1.37-9.44Z" fill="#c4c7d6"/>
        <path id="Path_1301" data-name="Path 1301" d="M164.15,2.24l3.13-1.8L171.78,3s-4.79.73-4.91.71S164.15,2.24,164.15,2.24Z" fill="#b1b4c4"/>
        <path id="Path_1302" data-name="Path 1302" d="M456.57,409.88,169.32,244c-4-2.32-7.29-8.56-7.29-13.94V7.91c0-5.37,3.27-7.84,7.29-5.51L456.57,168.24c4,2.32,7.29,8.56,7.29,13.94V404.37C463.86,409.74,460.6,412.21,456.57,409.88Z" fill="#e4e7f2"/>
        <path id="Path_1303" data-name="Path 1303" d="M456.06,410.17,168.82,244.33c-4-2.33-7.3-8.57-7.3-13.94V8.2c0-5.37,3.27-7.84,7.3-5.51L456.06,168.53c4,2.32,7.3,8.56,7.3,13.93v222.2C463.36,410,460.09,412.5,456.06,410.17Z" fill="#d6d8e5"/>
        <path id="Path_1304" data-name="Path 1304" d="M459.41,396.66,165.17,226.78l.15-217.69c0-2.23,1.57-3.13,3.5-2L456.06,172.91a7.75,7.75,0,0,1,3.5,6.06Z" fill="#fff"/>
        <path id="Path_1305" data-name="Path 1305" d="M206.7,79.05,180,63.61a3.66,3.66,0,0,1-1.52-2.91V30.36c0-1.12.68-1.63,1.52-1.15l26.7,15.45a3.62,3.62,0,0,1,1.52,2.9V77.9C208.22,79,207.54,79.54,206.7,79.05Z" fill="#e9eaf2"/>
        <path id="Path_1306" data-name="Path 1306" d="M243.78,100.46,217,85a3.66,3.66,0,0,1-1.52-2.91V51.77c0-1.12.68-1.63,1.52-1.15l26.75,15.45A3.62,3.62,0,0,1,245.3,69V99.31C245.3,100.43,244.62,101,243.78,100.46Z" fill="#e9eaf2"/>
        <path id="Path_1307" data-name="Path 1307" d="M280,121.35,253.2,105.9a3.62,3.62,0,0,1-1.52-2.9V72.66c0-1.12.68-1.64,1.52-1.15L280,87a3.62,3.62,0,0,1,1.52,2.9v30.3C281.47,121.32,280.79,121.83,280,121.35Z" fill="#e9eaf2"/>
        <path id="Path_1308" data-name="Path 1308" d="M206.7,121.87,180,106.43a3.66,3.66,0,0,1-1.52-2.91V73.18c0-1.12.68-1.63,1.52-1.15l26.7,15.44a3.66,3.66,0,0,1,1.52,2.91v30.34C208.22,121.84,207.54,122.36,206.7,121.87Z" fill="#e9eaf2"/>
        <path id="Path_1309" data-name="Path 1309" d="M243.78,143.28,217,127.84a3.66,3.66,0,0,1-1.52-2.91V94.59c0-1.12.68-1.63,1.52-1.15l26.75,15.44a3.66,3.66,0,0,1,1.52,2.91v30.34C245.3,143.25,244.62,143.77,243.78,143.28Z" fill="#e9eaf2"/>
        <path id="Path_1310" data-name="Path 1310" d="M247.43,141.27l-26.75-15.45a3.62,3.62,0,0,1-1.52-2.9V92.58c0-1.12.68-1.64,1.52-1.15l26.75,15.44a3.66,3.66,0,0,1,1.52,2.91v30.34C249,141.24,248.27,141.75,247.43,141.27Z" fill="#c73c3c"/>
        <path id="Path_1311" data-name="Path 1311" d="M280,164.16l-26.8-15.44a3.62,3.62,0,0,1-1.52-2.9V115.47c0-1.11.68-1.63,1.52-1.14L280,129.77a3.62,3.62,0,0,1,1.52,2.9V163C281.47,164.13,280.79,164.65,280,164.16Z" fill="#e9eaf2"/>
        <path id="Path_1312" data-name="Path 1312" d="M206.7,165.59,180,150.15a3.62,3.62,0,0,1-1.52-2.9V116.9c0-1.11.68-1.63,1.52-1.14l26.7,15.44a3.62,3.62,0,0,1,1.52,2.9v30.35C208.22,165.56,207.54,166.08,206.7,165.59Z" fill="#e9eaf2"/>
        <path id="Path_1313" data-name="Path 1313" d="M280,232.36,180,174.63a3.66,3.66,0,0,1-1.52-2.91v-7c0-1.12.68-1.64,1.52-1.15l100,57.74a3.62,3.62,0,0,1,1.52,2.9v7C281.47,232.33,280.79,232.85,280,232.36Z" fill="#e9eaf2"/>
        <path id="Path_1314" data-name="Path 1314" d="M254.27,234,180.4,191.39a3.62,3.62,0,0,1-1.52-2.9V185c0-1.12.68-1.64,1.52-1.15l73.87,42.64a3.66,3.66,0,0,1,1.52,2.91v3.47C255.79,234,255.11,234.52,254.27,234Z" fill="#e9eaf2"/>
        <path id="Path_1315" data-name="Path 1315" d="M254.27,247.2,180.4,204.55a3.62,3.62,0,0,1-1.52-2.9v-3.47c0-1.12.68-1.63,1.52-1.15l73.87,42.64a3.66,3.66,0,0,1,1.52,2.91v3.47C255.79,247.17,255.11,247.68,254.27,247.2Z" fill="#e9eaf2"/>
        <path id="Path_1316" data-name="Path 1316" d="M240.33,252.32,180.4,217.71a3.62,3.62,0,0,1-1.52-2.9v-3.47c0-1.12.68-1.63,1.52-1.15l59.93,34.6a3.66,3.66,0,0,1,1.52,2.91v3.47C241.85,252.29,241.17,252.8,240.33,252.32Z" fill="#c73c3c"/>
        <path id="Path_1317" data-name="Path 1317" d="M444.61,328,300.24,244.68a3.62,3.62,0,0,1-1.52-2.9v-7c0-1.12.68-1.63,1.52-1.15L444.61,317a3.62,3.62,0,0,1,1.52,2.9v7C446.13,328,445.45,328.52,444.61,328Z" fill="#e9eaf2"/>
        <path id="Path_1318" data-name="Path 1318" d="M430.38,336.32,300.7,261.44a3.62,3.62,0,0,1-1.52-2.9v-3.47c0-1.12.68-1.63,1.52-1.15l129.68,74.87a3.66,3.66,0,0,1,1.52,2.91v3.47C431.9,336.29,431.22,336.8,430.38,336.32Z" fill="#e9eaf2"/>
        <path id="Path_1319" data-name="Path 1319" d="M430.38,349.48,300.7,274.61a3.66,3.66,0,0,1-1.52-2.91v-3.47c0-1.12.68-1.63,1.52-1.15L430.38,342a3.62,3.62,0,0,1,1.52,2.9v3.47C431.9,349.45,431.22,350,430.38,349.48Z" fill="#e9eaf2"/>
        <path id="Path_1320" data-name="Path 1320" d="M406.34,348.76l-105.64-61a3.66,3.66,0,0,1-1.52-2.91v-3.47c0-1.12.68-1.63,1.52-1.15l105.64,61a3.65,3.65,0,0,1,1.52,2.9v3.47C407.86,348.73,407.17,349.24,406.34,348.76Z" fill="#c73c3c"/>
        <path id="Path_1321" data-name="Path 1321" d="M243.78,187,217,171.56a3.62,3.62,0,0,1-1.52-2.9V138.31c0-1.11.68-1.63,1.52-1.14l26.75,15.44a3.62,3.62,0,0,1,1.52,2.9v30.35C245.3,187,244.62,187.49,243.78,187Z" fill="#e9eaf2"/>
        <path id="Path_1322" data-name="Path 1322" d="M280,207.89l-26.8-15.45a3.62,3.62,0,0,1-1.52-2.9V159.2c0-1.12.68-1.64,1.52-1.15L280,173.49a3.66,3.66,0,0,1,1.52,2.91v30.34C281.47,207.86,280.79,208.37,280,207.89Z" fill="#e9eaf2"/>
        <path id="Path_1323" data-name="Path 1323" d="M444.61,303,300.24,219.6a3.62,3.62,0,0,1-1.52-2.9V169.16c0-1.12.68-1.64,1.52-1.15l144.37,83.35a3.66,3.66,0,0,1,1.52,2.91v47.54C446.13,302.93,445.45,303.44,444.61,303Z" fill="#e9eaf2"/>
        <path id="Path_1324" data-name="Path 1324" d="M320,161.85c-12.26-7.08-22.24-24.35-22.24-38.51s10-19.91,22.24-12.84,22.23,24.36,22.23,38.51S332.25,168.93,320,161.85Zm0-43.93c-8.72-5-15.81-.93-15.81,9.13s7.09,22.35,15.81,27.38,15.81.94,15.81-9.13S328.7,123,320,117.92Z" fill="#e9eaf2"/>
        <path id="Path_1325" data-name="Path 1325" d="M320,161.85c-12.26-7.08-22.24-24.35-22.24-38.51s10-19.91,22.24-12.84v7.42c-8.72-5-15.81-.93-15.81,9.13s7.09,22.35,15.81,27.38,15.81.94,15.81-9.13l6.42,3.71C342.22,163.17,332.25,168.93,320,161.85Z" fill="#c73c3c"/>
        <path id="Path_1326" data-name="Path 1326" d="M371.86,191.81c-12.26-7.08-22.23-24.36-22.23-38.51s10-19.92,22.23-12.84,22.23,24.35,22.23,38.51S384.12,198.89,371.86,191.81Zm0-43.93c-8.72-5-15.81-.94-15.81,9.13s7.09,22.34,15.81,27.38,15.81.94,15.81-9.13S380.58,152.91,371.86,147.88Z" fill="#e9eaf2"/>
        <path id="Path_1327" data-name="Path 1327" d="M371.86,191.81c-12.26-7.08-22.23-24.36-22.23-38.51s10-19.92,22.23-12.84v7.42c-8.72-5-15.81-.94-15.81,9.13s7.09,22.34,15.81,27.38c3.24,1.87,6.35,2.54,9,2l3.67,8.21C380.8,195.39,376.42,194.44,371.86,191.81Z" fill="#c73c3c"/>
        <path id="Path_1328" data-name="Path 1328" d="M423.73,221.75c-12.26-7.08-22.23-24.36-22.23-38.51s10-19.92,22.23-12.84S446,194.75,446,208.91,436,228.83,423.73,221.75Zm0-43.93c-8.71-5-15.81-.94-15.81,9.13s7.1,22.34,15.81,27.38,15.81.94,15.81-9.13S432.45,182.85,423.73,177.82Z" fill="#e9eaf2"/>
        <path id="Path_1329" data-name="Path 1329" d="M404.38,197.56a41,41,0,0,1-2.88-14.32c0-14.16,10-19.92,22.23-12.84v7.42c-8.71-5-15.81-.94-15.81,9.13A29,29,0,0,0,410,197.12Z" fill="#c73c3c"/>
      </g>
      <ellipse id="Ellipse_116" data-name="Ellipse 116" cx="22.58" cy="13.04" rx="22.58" ry="13.04" transform="translate(78.3 458.82)" fill="#d6d8e5" opacity="0.4"/>
      <path id="Path_1359" data-name="Path 1359" d="M78.55,109,23.21,77,23,76.88h0c-1.56-.83-3.67-.68-6,.66-4.77,2.76-8.64,9.46-8.64,15,0,2.85,1.05,4.82,2.72,5.67l56.09,32.37Z" fill="#c73c3c"/>
      <ellipse id="Ellipse_118" data-name="Ellipse 118" cx="12.22" cy="7.05" rx="12.22" ry="7.05" transform="translate(60.704 126.862) rotate(-60)" fill="#b81e1e"/>
      <path id="Path_1360" data-name="Path 1360" d="M97.64,143.74,68.81,127.1V115.42l28.83,16.65Z" fill="#d6d8e5"/>
      <path id="Path_1361" data-name="Path 1361" d="M97.64,132.09,68.81,115.45l6.64-3.84,28.83,16.65Z" fill="#c4c7d6"/>
      <ellipse id="Ellipse_119" data-name="Ellipse 119" cx="36.28" cy="62.84" rx="36.28" ry="62.84" transform="translate(73.936 117.745) rotate(-30)" fill="url(#linear-gradient)"/>
      <path id="Path_1362" data-name="Path 1362" d="M142.84,212.83c-29.75-17.18-54-59.11-54-93.47s24.21-48.33,54-31.15,54,59.11,54,93.46S172.6,230,142.84,212.83Zm0-104.94c-20.36-11.76-36.92-2.2-36.92,21.31s16.56,52.2,36.92,64,36.92,2.19,36.92-21.31S163.2,119.64,142.84,107.89Z" fill="#b81e1e"/>
      <path id="Path_1363" data-name="Path 1363" d="M136.78,216.33c-29.76-17.18-54-59.11-54-93.47s24.2-48.33,54-31.15,54,59.11,54,93.46S166.53,233.51,136.78,216.33Zm0-104.94c-20.36-11.76-36.92-2.2-36.92,21.31s16.56,52.2,36.92,64,36.92,2.19,36.92-21.31S157.14,123.14,136.78,111.39Z" fill="#c73c3c"/>
    </g>
    <path id="Path_1364" data-name="Path 1364" d="M27.82,500.914,0,485,41.638,461.16l27.82,15.916Z" transform="translate(72.236 -15.141)" fill="#d6d8e5" opacity="0.4"/>
    <path id="Path_1365" data-name="Path 1365" d="M28.28,469.262,5.24,455.956l23.04-13.3,23.04,13.3Z" transform="translate(72.359 -15.576)" fill="#e9eaf4"/>
    <path id="Path_1366" data-name="Path 1366" d="M28.28,495.558,5.24,482.252v-26.6l23.04,13.306Z" transform="translate(72.359 -15.27)" fill="#c5c7d3"/>
    <path id="Path_1367" data-name="Path 1367" d="M50.79,482.252,27.75,495.558v-26.6L50.79,455.65Z" transform="translate(72.889 -15.27)" fill="#d5d6e0"/>
    <g id="Men_5" transform="translate(79.4 368.728)">
      <path id="Path_602" data-name="Path 602" d="M58.02,473.524a7.912,7.912,0,0,0,5.937-.716c1.423,0,9.212-3.286,10.235-.491.921,2.436-2.436,4.7-4.237,5.118-3.92.952-6.817,2.907-8.393,3.234-1.177.246-2.692.409-3.623-.512C56.823,479.071,56.925,474.977,58.02,473.524Z" transform="translate(-5.819 -383.632)" fill="#2b2839"/>
      <path id="Path_603" data-name="Path 603" d="M61.565,479.976c1.576-.338,4.473-2.283,8.393-3.234,1.5-.368,4.094-2.047,4.36-3.971.348,2.242-2.682,4.237-4.36,4.647-3.92.952-6.817,2.907-8.393,3.234-1.177.246-2.692.409-3.623-.512a2.283,2.283,0,0,1-.512-.942,4.678,4.678,0,0,0,4.135.778Z" transform="translate(-5.813 -383.595)" fill="#c73c3c"/>
      <path id="Path_604" data-name="Path 604" d="M44.35,466.244a7.861,7.861,0,0,0,5.937-.716c1.423,0,9.212-3.286,10.235-.491.931,2.446-2.436,4.708-4.227,5.118-3.92.952-6.817,2.907-8.393,3.234-1.177.246-2.692.409-3.623-.512C43.152,471.791,43.255,467.7,44.35,466.244Z" transform="translate(-6.141 -383.803)" fill="#2b2839"/>
      <path id="Path_605" data-name="Path 605" d="M47.9,472.7c1.576-.328,4.473-2.283,8.393-3.234,1.5-.368,4.094-2.047,4.36-3.971.348,2.252-2.682,4.237-4.36,4.647-3.92.952-6.817,2.907-8.393,3.234-1.177.246-2.692.409-3.623-.512a2.313,2.313,0,0,1-.522-.931,4.729,4.729,0,0,0,4.145.768Z" transform="translate(-6.135 -383.766)" fill="#c73c3c"/>
      <path id="Path_606" data-name="Path 606" d="M23.248,457.428c6.049,2.661,11.761,3.071,16.428.573l4.821-2.784c.287,6.223.563,12.2.563,12.2s3.695,2.8,6.571.307c0,0,.6-8.741,1.218-17.329l5.087-2.948a6.264,6.264,0,0,0-.184,1.4c0,1.638,1.167,25.9,1.167,25.9s3.726,2.221,6.6-.276c0,0,1.934-28.117,2.385-32.61.5-5.046-5.118-7.533-8.659-6.244l-5.425,2.047c.113-1.412.2-2.508.266-3.122.5-5.056-5.118-7.543-8.649-6.254-3.234,1.177-25.067,9.365-25.067,9.365a56.07,56.07,0,0,0,.768,6.264l-8.618-.727C11.989,451.3,17.239,454.767,23.248,457.428Zm15.107-13.971,5.773-3.337a7.564,7.564,0,0,0-.194,1.238Z" transform="translate(-6.871 -384.65)" fill="#c73c3c"/>
      <path id="Path_607" data-name="Path 607" d="M7.89,418.79s.706,10.737,2.119,12.283,6.141,2.6,6.141,2.6l3.664,6.039s-3.347-19.181-4.094-19.642S7.89,418.79,7.89,418.79Z" transform="translate(-6.979 -384.866)" fill="#ffcea9"/>
      <path id="_Контур_" data-name="&lt;Контур&gt;" d="M14.963,407.159A4.023,4.023,0,0,0,9.845,408.7C8.5,410.935,7.1,418.6,7,419.912c0,0,1.894,2.62,4.729,2.18Z" transform="translate(-7 -385.148)" fill="#ededed"/>
      <path id="_Контур_2" data-name="&lt;Контур&gt;" d="M16.023,407.76c1.853.092,3.234.573,3.46,0a23.419,23.419,0,0,0,.43-2.9c-.215-.532-.4-1.116-.4-1.116-2.334-1.433-3.071-3.951-3.367-6.878-.522-5.005,2.18-9.4,7.165-9.918,4.708-.491,8.188,2.815,9.1,7.359.5,2.252,1.494,6.489.154,10.174-.747,2.047-1.72,3.705-2.682,4.022a22.517,22.517,0,0,1-2.784-.246h0s-.246,1.392-.42,2.293-.1,1.361,1.668,2.457-2.682,3.347-5.6,3.122-6.2-1.975-7.1-3.869C14.7,410.186,14.785,407.7,16.023,407.76Z" transform="translate(-6.811 -385.616)" fill="#ffcea9"/>
      <g id="_Группа_" data-name="&lt;Группа&gt;" transform="translate(19.248 24.841)">
        <g id="_Группа_2" data-name="&lt;Группа&gt;">
          <g id="_Группа_3" data-name="&lt;Группа&gt;" transform="translate(0 17.65)">
            <path id="_Контур_3" data-name="&lt;Контур&gt;" d="M62.78,439.429h0a1.5,1.5,0,0,1-.747,1.3L47.9,448.917a1.515,1.515,0,0,1-1.5,0L26.577,437.453a1.494,1.494,0,0,1-.757-1.3V436Z" transform="translate(-25.805 -426.952)" fill="#e5e5e5"/>
            <path id="_Контур_4" data-name="&lt;Контур&gt;" d="M61.543,440.649l-14.135,8.188a1.515,1.515,0,0,1-.757.194V439.37H62.29A1.5,1.5,0,0,1,61.543,440.649Z" transform="translate(-25.314 -426.873)" fill="#e5e5e5"/>
            <g id="_Группа_4" data-name="&lt;Группа&gt;">
              <path id="_Контур_5" data-name="&lt;Контур&gt;" d="M47.673,448.358a1.023,1.023,0,0,1-1.024,0L26,436.464c-.266-.143-.266-.389,0-.542l15.159-8.762,21.6,12.477Z" transform="translate(-25.805 -427.16)" fill="#f4f4f4"/>
            </g>
            <g id="_Группа_5" data-name="&lt;Группа&gt;" transform="translate(8.675 10.328)">
              <path id="_Контур_6" data-name="&lt;Контур&gt;" d="M34.28,439.4l.1.051,6.6,3.818,3.623-2.1.1-.051-6.7-3.869Z" transform="translate(-34.28 -437.25)" fill="#bfbfbf"/>
              <path id="_Контур_7" data-name="&lt;Контур&gt;" d="M34.38,439.448l6.6,3.818,3.623-2.1L38,437.36Z" transform="translate(-34.278 -437.247)" fill="#e5e5e5"/>
            </g>
            <path id="Path_608" data-name="Path 608" d="M56.461,440.017l.952.553a.358.358,0,0,0,.307,0l.911-.522c.092,0,.092-.133,0-.174l-.952-.553a.327.327,0,0,0-.307,0l-.9.522C56.4,439.843,56.389,439.914,56.461,440.017Z" transform="translate(-25.084 -426.875)" fill="#3a2c6d"/>
            <path id="Path_609" data-name="Path 609" d="M55.151,439.207l.952.553a.338.338,0,0,0,.3,0l.911-.522c.092-.051.1-.133,0-.174l-.952-.553a.307.307,0,0,0-.3,0l-.911.522C55.08,439.084,55.069,439.156,55.151,439.207Z" transform="translate(-25.115 -426.894)" fill="#3a2c6d"/>
            <path id="Path_610" data-name="Path 610" d="M53.831,438.447l.952.553a.358.358,0,0,0,.307,0l.9-.522c.092-.051.1-.133,0-.174l-.952-.553a.327.327,0,0,0-.307,0l-.911.522A.106.106,0,0,0,53.831,438.447Z" transform="translate(-25.146 -426.912)" fill="#3a2c6d"/>
            <path id="Path_611" data-name="Path 611" d="M52.521,437.687l.952.553a.338.338,0,0,0,.3,0l.911-.522c.092-.051.1-.133,0-.174l-.952-.553a.327.327,0,0,0-.307,0l-.9.522C52.45,437.564,52.439,437.636,52.521,437.687Z" transform="translate(-25.177 -426.929)" fill="#3a2c6d"/>
            <path id="Path_612" data-name="Path 612" d="M51.2,436.927l.952.553a.338.338,0,0,0,.3,0l.911-.522c.092-.051.1-.133,0-.174l-.952-.553a.307.307,0,0,0-.3,0l-.911.522C51.13,436.8,51.119,436.876,51.2,436.927Z" transform="translate(-25.208 -426.947)" fill="#3a2c6d"/>
            <path id="Path_613" data-name="Path 613" d="M49.881,436.167l.952.553a.358.358,0,0,0,.307,0l.911-.522c.082-.051.092-.133,0-.174l-.952-.553a.327.327,0,0,0-.307,0l-.911.522C49.82,436.013,49.81,436.116,49.881,436.167Z" transform="translate(-25.239 -426.965)" fill="#3a2c6d"/>
            <path id="Path_614" data-name="Path 614" d="M48.571,435.407l.952.553a.338.338,0,0,0,.3,0l.911-.522c.092,0,.1-.133,0-.174l-.952-.553a.327.327,0,0,0-.307,0l-.9.522C48.5,435.284,48.489,435.356,48.571,435.407Z" transform="translate(-25.27 -426.983)" fill="#3a2c6d"/>
            <path id="Path_615" data-name="Path 615" d="M47.251,434.647l.952.553a.358.358,0,0,0,.307,0l.9-.522c.092-.051.1-.133,0-.174l-.952-.553a.307.307,0,0,0-.3,0l-.911.522C47.18,434.524,47.169,434.6,47.251,434.647Z" transform="translate(-25.301 -427.001)" fill="#3a2c6d"/>
            <path id="Path_616" data-name="Path 616" d="M45.931,433.887l.952.553a.358.358,0,0,0,.307,0l.911-.522c.082-.051.092-.133,0-.174l-.952-.553a.327.327,0,0,0-.307,0l-.911.522A.1.1,0,0,0,45.931,433.887Z" transform="translate(-25.332 -427.019)" fill="#3a2c6d"/>
            <path id="Path_617" data-name="Path 617" d="M44.621,433.127l.952.553a.338.338,0,0,0,.3,0l.911-.522c.092-.051.1-.133,0-.174l-.952-.553a.338.338,0,0,0-.3,0l-.911.532C44.55,433.014,44.539,433.076,44.621,433.127Z" transform="translate(-25.363 -427.037)" fill="#3a2c6d"/>
            <path id="Path_618" data-name="Path 618" d="M43.3,432.367l.952.553a.358.358,0,0,0,.307,0l.9-.522c.092-.051.1-.133,0-.174l-.952-.553a.338.338,0,0,0-.3,0l-.911.532C43.23,432.244,43.219,432.316,43.3,432.367Z" transform="translate(-25.394 -427.055)" fill="#3a2c6d"/>
            <path id="Path_619" data-name="Path 619" d="M42,431.607l.952.553a.358.358,0,0,0,.307,0l.911-.522c.082-.051.092-.133,0-.174l-.952-.553a.358.358,0,0,0-.307,0l-.9.532C41.92,431.484,41.909,431.556,42,431.607Z" transform="translate(-25.425 -427.073)" fill="#3a2c6d"/>
            <path id="Path_620" data-name="Path 620" d="M40.671,430.847l.952.543a.307.307,0,0,0,.3,0l.911-.522c.092,0,.1-.133,0-.174l-.952-.553a.338.338,0,0,0-.3,0l-.911.532C40.6,430.724,40.589,430.8,40.671,430.847Z" transform="translate(-25.456 -427.091)" fill="#3a2c6d"/>
            <path id="Path_621" data-name="Path 621" d="M38.721,429.717l1.6.921a.327.327,0,0,0,.307,0l.9-.522c.092-.051.1-.133,0-.174l-1.607-.921a.307.307,0,0,0-.3,0l-.911.522C38.65,429.594,38.639,429.676,38.721,429.717Z" transform="translate(-25.502 -427.117)" fill="#3a2c6d"/>
            <path id="Path_622" data-name="Path 622" d="M53.241,439.577l.952.543a.307.307,0,0,0,.3,0l.911-.522c.092-.051.1-.133,0-.174l-.952-.553a.358.358,0,0,0-.307,0l-.9.532C53.17,439.454,53.159,439.526,53.241,439.577Z" transform="translate(-25.16 -426.885)" fill="#3a2c6d"/>
            <path id="Path_623" data-name="Path 623" d="M51.921,438.817l.952.542a.307.307,0,0,0,.3,0l.911-.522c.092-.051.1-.133,0-.174l-.952-.553a.338.338,0,0,0-.3,0l-.911.532C51.85,438.694,51.839,438.766,51.921,438.817Z" transform="translate(-25.192 -426.903)" fill="#3a2c6d"/>
            <path id="Path_624" data-name="Path 624" d="M50.6,438.017l.952.542a.307.307,0,0,0,.3,0l.911-.522c.092-.051.1-.133,0-.174l-.952-.553a.338.338,0,0,0-.3,0l-.911.522C50.53,437.925,50.519,438.017,50.6,438.017Z" transform="translate(-25.223 -426.922)" fill="#3a2c6d"/>
            <path id="Path_625" data-name="Path 625" d="M49.281,437.287l.952.553a.358.358,0,0,0,.307,0l.9-.522c.092-.051.1-.133,0-.174l-.952-.553a.307.307,0,0,0-.3,0l-.911.522C49.21,437.164,49.2,437.246,49.281,437.287Z" transform="translate(-25.254 -426.939)" fill="#3a2c6d"/>
            <path id="Path_626" data-name="Path 626" d="M48,436.537l.952.553a.358.358,0,0,0,.307,0l.9-.522c.092,0,.1-.133,0-.174l-.952-.553a.327.327,0,0,0-.307,0l-.911.522C47.91,436.414,47.9,436.486,48,436.537Z" transform="translate(-25.284 -426.957)" fill="#3a2c6d"/>
            <path id="Path_627" data-name="Path 627" d="M46.651,435.777l.952.543a.327.327,0,0,0,.307,0l.911-.522c.082,0,.092-.133,0-.174l-.952-.553a.358.358,0,0,0-.307,0l-.911.532A.1.1,0,0,0,46.651,435.777Z" transform="translate(-25.315 -426.975)" fill="#3a2c6d"/>
            <path id="Path_628" data-name="Path 628" d="M45.331,435.017l.952.542a.327.327,0,0,0,.307,0l.911-.522c.092-.051.092-.133,0-.174l-.952-.553a.358.358,0,0,0-.307,0l-.9.522C45.27,434.894,45.259,435.017,45.331,435.017Z" transform="translate(-25.346 -426.992)" fill="#3a2c6d"/>
            <path id="Path_629" data-name="Path 629" d="M44,434.247l.952.553a.307.307,0,0,0,.3,0l.911-.522c.092-.051.1-.133,0-.174l-.952-.553a.358.358,0,0,0-.307,0l-.9.522C44,434.124,43.939,434.206,44,434.247Z" transform="translate(-25.377 -427.01)" fill="#3a2c6d"/>
            <path id="Path_630" data-name="Path 630" d="M42.7,433.487l.952.553a.338.338,0,0,0,.3,0l.911-.522c.092-.061.1-.133,0-.184l-.952-.542a.307.307,0,0,0-.3,0l-.911.522C42.63,433.364,42.619,433.446,42.7,433.487Z" transform="translate(-25.409 -427.028)" fill="#3a2c6d"/>
            <path id="Path_631" data-name="Path 631" d="M41.381,432.727l.952.553a.338.338,0,0,0,.3,0l.911-.532c.092-.051.1-.123,0-.174l-.952-.542a.307.307,0,0,0-.3,0l-.911.522C41.31,432.6,41.3,432.686,41.381,432.727Z" transform="translate(-25.44 -427.046)" fill="#3a2c6d"/>
            <path id="Path_632" data-name="Path 632" d="M40.061,432.017l.952.553a.358.358,0,0,0,.307,0l.9-.532c.092,0,.1-.123,0-.174l-.952-.553a.338.338,0,0,0-.3,0l-.911.522C40,431.843,40,431.925,40.061,432.017Z" transform="translate(-25.47 -427.063)" fill="#3a2c6d"/>
            <path id="Path_633" data-name="Path 633" d="M38.741,431.207l.952.553a.358.358,0,0,0,.307,0l.9-.522c.092-.051.1-.133,0-.174l-.952-.553a.358.358,0,0,0-.307,0l-.911.522C38.67,431.084,38.659,431.166,38.741,431.207Z" transform="translate(-25.502 -427.082)" fill="#3a2c6d"/>
            <path id="Path_634" data-name="Path 634" d="M54.551,440.337l1.607.921a.307.307,0,0,0,.3,0l.911-.522c.092-.051.1-.133,0-.174l-1.6-.931a.358.358,0,0,0-.307,0l-.9.522C54.49,440.214,54.479,440.3,54.551,440.337Z" transform="translate(-25.129 -426.867)" fill="#3a2c6d"/>
            <path id="Path_635" data-name="Path 635" d="M38.69,429.741l.952.553c.082,0,.082.113,0,.154l-.962.563a.327.327,0,0,1-.276,0l-.082-.051a.287.287,0,0,0-.256,0l-1.024.594a.348.348,0,0,1-.287,0l-.6-.348c-.082-.051-.082-.123,0-.164l.952-.553.194-.113.143-.082.143-.082.819-.471a.3.3,0,0,1,.287,0Z" transform="translate(-25.563 -427.1)" fill="#3a2c6d"/>
            <path id="Path_636" data-name="Path 636" d="M51.361,442.907l.952.553a.338.338,0,0,0,.3,0l.911-.532c.092,0,.1-.123,0-.174l-.952-.542a.327.327,0,0,0-.307,0l-.9.522C51.29,442.784,51.279,442.866,51.361,442.907Z" transform="translate(-25.205 -426.807)" fill="#3a2c6d"/>
            <path id="Path_637" data-name="Path 637" d="M50,442.147l.952.553a.328.328,0,0,0,.307,0l.911-.522c.082,0,.092-.133,0-.174l-.952-.553a.358.358,0,0,0-.307,0l-.911.522Z" transform="translate(-25.235 -426.824)" fill="#3a2c6d"/>
            <path id="Path_638" data-name="Path 638" d="M48.731,441.4l.952.543a.328.328,0,0,0,.307,0l.9-.522c.092-.051.1-.133,0-.174l-.952-.553a.338.338,0,0,0-.3,0l-.911.532C48.66,441.274,48.649,441.346,48.731,441.4Z" transform="translate(-25.267 -426.842)" fill="#3a2c6d"/>
            <path id="Path_639" data-name="Path 639" d="M37.551,434.937l.952.553a.358.358,0,0,0,.307,0l.9-.532c.092-.051.1-.123,0-.174l-.952-.542a.327.327,0,0,0-.307,0l-.911.522A.1.1,0,0,0,37.551,434.937Z" transform="translate(-25.53 -426.994)" fill="#3a2c6d"/>
            <path id="Path_640" data-name="Path 640" d="M36.241,434.177l.952.553a.307.307,0,0,0,.3,0l.911-.522c.092-.051.1-.133,0-.174l-.952-.553a.338.338,0,0,0-.3,0l-.911.522C36.17,434.013,36.159,434.136,36.241,434.177Z" transform="translate(-25.561 -427.012)" fill="#3a2c6d"/>
            <path id="Path_641" data-name="Path 641" d="M34.931,433.427l.952.543a.307.307,0,0,0,.3,0l.911-.522c.092-.051.1-.133,0-.174l-.952-.553a.358.358,0,0,0-.307,0l-.9.532C34.86,433.3,34.849,433.376,34.931,433.427Z" transform="translate(-25.591 -427.03)" fill="#3a2c6d"/>
            <path id="Path_642" data-name="Path 642" d="M33.611,432.667l.952.553a.358.358,0,0,0,.307,0l.911-.522c.082-.051.092-.133,0-.174l-.952-.553a.327.327,0,0,0-.307,0l-.911.522A.1.1,0,0,0,33.611,432.667Z" transform="translate(-25.622 -427.048)" fill="#3a2c6d"/>
            <path id="Path_643" data-name="Path 643" d="M47.081,440.437l1.3.757a.338.338,0,0,0,.3,0l.911-.522c.092-.051.1-.133,0-.174l-1.3-.747a.307.307,0,0,0-.3,0l-.911.522A.085.085,0,0,0,47.081,440.437Z" transform="translate(-25.306 -426.864)" fill="#3a2c6d"/>
            <path id="Path_644" data-name="Path 644" d="M38.861,435.7l1.3.747a.327.327,0,0,0,.307,0l.911-.522c.082-.051.092-.133,0-.174L40.1,435a.358.358,0,0,0-.307,0l-.9.522C38.8,435.574,38.789,435.656,38.861,435.7Z" transform="translate(-25.499 -426.976)" fill="#3a2c6d"/>
            <path id="Path_645" data-name="Path 645" d="M40.511,436.647l6.336,3.654a.307.307,0,0,0,.3,0l.911-.522c.092-.051.1-.133,0-.174l-6.325-3.654a.327.327,0,0,0-.307,0l-.9.522C40.45,436.524,40.439,436.606,40.511,436.647Z" transform="translate(-25.46 -426.954)" fill="#3a2c6d"/>
            <path id="Path_646" data-name="Path 646" d="M51.6,440.107l.952.542a.327.327,0,0,0,.307,0l.911-.522c.082-.051.092-.133,0-.174l-.952-.553a.358.358,0,0,0-.307,0l-.911.532C51.54,440.015,51.529,440.015,51.6,440.107Z" transform="translate(-25.199 -426.873)" fill="#3a2c6d"/>
            <path id="Path_647" data-name="Path 647" d="M50.291,439.347l.952.553a.338.338,0,0,0,.3,0l.911-.522c.092,0,.1-.133,0-.174l-.952-.553a.307.307,0,0,0-.3,0l-.911.522C50.22,439.224,50.209,439.3,50.291,439.347Z" transform="translate(-25.23 -426.89)" fill="#3a2c6d"/>
            <path id="Path_648" data-name="Path 648" d="M49,438.587l.952.553a.358.358,0,0,0,.307,0l.911-.522c.082-.051.092-.133,0-.174l-.952-.553a.358.358,0,0,0-.307,0l-.911.522C48.91,438.464,48.9,438.546,49,438.587Z" transform="translate(-25.261 -426.908)" fill="#3a2c6d"/>
            <path id="Path_649" data-name="Path 649" d="M47.661,437.827l.952.553a.307.307,0,0,0,.3,0l.911-.522c.092-.051.1-.123,0-.174l-.952-.553a.338.338,0,0,0-.3,0l-.911.522C47.59,437.7,47.579,437.786,47.661,437.827Z" transform="translate(-25.292 -426.926)" fill="#3a2c6d"/>
            <path id="Path_650" data-name="Path 650" d="M46.341,437.067l.952.553a.358.358,0,0,0,.307,0l.911-.532c.082-.051.092-.123,0-.174l-.952-.543a.327.327,0,0,0-.307,0l-.911.522A.1.1,0,0,0,46.341,437.067Z" transform="translate(-25.323 -426.944)" fill="#3a2c6d"/>
            <path id="Path_651" data-name="Path 651" d="M45,436.307l.952.553a.338.338,0,0,0,.3,0l.911-.532c.092-.051.1-.123,0-.174l-.952-.542a.307.307,0,0,0-.3,0l-.911.522Z" transform="translate(-25.353 -426.962)" fill="#3a2c6d"/>
            <path id="Path_652" data-name="Path 652" d="M43.711,435.547l.952.553a.358.358,0,0,0,.307,0l.911-.532c.082-.051.092-.123,0-.174l-.952-.542a.327.327,0,0,0-.307,0l-.911.522C43.65,435.424,43.639,435.506,43.711,435.547Z" transform="translate(-25.385 -426.98)" fill="#3a2c6d"/>
            <path id="Path_653" data-name="Path 653" d="M42.4,434.787l.952.553a.338.338,0,0,0,.3,0l.911-.522c.092-.051.1-.133,0-.184l-.952-.542a.307.307,0,0,0-.3,0l-.911.522C42.33,434.664,42.319,434.746,42.4,434.787Z" transform="translate(-25.416 -426.998)" fill="#3a2c6d"/>
            <path id="Path_654" data-name="Path 654" d="M41.081,434.017l.952.553a.358.358,0,0,0,.307,0l.911-.522c.082,0,.092-.133,0-.174l-.952-.553a.327.327,0,0,0-.307,0l-.911.522C41,433.9,41,434.017,41.081,434.017Z" transform="translate(-25.447 -427.016)" fill="#3a2c6d"/>
            <path id="Path_655" data-name="Path 655" d="M39.771,433.277l.952.542a.307.307,0,0,0,.3,0l.911-.522c.092,0,.1-.133,0-.174l-.952-.553a.338.338,0,0,0-.3,0l-.911.522A.1.1,0,0,0,39.771,433.277Z" transform="translate(-25.478 -427.033)" fill="#3a2c6d"/>
            <path id="Path_656" data-name="Path 656" d="M38.451,432.517l.952.542a.327.327,0,0,0,.307,0l.911-.522c.082-.051.092-.133,0-.174l-.952-.553a.358.358,0,0,0-.307,0l-.911.522C38.39,432.394,38.38,432.466,38.451,432.517Z" transform="translate(-25.508 -427.051)" fill="#3a2c6d"/>
            <path id="Path_657" data-name="Path 657" d="M37.141,431.757l.952.542a.307.307,0,0,0,.3,0l.911-.522c.092-.051.1-.133,0-.174l-.952-.553a.338.338,0,0,0-.3,0l-.911.532C37.07,431.634,37.059,431.706,37.141,431.757Z" transform="translate(-25.539 -427.069)" fill="#3a2c6d"/>
            <path id="Path_658" data-name="Path 658" d="M52.921,440.866l1.965,1.177a.327.327,0,0,0,.307,0l.9-.522c.092-.051.1-.123,0-.174l-1.965-1.136a.338.338,0,0,0-.3,0l-.911.532C52.85,440.743,52.839,440.815,52.921,440.866Z" transform="translate(-25.168 -426.854)" fill="#3a2c6d"/>
            <path id="Path_659" data-name="Path 659" d="M51,441.217l.952.553a.338.338,0,0,0,.3,0l.911-.532c.092,0,.1-.123,0-.174l-.952-.543a.307.307,0,0,0-.3,0l-.911.491C50.91,441.094,50.9,441.176,51,441.217Z" transform="translate(-25.214 -426.846)" fill="#3a2c6d"/>
            <path id="Path_660" data-name="Path 660" d="M49.661,440.457l.952.553a.358.358,0,0,0,.307,0l.911-.532c.082-.051.092-.123,0-.174l-.952-.542a.327.327,0,0,0-.307,0l-.9.522C49.6,440.334,49.589,440.416,49.661,440.457Z" transform="translate(-25.245 -426.864)" fill="#3a2c6d"/>
            <path id="Path_661" data-name="Path 661" d="M48.351,439.7l.952.553a.338.338,0,0,0,.3,0l.911-.522c.092-.061.1-.133,0-.184L49.559,439a.307.307,0,0,0-.3,0l-.911.522C48.28,439.574,48.269,439.656,48.351,439.7Z" transform="translate(-25.276 -426.882)" fill="#3a2c6d"/>
            <path id="Path_662" data-name="Path 662" d="M47,438.937l.952.553a.358.358,0,0,0,.307,0l.911-.522c.092-.051.092-.133,0-.174l-.952-.553a.327.327,0,0,0-.307,0l-.9.522A1.053,1.053,0,0,0,47,438.937Z" transform="translate(-25.306 -426.9)" fill="#3a2c6d"/>
            <path id="Path_663" data-name="Path 663" d="M45.721,438.177l.952.553a.328.328,0,0,0,.307,0l.9-.522c.092-.051.1-.133,0-.174l-.952-.553a.338.338,0,0,0-.3,0l-.911.522C45.65,438.013,45.639,438.136,45.721,438.177Z" transform="translate(-25.337 -426.918)" fill="#3a2c6d"/>
            <path id="Path_664" data-name="Path 664" d="M44.4,437.427l.952.543a.327.327,0,0,0,.307,0l.911-.522c.092-.051.1-.133,0-.174l-.952-.553a.358.358,0,0,0-.307,0l-.9.532C44.34,437.3,44.329,437.376,44.4,437.427Z" transform="translate(-25.368 -426.936)" fill="#3a2c6d"/>
            <path id="Path_665" data-name="Path 665" d="M43.092,436.667l.952.543a.327.327,0,0,0,.307,0l.9-.522c.092-.051.1-.133,0-.174l-.952-.553a.338.338,0,0,0-.3,0l-.911.532C43,436.544,43,436.616,43.092,436.667Z" transform="translate(-25.4 -426.954)" fill="#3a2c6d"/>
            <path id="Path_666" data-name="Path 666" d="M41.781,435.907l.952.542a.307.307,0,0,0,.3,0l.911-.522c.092,0,.1-.133,0-.174l-.952-.553a.358.358,0,0,0-.307,0l-.9.532C41.71,435.784,41.7,435.856,41.781,435.907Z" transform="translate(-25.43 -426.971)" fill="#3a2c6d"/>
            <path id="Path_667" data-name="Path 667" d="M40.461,435.147l.952.553a.358.358,0,0,0,.307,0l.9-.522c.092-.051.1-.133,0-.174l-.952-.553a.327.327,0,0,0-.307,0l-.911.522A.1.1,0,0,0,40.461,435.147Z" transform="translate(-25.461 -426.989)" fill="#3a2c6d"/>
            <path id="Path_668" data-name="Path 668" d="M39.151,434.387l.952.553a.338.338,0,0,0,.3,0l.911-.522c.092-.051.1-.133,0-.174l-.952-.553a.358.358,0,0,0-.307,0l-.9.522C39.08,434.264,39.069,434.346,39.151,434.387Z" transform="translate(-25.492 -427.007)" fill="#3a2c6d"/>
            <path id="Path_669" data-name="Path 669" d="M37.831,433.627l.952.553a.358.358,0,0,0,.307,0l.9-.532c.092-.051.1-.123,0-.174l-.952-.542a.327.327,0,0,0-.307,0l-.911.522A.1.1,0,0,0,37.831,433.627Z" transform="translate(-25.523 -427.025)" fill="#3a2c6d"/>
            <path id="Path_670" data-name="Path 670" d="M34.891,431.927l2.62,1.515a.338.338,0,0,0,.3,0l.911-.532c.092-.051.1-.123,0-.174l-2.62-1.5a.307.307,0,0,0-.3,0l-.911.522C34.82,431.8,34.809,431.886,34.891,431.927Z" transform="translate(-25.592 -427.065)" fill="#3a2c6d"/>
            <path id="Path_671" data-name="Path 671" d="M52.291,442.017l1.3.747a.328.328,0,0,0,.307,0l.9-.522c.092-.051.1-.133,0-.174l-1.3-.757a.358.358,0,0,0-.307,0l-.911.522C52.23,441.853,52.22,441.935,52.291,442.017Z" transform="translate(-25.183 -426.828)" fill="#3a2c6d"/>
          </g>
          <g id="_Группа_6" data-name="&lt;Группа&gt;" transform="translate(15.379)">
            <g id="_Группа_7" data-name="&lt;Группа&gt;">
              <g id="_Группа_8" data-name="&lt;Группа&gt;">
                <path id="_Контур_8" data-name="&lt;Контур&gt;" d="M62.427,440.043h0l-21.6-12.477V410.585l.164-.389.184-.082h0a1.484,1.484,0,0,1,1.484,0l19.765,11.413a1.494,1.494,0,0,1,.747,1.29v15.937C63.041,439.572,62.887,439.777,62.427,440.043Z" transform="translate(-40.83 -409.916)" fill="#e5e5e5"/>
                <path id="_Контур_9" data-name="&lt;Контур&gt;" d="M60.451,423.574,40.83,411.148v-.563l.164-.389.184-.082a1.484,1.484,0,0,1,1.484,0l19.765,11.413a1.5,1.5,0,0,1,.573.583Z" transform="translate(-40.83 -409.916)" fill="#e5e5e5"/>
                <path id="_Контур_10" data-name="&lt;Контур&gt;" d="M41.332,410.191l20.737,11.975a.727.727,0,0,1,.358.624v17.247L40.83,427.56V410.478a.338.338,0,0,1,.5-.287Z" transform="translate(-40.83 -409.91)" fill="#dceeff"/>
                <path id="_Контур_11" data-name="&lt;Контур&gt;" d="M41.332,410.191l20.737,11.975a.727.727,0,0,1,.358.624v17.247L40.83,427.56V410.478a.338.338,0,0,1,.5-.287Z" transform="translate(-40.83 -409.91)" fill="#f4f4f4"/>
                <path id="_Контур_12" data-name="&lt;Контур&gt;" d="M62.427,439.651v-.624L40.83,426.56v.614Z" transform="translate(-40.83 -409.524)" fill="#dbdbdb"/>
              </g>
              <path id="_Контур_13" data-name="&lt;Контур&gt;" d="M41.38,426.638V411.06l.256.154v15.292Z" transform="translate(-40.817 -409.889)" fill="#1e3779"/>
              <path id="_Контур_14" data-name="&lt;Контур&gt;" d="M41.63,411.21V426.5l20.092,11.566V422.807Z" transform="translate(-40.811 -409.885)" fill="#3a2c6d"/>
              <path id="_Контур_15" data-name="&lt;Контур&gt;" d="M41.38,426.283l20.348,11.74v-.307L41.636,426.15Z" transform="translate(-40.817 -409.534)" fill="#031f60"/>
            </g>
          </g>
        </g>
      </g>
      <path id="_Контур_16" data-name="&lt;Контур&gt;" d="M18.883,407.56c-.512,1.279.788,2.845,4.268,3.941s3.8-.307,3.8-.307a69.738,69.738,0,0,1,6.776,3.48c2.047,1.464,3.009,5.691,3.3,12.835.328,8.26.348,20.471.082,22.631,0,0-3.91,3.889-8.9,3.48s-13.408-4.831-15.455-8.25c.061-7.247.9-8.424-.266-12.6-2.682-9.55-4.094-13.46-2.794-19.806,1.075-5.23,2.579-5.885,4.647-5.834a43.13,43.13,0,0,1,4.555.43Z" transform="translate(-6.948 -385.14)" fill="#f4f4f4"/>
      <path id="_Контур_17" data-name="&lt;Контур&gt;" d="M44.773,436.182c-4.094,1.024-5.067-1.556-5.609-3.695-1.3-5.189-2.047-9.867-2.979-12.815-1.146-3.47-2.344-4.023-4.033-4.7-1.975-.8-3.685.88-3.019,5.292a88.2,88.2,0,0,0,3.756,15.087c.512,1.617,1.658,4.483,3.367,5.875,2.119,1.709,5.3,1.638,10.123.43,2.047-.512,4.319-1.74,8.188-3.552,1.024-.491,1.853-.809,3.859-1.75a13.654,13.654,0,0,0,5.118-4.012c1.024-1.515,1.187-2.231,1.024-2.579s-.747-.338-1.31.3a10.84,10.84,0,0,1-2.948,2.733s1.3-1.341,2-2.211a10.708,10.708,0,0,0,1.556-2.528c.368-.891-.4-2.1-1.024-1.464s-.86,1.279-1.924,2.549a11.016,11.016,0,0,1-1.894,1.812,20.7,20.7,0,0,0,1.75-2.815,4.678,4.678,0,0,0,.635-2.549c0-.461-.686-1.024-1.3-.133a16.766,16.766,0,0,1-2.2,3.367c-.942.972-1.73,1.525-1.76,1.259s.573-.8.9-1.935,0-2.334-.624-2.456-.5-.1-1.024.962a30,30,0,0,0-1.832,3.388,7.083,7.083,0,0,1-1.689,2.907C50.9,434.012,48.673,435.2,44.773,436.182Z" transform="translate(-6.482 -384.96)" fill="#ffcea9"/>
      <path id="_Контур_18" data-name="&lt;Контур&gt;" d="M30.667,414.282c2.733-.409,4.667.829,5.885,4.974S38.6,426.82,38.6,426.82a7.482,7.482,0,0,1-4.6,3.071c-3.275.8-4.452-.768-4.452-.768s-.911-4.35-1.474-7.308S27.279,414.783,30.667,414.282Z" transform="translate(-6.512 -384.973)" fill="#ededed"/>
      <path id="Path_672" data-name="Path 672" d="M32.3,393.705s4.33-6.581-5.056-7.922c-6.766-.972-11.105,3.378-11.607,8.1-.481,4.5,2.293,9.212,4.3,11.034a8.188,8.188,0,0,0,5.844-.706,33.984,33.984,0,0,0,.123-3.685S22.612,393.583,32.3,393.705Z" transform="translate(-6.798 -385.646)" fill="#3a2c6d"/>
    </g>
    <path id="Path_1368" data-name="Path 1368" d="M50.621,475.315V455.55L34.93,464.711l6.039,12.5Z" transform="translate(73.059 -15.272)" fill="#d5d6e0"/>
    <path id="Path_1369" data-name="Path 1369" d="M40.21,456.74l6.018-3.49,4.268,2.456-6.244,3.541Z" transform="translate(73.182 -15.327)" fill="#e9eaf4"/>
  </g>
</svg>
