<svg xmlns="http://www.w3.org/2000/svg" width="422.956" height="344.844" viewBox="0 0 422.956 344.844">
  <g id="undraw_clean_up_ucm0" transform="translate(0 0)">
    <path id="Path_408" data-name="Path 408" d="M641.886,639.97c7.4,26.333-63.8,86.5-189.071,52.912-100.858-27.042-189.071-38.5-189.071-52.912s84.65.706,189.071.706S637.987,626.091,641.886,639.97Z" transform="translate(-241.39 -357.975)" fill="#f2f9f9"/>
    <path id="Path_409" data-name="Path 409" d="M641.886,639.97c7.4,26.333-63.8,86.5-189.071,52.912-100.858-27.042-189.071-38.5-189.071-52.912s84.65.706,189.071.706S637.987,626.091,641.886,639.97Z" transform="translate(-241.39 -357.975)" fill="#2b2839" opacity="0.1"/>
    <path id="Path_410" data-name="Path 410" d="M641.886,624.509c7.4,26.333-63.8,59.69-189.071,26.1-100.858-27.042-189.071-11.687-189.071-26.1s84.65-26.1,189.071-26.1S637.987,610.629,641.886,624.509Z" transform="translate(-241.39 -342.514)" fill="#f2f9f9"/>
    <ellipse id="Ellipse_50" data-name="Ellipse 50" cx="14.623" cy="5.062" rx="14.623" ry="5.062" transform="translate(257.598 290.782)" opacity="0.1"/>
    <ellipse id="Ellipse_51" data-name="Ellipse 51" cx="14.623" cy="5.062" rx="14.623" ry="5.062" transform="translate(317.217 290.782)" opacity="0.1"/>
    <ellipse id="Ellipse_52" data-name="Ellipse 52" cx="47.807" cy="12.936" rx="47.807" ry="12.936" transform="translate(163.67 260.41)" opacity="0.1"/>
    <path id="Path_411" data-name="Path 411" d="M646.956,377.415V143.44H224V377.415H419.167v31.277c-9.748,1.167-16.311,3.346-16.311,5.844,0,3.728,14.605,6.749,32.622,6.749s32.622-3.022,32.622-6.749c0-2.5-6.563-4.677-16.311-5.844V377.415Z" transform="translate(-224 -143.44)" fill="#f2f9f9"/>
    <rect id="Rectangle_199" data-name="Rectangle 199" width="379.085" height="209.707" transform="translate(21.935 8.197)" fill="#56535e"/>
    <path id="Path_412" data-name="Path 412" d="M642.085,158.44s-157.483,16.311-186.168,79.3S263,367.668,263,367.668H642.085Z" transform="translate(-241.065 -150.003)" opacity="0.1"/>
    <path id="Path_413" data-name="Path 413" d="M764.649,336.44v15.55H706.441v-14.6h-1.687V523.733h1.687v-33.36h58.208v33.36h1.688V336.44Zm0,17.238v25.651H706.441V353.678Zm-58.208,80.329V408.356h58.208v25.651Zm58.208,1.687v25.651H706.441V435.695Zm-58.208-29.026V381.017h58.208v25.652Zm0,82.017V463.033h58.208v25.652Z" transform="translate(-434.358 -227.889)" fill="#2b2839"/>
    <path id="Path_414" data-name="Path 414" d="M672.79,343.023v2.331s-1.665.666-1.665,3.33-1.332,12.653-1.332,12.653,2.331,2,4.329,1.332a8.134,8.134,0,0,0,3-1.665l.333-10.322-1.332-2.664v-4.662Z" transform="translate(-419.061 -230.769)" fill="#2b2839"/>
    <path id="Path_415" data-name="Path 415" d="M780.269,178.44s-5.791.666-5.791,3.33-4.633,12.653-4.633,12.653,8.107,2,15.056,1.332a64.09,64.09,0,0,0,10.424-1.665l1.158-10.322-4.633-2.664Z" transform="translate(-462.84 -158.754)" fill="#2b2839"/>
    <path id="Path_416" data-name="Path 416" d="M786.625,204.079v-6.327s-6.992-13.985-1.332-13.985,6.326,12.653,6.326,12.653v8.99Z" transform="translate(-468.632 -161.085)" fill="#ffb8b8"/>
    <path id="Path_417" data-name="Path 417" d="M678.4,337s-3.663-2-4.329,0-2.664,6.327,0,6.66,5.328-2,5.328-2Z" transform="translate(-420.345 -227.747)" fill="#ffb8b8"/>
    <path id="Path_418" data-name="Path 418" d="M714.345,359.511s-2.005,2.648.9,28.482,1.233,44.644,6.755,44.387c0,0-1.441,5.6,3.251,5.808s6.837.532,7.2-.762.937-7.281-.337-7.222c0,0,.079,1.7.612-5.137s-.975-39.122.951-43.469l7.531,15.4s.337,7.222,1.77,10.561,4.469,22.781,4.469,22.781l-.286,2.993s10.275,1.223,10.62-.5a10.213,10.213,0,0,0-.238-5.1c-.464-.83-.464-.83.306-2.569a5.15,5.15,0,0,0,.227-4.268c-.484-1.255-1.774-28.867-1.774-28.867s-2.416-33.52-7.594-34.981S714.345,359.511,714.345,359.511Z" transform="translate(-438.26 -236.766)" fill="#2f2e41"/>
    <path id="Path_419" data-name="Path 419" d="M725.184,495.659l-3.121,6.106s-5.4-1.664-4.109,3.172a84.98,84.98,0,0,0,15.5-.936s2.164.75,2.529-.544-1.33-5.685-2.6-5.626S725.184,495.659,725.184,495.659Z" transform="translate(-440.047 -297.556)" fill="#2f2e41"/>
    <path id="Path_420" data-name="Path 420" d="M773.021,489.15s-3.042,7.805-1.747,8.171,12.843,1.529,13.713,1.914,5.137.612,5.443-1.957a3.128,3.128,0,0,0-2.283-3.3s-4.713-.631-6.185-4.82S773.021,489.15,773.021,489.15Z" transform="translate(-463.325 -293.896)" fill="#2f2e41"/>
    <circle id="Ellipse_53" data-name="Ellipse 53" cx="8.895" cy="8.895" r="8.895" transform="translate(271.964 41.627)" fill="#ffb8b8"/>
    <path id="Path_421" data-name="Path 421" d="M715.033,238.912s2.341,12.172,1.4,14.512,13.108-.936,13.108-.936-2.809-12.172-2.341-14.981S715.033,238.912,715.033,238.912Z" transform="translate(-438.856 -184.177)" fill="#ffb8b8"/>
    <path id="Path_422" data-name="Path 422" d="M714.992,213.668a5.028,5.028,0,0,0-2.225.1,5.8,5.8,0,0,0-1.581,1.037,18.512,18.512,0,0,1-2.7,1.791,6.309,6.309,0,0,0-2.1,1.475,4.474,4.474,0,0,0-.594,1.124,13.467,13.467,0,0,0-.708,7.329,3.372,3.372,0,0,0,.312,1.006c.487.9,1.561,1.25,2.466,1.72a21.075,21.075,0,0,1,4.431,3.722,8.668,8.668,0,0,0,1.751,1.349c2.011,1.1,4.469.739,6.727.351a1.212,1.212,0,0,0,1.21-1.224l1.782-8.015a13.068,13.068,0,0,0,.457-3.645,10.374,10.374,0,0,0-2.605-6.023C719.944,214.155,717.167,213.9,714.992,213.668Z" transform="translate(-434.404 -174.133)" fill="#2f2e41"/>
    <path id="Path_423" data-name="Path 423" d="M703.723,262.892s.666-4.662,4.662-4.995a32.936,32.936,0,0,0,6.66-1.332c.333,0,4.662.333,6.66,2.331,0,0,1.332,2,2,.666s.666-2,2-1.332,1.332-2,3.663-1.665,8.325,15.317,8.325,15.317l-2,2.331s-2.664,17.981,2,25.639,6.659,15.983,2,17.648-37.294,16.649-35.962,7.326.333-23.975-1-24.307-8.657-26.638-8.657-26.638a10.343,10.343,0,0,1,5.994-7.659C705.388,263.891,703.723,262.892,703.723,262.892Z" transform="translate(-429.682 -192.926)" fill="#c73c3c"/>
    <path id="Path_424" data-name="Path 424" d="M753.86,240.3l1.665-1.332s3,0,3.33-.666,2-.666,3.33-1.332-.333-1.665,1.332-2.331,1.665,0,1.665-1.665,4.329-3.33,4.662-5.328,3.663-11.321,3.663-11.321l6.327,2-1.665,11.987s0,5.994-3,9.989-9.656,13.985-12.986,14.318S753.86,240.3,753.86,240.3Z" transform="translate(-455.845 -175.333)" fill="#c73c3c"/>
    <path id="Path_425" data-name="Path 425" d="M690.624,284.412l-2,1.665s-.666,7.326-.666,7.659.666,4.329,0,4.662-2,6.993-1.665,7.326h0v1l-4.662,7.326v6.993l10.988-6.993s6.327-.666,5.328-6.327S690.624,284.412,690.624,284.412Z" transform="translate(-424.242 -205.123)" fill="#c73c3c"/>
    <circle id="Ellipse_54" data-name="Ellipse 54" cx="6.187" cy="6.187" r="6.187" transform="translate(205.291 221.602)" fill="#2b2839"/>
  </g>
</svg>
