<svg xmlns="http://www.w3.org/2000/svg" width="420.125" height="504" viewBox="0 0 420.125 504">
  <g id="undraw_process_e90d" transform="translate(-369)">
    <path id="Path_260" data-name="Path 260" d="M0,0,56.7,22.918,90.72,36.669" transform="translate(550.354 106.262)" fill="#2b2839" stroke="#2b2839" stroke-width="2"/>
    <path id="Path_245" data-name="Path 245" d="M612.966,148.152l1.358-.634-3.132-6.688,6.9-2.635-.536-1.4-8.4,3.21Z" transform="translate(-60.306 -34.351)" fill="#2b2839" stroke="#2b2839" stroke-width="1"/>
    <path id="Path_246" data-name="Path 246" d="M722.916,192.15l-.536-1.4,6.9-2.634-3.131-6.689,1.358-.634,3.812,8.148Z" transform="translate(-88.739 -45.4)" fill="#2b2839" stroke="#2b2839" stroke-width="1"/>
    <path id="Path_259" data-name="Path 259" d="M8.238,0A8.238,8.238,0,1,1,0,8.238,8.238,8.238,0,0,1,8.238,0Z" transform="translate(587.476 116.358)" fill="#2b2839" stroke="#2b2839" stroke-width="1"/>
    <line id="Line_21" data-name="Line 21" y1="50.888" x2="83.578" transform="translate(543.441 309.589)" fill="none" stroke="#2b2839" stroke-miterlimit="10" stroke-width="2"/>
    <path id="Path_247" data-name="Path 247" d="M608.893,481.382l.3-1.469-7.235-1.481,2.005-7.108-1.443-.406-2.441,8.658Z" transform="translate(-58.028 -118.255)" fill="#2b2839" stroke="#2b2839" stroke-width="1"/>
    <path id="Path_248" data-name="Path 248" d="M709.893,420.325l-1.443-.406,2.006-7.107-7.236-1.482.3-1.468,8.812,1.806Z" transform="translate(-83.927 -102.922)" fill="#2b2839" stroke="#2b2839" stroke-width="1"/>
    <circle id="Ellipse_41" data-name="Ellipse 41" cx="8.238" cy="8.238" r="8.238" transform="translate(576.992 326.795)" fill="#2b2839" stroke="#2b2839" stroke-width="1"/>
    <line id="Line_22" data-name="Line 22" x2="0.029" y2="97.851" transform="translate(438.434 199.237)" fill="none" stroke="#2b2839" stroke-miterlimit="10" stroke-width="2"/>
    <path id="Path_249" data-name="Path 249" d="M453.538,270.464l1.1,1.021,5.026-5.411,5.03,5.408,1.1-1.022-6.127-6.586Z" transform="translate(-21.229 -66.263)" fill="#2b2839" stroke="#2b2839" stroke-width="1"/>
    <path id="Path_250" data-name="Path 250" d="M453.573,389.738l1.1-1.022,5.029,5.408,5.027-5.411,1.1,1.021-6.124,6.589Z" transform="translate(-21.237 -97.611)" fill="#2b2839" stroke="#2b2839" stroke-width="1"/>
    <circle id="Ellipse_42" data-name="Ellipse 42" cx="8.238" cy="8.238" r="8.238" transform="translate(430.21 239.924)" fill="#2b2839" stroke="#2b2839" stroke-width="1"/>
    <rect id="Rectangle_150" data-name="Rectangle 150" width="136" height="169" transform="translate(369)" fill="#2b2839"/>
    <path id="Path_251" data-name="Path 251" d="M572.718,127.767H541.786a108.184,108.184,0,0,1,0-36.88h30.932A66.359,66.359,0,0,0,572.718,127.767Z" transform="translate(-144.091 -64.761)" fill="#c73c3c"/>
    <path id="Path_252" data-name="Path 252" d="M606.379,152.745h30.932a108.188,108.188,0,0,0,0-36.88H606.379A66.359,66.359,0,0,1,606.379,152.745Z" transform="translate(-160.709 -71.033)" fill="#f2f9f9"/>
    <path id="Path_253" data-name="Path 253" d="M567.379,234.745h30.932a108.188,108.188,0,0,0,0-36.88H567.379a66.359,66.359,0,0,1,0,36.88Z" transform="translate(-150.915 -91.624)" fill="#f2f9f9"/>
    <path id="Path_255" data-name="Path 255" d="M0,0H136.3V169.248H0Z" transform="translate(652.828 161.01)" fill="#2b2839"/>
    <rect id="Rectangle_152" data-name="Rectangle 152" width="98" height="4" transform="translate(672 197)" fill="#f2f9f9"/>
    <rect id="Rectangle_153" data-name="Rectangle 153" width="98" height="4" transform="translate(672 213)" fill="#f2f9f9"/>
    <rect id="Rectangle_154" data-name="Rectangle 154" width="98" height="5" transform="translate(672 228)" fill="#f2f9f9"/>
    <rect id="Rectangle_155" data-name="Rectangle 155" width="98" height="5" transform="translate(672 244)" fill="#f2f9f9"/>
    <rect id="Rectangle_156" data-name="Rectangle 156" width="98" height="4" transform="translate(672 260)" fill="#f2f9f9"/>
    <rect id="Rectangle_157" data-name="Rectangle 157" width="50" height="18" transform="translate(696 276)" fill="#f2f9f9"/>
    <path id="Path_256" data-name="Path 256" d="M0,0H136.3V169.248H0Z" transform="translate(380.982 334.752)" fill="#2b2839"/>
    <rect id="Rectangle_159" data-name="Rectangle 159" width="97.355" height="4.493" transform="translate(400.676 428.966)" fill="#f2f9f9"/>
    <rect id="Rectangle_160" data-name="Rectangle 160" width="97.355" height="4.493" transform="translate(400.676 444.693)" fill="#f2f9f9"/>
    <rect id="Rectangle_161" data-name="Rectangle 161" width="97.355" height="4.493" transform="translate(400.676 460.419)" fill="#f2f9f9"/>
    <rect id="Rectangle_162" data-name="Rectangle 162" width="97.355" height="4.493" transform="translate(400.676 476.146)" fill="#f2f9f9"/>
    <path id="Path_254" data-name="Path 254" d="M575.218,571.074H544.286a108.185,108.185,0,0,1,0-36.88h30.932A66.361,66.361,0,0,0,575.218,571.074Z" transform="translate(-144.719 -176.081)" fill="#f2f9f9"/>
    <rect id="Rectangle_164" data-name="Rectangle 164" width="56.915" height="3.744" transform="translate(443.362 375.046)" fill="#f2f9f9"/>
    <rect id="Rectangle_165" data-name="Rectangle 165" width="56.915" height="3.744" transform="translate(443.362 388.526)" fill="#f2f9f9"/>
    <rect id="Rectangle_163" data-name="Rectangle 163" width="56.915" height="3.744" transform="translate(443.362 361.566)" fill="#f2f9f9"/>
    <rect id="Rectangle_166" data-name="Rectangle 166" width="56.915" height="3.744" transform="translate(443.362 402.006)" fill="#f2f9f9"/>
  </g>
</svg>
